;TYPE=PLATED
;Layer: PTH_Through
;EasyEDA Pro Client v2.1.57.773a98f1.225d47, 2025-02-25 21:56:39
;Gerber Generator version 0.3
M48
METRIC,LZ,000.00000
;Hole size 1 = 0.30480 METRIC
T01C0.30480
;Hole size 2 = 0.30500 METRIC
T02C0.30500
;Hole size 3 = 1.00000 METRIC
T03C1.00000
;Hole size 4 = 1.10002 METRIC
T04C1.10002
;Hole size 5 = 1.80000 METRIC
T05C1.80000
;Hole size 6 = 2.20000 METRIC
T06C2.20000
%
G05
G90
T01
X12615975Y04027992
X12618975Y04127992
X12615975Y04227992
X12615975Y04326460
X12615975Y04427991
X12615975Y04527991
X12615975Y04627991
X12615975Y04727991
X12615975Y04827990
X12615975Y04927990
X12715975Y04027979
X12718974Y04127979
X12715975Y04227979
X12715975Y04326447
X12715975Y04427978
X12715975Y04527978
X12715975Y04627978
X12715975Y04727978
X12715975Y04827978
X12715975Y04927977
X12815974Y04027979
X12818974Y04127979
X12815974Y04227979
X12815974Y04326447
X12815974Y04427978
X12815974Y04527978
X12815974Y04627978
X12815974Y04727978
X12815974Y04827978
X12815974Y04927977
X12915961Y04027979
X12918961Y04127979
X12915961Y04227979
X12915961Y04326447
X12915961Y04427978
X12915961Y04527978
X12915961Y04627978
X12915961Y04727978
X12915961Y04827978
X12915961Y04927977
X06278998Y04897999
X06275998Y04798000
X06278998Y04698000
X06278998Y04599532
X06278998Y04498000
X06278998Y04398000
X06278998Y04298001
X06278998Y04198001
X06278998Y04098001
X06278998Y03998001
X06178998Y04898012
X06175999Y04798012
X06178998Y04698012
X06178998Y04599544
X06178998Y04498013
X06178998Y04398013
X06178998Y04298013
X06178998Y04198013
X06178998Y04098014
X06178998Y03998014
X06078999Y04898012
X06075999Y04798012
X06078999Y04698012
X06078999Y04599544
X06078999Y04498013
X06078999Y04398013
X06078999Y04298013
X06078999Y04198013
X06078999Y04098014
X06078999Y03998014
X05979011Y04898012
X05976012Y04798012
X05979011Y04698012
X05979011Y04599544
X05979011Y04498013
X05979011Y04398013
X05979011Y04298013
X05979011Y04198013
X05979011Y04098014
X05979011Y03998014
T02
X10166984Y02256007
X10191984Y02107007
X11033950Y00821160
X11036274Y01483258
X13754972Y-00223000
X13719973Y-01113998
X12824976Y-00297999
X13268973Y-00960998
X11795007Y04744999
X11799007Y04854999
X11809007Y04036001
X11809160Y03958001
X11845809Y04797999
X11887006Y04922999
X11894507Y04415515
X11894507Y04288515
X11894507Y04035754
X11895006Y03958001
X11913320Y04669515
X11919006Y04797999
X11938006Y04164000
X12002875Y05633990
X12002875Y05764166
X12005013Y05509003
X12011819Y03352072
X12011819Y03482248
X12013957Y03227085
X12198405Y05633990
X12198405Y05764166
X12200543Y05509003
X12207349Y03352072
X12207349Y03482248
X12209487Y03227085
X12393935Y05633990
X12393935Y05764166
X12396072Y05509003
X12402878Y03352072
X12402878Y03482248
X12405016Y03227085
X12540480Y03588333
X12546875Y05380323
X12589465Y05633990
X12589465Y05764166
X12591602Y05509003
X12598408Y03352072
X12598408Y03482248
X12600546Y03227085
X12784994Y05633990
X12784994Y05764166
X12785026Y03588333
X12787132Y05509003
X12791421Y05380323
X12793938Y03352072
X12793938Y03482248
X12796076Y03227085
X12980524Y05633990
X12980524Y05764166
X12982662Y05509003
X12989468Y03352072
X12989468Y03482248
X12991606Y03227085
X13029572Y03588333
X13035967Y05380323
X13176054Y05764166
X13176054Y05633990
X13178192Y05509003
X13184998Y03482248
X13184998Y03352072
X13187135Y03227085
X13218004Y04108000
X13218004Y04179001
X13218004Y04037000
X13224004Y04794986
X13224004Y04865986
X13224004Y04723986
X13371584Y05633990
X13371584Y05764166
X13373721Y05509003
X13380527Y03352072
X13380527Y03482248
X13382665Y03227085
X13567113Y05633990
X13567113Y05764166
X13569251Y05509003
X13576057Y03352072
X13576057Y03482248
X13578195Y03227085
X13615003Y03797001
X13641555Y04164000
X13651003Y04667999
X13652003Y04543000
X13654973Y04921992
X13898002Y03806001
X13900002Y03930001
X13904141Y04415515
X13904141Y04287208
X13975972Y03929992
X13975977Y03806001
X11785976Y05046990
X11035978Y04490991
X10859978Y04490991
X11388808Y04073998
X05025955Y01576005
X05618882Y01582020
X05613698Y02030025
X05046132Y02031007
X05057559Y02600005
X06164909Y02030021
X06172878Y02600005
X05618414Y02600005
X13263152Y02602994
X12680361Y02602967
X12685975Y02112980
X13805972Y02075996
X13249974Y02110996
X12693928Y01602982
X13822972Y02604991
X13250302Y01604479
X11437977Y03654993
X11310977Y03656993
X11511977Y03834992
X11065978Y03831992
X10920978Y03831992
X10857978Y03997992
X11031978Y04072992
X11152978Y03978992
X11176978Y04659991
X10875006Y04886705
X09006983Y05770988
X08763983Y05917988
X08651484Y05920988
X08538984Y05921988
X08254097Y05921988
X08146541Y05921988
X08038985Y05921988
X08027485Y04719814
X08252484Y04715814
X08139984Y04716814
X08538427Y04719314
X08753540Y04719314
X08645983Y04719314
X07791979Y05262993
X07790979Y05182993
X07789979Y05102993
X05012997Y05121999
X05012997Y05204999
X05006858Y04512485
X05006858Y04640792
X04935022Y05204999
X04935022Y05121999
X06897042Y05700915
X05919393Y05700915
X06701512Y05700915
X05332804Y05700915
X06310453Y05700915
X05723864Y05700915
X06505983Y05700915
X05528334Y05700915
X06114923Y05700915
X06899180Y05575929
X05921531Y05575929
X06703650Y05575929
X05334942Y05575929
X06312591Y05575929
X05726002Y05575929
X06508121Y05575929
X05530472Y05575929
X06117061Y05575929
X06905986Y03418997
X05928337Y03418997
X06710456Y03418997
X05341748Y03418997
X06319397Y03418997
X05537278Y03418997
X06514927Y03418997
X05732807Y03418997
X06123867Y03418997
X06908124Y03294011
X05930475Y03294011
X06712594Y03294011
X05343886Y03294011
X06321534Y03294011
X05539415Y03294011
X06517064Y03294011
X05734945Y03294011
X06126005Y03294011
X06908124Y03163835
X05930475Y03163835
X06712594Y03163835
X05343886Y03163835
X06321534Y03163835
X05539415Y03163835
X06517064Y03163835
X07101992Y04892000
X05692995Y04891000
X07624985Y04812990
X05692995Y04820000
X06899180Y05445753
X05921531Y05445753
X06703650Y05445753
X05334942Y05445753
X06312591Y05445753
X05530472Y05445753
X06508121Y05445753
X05726002Y05445753
X06117061Y05445753
X06370519Y05339667
X05881427Y05339667
X06125973Y05339667
X05269444Y04764000
X06972993Y04764000
X05692995Y04749000
X06997679Y04258485
X05686995Y04204014
X05258996Y04385001
X05259996Y04260001
X05256026Y04006009
X07023993Y04005002
X07016986Y04646991
X07016492Y04512485
X05295996Y05130999
X08388983Y03430993
X07101839Y04970000
X07015993Y04970000
X07016492Y04892246
X05686995Y04133014
X06569987Y04129992
X05734945Y03163835
X06126005Y03163835
X06579987Y03785992
X06364124Y03547677
X05875032Y03547677
X06119578Y03547677
X08122978Y03741288
X07821007Y03968002
X08138006Y04137001
X07962006Y04137001
X07494452Y03595557
X07358985Y03601993
X07754970Y04610982
X08161969Y04615982
X07965970Y04536982
X05686995Y04062014
X08719983Y03248994
X08640983Y03248994
X09527981Y03288993
X10168980Y03273993
X10169976Y02868361
X10308979Y02999994
X09329981Y03417993
X07102214Y05340725
X07144986Y05562989
X06984986Y05938988
X08399998Y03269000
X07742985Y03424993
X07869984Y03424993
X07621985Y03577993
X06691987Y03649993
X07760984Y04911990
X08337145Y04483009
X10675979Y02811994
X10464979Y02883994
X08841851Y-01006820
X08853093Y-00344033
X05035990Y-00145882
X05246990Y-01156880
X05128990Y-00811998
X05128990Y-00611999
X06940321Y00355235
X07702321Y00355235
X07187821Y00917493
X06772822Y00917493
X06767002Y00780998
X07437820Y01022721
X07593985Y01023998
X07859984Y00911998
X05509824Y-00909503
X05513824Y-00470504
X05972823Y-00447504
X06122823Y-00447504
X06197823Y-00062505
X07701820Y-00229504
X05726824Y-00195505
X05832988Y-00182000
X06270987Y-00182000
X07512820Y-01177503
X07652820Y-01007503
X07332820Y-01177503
X06576822Y-00909503
X06939821Y-00229504
X06365822Y-00195505
X06579822Y-00471504
X07073001Y-00878998
X06812002Y-00879998
X07372831Y-01007503
X06935002Y-00606999
X13314974Y00502999
X13054975Y00501999
X14002972Y00839998
X14250008Y01500001
X07993984Y02503995
X08250983Y02503995
X11565977Y02740995
X11821976Y02740995
X11060978Y02740995
X07486985Y02503995
X07241986Y02213996
X07145649Y02067992
X10730006Y02280001
X10826978Y02396995
X10516529Y01577443
X10021980Y01039998
X08924982Y01265997
X09350005Y00720000
X08795982Y01132998
X09344981Y01656997
X09772980Y01144998
X09318971Y04574833
X09206471Y04575833
X09093971Y04578833
X08896982Y00852998
X09759980Y01701997
X10290006Y00590000
X09580981Y-00132000
X10930006Y00660000
X10822740Y00386506
X09951452Y-00315711
X09682383Y-00219335
X10159980Y00486999
X10028980Y00370999
X10085980Y00425999
X07614985Y02095996
X07742985Y02095996
X07870984Y02095996
X07773984Y05544989
X06569987Y04039995
X06508928Y03978936
X11215978Y02301995
X11311977Y02301995
X11438977Y02301995
X10092980Y00842998
X10082980Y00717999
X09965980Y00297999
X08672983Y-01013000
X08688034Y-00355813
X09863808Y01976641
X08959982Y-00733001
X08979982Y-00071999
X09464981Y00816998
X09934980Y-00748999
X09890980Y00926998
X09370981Y00054000
X09437981Y-00025000
X13123974Y-00167000
X09412981Y02690995
X09036982Y00447999
X09081982Y00373999
X09393981Y00605999
X09164982Y00312999
X09463981Y00541999
X09240005Y00250000
X09532981Y00468999
X12769974Y01137998
X12769974Y00883998
X12335975Y00867998
X12506975Y-00468999
X12518975Y-00596999
X12504975Y-00850998
X12445975Y01175998
X09291981Y00142000
X09324034Y02688995
X09235087Y02688995
X14362971Y04755991
X14812971Y04755991
X14512971Y04755991
X14662971Y04755991
X14056971Y04125992
X14662971Y04605991
X14212971Y04755991
X14812971Y04605991
X14056971Y03975992
X14212971Y04605991
X14362971Y04605991
X14512971Y04605991
X14056971Y03825992
X14212971Y04455991
X14362971Y04455991
X14512971Y04455991
X14662971Y04455991
X14812971Y04455991
X14180972Y05541989
X14030972Y05541989
X14304971Y05538989
X14304971Y05688989
X14030972Y05691989
X14030972Y05841989
X14304971Y05838989
X14180972Y05841989
X14180972Y05691989
X04162857Y04063068
X04312857Y04063068
X04462857Y04063068
X04612857Y04063068
X04762857Y04063068
X04762857Y04213068
X04762857Y04363068
X04612857Y04363068
X04612857Y04213068
X04462857Y04213068
X04462857Y04363068
X04312857Y04363068
X04312857Y04213068
X04162857Y04213068
X04162857Y04363068
X04812990Y05658989
X04962990Y05658989
X04962990Y05508989
X04812990Y05508989
X04662990Y05508989
X04662990Y05658989
X09470160Y01788720
X10394324Y01706714
X10112980Y01607997
X09933980Y01112998
X09871980Y01176998
X10179980Y01799996
X10352979Y01857996
X10150000Y04700000
X10153546Y04810059
X10160980Y04924990
X10293979Y04840990
X10290922Y04947435
X10300979Y05082990
X10438979Y04978990
X10436962Y05093476
X10434979Y05200990
X10572979Y05103990
X10574364Y05200990
X10575979Y05289989
X10685979Y05113990
X10686979Y05286989
X09689246Y05635173
X11180978Y05886988
X11024978Y05886988
X10868978Y05886988
X10858978Y00025000
X10776978Y-00182000
X10617979Y00558999
X11870976Y01696997
X11738835Y01100024
X12151375Y01099996
X12164976Y01449997
X11657977Y01470997
X11484977Y00702999
X11695977Y00384999
X11586977Y00785998
X11717977Y00651999
T03
X10428981Y03766992
X10174981Y03766992
X09920981Y03766992
X09412981Y03766992
X09158981Y03766992
X08904981Y03766992
X08650981Y03766992
X11899976Y00747999
X11899976Y-00012000
T04
X10231005Y-01084000
X09977005Y-01084000
X09723005Y-01084000
X09469005Y-01084000
X14521988Y05189990
X14521988Y05689989
X04460999Y05642989
X04460999Y05142990
X09683993Y05636991
X10783991Y05636991
X04588000Y02224000
X04334000Y02224000
X04588000Y02478000
X04334000Y02478000
X04588000Y02732000
X04334000Y02732000
X04588000Y02986000
X04334000Y02986000
X04588000Y03240000
X04334000Y03240000
X04588000Y03494000
X04334000Y03494000
X04588000Y03748000
X04334000Y03748000
X14396971Y03738994
X14650971Y03738994
X14396971Y03484994
X14650971Y03484994
X14396971Y03230994
X14650971Y03230994
X14396971Y02976994
X14650971Y02976994
X14396971Y02722994
X14650971Y02722994
X14396971Y02468994
X14650971Y02468994
X14396971Y02214994
X14650971Y02214994
X04459991Y00700118
X04459991Y00200119
X14522971Y00260000
X14522971Y00759999
X04460000Y-00451880
X04460000Y-00951879
X14521971Y-00891998
X14521971Y-00391999
T05
X10483992Y04636991
X09983993Y04636991
T06
X07375998Y04407991
X06217000Y00931998
X12804987Y00076000
M30