G04 Layer: BottomSilkscreenLayer*
G04 EasyEDA Pro v2.1.57.773a98f1.225d47, 2025-02-25 21:56:38*
G04 Gerber Generator version 0.3*
G04 Scale: 100 percent, Rotated: No, Reflected: No*
G04 Dimensions in millimeters*
G04 Leading zeros omitted, absolute positions, 3 integers and 5 decimals*
%FSLAX35Y35*%
%MOMM*%
%ADD10C,0.254*%
G75*


G04 Text Start*
G36*
G01X14760143Y-340004D02*
G01X14760143Y-359410D01*
G01X14776501D01*
G01X14798040D01*
G01X14836496D01*
G01X14861083D01*
G01X14885924Y-359715D01*
G01X14886229Y-381203D01*
G01X14885924Y-405130D01*
G01X14885314Y-408788D01*
G01X14884705Y-411531D01*
G01X14883790Y-414223D01*
G01X14882571Y-416662D01*
G01X14881047Y-419405D01*
G01X14879523Y-421538D01*
G01X14878050Y-423012D01*
G01X14875916Y-424536D01*
G01X14873478Y-426060D01*
G01X14870735Y-427279D01*
G01X14868347Y-428193D01*
G01X14863166Y-428498D01*
G01X14856816Y-428193D01*
G01X14852904Y-427279D01*
G01X14850161Y-426060D01*
G01X14847722Y-424840D01*
G01X14845589Y-423316D01*
G01X14842592Y-420319D01*
G01X14841372Y-418795D01*
G01X14840153Y-416662D01*
G01X14838934Y-413918D01*
G01X14838020Y-410921D01*
G01X14837410Y-408178D01*
G01X14836800Y-403352D01*
G01X14836496Y-380898D01*
G01Y-359410D01*
G01X14798040D01*
G01X14819833Y-359715D01*
G01X14820138Y-376377D01*
G01X14819833Y-393649D01*
G01X14819528Y-397256D01*
G01X14819224Y-402133D01*
G01X14818614Y-405740D01*
G01X14818055Y-408178D01*
G01X14817141Y-410921D01*
G01X14815617Y-413918D01*
G01X14814093Y-416052D01*
G01X14812874Y-417576D01*
G01X14810740Y-419405D01*
G01X14807743Y-421234D01*
G01X14805304Y-422097D01*
G01X14801037Y-422707D01*
G01X14797430D01*
G01X14793163Y-422097D01*
G01X14789861Y-421234D01*
G01X14787118Y-420014D01*
G01X14784984Y-418795D01*
G01X14783206Y-417271D01*
G01X14781682Y-415747D01*
G01X14780158Y-413614D01*
G01X14778939Y-411226D01*
G01X14778025Y-408788D01*
G01X14777415Y-406349D01*
G01X14776806Y-400914D01*
G01X14776501Y-379679D01*
G01Y-359410D01*
G01X14760143D01*
G01Y-370586D01*
G01X14760448Y-403962D01*
G01X14761058Y-408788D01*
G01X14761667Y-411836D01*
G01X14762277Y-414528D01*
G01X14763191Y-417576D01*
G01X14764410Y-420624D01*
G01X14765630Y-423316D01*
G01X14767103Y-425755D01*
G01X14768627Y-427888D01*
G01X14769846Y-429412D01*
G01X14774418Y-433934D01*
G01X14776501Y-435458D01*
G01X14778939Y-436982D01*
G01X14781073Y-438201D01*
G01X14783206Y-439064D01*
G01X14785594Y-439979D01*
G01X14788642Y-440893D01*
G01X14791385Y-441503D01*
G01X14794687Y-441808D01*
G01X14799259Y-441503D01*
G01X14802866Y-440893D01*
G01X14806219Y-439979D01*
G01X14809572Y-438810D01*
G01X14812569Y-437286D01*
G01X14816836Y-434238D01*
G01X14818919Y-432410D01*
G01X14820443Y-430886D01*
G01X14822272Y-428803D01*
G01X14824100Y-426060D01*
G01X14825320Y-423926D01*
G01X14825777Y-423316D01*
G01X14826539D01*
G01X14828012Y-425450D01*
G01X14829231Y-428193D01*
G01X14830450Y-430581D01*
G01X14831974Y-433324D01*
G01X14833498Y-435458D01*
G01X14835886Y-438506D01*
G01X14837410Y-439979D01*
G01X14838934Y-441198D01*
G01X14841068Y-442722D01*
G01X14843506Y-444246D01*
G01X14845894Y-445465D01*
G01X14848637Y-446684D01*
G01X14851685Y-447599D01*
G01X14854377Y-448158D01*
G01X14859864Y-448462D01*
G01X14867128Y-448158D01*
G01X14871954Y-447294D01*
G01X14875916Y-446075D01*
G01X14878660Y-444856D01*
G01X14884095Y-442112D01*
G01X14886229Y-440588D01*
G01X14887753Y-439674D01*
G01X14889226Y-438506D01*
G01X14892274Y-435458D01*
G01X14893798Y-433324D01*
G01X14895322Y-430886D01*
G01X14896795Y-428193D01*
G01X14898319Y-425145D01*
G01X14899538Y-421792D01*
G01X14900453Y-419100D01*
G01X14901672Y-413004D01*
G01X14902282Y-408178D01*
G01X14902586Y-373634D01*
G01Y-340004D01*
G37*
G36*
G01X14899437Y-832612D02*
G01X14896389Y-833222D01*
G01X14893341Y-834441D01*
G01X14890039Y-835609D01*
G01X14883994Y-838048D01*
G01X14880641Y-839267D01*
G01X14877593Y-840486D01*
G01X14874291Y-841705D01*
G01X14868195Y-844144D01*
G01X14864893Y-845312D01*
G01X14861845Y-846531D01*
G01X14858492Y-847750D01*
G01X14852447Y-850189D01*
G01X14849145Y-851408D01*
G01X14846097Y-852627D01*
G01X14842744Y-853796D01*
G01X14836699Y-856234D01*
G01X14833346Y-857453D01*
G01X14830349Y-858672D01*
G01X14826996Y-859892D01*
G01X14820951Y-862279D01*
G01X14817598Y-863498D01*
G01X14814601Y-864718D01*
G01X14811248Y-865937D01*
G01X14805203Y-868375D01*
G01X14801850Y-869594D01*
G01X14798802Y-870763D01*
G01X14795500Y-871982D01*
G01X14789404Y-874420D01*
G01X14786102Y-875640D01*
G01X14783054Y-876859D01*
G01X14779752Y-878078D01*
G01X14776704Y-879246D01*
G01X14769440Y-881990D01*
G01X14767306Y-882904D01*
G01X14760042Y-885647D01*
G01X14758518Y-885952D01*
G01Y-895960D01*
G01Y-896264D01*
G01X14775180D01*
G01X14775485Y-895706D01*
G01X14777009Y-895350D01*
G01X14781225Y-894436D01*
G01X14784273Y-893521D01*
G01X14787016Y-892912D01*
G01X14790014Y-891997D01*
G01X14800936Y-888340D01*
G01X14825167Y-879246D01*
G01X14828215Y-878078D01*
G01X14834870Y-875640D01*
G01X14837918Y-874420D01*
G01X14840661Y-873506D01*
G01X14842439D01*
G01X14842744Y-896518D01*
G01X14842439Y-920191D01*
G01X14841931Y-920699D01*
G01X14840915Y-920496D01*
G01X14837918Y-919277D01*
G01X14831263Y-916838D01*
G01X14828215Y-915619D01*
G01X14803984Y-906526D01*
G01X14800936Y-905307D01*
G01X14794281Y-902919D01*
G01X14791233Y-901700D01*
G01X14780311Y-898042D01*
G01X14777314Y-897128D01*
G01X14775180Y-896264D01*
G01X14758518D01*
G01X14759127Y-906831D01*
G01X14760956Y-908050D01*
G01X14763039Y-908964D01*
G01X14765782Y-910184D01*
G01X14774875Y-913841D01*
G01X14777618Y-915010D01*
G01X14786712Y-918667D01*
G01X14789404Y-919886D01*
G01X14795500Y-922325D01*
G01X14797888Y-923188D01*
G01X14800021Y-924103D01*
G01X14802764Y-925322D01*
G01X14811858Y-928980D01*
G01X14814601Y-930199D01*
G01X14823643Y-933806D01*
G01X14826386Y-935025D01*
G01X14832432Y-937463D01*
G01X14834870Y-938378D01*
G01X14837004Y-939292D01*
G01X14839747Y-940460D01*
G01X14848840Y-944118D01*
G01X14851532Y-945337D01*
G01X14863674Y-950163D01*
G01X14866417Y-951382D01*
G01X14872462Y-953821D01*
G01X14875205Y-955040D01*
G01X14887296Y-959866D01*
G01X14890039Y-961085D01*
G01X14899132Y-964743D01*
G01X14900961Y-965352D01*
G01Y-954735D01*
G01X14900351Y-943508D01*
G01X14897913Y-942289D01*
G01X14894865Y-941070D01*
G01X14890039Y-939292D01*
G01X14880946Y-935634D01*
G01X14877593Y-934415D01*
G01X14874596Y-933196D01*
G01X14871243Y-931977D01*
G01X14862150Y-928370D01*
G01X14859406Y-927456D01*
G01X14857933Y-927151D01*
G01Y-897433D01*
G01X14858238Y-875030D01*
G01X14859102Y-867156D01*
G01X14861540Y-865937D01*
G01X14864283Y-865022D01*
G01X14869109Y-863194D01*
G01X14871852Y-862279D01*
G01X14874900Y-861111D01*
G01X14878507Y-859892D01*
G01X14881555Y-858672D01*
G01X14884298Y-857758D01*
G01X14889124Y-855929D01*
G01X14891868Y-855015D01*
G01X14896694Y-853186D01*
G01X14899437Y-852322D01*
G01X14900961Y-852018D01*
G01Y-832612D01*
G37*
G36*
G01X4073042Y-385674D02*
G01X4073042Y-396291D01*
G01X4073652Y-407467D01*
G01X4076040Y-408686D01*
G01X4079088Y-409905D01*
G01X4083914Y-411734D01*
G01X4093007Y-415341D01*
G01X4096360Y-416560D01*
G01X4099408Y-417779D01*
G01X4102710Y-418998D01*
G01X4111803Y-422656D01*
G01X4114546Y-423520D01*
G01X4116070Y-423824D01*
G01Y-453542D01*
G01Y-454457D01*
G01X4131208D01*
G01X4131513Y-430835D01*
G01X4132021Y-430276D01*
G01X4133037Y-430530D01*
G01X4136034Y-431749D01*
G01X4142740Y-434137D01*
G01X4145737Y-435356D01*
G01X4169969Y-444449D01*
G01X4173017Y-445668D01*
G01X4179672Y-448107D01*
G01X4182720Y-449326D01*
G01X4193642Y-452933D01*
G01X4196639Y-453847D01*
G01X4198772Y-454762D01*
G01X4198468Y-455270D01*
G01X4196944Y-455676D01*
G01X4192727Y-456590D01*
G01X4189679Y-457505D01*
G01X4186987Y-458114D01*
G01X4183939Y-458978D01*
G01X4173017Y-462636D01*
G01X4148785Y-471729D01*
G01X4145737Y-472948D01*
G01X4139082Y-475386D01*
G01X4136034Y-476555D01*
G01X4133342Y-477469D01*
G01X4131513D01*
G01X4131208Y-454457D01*
G01X4116070D01*
G01X4115765Y-475945D01*
G01X4114851Y-483870D01*
G01X4112412Y-485038D01*
G01X4109669Y-485953D01*
G01X4104843Y-487782D01*
G01X4102100Y-488696D01*
G01X4099103Y-489915D01*
G01X4095445Y-491134D01*
G01X4092397Y-492354D01*
G01X4089705Y-493217D01*
G01X4084828Y-495046D01*
G01X4082136Y-495960D01*
G01X4077259Y-497789D01*
G01X4074516Y-498704D01*
G01X4073042Y-499008D01*
G01Y-518414D01*
G01X4074516D01*
G01X4077564Y-517804D01*
G01X4080612Y-516585D01*
G01X4083914Y-515366D01*
G01X4090010Y-512928D01*
G01X4093312Y-511708D01*
G01X4096360Y-510489D01*
G01X4099712Y-509321D01*
G01X4105758Y-506882D01*
G01X4109060Y-505663D01*
G01X4112108Y-504444D01*
G01X4115460Y-503225D01*
G01X4121506Y-500837D01*
G01X4124858Y-499618D01*
G01X4127856Y-498399D01*
G01X4131208Y-497180D01*
G01X4137254Y-494741D01*
G01X4140606Y-493522D01*
G01X4143604Y-492354D01*
G01X4146956Y-491134D01*
G01X4153002Y-488696D01*
G01X4156354Y-487477D01*
G01X4159402Y-486258D01*
G01X4162704Y-485038D01*
G01X4168800Y-482651D01*
G01X4172102Y-481432D01*
G01X4175150Y-480212D01*
G01X4178452Y-478993D01*
G01X4184548Y-476555D01*
G01X4187850Y-475386D01*
G01X4190898Y-474167D01*
G01X4194251Y-472948D01*
G01X4197248Y-471729D01*
G01X4204513Y-468986D01*
G01X4206646Y-468071D01*
G01X4213911Y-465379D01*
G01X4215435Y-465074D01*
G01Y-455066D01*
G01X4214825Y-444144D01*
G01X4213047Y-442925D01*
G01X4210914Y-442011D01*
G01X4208170Y-440792D01*
G01X4199077Y-437185D01*
G01X4196334Y-435966D01*
G01X4187241Y-432308D01*
G01X4184548Y-431140D01*
G01X4178452Y-428701D01*
G01X4176065Y-427787D01*
G01X4173931Y-426872D01*
G01X4171188Y-425653D01*
G01X4162095Y-422046D01*
G01X4159402Y-420827D01*
G01X4150309Y-417170D01*
G01X4147566Y-415950D01*
G01X4141521Y-413563D01*
G01X4139082Y-412648D01*
G01X4136949Y-411734D01*
G01X4134256Y-410515D01*
G01X4125163Y-406857D01*
G01X4122420Y-405689D01*
G01X4110279Y-400812D01*
G01X4107586Y-399593D01*
G01X4101490Y-397205D01*
G01X4098798Y-395986D01*
G01X4086657Y-391109D01*
G01X4083914Y-389890D01*
G01X4074820Y-386283D01*
G37*
G36*
G01X4122115Y-896518D02*
G01X4114851Y-896823D01*
G01X4109974Y-897738D01*
G01X4106062Y-898957D01*
G01X4103319Y-900125D01*
G01X4097884Y-902868D01*
G01X4095750Y-904392D01*
G01X4094226Y-905307D01*
G01X4092702Y-906526D01*
G01X4089705Y-909523D01*
G01X4088181Y-911657D01*
G01X4086657Y-914095D01*
G01X4085133Y-916838D01*
G01X4083609Y-919836D01*
G01X4082440Y-923188D01*
G01X4081526Y-925932D01*
G01X4080307Y-931977D01*
G01X4079697Y-936803D01*
G01X4079443Y-963778D01*
G01X4095750D01*
G01X4096055Y-939851D01*
G01X4096664Y-936193D01*
G01X4097274Y-933501D01*
G01X4098188Y-930758D01*
G01X4099408Y-928319D01*
G01X4100881Y-925627D01*
G01X4102405Y-923493D01*
G01X4103929Y-921969D01*
G01X4106062Y-920445D01*
G01X4108501Y-918921D01*
G01X4111193Y-917702D01*
G01X4113632Y-916838D01*
G01X4118762Y-916534D01*
G01X4125163Y-916838D01*
G01X4129075Y-917702D01*
G01X4131818Y-918921D01*
G01X4134256Y-920140D01*
G01X4136339Y-921664D01*
G01X4139387Y-924712D01*
G01X4140606Y-926186D01*
G01X4141826Y-928319D01*
G01X4143045Y-931062D01*
G01X4143908Y-934110D01*
G01X4144518Y-936803D01*
G01X4145128Y-941680D01*
G01X4145432Y-964082D01*
G01Y-968654D01*
G01X4161790D01*
G01X4162095Y-951382D01*
G01X4162400Y-947725D01*
G01X4162704Y-942899D01*
G01X4163314Y-939241D01*
G01X4163924Y-936803D01*
G01X4164838Y-934110D01*
G01X4166362Y-931062D01*
G01X4167886Y-928929D01*
G01X4169105Y-927405D01*
G01X4171188Y-925627D01*
G01X4174236Y-923798D01*
G01X4176674Y-922884D01*
G01X4180891Y-922274D01*
G01X4184548D01*
G01X4188765Y-922884D01*
G01X4192118Y-923798D01*
G01X4194861Y-925017D01*
G01X4196944Y-926186D01*
G01X4198772Y-927710D01*
G01X4200296Y-929234D01*
G01X4201820Y-931367D01*
G01X4203040Y-933806D01*
G01X4203954Y-936193D01*
G01X4204513Y-938632D01*
G01X4205122Y-944067D01*
G01X4205427Y-965302D01*
G01Y-985622D01*
G01X4183939D01*
G01X4162095Y-985317D01*
G01X4161790Y-968654D01*
G01X4145432D01*
G01Y-985622D01*
G01X4120896D01*
G01X4096055Y-985317D01*
G01X4095750Y-963778D01*
G01X4079443D01*
G01X4079392Y-971347D01*
G01Y-1004976D01*
G01X4221785D01*
G01Y-974395D01*
G01X4221531Y-941070D01*
G01X4220921Y-936193D01*
G01X4220312Y-933196D01*
G01X4219702Y-930453D01*
G01X4218788Y-927405D01*
G01X4217568Y-924408D01*
G01X4216349Y-921664D01*
G01X4214825Y-919226D01*
G01X4213301Y-917143D01*
G01X4212133Y-915619D01*
G01X4207561Y-911047D01*
G01X4205427Y-909523D01*
G01X4203040Y-908050D01*
G01X4200906Y-906831D01*
G01X4198772Y-905916D01*
G01X4196334Y-905002D01*
G01X4193337Y-904088D01*
G01X4190594Y-903478D01*
G01X4187241Y-903173D01*
G01X4182720Y-903478D01*
G01X4179062Y-904088D01*
G01X4175760Y-905002D01*
G01X4172407Y-906221D01*
G01X4169410Y-907745D01*
G01X4165143Y-910742D01*
G01X4163009Y-912571D01*
G01X4161485Y-914095D01*
G01X4159707Y-916229D01*
G01X4157878Y-918921D01*
G01X4156659Y-921055D01*
G01X4156202Y-921664D01*
G01X4155440D01*
G01X4153916Y-919531D01*
G01X4152697Y-916838D01*
G01X4151528Y-914400D01*
G01X4150004Y-911657D01*
G01X4148480Y-909523D01*
G01X4146042Y-906526D01*
G01X4144518Y-905002D01*
G01X4143045Y-903783D01*
G01X4140911Y-902259D01*
G01X4138473Y-900735D01*
G01X4136034Y-899566D01*
G01X4133342Y-898347D01*
G01X4130294Y-897433D01*
G01X4127551Y-896823D01*
G37*
G36*
G01X14905765Y5734548D02*
G01X14906675Y5722655D01*
G01X14906978Y5686973D01*
G01Y5639397D01*
G01X14890614D01*
G01Y5709094D01*
G01X14889402Y5708791D01*
G01X14887584Y5707882D01*
G01X14883038Y5704245D01*
G01X14876978Y5698185D01*
G01X14873947Y5694548D01*
G01X14872432Y5693033D01*
G01X14870614Y5690609D01*
G01X14868493Y5688488D01*
G01X14866069Y5685458D01*
G01X14862432Y5681215D01*
G01X14859402Y5677579D01*
G01X14857887Y5676064D01*
G01X14856069Y5673639D01*
G01X14853947Y5671518D01*
G01X14850311Y5667276D01*
G01X14838190Y5655155D01*
G01X14832129Y5650306D01*
G01X14830008Y5648791D01*
G01X14827280Y5646973D01*
G01X14824856Y5645458D01*
G01X14822432Y5644245D01*
G01X14819705Y5643033D01*
G01X14816371Y5641821D01*
G01X14812735Y5640912D01*
G01X14809705Y5640306D01*
G01X14806674Y5640003D01*
G01X14804250Y5639700D01*
G01X14800614D01*
G01X14795462Y5640306D01*
G01X14791826Y5641215D01*
G01X14789099Y5642124D01*
G01X14786675Y5643033D01*
G01X14784553Y5644245D01*
G01X14782129Y5645761D01*
G01X14780008Y5647276D01*
G01X14777584Y5649094D01*
G01X14775462Y5651215D01*
G01X14773038Y5654245D01*
G01X14771523Y5656367D01*
G01X14769705Y5659094D01*
G01X14768190Y5662124D01*
G01X14766978Y5664852D01*
G01X14766069Y5667882D01*
G01X14765462Y5670609D01*
G01X14764856Y5673033D01*
G01X14764250Y5676670D01*
G01X14763947Y5686064D01*
G01X14764250Y5694245D01*
G01X14764856Y5697579D01*
G01X14765765Y5701215D01*
G01X14766675Y5703942D01*
G01X14767584Y5706367D01*
G01X14768493Y5708488D01*
G01X14769402Y5710306D01*
G01X14772432Y5714851D01*
G01X14774856Y5717882D01*
G01X14777584Y5720306D01*
G01X14779705Y5721821D01*
G01X14781220Y5723033D01*
G01X14783038Y5724245D01*
G01X14787887Y5726670D01*
G01X14790614Y5727882D01*
G01X14794553Y5729094D01*
G01X14798796Y5730003D01*
G01X14802432Y5730609D01*
G01X14804553D01*
G01X14805462Y5728791D01*
G01X14805765Y5725760D01*
G01X14806068Y5723336D01*
G01X14806674Y5717276D01*
G01X14806977Y5714548D01*
G01Y5712730D01*
G01X14804856D01*
G01X14801826Y5712427D01*
G01X14798796Y5711821D01*
G01X14795462Y5710912D01*
G01X14793038Y5710003D01*
G01X14790614Y5708791D01*
G01X14788493Y5707276D01*
G01X14783947Y5702730D01*
G01X14782735Y5700912D01*
G01X14781523Y5698791D01*
G01X14780311Y5696064D01*
G01X14779402Y5693033D01*
G01X14778796Y5690003D01*
G01X14778493Y5683639D01*
G01X14778796Y5677882D01*
G01X14779705Y5674851D01*
G01X14780917Y5671821D01*
G01X14782129Y5669700D01*
G01X14783341Y5667882D01*
G01X14784553Y5666367D01*
G01X14786068Y5664852D01*
G01X14787584Y5663639D01*
G01X14789705Y5662124D01*
G01X14792129Y5660609D01*
G01X14794856Y5659397D01*
G01X14798796Y5658488D01*
G01X14804553Y5658185D01*
G01X14809099Y5658488D01*
G01X14811826Y5659397D01*
G01X14815159Y5660609D01*
G01X14817584Y5661821D01*
G01X14820008Y5663336D01*
G01X14823038Y5665155D01*
G01X14825159Y5666670D01*
G01X14826674Y5667882D01*
G01X14828190Y5669397D01*
G01X14831826Y5672427D01*
G01X14839402Y5680003D01*
G01X14842432Y5683639D01*
G01X14843947Y5685154D01*
G01X14846372Y5688185D01*
G01X14847887Y5689700D01*
G01X14851523Y5693942D01*
G01X14854553Y5697579D01*
G01X14856978Y5700609D01*
G01X14860008Y5704245D01*
G01X14861523Y5705760D01*
G01X14863341Y5708185D01*
G01X14874553Y5719397D01*
G01X14876978Y5721215D01*
G01X14879099Y5723033D01*
G01X14883341Y5726063D01*
G01X14885159Y5727276D01*
G01X14887281Y5728488D01*
G01X14892129Y5730912D01*
G01X14894856Y5732124D01*
G01X14898493Y5733336D01*
G01X14901523Y5733942D01*
G01X14905765Y5734548D01*
G37*
G36*
G01X14855775Y5189384D02*
G01X14910927Y5189384D01*
G01Y5171202D01*
G01X14767897D01*
G01Y5177262D01*
G01X14768124Y5181883D01*
G01X14768806Y5183626D01*
G01X14770624Y5184535D01*
G01X14773048Y5186050D01*
G01X14775169Y5187565D01*
G01X14776684Y5188778D01*
G01X14778200Y5190293D01*
G01X14781836Y5193323D01*
G01X14783351Y5194838D01*
G01X14790624Y5203323D01*
G01X14791836Y5204838D01*
G01X14792745Y5206353D01*
G01X14794260Y5208474D01*
G01X14796079Y5211202D01*
G01X14797594Y5213626D01*
G01X14798806Y5215747D01*
G01X14800018Y5218171D01*
G01X14802442Y5222414D01*
G01X14803957Y5224232D01*
G01X14812442Y5224535D01*
G01X14820018D01*
G01X14819715Y5222717D01*
G01X14818806Y5219990D01*
G01X14817594Y5217565D01*
G01X14816382Y5214838D01*
G01X14814866Y5212111D01*
G01X14813351Y5209081D01*
G01X14811836Y5206353D01*
G01X14808806Y5201505D01*
G01X14806988Y5198778D01*
G01X14804867Y5195747D01*
G01X14803048Y5193323D01*
G01X14801836Y5191808D01*
G01X14800927Y5190293D01*
G01X14814488Y5189611D01*
G01X14855775Y5189384D01*
G37*
G36*
G01X4093422Y5092687D02*
G01X4092513Y5104581D01*
G01X4092209Y5140263D01*
G01Y5187838D01*
G01X4108573D01*
G01Y5118141D01*
G01X4109785Y5118444D01*
G01X4111603Y5119353D01*
G01X4116149Y5122990D01*
G01X4122209Y5129050D01*
G01X4125240Y5132687D01*
G01X4126755Y5134202D01*
G01X4128573Y5136626D01*
G01X4130694Y5138747D01*
G01X4133118Y5141778D01*
G01X4136755Y5146020D01*
G01X4139785Y5149656D01*
G01X4141300Y5151172D01*
G01X4143118Y5153596D01*
G01X4145240Y5155717D01*
G01X4148876Y5159959D01*
G01X4160997Y5172081D01*
G01X4167058Y5176929D01*
G01X4169179Y5178444D01*
G01X4171907Y5180262D01*
G01X4174331Y5181778D01*
G01X4176755Y5182990D01*
G01X4179482Y5184202D01*
G01X4182816Y5185414D01*
G01X4186452Y5186323D01*
G01X4189482Y5186929D01*
G01X4192513Y5187232D01*
G01X4194937Y5187535D01*
G01X4198573D01*
G01X4203725Y5186929D01*
G01X4207361Y5186020D01*
G01X4210088Y5185111D01*
G01X4212513Y5184202D01*
G01X4214634Y5182990D01*
G01X4217058Y5181475D01*
G01X4219179Y5179959D01*
G01X4221603Y5178141D01*
G01X4223725Y5176020D01*
G01X4226149Y5172990D01*
G01X4227664Y5170869D01*
G01X4229482Y5168141D01*
G01X4230997Y5165111D01*
G01X4232209Y5162384D01*
G01X4233119Y5159353D01*
G01X4233725Y5156626D01*
G01X4234331Y5154202D01*
G01X4234937Y5150566D01*
G01X4235240Y5141172D01*
G01X4234937Y5132990D01*
G01X4234331Y5129656D01*
G01X4233422Y5126020D01*
G01X4232512Y5123293D01*
G01X4231603Y5120869D01*
G01X4230694Y5118747D01*
G01X4229785Y5116929D01*
G01X4226755Y5112384D01*
G01X4224331Y5109353D01*
G01X4221603Y5106929D01*
G01X4219482Y5105414D01*
G01X4217967Y5104202D01*
G01X4216149Y5102990D01*
G01X4211300Y5100565D01*
G01X4208573Y5099353D01*
G01X4204634Y5098141D01*
G01X4200391Y5097232D01*
G01X4196755Y5096626D01*
G01X4194634D01*
G01X4193725Y5098444D01*
G01X4193422Y5101475D01*
G01X4193119Y5103899D01*
G01X4192513Y5109960D01*
G01X4192210Y5112687D01*
G01Y5114505D01*
G01X4194331D01*
G01X4197361Y5114808D01*
G01X4200391Y5115414D01*
G01X4203725Y5116323D01*
G01X4206149Y5117232D01*
G01X4208573Y5118444D01*
G01X4210694Y5119960D01*
G01X4215240Y5124505D01*
G01X4216452Y5126323D01*
G01X4217664Y5128444D01*
G01X4218876Y5131172D01*
G01X4219785Y5134202D01*
G01X4220391Y5137232D01*
G01X4220694Y5143596D01*
G01X4220391Y5149353D01*
G01X4219482Y5152384D01*
G01X4218270Y5155414D01*
G01X4217058Y5157535D01*
G01X4215846Y5159353D01*
G01X4214634Y5160869D01*
G01X4213119Y5162384D01*
G01X4211603Y5163596D01*
G01X4209482Y5165111D01*
G01X4207058Y5166626D01*
G01X4204331Y5167838D01*
G01X4200391Y5168747D01*
G01X4194634Y5169050D01*
G01X4190088Y5168747D01*
G01X4187361Y5167838D01*
G01X4184028Y5166626D01*
G01X4181604Y5165414D01*
G01X4179179Y5163899D01*
G01X4176149Y5162081D01*
G01X4174028Y5160565D01*
G01X4172513Y5159353D01*
G01X4170997Y5157838D01*
G01X4167361Y5154808D01*
G01X4159785Y5147232D01*
G01X4156755Y5143596D01*
G01X4155240Y5142081D01*
G01X4152815Y5139050D01*
G01X4151300Y5137535D01*
G01X4147664Y5133293D01*
G01X4144634Y5129656D01*
G01X4142209Y5126626D01*
G01X4139179Y5122990D01*
G01X4137664Y5121475D01*
G01X4135846Y5119050D01*
G01X4124634Y5107838D01*
G01X4122209Y5106020D01*
G01X4120088Y5104202D01*
G01X4115846Y5101172D01*
G01X4114028Y5099959D01*
G01X4111906Y5098747D01*
G01X4107058Y5096323D01*
G01X4104331Y5095111D01*
G01X4100694Y5093899D01*
G01X4097664Y5093293D01*
G01X4093422Y5092687D01*
G37*
G36*
G01X4147361Y5643595D02*
G01X4092209Y5643595D01*
G01Y5661777D01*
G01X4235240D01*
G01Y5655716D01*
G01X4235013Y5651095D01*
G01X4234331Y5649352D01*
G01X4232512Y5648443D01*
G01X4230088Y5646928D01*
G01X4227967Y5645413D01*
G01X4226452Y5644201D01*
G01X4224937Y5642686D01*
G01X4221300Y5639655D01*
G01X4219785Y5638140D01*
G01X4212513Y5629655D01*
G01X4211300Y5628140D01*
G01X4210391Y5626625D01*
G01X4208876Y5624504D01*
G01X4207058Y5621777D01*
G01X4205543Y5619352D01*
G01X4204331Y5617231D01*
G01X4203119Y5614807D01*
G01X4200694Y5610565D01*
G01X4199179Y5608746D01*
G01X4190694Y5608443D01*
G01X4183119D01*
G01X4183422Y5610262D01*
G01X4184331Y5612989D01*
G01X4185543Y5615413D01*
G01X4186755Y5618140D01*
G01X4188270Y5620868D01*
G01X4189785Y5623898D01*
G01X4191300Y5626625D01*
G01X4194331Y5631474D01*
G01X4196149Y5634201D01*
G01X4198270Y5637231D01*
G01X4200088Y5639655D01*
G01X4201300Y5641171D01*
G01X4202210Y5642686D01*
G01X4188649Y5643367D01*
G01X4147361Y5643595D01*
G37*
G36*
G01X4694123Y-369672D02*
G01X4691990Y-369976D01*
G01X4685335Y-370586D01*
G01X4679239Y-371805D01*
G01X4676851Y-372415D01*
G01X4674108Y-373329D01*
G01X4671060Y-374548D01*
G01X4668368Y-375768D01*
G01X4666234Y-376987D01*
G01X4663796Y-378460D01*
G01X4661713Y-379679D01*
G01X4660189Y-380898D01*
G01X4656531Y-383946D01*
G01X4653483Y-386944D01*
G01X4652315Y-388468D01*
G01X4651400Y-389992D01*
G01X4650181Y-391516D01*
G01X4648657Y-393649D01*
G01X4646219Y-398475D01*
G01X4645000Y-401523D01*
G01X4644136Y-403962D01*
G01X4642917Y-410007D01*
G01X4642612Y-419100D01*
G01X4642917Y-427584D01*
G01X4643526Y-430276D01*
G01X4644390Y-434543D01*
G01X4645609Y-438201D01*
G01X4646828Y-440893D01*
G01X4648048Y-443332D01*
G01X4649572Y-446075D01*
G01X4651096Y-448158D01*
G01X4653483Y-451206D01*
G01X4658055Y-455778D01*
G01X4659579Y-456946D01*
G01X4661408Y-458165D01*
G01X4663796Y-459689D01*
G01X4666539Y-461213D01*
G01X4669587Y-462432D01*
G01X4671974Y-463347D01*
G01X4676851Y-464566D01*
G01X4679544Y-464871D01*
G01X4681982Y-464566D01*
G01X4682592Y-461823D01*
G01X4682896Y-458470D01*
G01X4683506Y-451206D01*
G01X4683811Y-448462D01*
G01X4683506Y-447040D01*
G01X4682592Y-446380D01*
G01X4679239Y-445465D01*
G01X4675327Y-444246D01*
G01X4672584Y-443027D01*
G01X4670196Y-441808D01*
G01X4668063Y-440588D01*
G01X4665929Y-439064D01*
G01X4663796Y-437286D01*
G01X4662576Y-435762D01*
G01X4661103Y-433629D01*
G01X4659579Y-431190D01*
G01X4658360Y-428498D01*
G01X4657446Y-425755D01*
G01X4657141Y-419710D01*
G01X4657750Y-412445D01*
G01X4658970Y-408483D01*
G01X4660494Y-405130D01*
G01X4661967Y-403047D01*
G01X4662881Y-401523D01*
G01X4664100Y-399999D01*
G01X4667148Y-396951D01*
G01X4668672Y-395732D01*
G01X4672279Y-393344D01*
G01X4674718Y-392125D01*
G01X4677766Y-390906D01*
G01X4681068Y-389992D01*
G01X4684116Y-389382D01*
G01X4691075Y-389077D01*
G01X4698035Y-389382D01*
G01X4701388Y-389992D01*
G01X4705045Y-390906D01*
G01X4707738Y-392125D01*
G01X4710786Y-393649D01*
G01X4712919Y-395173D01*
G01X4715916Y-397561D01*
G01X4717136Y-398780D01*
G01X4718355Y-400304D01*
G01X4719879Y-402438D01*
G01X4721403Y-405130D01*
G01X4722622Y-407873D01*
G01X4723486Y-410921D01*
G01X4724095Y-413614D01*
G01X4724400Y-417576D01*
G01X4724095Y-422707D01*
G01X4723486Y-426364D01*
G01X4722622Y-429717D01*
G01X4721403Y-432714D01*
G01X4720184Y-435153D01*
G01X4718660Y-437591D01*
G01X4717136Y-439674D01*
G01X4714088Y-442722D01*
G01X4712310Y-444246D01*
G01X4711395Y-445059D01*
G01X4711090Y-446380D01*
G01X4712005Y-453644D01*
G01X4712919Y-459994D01*
G01X4713529Y-461518D01*
G01X4715002D01*
G01X4724095Y-459689D01*
G01X4727753Y-459080D01*
G01X4736846Y-457251D01*
G01X4740453Y-456641D01*
G01X4743501Y-456082D01*
G01X4750156Y-454863D01*
G01X4756252Y-453644D01*
G01X4762906Y-452425D01*
G01X4768952Y-451206D01*
G01X4775606Y-449986D01*
G01X4781702Y-448767D01*
G01X4784090Y-448462D01*
G01X4785614D01*
G01Y-376987D01*
G01X4769256D01*
G01Y-405130D01*
G01X4769053Y-426415D01*
G01X4768342Y-433934D01*
G01X4765345Y-434848D01*
G01X4735017Y-440893D01*
G01X4732579Y-440588D01*
G01X4733188Y-438810D01*
G01X4734712Y-436067D01*
G01X4735932Y-433629D01*
G01X4736846Y-431190D01*
G01X4737760Y-428498D01*
G01X4738675Y-425450D01*
G01X4739284Y-422707D01*
G01X4739589Y-415747D01*
G01X4739284Y-408178D01*
G01X4738675Y-404520D01*
G01X4737760Y-400609D01*
G01X4736541Y-397561D01*
G01X4735322Y-394868D01*
G01X4733798Y-391820D01*
G01X4731969Y-389077D01*
G01X4729886Y-386385D01*
G01X4728058Y-383946D01*
G01X4725924Y-381813D01*
G01X4722876Y-379374D01*
G01X4720488Y-377596D01*
G01X4718660Y-376377D01*
G01X4716526Y-375158D01*
G01X4714088Y-373939D01*
G01X4709262Y-372110D01*
G01X4705909Y-371196D01*
G01X4702912Y-370586D01*
G01X4696257Y-369976D01*
G37*
G36*
G01X4686554Y-481838D02*
G01X4684116Y-482143D01*
G01X4678680Y-482702D01*
G01X4675327Y-483311D01*
G01X4671670Y-484226D01*
G01X4668672Y-485445D01*
G01X4665929Y-486664D01*
G01X4663796Y-487883D01*
G01X4660189Y-490322D01*
G01X4656531Y-493319D01*
G01X4654398Y-495452D01*
G01X4650791Y-499720D01*
G01X4648962Y-502412D01*
G01X4647438Y-505155D01*
G01X4646219Y-507898D01*
G01X4645000Y-510896D01*
G01X4644136Y-513639D01*
G01X4642917Y-519684D01*
G01X4642612Y-529387D01*
G01X4642663Y-530301D01*
G01X4657141D01*
G01X4657446Y-523951D01*
G01X4658360Y-519989D01*
G01X4659579Y-516687D01*
G01X4661103Y-513639D01*
G01X4662576Y-511505D01*
G01X4663796Y-509676D01*
G01X4665320Y-507898D01*
G01X4668368Y-505460D01*
G01X4670196Y-504241D01*
G01X4672279Y-503022D01*
G01X4675327Y-501802D01*
G01X4678070Y-500888D01*
G01X4684725Y-500583D01*
G01X4692599Y-501193D01*
G01X4696562Y-502412D01*
G01X4699864Y-503936D01*
G01X4701997Y-505460D01*
G01X4703521Y-506374D01*
G01X4705045Y-507594D01*
G01X4706518Y-509067D01*
G01X4708957Y-512115D01*
G01X4710481Y-514248D01*
G01X4711700Y-516687D01*
G01X4712919Y-519684D01*
G01X4713834Y-522732D01*
G01X4714088Y-528777D01*
G01X4713986Y-530606D01*
G01X4728972D01*
G01Y-527863D01*
G01X4729582Y-523951D01*
G01X4730496Y-520598D01*
G01X4731969Y-517246D01*
G01X4733493Y-515163D01*
G01X4734408Y-513639D01*
G01X4735627Y-512420D01*
G01X4737151Y-511200D01*
G01X4738980Y-509676D01*
G01X4741062Y-508508D01*
G01X4743806Y-507289D01*
G01X4747768Y-506374D01*
G01X4751984D01*
G01X4756252Y-506984D01*
G01X4759249Y-507898D01*
G01X4761687Y-509067D01*
G01X4763821Y-510286D01*
G01X4765345Y-511200D01*
G01X4767428Y-513029D01*
G01X4769256Y-515468D01*
G01X4770780Y-517550D01*
G01X4772304Y-520598D01*
G01X4773219Y-523342D01*
G01X4773524Y-528168D01*
G01X4773219Y-534264D01*
G01X4772304Y-537566D01*
G01X4771085Y-540309D01*
G01X4769561Y-543306D01*
G01X4767732Y-545440D01*
G01X4764735Y-548488D01*
G01X4762297Y-550012D01*
G01X4758944Y-551536D01*
G01X4756252Y-552399D01*
G01X4753204Y-552704D01*
G01X4748936Y-552399D01*
G01X4745939Y-551840D01*
G01X4743501Y-551231D01*
G01X4740453Y-550012D01*
G01X4738370Y-548488D01*
G01X4736846Y-547573D01*
G01X4735322Y-546354D01*
G01X4732884Y-543306D01*
G01X4731664Y-541528D01*
G01X4730496Y-538785D01*
G01X4729582Y-536042D01*
G01X4729277Y-533044D01*
G01X4728972Y-530606D01*
G01X4713986D01*
G01X4713834Y-534822D01*
G01X4713224Y-537566D01*
G01X4712310Y-540614D01*
G01X4711090Y-543306D01*
G01X4709566Y-546049D01*
G01X4708042Y-548183D01*
G01X4703521Y-552704D01*
G01X4701388Y-554228D01*
G01X4698644Y-555752D01*
G01X4695342Y-556971D01*
G01X4692599Y-557886D01*
G01X4687164Y-558190D01*
G01X4681677Y-557886D01*
G01X4678680Y-557276D01*
G01X4675327Y-556362D01*
G01X4672584Y-555142D01*
G01X4668368Y-553009D01*
G01X4666844Y-551840D01*
G01X4663796Y-548792D01*
G01X4662576Y-547268D01*
G01X4661408Y-545440D01*
G01X4660189Y-543306D01*
G01X4659274Y-541223D01*
G01X4658360Y-538785D01*
G01X4657750Y-536346D01*
G01X4657446Y-534822D01*
G01X4657141Y-530301D01*
G01X4642663D01*
G01X4643222Y-540614D01*
G01X4644390Y-545135D01*
G01X4645609Y-548792D01*
G01X4646828Y-551840D01*
G01X4648048Y-554228D01*
G01X4649267Y-556362D01*
G01X4650486Y-558190D01*
G01X4652010Y-560324D01*
G01X4653788Y-562407D01*
G01X4658360Y-566979D01*
G01X4660494Y-568808D01*
G01X4662576Y-570281D01*
G01X4664710Y-571500D01*
G01X4667148Y-572719D01*
G01X4669282Y-573634D01*
G01X4671670Y-574548D01*
G01X4674718Y-575462D01*
G01X4677461Y-576072D01*
G01X4679848Y-576377D01*
G01X4683506Y-576682D01*
G01X4686554D01*
G01X4693209Y-576072D01*
G01X4696257Y-575462D01*
G01X4699559Y-574548D01*
G01X4701997Y-573634D01*
G01X4704131Y-572719D01*
G01X4706214Y-571500D01*
G01X4708042Y-570281D01*
G01X4710176Y-568808D01*
G01X4712310Y-566979D01*
G01X4713834Y-565455D01*
G01X4715612Y-563321D01*
G01X4717136Y-561188D01*
G01X4718355Y-559105D01*
G01X4719574Y-556666D01*
G01X4720488Y-554533D01*
G01X4721403Y-552094D01*
G01X4722063Y-551434D01*
G01X4722876Y-551840D01*
G01X4724400Y-554228D01*
G01X4726534Y-558495D01*
G01X4730191Y-563016D01*
G01X4733188Y-565455D01*
G01X4735322Y-566979D01*
G01X4737760Y-568198D01*
G01X4739894Y-569112D01*
G01X4742586Y-569976D01*
G01X4745330Y-570586D01*
G01X4749546Y-570890D01*
G01X4755642Y-570586D01*
G01X4759249Y-569976D01*
G01X4761687Y-569366D01*
G01X4764430Y-568503D01*
G01X4767123Y-567284D01*
G01X4770171Y-565760D01*
G01X4772304Y-564236D01*
G01X4773828Y-563321D01*
G01X4775302Y-562102D01*
G01X4778350Y-559105D01*
G01X4780788Y-556057D01*
G01X4782007Y-554228D01*
G01X4784395Y-550012D01*
G01X4785309Y-547573D01*
G01X4786224Y-544830D01*
G01X4787138Y-541528D01*
G01X4787748Y-538480D01*
G01X4788052Y-530606D01*
G01X4787748Y-522122D01*
G01X4787138Y-519074D01*
G01X4785919Y-514248D01*
G01X4785004Y-511505D01*
G01X4783785Y-508762D01*
G01X4782312Y-505765D01*
G01X4779264Y-501498D01*
G01X4777435Y-499415D01*
G01X4774438Y-496367D01*
G01X4772000Y-494538D01*
G01X4769256Y-492709D01*
G01X4767123Y-491490D01*
G01X4765040Y-490626D01*
G01X4762602Y-489712D01*
G01X4759249Y-488798D01*
G01X4756252Y-488188D01*
G01X4751984Y-487883D01*
G01X4747158Y-488188D01*
G01X4744110Y-488798D01*
G01X4741672Y-489407D01*
G01X4738980Y-490322D01*
G01X4735627Y-491795D01*
G01X4731360Y-494843D01*
G01X4729277Y-496672D01*
G01X4727448Y-499110D01*
G01X4724400Y-503631D01*
G01X4723486Y-505765D01*
G01X4722317Y-507594D01*
G01X4721555Y-507492D01*
G01X4721098Y-506679D01*
G01X4720184Y-504546D01*
G01X4717440Y-499110D01*
G01X4715916Y-496976D01*
G01X4714697Y-495148D01*
G01X4713224Y-493319D01*
G01X4710176Y-490322D01*
G01X4708042Y-488798D01*
G01X4705604Y-487274D01*
G01X4703521Y-486054D01*
G01X4701083Y-484835D01*
G01X4697425Y-483616D01*
G01X4694428Y-482702D01*
G01X4688942Y-482143D01*
G37*
G36*
G01X4678985Y-593954D02*
G01X4678985Y-613308D01*
G01X4645000D01*
G01Y-631495D01*
G01X4678985D01*
G01X4694733D01*
G01X4757166D01*
G01X4756556Y-632714D01*
G01X4754728Y-634848D01*
G01X4751984Y-636676D01*
G01X4745939Y-640893D01*
G01X4743196Y-642722D01*
G01X4738980Y-645770D01*
G01X4733493Y-649376D01*
G01X4729277Y-652424D01*
G01X4726534Y-654253D01*
G01X4720488Y-658470D01*
G01X4717745Y-660298D01*
G01X4713529Y-663346D01*
G01X4708042Y-666953D01*
G01X4703826Y-670001D01*
G01X4701083Y-671830D01*
G01X4696816Y-674827D01*
G01X4695038Y-675437D01*
G01X4694733Y-653339D01*
G01Y-631495D01*
G01X4678985D01*
G01Y-693318D01*
G01X4686859D01*
G01X4695647Y-692709D01*
G01X4698035Y-691185D01*
G01X4782922Y-631800D01*
G01X4785004Y-630276D01*
G01X4786833Y-629107D01*
G01X4787748Y-626720D01*
G01X4788052Y-620928D01*
G01Y-613308D01*
G01X4694733D01*
G01Y-593954D01*
G37*
G36*
G01X4688027Y-701802D02*
G01X4688027Y-756361D01*
G01X4705045D01*
G01Y-701802D01*
G37*
G36*
G01X4687164Y-772719D02*
G01X4681677Y-773024D01*
G01X4678070Y-773633D01*
G01X4675327Y-774243D01*
G01X4672279Y-775157D01*
G01X4669892Y-776072D01*
G01X4667148Y-777291D01*
G01X4664100Y-779069D01*
G01X4661967Y-780593D01*
G01X4660494Y-781507D01*
G01X4658970Y-782726D01*
G01X4655312Y-786384D01*
G01X4653483Y-788772D01*
G01X4652315Y-790296D01*
G01X4651096Y-792124D01*
G01X4648657Y-796341D01*
G01X4646219Y-801827D01*
G01X4645304Y-804520D01*
G01X4644390Y-808177D01*
G01X4643526Y-811225D01*
G01X4642917Y-815442D01*
G01X4642612Y-826973D01*
G01X4642917Y-839064D01*
G01X4643526Y-841502D01*
G01X4644695Y-847598D01*
G01X4645304Y-850290D01*
G01X4646219Y-853338D01*
G01X4647133Y-856082D01*
G01X4648048Y-858469D01*
G01X4650486Y-863346D01*
G01X4651705Y-865429D01*
G01X4652924Y-867258D01*
G01X4653788Y-868782D01*
G01X4655007Y-870306D01*
G01X4661713Y-876960D01*
G01X4664710Y-879094D01*
G01X4667148Y-880618D01*
G01X4669282Y-881837D01*
G01X4671670Y-883006D01*
G01X4676546Y-884834D01*
G01X4679544Y-885749D01*
G01X4682287Y-886358D01*
G01X4684725Y-886663D01*
G01X4688332Y-886968D01*
G01X4690466Y-887273D01*
G01Y-885749D01*
G01X4690770Y-883310D01*
G01X4691380Y-876046D01*
G01X4691685Y-871830D01*
G01X4691380Y-869340D01*
G01X4690466Y-868477D01*
G01X4688332Y-868172D01*
G01X4685640Y-867562D01*
G01X4681982Y-866648D01*
G01X4679239Y-865429D01*
G01X4676851Y-864260D01*
G01X4674108Y-862736D01*
G01X4671974Y-861212D01*
G01X4668977Y-858164D01*
G01X4667148Y-856082D01*
G01X4665624Y-853643D01*
G01X4664405Y-851510D01*
G01X4663186Y-849071D01*
G01X4661967Y-846074D01*
G01X4660798Y-842112D01*
G01X4659884Y-839064D01*
G01X4659274Y-834847D01*
G01X4658970Y-828497D01*
G01X4659274Y-820318D01*
G01X4659884Y-816661D01*
G01X4660494Y-813308D01*
G01X4661408Y-809701D01*
G01X4662272Y-807263D01*
G01X4663491Y-804520D01*
G01X4665015Y-802132D01*
G01X4665929Y-800303D01*
G01X4667148Y-798779D01*
G01X4668672Y-797255D01*
G01X4670755Y-795477D01*
G01X4672889Y-793953D01*
G01X4675327Y-792734D01*
G01X4678070Y-791820D01*
G01X4682592Y-791515D01*
G01X4687164Y-791820D01*
G01X4689551Y-792429D01*
G01X4691990Y-793344D01*
G01X4694123Y-794563D01*
G01X4695952Y-796036D01*
G01X4697425Y-797560D01*
G01X4699254Y-799694D01*
G01X4700778Y-801827D01*
G01X4701997Y-803961D01*
G01X4703216Y-806958D01*
G01X4704436Y-810311D01*
G01X4705604Y-814222D01*
G01X4706823Y-818490D01*
G01X4707738Y-821538D01*
G01X4708347Y-824230D01*
G01X4709262Y-828192D01*
G01X4710176Y-831190D01*
G01X4710786Y-833933D01*
G01X4711700Y-837895D01*
G01X4712614Y-840892D01*
G01X4713224Y-843331D01*
G01X4714088Y-846684D01*
G01X4716526Y-853948D01*
G01X4717745Y-857250D01*
G01X4720184Y-862127D01*
G01X4721708Y-864870D01*
G01X4722876Y-866953D01*
G01X4724095Y-868477D01*
G01X4725619Y-870306D01*
G01X4727753Y-872744D01*
G01X4730801Y-875132D01*
G01X4733493Y-876960D01*
G01X4735627Y-878180D01*
G01X4737760Y-879094D01*
G01X4740148Y-880008D01*
G01X4743196Y-880923D01*
G01X4747768Y-881532D01*
G01X4751375D01*
G01X4756861Y-880923D01*
G01X4759554Y-880313D01*
G01X4762602Y-879399D01*
G01X4765040Y-878484D01*
G01X4766818Y-877570D01*
G01X4771085Y-875132D01*
G01X4773219Y-873658D01*
G01X4775302Y-871830D01*
G01X4778959Y-868172D01*
G01X4780788Y-865734D01*
G01X4783785Y-860908D01*
G01X4785004Y-858164D01*
G01X4786224Y-855167D01*
G01X4787138Y-852424D01*
G01X4788052Y-848766D01*
G01X4788967Y-845769D01*
G01X4789576Y-841502D01*
G01X4789881Y-831799D01*
G01X4789576Y-821538D01*
G01X4788967Y-817270D01*
G01X4788052Y-812444D01*
G01X4786833Y-808177D01*
G01X4785614Y-804824D01*
G01X4784395Y-801827D01*
G01X4783226Y-799084D01*
G01X4782007Y-796950D01*
G01X4780788Y-795172D01*
G01X4779874Y-793648D01*
G01X4778654Y-792124D01*
G01X4776826Y-789991D01*
G01X4774743Y-787857D01*
G01X4772914Y-786384D01*
G01X4770780Y-784555D01*
G01X4767732Y-782726D01*
G01X4765040Y-781202D01*
G01X4762297Y-779983D01*
G01X4758639Y-778764D01*
G01X4755642Y-777900D01*
G01X4749241Y-776986D01*
G01X4747768Y-777596D01*
G01X4747158Y-779069D01*
G01X4746549Y-786943D01*
G01X4746244Y-791820D01*
G01Y-795731D01*
G01X4748936Y-796036D01*
G01X4752899Y-796950D01*
G01X4755642Y-797865D01*
G01X4758030Y-798779D01*
G01X4760163Y-799998D01*
G01X4761992Y-801218D01*
G01X4763516Y-802437D01*
G01X4766513Y-805434D01*
G01X4768037Y-807263D01*
G01X4769256Y-809092D01*
G01X4770476Y-811530D01*
G01X4772609Y-817880D01*
G01X4773219Y-822096D01*
G01X4773524Y-829107D01*
G01X4773219Y-837286D01*
G01X4772609Y-841502D01*
G01X4772000Y-844550D01*
G01X4771390Y-846988D01*
G01X4770476Y-849376D01*
G01X4769256Y-851814D01*
G01X4767428Y-854862D01*
G01X4765650Y-857250D01*
G01X4763516Y-859079D01*
G01X4761382Y-860603D01*
G01X4758944Y-861822D01*
G01X4756252Y-862736D01*
G01X4753508Y-863041D01*
G01X4749546Y-862736D01*
G01X4745939Y-861822D01*
G01X4743501Y-860603D01*
G01X4741367Y-859384D01*
G01X4739589Y-857860D01*
G01X4738370Y-856386D01*
G01X4737151Y-854253D01*
G01X4735932Y-851814D01*
G01X4734712Y-849071D01*
G01X4733493Y-845464D01*
G01X4732274Y-841502D01*
G01X4731106Y-837286D01*
G01X4730191Y-834238D01*
G01X4728362Y-826059D01*
G01X4727448Y-822096D01*
G01X4726534Y-819099D01*
G01X4725924Y-816356D01*
G01X4725010Y-812444D01*
G01X4723790Y-808177D01*
G01X4722622Y-804266D01*
G01X4721403Y-800913D01*
G01X4720184Y-797865D01*
G01X4717745Y-793039D01*
G01X4716221Y-790296D01*
G01X4715002Y-788162D01*
G01X4713834Y-786689D01*
G01X4712005Y-784555D01*
G01X4709566Y-781812D01*
G01X4706518Y-779374D01*
G01X4703826Y-777596D01*
G01X4701692Y-776376D01*
G01X4699559Y-775462D01*
G01X4697120Y-774548D01*
G01X4693818Y-773633D01*
G01X4690770Y-773024D01*
G37*
G36*
G01X4645914Y-899109D02*
G01X4645254Y-901802D01*
G01X4645000Y-910590D01*
G01X4645254Y-919632D01*
G01X4645914Y-923036D01*
G01X4648048Y-924560D01*
G01X4652924Y-927557D01*
G01X4655617Y-929386D01*
G01X4660494Y-932434D01*
G01X4663491Y-934263D01*
G01X4666234Y-936041D01*
G01X4671060Y-939089D01*
G01X4673803Y-940918D01*
G01X4676851Y-942746D01*
G01X4685030Y-948182D01*
G01X4691380Y-952703D01*
G01X4692904Y-953922D01*
G01X4694733Y-955142D01*
G01X4696562Y-956666D01*
G01X4698644Y-958494D01*
G01X4701388Y-960882D01*
G01X4703216Y-963320D01*
G01X4704436Y-964844D01*
G01X4705604Y-966978D01*
G01X4706823Y-969416D01*
G01X4707738Y-972109D01*
G01X4708347Y-974852D01*
G01X4708500Y-983945D01*
G01X4724400D01*
G01X4724705Y-962101D01*
G01X4725010Y-958494D01*
G01X4725314Y-954227D01*
G01X4725924Y-950620D01*
G01X4726838Y-946658D01*
G01X4728058Y-943356D01*
G01X4729582Y-940308D01*
G01X4731106Y-938174D01*
G01X4732274Y-936650D01*
G01X4734408Y-934568D01*
G01X4737151Y-932739D01*
G01X4739589Y-931520D01*
G01X4742282Y-930605D01*
G01X4744720Y-929996D01*
G01X4747158Y-929691D01*
G01X4750765Y-929996D01*
G01X4753813Y-930605D01*
G01X4756252Y-931215D01*
G01X4759249Y-932434D01*
G01X4761382Y-933958D01*
G01X4762906Y-934822D01*
G01X4764430Y-936041D01*
G01X4765650Y-937565D01*
G01X4767123Y-939698D01*
G01X4768647Y-942442D01*
G01X4769866Y-945744D01*
G01X4770780Y-948792D01*
G01X4771390Y-953008D01*
G01X4771695Y-979678D01*
G01Y-1005434D01*
G01X4748378D01*
G01X4724705Y-1005129D01*
G01X4724400Y-983945D01*
G01X4708500D01*
G01X4708652Y-990600D01*
G01Y-1005434D01*
G01X4645000D01*
G01Y-1024839D01*
G01X4787443D01*
G01Y-987857D01*
G01X4787138Y-948792D01*
G01X4786528Y-943915D01*
G01X4785919Y-940308D01*
G01X4785614Y-938174D01*
G01X4785004Y-935736D01*
G01X4784090Y-933044D01*
G01X4783226Y-930605D01*
G01X4782007Y-928167D01*
G01X4780788Y-926033D01*
G01X4779264Y-923950D01*
G01X4777435Y-921817D01*
G01X4774438Y-918769D01*
G01X4772914Y-917550D01*
G01X4769256Y-915162D01*
G01X4767123Y-913943D01*
G01X4764126Y-912724D01*
G01X4760468Y-911504D01*
G01X4757471Y-910590D01*
G01X4755032Y-910285D01*
G01X4751375Y-909980D01*
G01X4748378D01*
G01X4745939Y-910285D01*
G01X4742282Y-910590D01*
G01X4738065Y-911504D01*
G01X4734712Y-912724D01*
G01X4731969Y-913943D01*
G01X4729277Y-915467D01*
G01X4727143Y-916686D01*
G01X4725619Y-917854D01*
G01X4721098Y-922426D01*
G01X4719269Y-924560D01*
G01X4717745Y-926643D01*
G01X4716526Y-928776D01*
G01X4715307Y-931215D01*
G01X4714088Y-933958D01*
G01X4712005Y-940308D01*
G01X4710786Y-945744D01*
G01X4710481Y-947877D01*
G01X4710328Y-948690D01*
G01X4709871Y-948792D01*
G01X4708652Y-947572D01*
G01X4707433Y-945439D01*
G01X4705909Y-943051D01*
G01X4704436Y-940918D01*
G01X4701997Y-937870D01*
G01X4697425Y-933348D01*
G01X4695952Y-932129D01*
G01X4693818Y-930300D01*
G01X4688942Y-926643D01*
G01X4685944Y-924560D01*
G01X4680458Y-920902D01*
G01X4677461Y-919074D01*
G01X4674718Y-917296D01*
G01X4669892Y-914248D01*
G01X4667148Y-912419D01*
G01X4664100Y-910590D01*
G01X4661408Y-908761D01*
G01X4656531Y-905764D01*
G01X4653788Y-903935D01*
G01X4650791Y-902106D01*
G01X4648048Y-900278D01*
G37*
G36*
G01X14186510Y-318160D02*
G01X14186510Y-337566D01*
G01X14202258D01*
G01X14225626D01*
G01X14249248Y-337871D01*
G01X14249552Y-359054D01*
G01X14249248Y-380898D01*
G01X14248943Y-384505D01*
G01X14248638Y-388772D01*
G01X14248028Y-392379D01*
G01X14247114Y-396342D01*
G01X14245895Y-399644D01*
G01X14244371Y-402692D01*
G01X14242898Y-404825D01*
G01X14241678Y-406349D01*
G01X14239545Y-408432D01*
G01X14236802Y-410261D01*
G01X14234414Y-411480D01*
G01X14231671Y-412394D01*
G01X14229232Y-413004D01*
G01X14226845Y-413309D01*
G01X14223187Y-413004D01*
G01X14220139Y-412394D01*
G01X14217752Y-411785D01*
G01X14214704Y-410566D01*
G01X14212570Y-409042D01*
G01X14211046Y-408127D01*
G01X14209522Y-406959D01*
G01X14208354Y-405435D01*
G01X14206830Y-403301D01*
G01X14205306Y-400558D01*
G01X14204086Y-397256D01*
G01X14203172Y-394208D01*
G01X14202562Y-389992D01*
G01X14202258Y-363322D01*
G01Y-337566D01*
G01X14186510D01*
G01Y-355143D01*
G01X14186814Y-394208D01*
G01X14187424Y-399085D01*
G01X14188034Y-402692D01*
G01X14188338Y-404825D01*
G01X14188948Y-407264D01*
G01X14189862Y-409956D01*
G01X14190777Y-412394D01*
G01X14191996Y-414833D01*
G01X14193164Y-416916D01*
G01X14194688Y-419049D01*
G01X14196517Y-421183D01*
G01X14199565Y-424231D01*
G01X14201038Y-425399D01*
G01X14204696Y-427838D01*
G01X14206830Y-429057D01*
G01X14209827Y-430276D01*
G01X14213484Y-431495D01*
G01X14216532Y-432410D01*
G01X14218920Y-432714D01*
G01X14222578Y-433019D01*
G01X14225626D01*
G01X14228013Y-432714D01*
G01X14231671Y-432410D01*
G01X14235887Y-431495D01*
G01X14239240Y-430276D01*
G01X14241983Y-429057D01*
G01X14244676Y-427533D01*
G01X14246809Y-426314D01*
G01X14248333Y-425145D01*
G01X14252905Y-420573D01*
G01X14254683Y-418440D01*
G01X14256207Y-416357D01*
G01X14257426Y-414223D01*
G01X14258646Y-411785D01*
G01X14259865Y-409042D01*
G01X14261948Y-402692D01*
G01X14263167Y-397256D01*
G01X14263472Y-395122D01*
G01X14263624Y-394310D01*
G01X14264081Y-394208D01*
G01X14265300Y-395427D01*
G01X14266520Y-397561D01*
G01X14268044Y-399948D01*
G01X14269568Y-402082D01*
G01X14271955Y-405130D01*
G01X14276527Y-409651D01*
G01X14278051Y-410870D01*
G01X14280134Y-412699D01*
G01X14285011Y-416357D01*
G01X14288008Y-418440D01*
G01X14293494Y-422097D01*
G01X14296492Y-423926D01*
G01X14299235Y-425704D01*
G01X14304112Y-428752D01*
G01X14306804Y-430581D01*
G01X14309852Y-432410D01*
G01X14312595Y-434188D01*
G01X14317421Y-437236D01*
G01X14320164Y-439064D01*
G01X14323162Y-440893D01*
G01X14325905Y-442671D01*
G01X14328038Y-443890D01*
G01X14328699Y-441198D01*
G01X14328953Y-432410D01*
G01X14328699Y-423367D01*
G01X14328038Y-419964D01*
G01X14325905Y-418440D01*
G01X14321079Y-415442D01*
G01X14318336Y-413614D01*
G01X14313510Y-410566D01*
G01X14310462Y-408737D01*
G01X14307718Y-406959D01*
G01X14302892Y-403911D01*
G01X14300149Y-402082D01*
G01X14297101Y-400253D01*
G01X14288922Y-394818D01*
G01X14282572Y-390296D01*
G01X14281048Y-389077D01*
G01X14279220Y-387858D01*
G01X14275308Y-384505D01*
G01X14272565Y-382067D01*
G01X14270736Y-379679D01*
G01X14269568Y-378155D01*
G01X14268348Y-376022D01*
G01X14267129Y-373583D01*
G01X14266215Y-370891D01*
G01X14265605Y-368148D01*
G01X14265300Y-352400D01*
G01Y-337566D01*
G01X14328953D01*
G01Y-318160D01*
G37*
G36*
G01X14283487Y-455727D02*
G01X14283487Y-457251D01*
G01X14283182Y-459689D01*
G01X14282572Y-466954D01*
G01X14282268Y-471170D01*
G01X14282572Y-473659D01*
G01X14283487Y-474523D01*
G01X14285620Y-474828D01*
G01X14288313Y-475437D01*
G01X14291970Y-476352D01*
G01X14294714Y-477520D01*
G01X14297101Y-478739D01*
G01X14299844Y-480263D01*
G01X14301978Y-481787D01*
G01X14305026Y-484835D01*
G01X14306804Y-486918D01*
G01X14308328Y-489356D01*
G01X14309547Y-491490D01*
G01X14310766Y-493928D01*
G01X14311986Y-496926D01*
G01X14313205Y-500888D01*
G01X14314068Y-503885D01*
G01X14314678Y-508152D01*
G01X14314983Y-514502D01*
G01X14314678Y-522681D01*
G01X14314068Y-526339D01*
G01X14313510Y-529641D01*
G01X14312595Y-533298D01*
G01X14311681Y-535737D01*
G01X14310462Y-538429D01*
G01X14308938Y-540868D01*
G01X14308023Y-542696D01*
G01X14306804Y-544220D01*
G01X14305280Y-545744D01*
G01X14303197Y-547522D01*
G01X14301064Y-549046D01*
G01X14298625Y-550266D01*
G01X14295933Y-551180D01*
G01X14291361Y-551485D01*
G01X14286840Y-551180D01*
G01X14284401Y-550570D01*
G01X14281963Y-549656D01*
G01X14279829Y-548437D01*
G01X14278051Y-546964D01*
G01X14276527Y-545440D01*
G01X14274698Y-543306D01*
G01X14273174Y-541172D01*
G01X14271955Y-539039D01*
G01X14270736Y-536042D01*
G01X14269568Y-532689D01*
G01X14268348Y-528777D01*
G01X14267129Y-524510D01*
G01X14266215Y-521462D01*
G01X14265605Y-518770D01*
G01X14264691Y-514807D01*
G01X14263776Y-511810D01*
G01X14263167Y-509067D01*
G01X14262252Y-505104D01*
G01X14261389Y-502107D01*
G01X14260779Y-499669D01*
G01X14259865Y-496316D01*
G01X14257426Y-489052D01*
G01X14256207Y-485750D01*
G01X14253769Y-480873D01*
G01X14252296Y-478130D01*
G01X14251076Y-476047D01*
G01X14249857Y-474523D01*
G01X14248333Y-472694D01*
G01X14246200Y-470256D01*
G01X14243202Y-467868D01*
G01X14240459Y-466039D01*
G01X14238326Y-464820D01*
G01X14236192Y-463906D01*
G01X14233804Y-462991D01*
G01X14230756Y-462077D01*
G01X14226235Y-461467D01*
G01X14222578D01*
G01X14217142Y-462077D01*
G01X14214399Y-462686D01*
G01X14211351Y-463601D01*
G01X14208963Y-464515D01*
G01X14207134Y-465430D01*
G01X14202867Y-467868D01*
G01X14200784Y-469341D01*
G01X14198651Y-471170D01*
G01X14194993Y-474828D01*
G01X14193164Y-477266D01*
G01X14190167Y-482092D01*
G01X14188948Y-484835D01*
G01X14187729Y-487832D01*
G01X14186814Y-490576D01*
G01X14185900Y-494233D01*
G01X14184986Y-497230D01*
G01X14184376Y-501498D01*
G01X14184071Y-511200D01*
G01X14184376Y-521462D01*
G01X14184986Y-525729D01*
G01X14185900Y-530555D01*
G01X14187119Y-534822D01*
G01X14188338Y-538175D01*
G01X14189558Y-541172D01*
G01X14190777Y-543916D01*
G01X14191996Y-546049D01*
G01X14193164Y-547827D01*
G01X14194079Y-549351D01*
G01X14195298Y-550875D01*
G01X14197127Y-553009D01*
G01X14199260Y-555142D01*
G01X14201038Y-556616D01*
G01X14203172Y-558444D01*
G01X14206220Y-560273D01*
G01X14208963Y-561797D01*
G01X14211656Y-563016D01*
G01X14215313Y-564236D01*
G01X14218310Y-565099D01*
G01X14224711Y-566014D01*
G01X14226235Y-565404D01*
G01X14226845Y-563931D01*
G01X14227404Y-556006D01*
G01X14227708Y-551180D01*
G01Y-547218D01*
G01X14225016Y-546964D01*
G01X14221054Y-546049D01*
G01X14218310Y-545135D01*
G01X14215923Y-544220D01*
G01X14213789Y-543001D01*
G01X14211960Y-541782D01*
G01X14210436Y-540563D01*
G01X14207439Y-537566D01*
G01X14205915Y-535737D01*
G01X14204696Y-533908D01*
G01X14203477Y-531470D01*
G01X14201343Y-525120D01*
G01X14200784Y-520903D01*
G01X14200480Y-513893D01*
G01X14200784Y-505714D01*
G01X14201343Y-501498D01*
G01X14201953Y-498450D01*
G01X14202562Y-496011D01*
G01X14203477Y-493624D01*
G01X14204696Y-491185D01*
G01X14206525Y-488137D01*
G01X14208354Y-485750D01*
G01X14210436Y-483921D01*
G01X14212570Y-482397D01*
G01X14215008Y-481178D01*
G01X14217752Y-480263D01*
G01X14220444Y-479958D01*
G01X14224406Y-480263D01*
G01X14228013Y-481178D01*
G01X14230452Y-482397D01*
G01X14232585Y-483616D01*
G01X14234414Y-485140D01*
G01X14235582Y-486613D01*
G01X14236802Y-488747D01*
G01X14238021Y-491185D01*
G01X14239240Y-493928D01*
G01X14240459Y-497535D01*
G01X14241678Y-501498D01*
G01X14242898Y-505714D01*
G01X14243812Y-508762D01*
G01X14245590Y-516941D01*
G01X14246504Y-520903D01*
G01X14247419Y-523900D01*
G01X14248028Y-526644D01*
G01X14248943Y-530555D01*
G01X14250162Y-534822D01*
G01X14251381Y-538734D01*
G01X14252600Y-542087D01*
G01X14253769Y-545135D01*
G01X14256207Y-549961D01*
G01X14257731Y-552704D01*
G01X14258950Y-554838D01*
G01X14260170Y-556311D01*
G01X14261948Y-558444D01*
G01X14264386Y-561188D01*
G01X14267434Y-563626D01*
G01X14270177Y-565404D01*
G01X14272260Y-566623D01*
G01X14274394Y-567538D01*
G01X14276832Y-568452D01*
G01X14280134Y-569366D01*
G01X14283182Y-569976D01*
G01X14286840Y-570281D01*
G01X14292275Y-569976D01*
G01X14295933Y-569366D01*
G01X14298625Y-568757D01*
G01X14301673Y-567842D01*
G01X14304112Y-566928D01*
G01X14306804Y-565709D01*
G01X14309852Y-563931D01*
G01X14311986Y-562407D01*
G01X14313510Y-561492D01*
G01X14314983Y-560273D01*
G01X14318640Y-556616D01*
G01X14320469Y-554228D01*
G01X14321688Y-552704D01*
G01X14322857Y-550875D01*
G01X14325295Y-546659D01*
G01X14327734Y-541172D01*
G01X14328648Y-538429D01*
G01X14329562Y-534822D01*
G01X14330477Y-531774D01*
G01X14331086Y-527558D01*
G01X14331340Y-516026D01*
G01X14331086Y-503885D01*
G01X14330477Y-501498D01*
G01X14329258Y-495402D01*
G01X14328648Y-492709D01*
G01X14327734Y-489661D01*
G01X14326819Y-486918D01*
G01X14325905Y-484530D01*
G01X14323466Y-479654D01*
G01X14322298Y-477520D01*
G01X14321079Y-475742D01*
G01X14320164Y-474218D01*
G01X14318945Y-472694D01*
G01X14312290Y-466039D01*
G01X14309242Y-463906D01*
G01X14306804Y-462382D01*
G01X14304721Y-461162D01*
G01X14302283Y-459994D01*
G01X14297406Y-458165D01*
G01X14294409Y-457251D01*
G01X14291666Y-456641D01*
G01X14289227Y-456336D01*
G01X14285620Y-456032D01*
G37*
G36*
G01X14268958Y-586638D02*
G01X14268958Y-641198D01*
G01X14285925D01*
G01Y-586638D01*
G37*
G36*
G01X14287144Y-649681D02*
G01X14278356Y-650291D01*
G01X14275918Y-651764D01*
G01X14191082Y-711200D01*
G01X14190624Y-711505D01*
G01X14216837D01*
G01X14217447Y-710286D01*
G01X14219225Y-708152D01*
G01X14221968Y-706323D01*
G01X14228013Y-702107D01*
G01X14230756Y-700278D01*
G01X14235024Y-697230D01*
G01X14240459Y-693623D01*
G01X14244676Y-690575D01*
G01X14247419Y-688746D01*
G01X14253464Y-684530D01*
G01X14256207Y-682701D01*
G01X14260474Y-679653D01*
G01X14265910Y-676046D01*
G01X14270177Y-672998D01*
G01X14272870Y-671170D01*
G01X14277137Y-668172D01*
G01X14278966Y-667563D01*
G01X14279220Y-689661D01*
G01Y-711505D01*
G01X14216837D01*
G01X14190624D01*
G01X14188948Y-712673D01*
G01X14187119Y-713892D01*
G01X14186205Y-716280D01*
G01X14185900Y-722071D01*
G01Y-729691D01*
G01X14279220D01*
G01Y-749046D01*
G01X14295018D01*
G01Y-729691D01*
G01X14328953D01*
G01Y-711505D01*
G01X14295018D01*
G01Y-649681D01*
G37*
G36*
G01X14287449Y-766318D02*
G01X14280744Y-766928D01*
G01X14277746Y-767537D01*
G01X14274394Y-768452D01*
G01X14271955Y-769366D01*
G01X14269872Y-770280D01*
G01X14267739Y-771500D01*
G01X14265910Y-772719D01*
G01X14263776Y-774192D01*
G01X14261694Y-776021D01*
G01X14260170Y-777545D01*
G01X14258341Y-779678D01*
G01X14256817Y-781812D01*
G01X14255598Y-783895D01*
G01X14254378Y-786333D01*
G01X14253464Y-788467D01*
G01X14252600Y-790854D01*
G01X14251889Y-791566D01*
G01X14251076Y-791159D01*
G01X14249552Y-788772D01*
G01X14247419Y-784504D01*
G01X14243812Y-779983D01*
G01X14240764Y-777545D01*
G01X14238630Y-776021D01*
G01X14236192Y-774802D01*
G01X14234109Y-773887D01*
G01X14231366Y-773024D01*
G01X14228623Y-772414D01*
G01X14224406Y-772109D01*
G01X14218310Y-772414D01*
G01X14214704Y-773024D01*
G01X14212265Y-773582D01*
G01X14209522Y-774497D01*
G01X14206830Y-775716D01*
G01X14203782Y-777240D01*
G01X14201648Y-778764D01*
G01X14200175Y-779678D01*
G01X14198651Y-780898D01*
G01X14195603Y-783895D01*
G01X14193164Y-786943D01*
G01X14191996Y-788772D01*
G01X14189558Y-792988D01*
G01X14188643Y-795426D01*
G01X14187729Y-798170D01*
G01X14186814Y-801472D01*
G01X14186205Y-804520D01*
G01X14185900Y-812394D01*
G01X14186002Y-814832D01*
G01X14200480D01*
G01X14200784Y-808736D01*
G01X14201648Y-805434D01*
G01X14202867Y-802691D01*
G01X14204391Y-799643D01*
G01X14206220Y-797560D01*
G01X14209268Y-794512D01*
G01X14211656Y-792988D01*
G01X14215008Y-791464D01*
G01X14217752Y-790600D01*
G01X14220749Y-790296D01*
G01X14225016Y-790600D01*
G01X14228013Y-791159D01*
G01X14230452Y-791769D01*
G01X14233500Y-792988D01*
G01X14235582Y-794512D01*
G01X14237106Y-795426D01*
G01X14238630Y-796646D01*
G01X14241069Y-799643D01*
G01X14242288Y-801472D01*
G01X14243507Y-804215D01*
G01X14244371Y-806958D01*
G01X14244676Y-809955D01*
G01X14244980Y-812394D01*
G01Y-814222D01*
G01X14259865D01*
G01X14260170Y-808126D01*
G01X14260779Y-805434D01*
G01X14261694Y-802386D01*
G01X14262862Y-799643D01*
G01X14264386Y-796950D01*
G01X14265910Y-794817D01*
G01X14270431Y-790296D01*
G01X14272565Y-788772D01*
G01X14275308Y-787248D01*
G01X14278661Y-786028D01*
G01X14281353Y-785114D01*
G01X14286840Y-784809D01*
G01X14292275Y-785114D01*
G01X14295323Y-785724D01*
G01X14298625Y-786638D01*
G01X14301368Y-787857D01*
G01X14305585Y-789991D01*
G01X14307109Y-791159D01*
G01X14310157Y-794207D01*
G01X14311376Y-795731D01*
G01X14312595Y-797560D01*
G01X14313814Y-799643D01*
G01X14314678Y-801776D01*
G01X14315592Y-804215D01*
G01X14316202Y-806653D01*
G01X14316507Y-808126D01*
G01X14316812Y-812698D01*
G01X14316507Y-819048D01*
G01X14315592Y-823011D01*
G01X14314373Y-826313D01*
G01X14312900Y-829361D01*
G01X14311376Y-831494D01*
G01X14310157Y-833323D01*
G01X14308633Y-835101D01*
G01X14305585Y-837540D01*
G01X14303807Y-838759D01*
G01X14301673Y-839978D01*
G01X14298625Y-841197D01*
G01X14295933Y-842112D01*
G01X14289227Y-842416D01*
G01X14281353Y-841807D01*
G01X14277442Y-840588D01*
G01X14274089Y-839064D01*
G01X14271955Y-837540D01*
G01X14270431Y-836625D01*
G01X14268958Y-835406D01*
G01X14267434Y-833933D01*
G01X14264996Y-830885D01*
G01X14263472Y-828751D01*
G01X14262252Y-826313D01*
G01X14261084Y-823316D01*
G01X14260170Y-820268D01*
G01X14259865Y-814222D01*
G01X14244980D01*
G01Y-815137D01*
G01X14244371Y-819048D01*
G01X14243507Y-822401D01*
G01X14241983Y-825703D01*
G01X14240459Y-827837D01*
G01X14239545Y-829361D01*
G01X14238326Y-830580D01*
G01X14236802Y-831799D01*
G01X14235024Y-833323D01*
G01X14232890Y-834492D01*
G01X14230147Y-835711D01*
G01X14226235Y-836625D01*
G01X14221968D01*
G01X14217752Y-836016D01*
G01X14214704Y-835101D01*
G01X14212265Y-833933D01*
G01X14210132Y-832714D01*
G01X14208658Y-831799D01*
G01X14206525Y-829970D01*
G01X14204696Y-827532D01*
G01X14203172Y-825449D01*
G01X14201648Y-822401D01*
G01X14200784Y-819658D01*
G01X14200480Y-814832D01*
G01X14186002D01*
G01X14186205Y-820877D01*
G01X14186814Y-823925D01*
G01X14188034Y-828751D01*
G01X14188948Y-831494D01*
G01X14190167Y-834187D01*
G01X14191691Y-837235D01*
G01X14194688Y-841502D01*
G01X14196517Y-843585D01*
G01X14199565Y-846633D01*
G01X14201953Y-848462D01*
G01X14204696Y-850290D01*
G01X14206830Y-851510D01*
G01X14208963Y-852373D01*
G01X14211351Y-853288D01*
G01X14214704Y-854202D01*
G01X14217752Y-854812D01*
G01X14221968Y-855116D01*
G01X14226845Y-854812D01*
G01X14229842Y-854202D01*
G01X14232280Y-853592D01*
G01X14235024Y-852678D01*
G01X14238326Y-851205D01*
G01X14242593Y-848157D01*
G01X14244676Y-846328D01*
G01X14246504Y-843890D01*
G01X14249552Y-839368D01*
G01X14250467Y-837235D01*
G01X14251686Y-835406D01*
G01X14252448Y-835508D01*
G01X14252905Y-836320D01*
G01X14253769Y-838454D01*
G01X14256512Y-843890D01*
G01X14258036Y-846023D01*
G01X14259255Y-847852D01*
G01X14260779Y-849681D01*
G01X14263776Y-852678D01*
G01X14265910Y-854202D01*
G01X14268348Y-855726D01*
G01X14270431Y-856945D01*
G01X14272870Y-858164D01*
G01X14276527Y-859384D01*
G01X14279524Y-860247D01*
G01X14285011Y-860857D01*
G01X14287449Y-861162D01*
G01X14289837Y-860857D01*
G01X14295323Y-860247D01*
G01X14298625Y-859688D01*
G01X14302283Y-858774D01*
G01X14305280Y-857555D01*
G01X14308023Y-856336D01*
G01X14310157Y-855116D01*
G01X14313814Y-852678D01*
G01X14317421Y-849681D01*
G01X14319555Y-847547D01*
G01X14323162Y-843280D01*
G01X14324990Y-840588D01*
G01X14326514Y-837844D01*
G01X14327734Y-835101D01*
G01X14328953Y-832104D01*
G01X14329867Y-829361D01*
G01X14331086Y-823316D01*
G01X14331340Y-813613D01*
G01X14330782Y-802386D01*
G01X14329562Y-797865D01*
G01X14328343Y-794207D01*
G01X14327124Y-791159D01*
G01X14325905Y-788772D01*
G01X14324686Y-786638D01*
G01X14323466Y-784809D01*
G01X14321993Y-782676D01*
G01X14320164Y-780593D01*
G01X14315592Y-776021D01*
G01X14313510Y-774192D01*
G01X14311376Y-772719D01*
G01X14309242Y-771500D01*
G01X14306804Y-770280D01*
G01X14304721Y-769366D01*
G01X14302283Y-768452D01*
G01X14299235Y-767537D01*
G01X14296492Y-766928D01*
G01X14294104Y-766623D01*
G01X14290446Y-766318D01*
G37*
G36*
G01X14294409Y-878129D02*
G01X14291970Y-878434D01*
G01X14291361Y-881177D01*
G01X14291056Y-884530D01*
G01X14290446Y-891794D01*
G01X14290142Y-894537D01*
G01X14290446Y-895960D01*
G01X14291361Y-896620D01*
G01X14294714Y-897534D01*
G01X14298625Y-898754D01*
G01X14301368Y-899973D01*
G01X14303807Y-901192D01*
G01X14305890Y-902411D01*
G01X14308023Y-903884D01*
G01X14310157Y-905713D01*
G01X14311376Y-907237D01*
G01X14312900Y-909371D01*
G01X14314373Y-911809D01*
G01X14315592Y-914502D01*
G01X14316507Y-917245D01*
G01X14316812Y-923290D01*
G01X14316202Y-930554D01*
G01X14314983Y-934517D01*
G01X14313510Y-937870D01*
G01X14311986Y-939952D01*
G01X14311071Y-941476D01*
G01X14309852Y-943000D01*
G01X14306804Y-946048D01*
G01X14305280Y-947268D01*
G01X14301673Y-949655D01*
G01X14299235Y-950874D01*
G01X14296238Y-952094D01*
G01X14292885Y-953008D01*
G01X14289837Y-953618D01*
G01X14282877Y-953922D01*
G01X14275918Y-953618D01*
G01X14272565Y-953008D01*
G01X14268958Y-952094D01*
G01X14266215Y-950874D01*
G01X14263167Y-949350D01*
G01X14261084Y-947826D01*
G01X14258036Y-945439D01*
G01X14256817Y-944220D01*
G01X14255598Y-942696D01*
G01X14254074Y-940562D01*
G01X14252600Y-937870D01*
G01X14251381Y-935126D01*
G01X14250467Y-932078D01*
G01X14249857Y-929386D01*
G01X14249552Y-925424D01*
G01X14249857Y-920293D01*
G01X14250467Y-916635D01*
G01X14251381Y-913282D01*
G01X14252600Y-910285D01*
G01X14253769Y-907847D01*
G01X14255293Y-905408D01*
G01X14256817Y-903326D01*
G01X14259865Y-900278D01*
G01X14261694Y-898754D01*
G01X14262557Y-897941D01*
G01X14262862Y-896620D01*
G01X14261948Y-889356D01*
G01X14261084Y-883006D01*
G01X14260474Y-881482D01*
G01X14258950D01*
G01X14249857Y-883310D01*
G01X14246200Y-883920D01*
G01X14237106Y-885749D01*
G01X14233500Y-886358D01*
G01X14230452Y-886917D01*
G01X14223797Y-888136D01*
G01X14217752Y-889356D01*
G01X14211046Y-890575D01*
G01X14205001Y-891794D01*
G01X14198346Y-893013D01*
G01X14192250Y-894232D01*
G01X14189862Y-894537D01*
G01X14188338D01*
G01Y-966013D01*
G01X14204696D01*
G01Y-937870D01*
G01X14204950Y-916584D01*
G01X14205610Y-909066D01*
G01X14208658Y-908152D01*
G01X14238935Y-902106D01*
G01X14241374Y-902411D01*
G01X14240764Y-904189D01*
G01X14239240Y-906932D01*
G01X14238021Y-909371D01*
G01X14237106Y-911809D01*
G01X14236192Y-914502D01*
G01X14235328Y-917550D01*
G01X14234719Y-920293D01*
G01X14234414Y-927252D01*
G01X14234719Y-934822D01*
G01X14235328Y-938479D01*
G01X14236192Y-942391D01*
G01X14237411Y-945439D01*
G01X14238630Y-948131D01*
G01X14240154Y-951179D01*
G01X14241983Y-953922D01*
G01X14244117Y-956615D01*
G01X14245895Y-959053D01*
G01X14248028Y-961187D01*
G01X14251076Y-963625D01*
G01X14253464Y-965403D01*
G01X14255293Y-966622D01*
G01X14257426Y-967842D01*
G01X14259865Y-969061D01*
G01X14264691Y-970890D01*
G01X14268044Y-971804D01*
G01X14271041Y-972414D01*
G01X14277746Y-973023D01*
G01X14279829Y-973328D01*
G01X14281963Y-973023D01*
G01X14288618Y-972414D01*
G01X14294714Y-971194D01*
G01X14297101Y-970585D01*
G01X14299844Y-969670D01*
G01X14302892Y-968451D01*
G01X14305585Y-967232D01*
G01X14307718Y-966013D01*
G01X14310157Y-964540D01*
G01X14312290Y-963320D01*
G01X14313814Y-962101D01*
G01X14317421Y-959053D01*
G01X14320469Y-956005D01*
G01X14321688Y-954532D01*
G01X14322603Y-953008D01*
G01X14323771Y-951484D01*
G01X14325295Y-949350D01*
G01X14327734Y-944524D01*
G01X14328953Y-941476D01*
G01X14329867Y-939038D01*
G01X14331086Y-932993D01*
G01X14331340Y-923900D01*
G01X14331086Y-915416D01*
G01X14330477Y-912673D01*
G01X14329562Y-908456D01*
G01X14328343Y-904799D01*
G01X14327124Y-902106D01*
G01X14325905Y-899668D01*
G01X14324381Y-896925D01*
G01X14322857Y-894842D01*
G01X14320469Y-891794D01*
G01X14315897Y-887222D01*
G01X14314373Y-886054D01*
G01X14312595Y-884834D01*
G01X14310157Y-883310D01*
G01X14307414Y-881786D01*
G01X14304416Y-880567D01*
G01X14301978Y-879653D01*
G01X14297101Y-878434D01*
G37*
G36*
G01X14884774Y807499D02*
G01X14885001Y800681D01*
G01X14884774Y793635D01*
G01X14884319Y791363D01*
G01X14883637Y788863D01*
G01X14882956Y786817D01*
G01X14882274Y784999D01*
G01X14881365Y783181D01*
G01X14880456Y781590D01*
G01X14878638Y778863D01*
G01X14877728Y777726D01*
G01X14873183Y773181D01*
G01X14872046Y772272D01*
G01X14870910Y771590D01*
G01X14869774Y770681D01*
G01X14868410Y769772D01*
G01X14865228Y767954D01*
G01X14862046Y766590D01*
G01X14860228Y765908D01*
G01X14856592Y764999D01*
G01X14854319Y764545D01*
G01X14851137Y764090D01*
G01X14845683Y763863D01*
G01X14841592Y764090D01*
G01X14838410Y764545D01*
G01X14836592Y764999D01*
G01X14834546Y765681D01*
G01X14830910Y767045D01*
G01X14828865Y768181D01*
G01X14826592Y769545D01*
G01X14825001Y770681D01*
G01X14823865Y771590D01*
G01X14820456Y774999D01*
G01X14818637Y777272D01*
G01X14817501Y778863D01*
G01X14816365Y780681D01*
G01X14815456Y782272D01*
G01X14814774Y783863D01*
G01X14814092Y785681D01*
G01X14813410Y787954D01*
G01X14812956Y789999D01*
G01X14812501Y792272D01*
G01X14812274Y798181D01*
G01X14812501Y803181D01*
G01X14813410Y807272D01*
G01X14814092Y809317D01*
G01X14815001Y811363D01*
G01X14816819Y814999D01*
G01X14817274Y816363D01*
G01X14816990Y816874D01*
G01X14816138Y817045D01*
G01X14814319Y816817D01*
G01X14800683Y814090D01*
G01X14796592Y813181D01*
G01X14792047Y812272D01*
G01X14790683Y811817D01*
G01X14790172Y806306D01*
G01X14790001Y790227D01*
G01Y768863D01*
G01X14777728D01*
G01Y822499D01*
G01X14779319Y822726D01*
G01X14781592Y823181D01*
G01X14786592Y824090D01*
G01X14791137Y824999D01*
G01X14796138Y825908D01*
G01X14798410Y826363D01*
G01X14801138Y826817D01*
G01X14807956Y828181D01*
G01X14810683Y828635D01*
G01X14817501Y829999D01*
G01X14822501Y830908D01*
G01X14827047Y831817D01*
G01X14829546Y832272D01*
G01X14831819Y832726D01*
G01X14832160Y832613D01*
G01X14832274Y831817D01*
G01X14832956Y826363D01*
G01X14833410Y823181D01*
G01X14833637Y821363D01*
G01X14832956Y819772D01*
G01X14831137Y818408D01*
G01X14829319Y816363D01*
G01X14827047Y813181D01*
G01X14825910Y810908D01*
G01X14825001Y808863D01*
G01X14824319Y806136D01*
G01X14823865Y803635D01*
G01X14823637Y799999D01*
G01X14823865Y796363D01*
G01X14824319Y794317D01*
G01X14825001Y792045D01*
G01X14825910Y789999D01*
G01X14826819Y788408D01*
G01X14827956Y786817D01*
G01X14829319Y785227D01*
G01X14830455Y784090D01*
G01X14831819Y782954D01*
G01X14833183Y782045D01*
G01X14834774Y781136D01*
G01X14836592Y780227D01*
G01X14838410Y779545D01*
G01X14842047Y778635D01*
G01X14845228Y778181D01*
G01X14849319Y777954D01*
G01X14852046Y778181D01*
G01X14855228Y778635D01*
G01X14857046Y779090D01*
G01X14859092Y779772D01*
G01X14861365Y780681D01*
G01X14863183Y781590D01*
G01X14864774Y782726D01*
G01X14866365Y784090D01*
G01X14869774Y787499D01*
G01X14870683Y788635D01*
G01X14872274Y791817D01*
G01X14873183Y793863D01*
G01X14873638Y795681D01*
G01X14873865Y797272D01*
G01X14874092Y801363D01*
G01X14873865Y805454D01*
G01X14873183Y807499D01*
G01X14872046Y809999D01*
G01X14870683Y812272D01*
G01X14869319Y813863D01*
G01X14868183Y814999D01*
G01X14866592Y816363D01*
G01X14864774Y817499D01*
G01X14861137Y819317D01*
G01X14859092Y819999D01*
G01X14857046Y820454D01*
G01X14855228Y820908D01*
G01X14854376Y821419D01*
G01X14854092Y822499D01*
G01X14854319Y824544D01*
G01X14855001Y832726D01*
G01Y834772D01*
G01X14856137Y834999D01*
G01X14857956D01*
G01X14860228Y834545D01*
G01X14862728Y833863D01*
G01X14866365Y832499D01*
G01X14868410Y831590D01*
G01X14870001Y830681D01*
G01X14873183Y828408D01*
G01X14874319Y827499D01*
G01X14876592Y825226D01*
G01X14879319Y821817D01*
G01X14880001Y820454D01*
G01X14881137Y818635D01*
G01X14882046Y816590D01*
G01X14882728Y814999D01*
G01X14883410Y812954D01*
G01X14883865Y810908D01*
G01X14884319Y809090D01*
G01X14884774Y807499D01*
G37*
G36*
G01X14882728Y726817D02*
G01X14883183Y720226D01*
G01Y713863D01*
G01X14882046Y713636D01*
G01X14876592Y711590D01*
G01X14875001Y710908D01*
G01X14862274Y706135D01*
G01X14860001Y705226D01*
G01X14855001Y703408D01*
G01X14852728Y702499D01*
G01X14845456Y699772D01*
G01X14843183Y698863D01*
G01X14838183Y697045D01*
G01X14835910Y696136D01*
G01X14832274Y694772D01*
G01X14830001Y693863D01*
G01X14825001Y692045D01*
G01X14822728Y691136D01*
G01X14819092Y689772D01*
G01X14816819Y688863D01*
G01X14811819Y687045D01*
G01X14809546Y686136D01*
G01X14807728Y685454D01*
G01X14806365Y684999D01*
G01X14806024Y686533D01*
G01X14805910Y691590D01*
G01Y698408D01*
G01X14807274Y698863D01*
G01X14842274Y711590D01*
G01X14844546Y712499D01*
G01X14846592Y713181D01*
G01X14850228Y714545D01*
G01X14852274Y715226D01*
G01X14854547Y716135D01*
G01X14862728Y718863D01*
G01X14865001Y719772D01*
G01X14865626Y720226D01*
G01X14865683Y720681D01*
G01X14864092Y721363D01*
G01X14861819Y722045D01*
G01X14851592Y725454D01*
G01X14847956Y726817D01*
G01X14845910Y727499D01*
G01X14842274Y728863D01*
G01X14840228Y729545D01*
G01X14836592Y730908D01*
G01X14834546Y731590D01*
G01X14830910Y732954D01*
G01X14826819Y734317D01*
G01X14824546Y735226D01*
G01X14821819Y736135D01*
G01X14811819Y739772D01*
G01X14809092Y740681D01*
G01X14806819Y741817D01*
G01X14806138Y744033D01*
G01X14805910Y749317D01*
G01Y756135D01*
G01X14807274Y755681D01*
G01X14811819Y753863D01*
G01X14816819Y752044D01*
G01X14821365Y750226D01*
G01X14826365Y748408D01*
G01X14830910Y746590D01*
G01X14835910Y744772D01*
G01X14840455Y742954D01*
G01X14845456Y741135D01*
G01X14850001Y739317D01*
G01X14855001Y737499D01*
G01X14859547Y735681D01*
G01X14864547Y733863D01*
G01X14869092Y732045D01*
G01X14874092Y730226D01*
G01X14878638Y728408D01*
G01X14881137Y727499D01*
G01X14882728Y726817D01*
G37*
G36*
G01X14832940Y418643D02*
G01X14825929Y418389D01*
G01X14822272Y417932D01*
G01X14819528Y417525D01*
G01X14817293Y417068D01*
G01X14814093Y416357D01*
G01X14811146Y415442D01*
G01X14808403Y414528D01*
G01X14806117Y413614D01*
G01X14804085Y412750D01*
G01X14800478Y410921D01*
G01X14798396Y409753D01*
G01X14796364Y408432D01*
G01X14793163Y406146D01*
G01X14791588Y404774D01*
G01X14787067Y400202D01*
G01X14786153Y399085D01*
G01X14783867Y395884D01*
G01X14782952Y394310D01*
G01X14781124Y390703D01*
G01X14780209Y388620D01*
G01X14779295Y386385D01*
G01X14778431Y383388D01*
G01X14777720Y381152D01*
G01X14776806Y376580D01*
G01X14776348Y373431D01*
G01X14776145Y365912D01*
G01X14776348Y357937D01*
G01X14776806Y354787D01*
G01X14777517Y351130D01*
G01X14778177Y348844D01*
G01X14778634Y347066D01*
G01X14779295Y344983D01*
G01X14780006Y343205D01*
G01X14780666Y341579D01*
G01X14781581Y339750D01*
G01X14782749Y337718D01*
G01X14784070Y335686D01*
G01X14785238Y334112D01*
G01X14786153Y332943D01*
G01X14790014Y329082D01*
G01X14791842Y327711D01*
G01X14792960Y326796D01*
G01X14794535Y325933D01*
G01X14798192Y324104D01*
G01X14800224Y323190D01*
G01X14802510Y322275D01*
G01X14804542Y321615D01*
G01X14806371Y321158D01*
G01X14807336D01*
G01X14807946Y321615D01*
G01X14808657Y323393D01*
G01X14809318Y326136D01*
G01X14810232Y329336D01*
G01X14810892Y331572D01*
G01X14811146Y333197D01*
G01X14810842Y333908D01*
G01X14809978Y334315D01*
G01X14807946Y334975D01*
G01X14806117Y335686D01*
G01X14804542Y336347D01*
G01X14799564Y338887D01*
G01X14798396Y339750D01*
G01X14797024Y340919D01*
G01X14795906Y342036D01*
G01X14794992Y343205D01*
G01X14793620Y344780D01*
G01X14792249Y347066D01*
G01X14791131Y349098D01*
G01X14789760Y352704D01*
G01X14789099Y354787D01*
G01X14788642Y356616D01*
G01X14788185Y359766D01*
G01X14787931Y364541D01*
G01X14788185Y369316D01*
G01X14788642Y372974D01*
G01X14789099Y375209D01*
G01X14789760Y378206D01*
G01X14790674Y380695D01*
G01X14791588Y382930D01*
G01X14792503Y384759D01*
G01X14793417Y386385D01*
G01X14794332Y387706D01*
G01X14794992Y388874D01*
G01X14795906Y389992D01*
G01X14800478Y394564D01*
G01X14801596Y395478D01*
G01X14804339Y397256D01*
G01X14805914Y398170D01*
G01X14807743Y399085D01*
G01X14810892Y400456D01*
G01X14812975Y401117D01*
G01X14817496Y402488D01*
G01X14819528Y402946D01*
G01X14822729Y403403D01*
G01X14830247Y403657D01*
G01X14838629Y403403D01*
G01X14841830Y402946D01*
G01X14844116Y402488D01*
G01X14846148Y402031D01*
G01X14848840Y401371D01*
G01X14851380Y400456D01*
G01X14853615Y399542D01*
G01X14855901Y398424D01*
G01X14858187Y397053D01*
G01X14859762Y395884D01*
G01X14863166Y393192D01*
G01X14864791Y391566D01*
G01X14866163Y389788D01*
G01X14867280Y388163D01*
G01X14868398Y386385D01*
G01X14869312Y384759D01*
G01X14870227Y382930D01*
G01X14871141Y380695D01*
G01X14872056Y378206D01*
G01X14872716Y376123D01*
G01X14873630Y371145D01*
G01X14873884Y365912D01*
G01X14873630Y359308D01*
G01X14873173Y356616D01*
G01X14872716Y354330D01*
G01X14872056Y351384D01*
G01X14871141Y348640D01*
G01X14870227Y346354D01*
G01X14869312Y344322D01*
G01X14866569Y338887D01*
G01X14865452Y337058D01*
G01X14864334Y335432D01*
G01X14863420Y334112D01*
G01X14860575Y333400D01*
G01X14852955Y333197D01*
G01X14842947D01*
G01Y364998D01*
G01X14830704D01*
G01Y352501D01*
G01X14830450Y339293D01*
G01X14830247Y328879D01*
G01Y319075D01*
G01X14850008D01*
G01X14870024Y319532D01*
G01X14870887Y320446D01*
G01X14872259Y322021D01*
G01X14874545Y325222D01*
G01X14875662Y327050D01*
G01X14876577Y328625D01*
G01X14877745Y330454D01*
G01X14878863Y332486D01*
G01X14880692Y336144D01*
G01X14881606Y338176D01*
G01X14882520Y340462D01*
G01X14885010Y347929D01*
G01X14885924Y352501D01*
G01X14886381Y355702D01*
G01X14886584Y363880D01*
G01X14886381Y372059D01*
G01X14885467Y376580D01*
G01X14885010Y378612D01*
G01X14884298Y381610D01*
G01X14883435Y384556D01*
G01X14882520Y387045D01*
G01X14880692Y391160D01*
G01X14879523Y393395D01*
G01X14877288Y397053D01*
G01X14875002Y400202D01*
G01X14873630Y401828D01*
G01X14868652Y406806D01*
G01X14866823Y408178D01*
G01X14865248Y409296D01*
G01X14861591Y411582D01*
G01X14859559Y412750D01*
G01X14857476Y413614D01*
G01X14855698Y414325D01*
G01X14854072Y414985D01*
G01X14852294Y415696D01*
G01X14849754Y416357D01*
G01X14847722Y417068D01*
G01X14842744Y417932D01*
G01X14839086Y418389D01*
G37*
G36*
G01X14777974Y298653D02*
G01X14777974Y292049D01*
G01X14778177Y284328D01*
G01X14778634Y283312D01*
G01X14779549Y282499D01*
G01X14793874Y272948D01*
G01X14797024Y270662D01*
G01X14844116Y239319D01*
G01X14847265Y237033D01*
G01X14857476Y230226D01*
G01X14859102Y229311D01*
G01X14860016Y228397D01*
G01X14849907Y227889D01*
G01X14819071Y227736D01*
G01X14777974D01*
G01Y213614D01*
G01X14884756D01*
G01Y221132D01*
G01X14884603Y226873D01*
G01X14884095Y229108D01*
G01X14882520Y230226D01*
G01X14853869Y249326D01*
G01X14850669Y251612D01*
G01X14803628Y282956D01*
G01X14802256Y284074D01*
G01X14812467Y284429D01*
G01X14843404Y284531D01*
G01X14884756D01*
G01Y298653D01*
G37*
G36*
G01X14777974Y189992D02*
G01X14777974Y175920D01*
G01X14790217D01*
G01X14831162D01*
G01X14872259Y175666D01*
G01X14872513Y161138D01*
G01X14872259Y146152D01*
G01X14871802Y142037D01*
G01X14871344Y139751D01*
G01X14870481Y136144D01*
G01X14869770Y134315D01*
G01X14867941Y130658D01*
G01X14866823Y128880D01*
G01X14865452Y127254D01*
G01X14863166Y125019D01*
G01X14862048Y124104D01*
G01X14860473Y122936D01*
G01X14858644Y121818D01*
G01X14856816Y120904D01*
G01X14854784Y119990D01*
G01X14852498Y119075D01*
G01X14849551Y118161D01*
G01X14847265Y117500D01*
G01X14841830Y116586D01*
G01X14836343Y116129D01*
G01X14831365Y115926D01*
G01X14826386Y116129D01*
G01X14820900Y116586D01*
G01X14818208Y117043D01*
G01X14814550Y117704D01*
G01X14812264Y118415D01*
G01X14810435Y118872D01*
G01X14808657Y119532D01*
G01X14805000Y121361D01*
G01X14803171Y122479D01*
G01X14801596Y123647D01*
G01X14800478Y124308D01*
G01X14799310Y125222D01*
G01X14796618Y127965D01*
G01X14795246Y129794D01*
G01X14794078Y131369D01*
G01X14792960Y133401D01*
G01X14792046Y135433D01*
G01X14791385Y137973D01*
G01X14790928Y140208D01*
G01X14790471Y144323D01*
G01X14790217Y160477D01*
G01Y175920D01*
G01X14777974D01*
G01Y166370D01*
G01X14778177Y142037D01*
G01X14778634Y137973D01*
G01X14779092Y135433D01*
G01X14779752Y132283D01*
G01X14781124Y128168D01*
G01X14782038Y126136D01*
G01X14784070Y122022D01*
G01X14786356Y118872D01*
G01X14787728Y117297D01*
G01X14792249Y112725D01*
G01X14793417Y111811D01*
G01X14796618Y109525D01*
G01X14799767Y107747D01*
G01X14801139Y107036D01*
G01X14802714Y106375D01*
G01X14804796Y105461D01*
G01X14807489Y104546D01*
G01X14810435Y103632D01*
G01X14812721Y102972D01*
G01X14817750Y102057D01*
G01X14820900Y101600D01*
G01X14830247Y101346D01*
G01X14839544Y101600D01*
G01X14843201Y102057D01*
G01X14850008Y103429D01*
G01X14852498Y104089D01*
G01X14856612Y105461D01*
G01X14858390Y106121D01*
G01X14860016Y106832D01*
G01X14864080Y108864D01*
G01X14866366Y110236D01*
G01X14869566Y112522D01*
G01X14874342Y116586D01*
G01X14877034Y119990D01*
G01X14878863Y122733D01*
G01X14879777Y124308D01*
G01X14880692Y126340D01*
G01X14881606Y128626D01*
G01X14883181Y133401D01*
G01X14884095Y137973D01*
G01X14884552Y141580D01*
G01X14884756Y166116D01*
G01Y189992D01*
G37*
G36*
G01X4090825Y652618D02*
G01X4090598Y659437D01*
G01X4090825Y666482D01*
G01X4091280Y668755D01*
G01X4091962Y671255D01*
G01X4092644Y673300D01*
G01X4093325Y675118D01*
G01X4094234Y676936D01*
G01X4095143Y678527D01*
G01X4096962Y681255D01*
G01X4097871Y682391D01*
G01X4102416Y686936D01*
G01X4103553Y687846D01*
G01X4104689Y688527D01*
G01X4105825Y689437D01*
G01X4107189Y690346D01*
G01X4110371Y692164D01*
G01X4113553Y693527D01*
G01X4115371Y694209D01*
G01X4119007Y695118D01*
G01X4121280Y695573D01*
G01X4124462Y696027D01*
G01X4129916Y696255D01*
G01X4134007Y696027D01*
G01X4137189Y695573D01*
G01X4139007Y695118D01*
G01X4141053Y694437D01*
G01X4144689Y693073D01*
G01X4146734Y691937D01*
G01X4149007Y690573D01*
G01X4150598Y689437D01*
G01X4151734Y688527D01*
G01X4155144Y685118D01*
G01X4156962Y682846D01*
G01X4158098Y681255D01*
G01X4159235Y679437D01*
G01X4160144Y677846D01*
G01X4160825Y676255D01*
G01X4161507Y674437D01*
G01X4162189Y672164D01*
G01X4162643Y670118D01*
G01X4163098Y667846D01*
G01X4163325Y661936D01*
G01X4163098Y656936D01*
G01X4162189Y652846D01*
G01X4161507Y650800D01*
G01X4160598Y648755D01*
G01X4158780Y645118D01*
G01X4158325Y643755D01*
G01X4158609Y643243D01*
G01X4159462Y643073D01*
G01X4161280Y643300D01*
G01X4174916Y646027D01*
G01X4179007Y646936D01*
G01X4183552Y647846D01*
G01X4184916Y648300D01*
G01X4185427Y653811D01*
G01X4185598Y669891D01*
G01Y691255D01*
G01X4197871D01*
G01Y637618D01*
G01X4196280Y637391D01*
G01X4194007Y636936D01*
G01X4189007Y636027D01*
G01X4184462Y635118D01*
G01X4179462Y634209D01*
G01X4177189Y633755D01*
G01X4174462Y633300D01*
G01X4167643Y631937D01*
G01X4164916Y631482D01*
G01X4158098Y630118D01*
G01X4153098Y629209D01*
G01X4148553Y628300D01*
G01X4146053Y627846D01*
G01X4143780Y627391D01*
G01X4143439Y627505D01*
G01X4143325Y628300D01*
G01X4142643Y633755D01*
G01X4142189Y636936D01*
G01X4141962Y638755D01*
G01X4142643Y640346D01*
G01X4144462Y641709D01*
G01X4146280Y643755D01*
G01X4148553Y646936D01*
G01X4149689Y649209D01*
G01X4150598Y651255D01*
G01X4151280Y653982D01*
G01X4151734Y656482D01*
G01X4151962Y660118D01*
G01X4151734Y663755D01*
G01X4151280Y665800D01*
G01X4150598Y668073D01*
G01X4149689Y670118D01*
G01X4148780Y671709D01*
G01X4147643Y673300D01*
G01X4146280Y674891D01*
G01X4145144Y676027D01*
G01X4143780Y677164D01*
G01X4142416Y678073D01*
G01X4140825Y678982D01*
G01X4139007Y679891D01*
G01X4137189Y680573D01*
G01X4133553Y681482D01*
G01X4130371Y681936D01*
G01X4126280Y682164D01*
G01X4123553Y681936D01*
G01X4120371Y681482D01*
G01X4118553Y681027D01*
G01X4116507Y680346D01*
G01X4114234Y679437D01*
G01X4112416Y678527D01*
G01X4110825Y677391D01*
G01X4109234Y676027D01*
G01X4105825Y672618D01*
G01X4104916Y671482D01*
G01X4103325Y668300D01*
G01X4102416Y666255D01*
G01X4101962Y664437D01*
G01X4101734Y662846D01*
G01X4101507Y658755D01*
G01X4101734Y654664D01*
G01X4102416Y652618D01*
G01X4103553Y650118D01*
G01X4104916Y647846D01*
G01X4106280Y646255D01*
G01X4107416Y645118D01*
G01X4109007Y643755D01*
G01X4110825Y642618D01*
G01X4114462Y640800D01*
G01X4116507Y640118D01*
G01X4118553Y639664D01*
G01X4120371Y639209D01*
G01X4121223Y638698D01*
G01X4121507Y637618D01*
G01X4121280Y635573D01*
G01X4120598Y627391D01*
G01Y625346D01*
G01X4119462Y625118D01*
G01X4117644D01*
G01X4115371Y625573D01*
G01X4112871Y626255D01*
G01X4109234Y627618D01*
G01X4107189Y628528D01*
G01X4105598Y629437D01*
G01X4102416Y631709D01*
G01X4101280Y632618D01*
G01X4099007Y634891D01*
G01X4096280Y638300D01*
G01X4095598Y639664D01*
G01X4094462Y641482D01*
G01X4093553Y643528D01*
G01X4092871Y645118D01*
G01X4092189Y647164D01*
G01X4091735Y649209D01*
G01X4091280Y651027D01*
G01X4090825Y652618D01*
G37*
G36*
G01X4092871Y733300D02*
G01X4092416Y739891D01*
G01Y746255D01*
G01X4093553Y746482D01*
G01X4099007Y748527D01*
G01X4100598Y749209D01*
G01X4113325Y753982D01*
G01X4115598Y754891D01*
G01X4120598Y756709D01*
G01X4122871Y757618D01*
G01X4130143Y760346D01*
G01X4132416Y761255D01*
G01X4137416Y763073D01*
G01X4139689Y763982D01*
G01X4143325Y765346D01*
G01X4145598Y766255D01*
G01X4150598Y768073D01*
G01X4152871Y768982D01*
G01X4156507Y770346D01*
G01X4158780Y771255D01*
G01X4163780Y773073D01*
G01X4166053Y773982D01*
G01X4167871Y774664D01*
G01X4169234Y775118D01*
G01X4169575Y773584D01*
G01X4169689Y768527D01*
G01Y761709D01*
G01X4168325Y761255D01*
G01X4133325Y748527D01*
G01X4131053Y747618D01*
G01X4129007Y746937D01*
G01X4125371Y745573D01*
G01X4123325Y744891D01*
G01X4121052Y743982D01*
G01X4112871Y741255D01*
G01X4110598Y740345D01*
G01X4109973Y739891D01*
G01X4109916Y739436D01*
G01X4111507Y738755D01*
G01X4113780Y738073D01*
G01X4124007Y734664D01*
G01X4127644Y733300D01*
G01X4129689Y732618D01*
G01X4133325Y731255D01*
G01X4135371Y730573D01*
G01X4139007Y729209D01*
G01X4141053Y728527D01*
G01X4144689Y727164D01*
G01X4148780Y725800D01*
G01X4151053Y724891D01*
G01X4153780Y723982D01*
G01X4163780Y720346D01*
G01X4166507Y719436D01*
G01X4168780Y718300D01*
G01X4169462Y716084D01*
G01X4169689Y710800D01*
G01Y703982D01*
G01X4168325Y704436D01*
G01X4163780Y706255D01*
G01X4158780Y708073D01*
G01X4154235Y709891D01*
G01X4149235Y711709D01*
G01X4144689Y713527D01*
G01X4139689Y715346D01*
G01X4135144Y717164D01*
G01X4130143Y718982D01*
G01X4125598Y720800D01*
G01X4120598Y722618D01*
G01X4116052Y724436D01*
G01X4111052Y726255D01*
G01X4106507Y728073D01*
G01X4101507Y729891D01*
G01X4096962Y731709D01*
G01X4094462Y732618D01*
G01X4092871Y733300D01*
G37*
G36*
G01X4145382Y358750D02*
G01X4136034Y358546D01*
G01X4132428Y358089D01*
G01X4125620Y356718D01*
G01X4123080Y356006D01*
G01X4119016Y354686D01*
G01X4117188Y353974D01*
G01X4115613Y353314D01*
G01X4111498Y351231D01*
G01X4109212Y349910D01*
G01X4106062Y347624D01*
G01X4101287Y343510D01*
G01X4098544Y340106D01*
G01X4096715Y337414D01*
G01X4095801Y335788D01*
G01X4094937Y333756D01*
G01X4094023Y331470D01*
G01X4092397Y326695D01*
G01X4091483Y322174D01*
G01X4091076Y318516D01*
G01X4090873Y298958D01*
G01X4103116D01*
G01X4103319Y313995D01*
G01X4103573Y315824D01*
G01X4103776Y318059D01*
G01X4104234Y320345D01*
G01X4105148Y324002D01*
G01X4105808Y325780D01*
G01X4107637Y329438D01*
G01X4108755Y331267D01*
G01X4110126Y332842D01*
G01X4112412Y335128D01*
G01X4113530Y336042D01*
G01X4115156Y337160D01*
G01X4116984Y338277D01*
G01X4118762Y339192D01*
G01X4120845Y340106D01*
G01X4123080Y341020D01*
G01X4126078Y341935D01*
G01X4128313Y342595D01*
G01X4133799Y343510D01*
G01X4139235Y343967D01*
G01X4144213Y344221D01*
G01X4149242Y343967D01*
G01X4154678Y343510D01*
G01X4157421Y343052D01*
G01X4161028Y342392D01*
G01X4163314Y341732D01*
G01X4165143Y341274D01*
G01X4166972Y340563D01*
G01X4170578Y338734D01*
G01X4172407Y337617D01*
G01X4173982Y336499D01*
G01X4175150Y335788D01*
G01X4176268Y334874D01*
G01X4179011Y332181D01*
G01X4180383Y330352D01*
G01X4181500Y328778D01*
G01X4182669Y326695D01*
G01X4183532Y324663D01*
G01X4184244Y322174D01*
G01X4184701Y319888D01*
G01X4185158Y315824D01*
G01X4185361Y299669D01*
G01Y284226D01*
G01X4144467D01*
G01X4103319Y284429D01*
G01X4103116Y298958D01*
G01X4090873D01*
G01X4090822Y293980D01*
G01Y270104D01*
G01X4197655D01*
G01Y293776D01*
G01X4197401Y318059D01*
G01X4196944Y322174D01*
G01X4196486Y324663D01*
G01X4195826Y327863D01*
G01X4194454Y331927D01*
G01X4193540Y333959D01*
G01X4191508Y338074D01*
G01X4189222Y341274D01*
G01X4187850Y342849D01*
G01X4183329Y347370D01*
G01X4182212Y348285D01*
G01X4179011Y350571D01*
G01X4175811Y352400D01*
G01X4174439Y353060D01*
G01X4172864Y353771D01*
G01X4170832Y354686D01*
G01X4168089Y355549D01*
G01X4165143Y356464D01*
G01X4162857Y357175D01*
G01X4157878Y358089D01*
G01X4154678Y358546D01*
G37*
G36*
G01X4090822Y246482D02*
G01X4090822Y238963D01*
G01X4090975Y233223D01*
G01X4091483Y231038D01*
G01X4093108Y229870D01*
G01X4121760Y210820D01*
G01X4124909Y208534D01*
G01X4171950Y177190D01*
G01X4173322Y176022D01*
G01X4163162Y175666D01*
G01X4132174Y175565D01*
G01X4090822D01*
G01Y161493D01*
G01X4197655D01*
G01Y168097D01*
G01X4197401Y175819D01*
G01X4196944Y176835D01*
G01X4196029Y177597D01*
G01X4181754Y187147D01*
G01X4178554Y189433D01*
G01X4131513Y220777D01*
G01X4128313Y223063D01*
G01X4118102Y229870D01*
G01X4116527Y230784D01*
G01X4115613Y231699D01*
G01X4125722Y232207D01*
G01X4156507Y232410D01*
G01X4197655D01*
G01Y246482D01*
G37*
G36*
G01X4125620Y141021D02*
G01X4105605Y140564D01*
G01X4104691Y139649D01*
G01X4103319Y138074D01*
G01X4101033Y134874D01*
G01X4099916Y133096D01*
G01X4099001Y131470D01*
G01X4097884Y129642D01*
G01X4096715Y127610D01*
G01X4094937Y124003D01*
G01X4094023Y121920D01*
G01X4093108Y119685D01*
G01X4090619Y112166D01*
G01X4089705Y107594D01*
G01X4089248Y104445D01*
G01X4088994Y96266D01*
G01X4089248Y88087D01*
G01X4090162Y83515D01*
G01X4090619Y81483D01*
G01X4091280Y78537D01*
G01X4092194Y75590D01*
G01X4093108Y73050D01*
G01X4094937Y68986D01*
G01X4096055Y66700D01*
G01X4098341Y63094D01*
G01X4100576Y59893D01*
G01X4101948Y58318D01*
G01X4106977Y53289D01*
G01X4108755Y51918D01*
G01X4110380Y50800D01*
G01X4113987Y48514D01*
G01X4116070Y47396D01*
G01X4118102Y46482D01*
G01X4119931Y45822D01*
G01X4121506Y45110D01*
G01X4123334Y44450D01*
G01X4125824Y43739D01*
G01X4127856Y43078D01*
G01X4132885Y42164D01*
G01X4136492Y41707D01*
G01X4142638Y41504D01*
G01X4149700Y41707D01*
G01X4153306Y42164D01*
G01X4156050Y42621D01*
G01X4158336Y43078D01*
G01X4161485Y43739D01*
G01X4164482Y44653D01*
G01X4167175Y45568D01*
G01X4169461Y46482D01*
G01X4171493Y47396D01*
G01X4175150Y49225D01*
G01X4177182Y50343D01*
G01X4179214Y51714D01*
G01X4182415Y54000D01*
G01X4183990Y55372D01*
G01X4188562Y59893D01*
G01X4189476Y61011D01*
G01X4191711Y64211D01*
G01X4192626Y65786D01*
G01X4194454Y69444D01*
G01X4195369Y71476D01*
G01X4196283Y73762D01*
G01X4197198Y76708D01*
G01X4197858Y78994D01*
G01X4198772Y83515D01*
G01X4199230Y86716D01*
G01X4199484Y94234D01*
G01X4199230Y102159D01*
G01X4198772Y105359D01*
G01X4198112Y108966D01*
G01X4197401Y111252D01*
G01X4196944Y113081D01*
G01X4196283Y115113D01*
G01X4195623Y116942D01*
G01X4194912Y118516D01*
G01X4193997Y120345D01*
G01X4192880Y122377D01*
G01X4191508Y124460D01*
G01X4190390Y126035D01*
G01X4189476Y127152D01*
G01X4185615Y131013D01*
G01X4183786Y132385D01*
G01X4182669Y133299D01*
G01X4181043Y134214D01*
G01X4177436Y136042D01*
G01X4175354Y136957D01*
G01X4173118Y137871D01*
G01X4171036Y138532D01*
G01X4169258Y138989D01*
G01X4168292D01*
G01X4167632Y138532D01*
G01X4166972Y136703D01*
G01X4166260Y133960D01*
G01X4165346Y130810D01*
G01X4164686Y128524D01*
G01X4164482Y126949D01*
G01X4164736Y126187D01*
G01X4165600Y125781D01*
G01X4167632Y125120D01*
G01X4169461Y124460D01*
G01X4171036Y123749D01*
G01X4176065Y121260D01*
G01X4177182Y120345D01*
G01X4178554Y119228D01*
G01X4179672Y118059D01*
G01X4180586Y116942D01*
G01X4181958Y115367D01*
G01X4183329Y113081D01*
G01X4184447Y111049D01*
G01X4185818Y107391D01*
G01X4186530Y105359D01*
G01X4186987Y103530D01*
G01X4187393Y100330D01*
G01X4187647Y95555D01*
G01X4187393Y90780D01*
G01X4186987Y87173D01*
G01X4186530Y84887D01*
G01X4185818Y81940D01*
G01X4184904Y79451D01*
G01X4183990Y77165D01*
G01X4183075Y75336D01*
G01X4182212Y73762D01*
G01X4181297Y72390D01*
G01X4180586Y71272D01*
G01X4179672Y70104D01*
G01X4175150Y65583D01*
G01X4173982Y64668D01*
G01X4171290Y62840D01*
G01X4169664Y61925D01*
G01X4167886Y61011D01*
G01X4164686Y59690D01*
G01X4162654Y58979D01*
G01X4158082Y57607D01*
G01X4156050Y57150D01*
G01X4152849Y56693D01*
G01X4145382Y56490D01*
G01X4136949Y56693D01*
G01X4133799Y57150D01*
G01X4131513Y57607D01*
G01X4129481Y58064D01*
G01X4126738Y58776D01*
G01X4124249Y59690D01*
G01X4121963Y60554D01*
G01X4119677Y61722D01*
G01X4117442Y63094D01*
G01X4115816Y64211D01*
G01X4112412Y66954D01*
G01X4110838Y68529D01*
G01X4109466Y70358D01*
G01X4108348Y71933D01*
G01X4107180Y73762D01*
G01X4106266Y75336D01*
G01X4105351Y77165D01*
G01X4104437Y79451D01*
G01X4103573Y81940D01*
G01X4102862Y83972D01*
G01X4101948Y89002D01*
G01X4101744Y94234D01*
G01X4101948Y100787D01*
G01X4102405Y103530D01*
G01X4102862Y105816D01*
G01X4103573Y108763D01*
G01X4104437Y111506D01*
G01X4105351Y113741D01*
G01X4106266Y115824D01*
G01X4109009Y121260D01*
G01X4110126Y123088D01*
G01X4111295Y124663D01*
G01X4112209Y126035D01*
G01X4115054Y126695D01*
G01X4122623Y126949D01*
G01X4132631D01*
G01Y95098D01*
G01X4144924D01*
G01Y107594D01*
G01X4145128Y120802D01*
G01X4145382Y131267D01*
G01Y141021D01*
G37*
G36*
G01X14186510Y845871D02*
G01X14186510Y827075D01*
G01X14202867D01*
G01X14228318D01*
G01X14254074Y826770D01*
G01X14254378Y807364D01*
G01X14254074Y787349D01*
G01X14253769Y784352D01*
G01X14253464Y780694D01*
G01X14252905Y777037D01*
G01X14251991Y773125D01*
G01X14250772Y769772D01*
G01X14249248Y766775D01*
G01X14247724Y764642D01*
G01X14246504Y763118D01*
G01X14244980Y761594D01*
G01X14243507Y760374D01*
G01X14241374Y759155D01*
G01X14238630Y757987D01*
G01X14235582Y757072D01*
G01X14232890Y756463D01*
G01X14229537Y756158D01*
G01X14225626Y756463D01*
G01X14221968Y757072D01*
G01X14218056Y757987D01*
G01X14214704Y759460D01*
G01X14212570Y760984D01*
G01X14211046Y761898D01*
G01X14208963Y763727D01*
G01X14207134Y766166D01*
G01X14205915Y767944D01*
G01X14204696Y770382D01*
G01X14203782Y772820D01*
G01X14203172Y777646D01*
G01X14202867Y802792D01*
G01Y827075D01*
G01X14186510D01*
G01Y811886D01*
G01X14186814Y777037D01*
G01X14187119Y774954D01*
G01X14187424Y772211D01*
G01X14188034Y768553D01*
G01X14188948Y764337D01*
G01X14190167Y760679D01*
G01X14191386Y757682D01*
G01X14192555Y755244D01*
G01X14194079Y752805D01*
G01X14195603Y750672D01*
G01X14196822Y749198D01*
G01X14199870Y746150D01*
G01X14201953Y744322D01*
G01X14204086Y742798D01*
G01X14206220Y741629D01*
G01X14208658Y740410D01*
G01X14210741Y739496D01*
G01X14213180Y738581D01*
G01X14216228Y737667D01*
G01X14218920Y737057D01*
G01X14225626Y736448D01*
G01X14227404D01*
G01X14230756Y736752D01*
G01X14234719Y737057D01*
G01X14237716Y737667D01*
G01X14242593Y738886D01*
G01X14244980Y739800D01*
G01X14249857Y742188D01*
G01X14252296Y743712D01*
G01X14254378Y745236D01*
G01X14255902Y746150D01*
G01X14257426Y747370D01*
G01X14260474Y750418D01*
G01X14261948Y752500D01*
G01X14263472Y754939D01*
G01X14264691Y757072D01*
G01X14265910Y759460D01*
G01X14267129Y762813D01*
G01X14268044Y765556D01*
G01X14269263Y770992D01*
G01X14269872Y775259D01*
G01X14270431Y781914D01*
G01X14270736Y804926D01*
G01Y827075D01*
G01X14328953D01*
G01Y845871D01*
G37*
G36*
G01X14260170Y718566D02*
G01X14254074Y718261D01*
G01X14251076Y717956D01*
G01X14246809Y717652D01*
G01X14242593Y717042D01*
G01X14238935Y716432D01*
G01X14236497Y715823D01*
G01X14233804Y715264D01*
G01X14230147Y714350D01*
G01X14226845Y713130D01*
G01X14220749Y710692D01*
G01X14218310Y709473D01*
G01X14216228Y708254D01*
G01X14213789Y706780D01*
G01X14211046Y704952D01*
G01X14208963Y703428D01*
G01X14204391Y699770D01*
G01X14199870Y695249D01*
G01X14196212Y690677D01*
G01X14194688Y688594D01*
G01X14193164Y686156D01*
G01X14190777Y681888D01*
G01X14189558Y679196D01*
G01X14188338Y676148D01*
G01X14186510Y670712D01*
G01X14185595Y667664D01*
G01X14184986Y664921D01*
G01X14184376Y660705D01*
G01X14184071Y651916D01*
G01X14184173Y647954D01*
G01X14199870D01*
G01X14200175Y654660D01*
G01X14200784Y658266D01*
G01X14201343Y661619D01*
G01X14202258Y665226D01*
G01X14203477Y668274D01*
G01X14204696Y671017D01*
G01X14205915Y673405D01*
G01X14207439Y676148D01*
G01X14208963Y678282D01*
G01X14210132Y679806D01*
G01X14211351Y681584D01*
G01X14212875Y683412D01*
G01X14215923Y686460D01*
G01X14218310Y688289D01*
G01X14221054Y690067D01*
G01X14223187Y691286D01*
G01X14225626Y692506D01*
G01X14228318Y693725D01*
G01X14233804Y695554D01*
G01X14236802Y696468D01*
G01X14239545Y697078D01*
G01X14243812Y697687D01*
G01X14249248Y698246D01*
G01X14257426Y698551D01*
G01X14266824Y698246D01*
G01X14271650Y697687D01*
G01X14275308Y697078D01*
G01X14278051Y696468D01*
G01X14281658Y695554D01*
G01X14285011Y694334D01*
G01X14288008Y693115D01*
G01X14290446Y691896D01*
G01X14292580Y690677D01*
G01X14295018Y689204D01*
G01X14297101Y687680D01*
G01X14300149Y685241D01*
G01X14304721Y680720D01*
G01X14305890Y679196D01*
G01X14308938Y674929D01*
G01X14310157Y672795D01*
G01X14311376Y670408D01*
G01X14312595Y667664D01*
G01X14313814Y663702D01*
G01X14314678Y660705D01*
G01X14314983Y657657D01*
G01X14315288Y655218D01*
G01X14315592Y650392D01*
G01X14315288Y644957D01*
G01X14314678Y640690D01*
G01X14314068Y637642D01*
G01X14313205Y634340D01*
G01X14312290Y631901D01*
G01X14311376Y629768D01*
G01X14310157Y627380D01*
G01X14308633Y624637D01*
G01X14307414Y622503D01*
G01X14303807Y617982D01*
G01X14300149Y614324D01*
G01X14297101Y611886D01*
G01X14292580Y608889D01*
G01X14290446Y607670D01*
G01X14287754Y606450D01*
G01X14284706Y605231D01*
G01X14278356Y603098D01*
G01X14271650Y601929D01*
G01X14265605Y601320D01*
G01X14258646Y601015D01*
G01X14251686Y601320D01*
G01X14246200Y601929D01*
G01X14242593Y602488D01*
G01X14237716Y603402D01*
G01X14233804Y604622D01*
G01X14230147Y605841D01*
G01X14227404Y607060D01*
G01X14222578Y609498D01*
G01X14220139Y611022D01*
G01X14218056Y612496D01*
G01X14213484Y616153D01*
G01X14211351Y618287D01*
G01X14208963Y621284D01*
G01X14207134Y624027D01*
G01X14205610Y626466D01*
G01X14204086Y629158D01*
G01X14202867Y632206D01*
G01X14201648Y635864D01*
G01X14200784Y638861D01*
G01X14200175Y643128D01*
G01X14199870Y647954D01*
G01X14184173D01*
G01X14184376Y641299D01*
G01X14184986Y637083D01*
G01X14185595Y634035D01*
G01X14186814Y629158D01*
G01X14187729Y626161D01*
G01X14188948Y622808D01*
G01X14190167Y620065D01*
G01X14192555Y615239D01*
G01X14194079Y612800D01*
G01X14195908Y610108D01*
G01X14197432Y607670D01*
G01X14201953Y602234D01*
G01X14203477Y600710D01*
G01X14206525Y598272D01*
G01X14208049Y596748D01*
G01X14210132Y595224D01*
G01X14212875Y593446D01*
G01X14215008Y591922D01*
G01X14217142Y590702D01*
G01X14221968Y588264D01*
G01X14225016Y587045D01*
G01X14228318Y585826D01*
G01X14232280Y584657D01*
G01X14235328Y583743D01*
G01X14240764Y582524D01*
G01X14245590Y581914D01*
G01X14253464Y581304D01*
G01X14257122Y581000D01*
G01X14260779Y581304D01*
G01X14264081Y581609D01*
G01X14268653Y581914D01*
G01X14272870Y582524D01*
G01X14275918Y583133D01*
G01X14279220Y583743D01*
G01X14282877Y584657D01*
G01X14288313Y586435D01*
G01X14291361Y587654D01*
G01X14294104Y588874D01*
G01X14298930Y591312D01*
G01X14301064Y592531D01*
G01X14303502Y594004D01*
G01X14305585Y595528D01*
G01X14310462Y599186D01*
G01X14315592Y604317D01*
G01X14318031Y607365D01*
G01X14320164Y610413D01*
G01X14321688Y612800D01*
G01X14324076Y617068D01*
G01X14325295Y619506D01*
G01X14326514Y622503D01*
G01X14327734Y625856D01*
G01X14328953Y629768D01*
G01X14329867Y632816D01*
G01X14331086Y639470D01*
G01X14331340Y649783D01*
G01X14331086Y660095D01*
G01X14330477Y662534D01*
G01X14329867Y665531D01*
G01X14329258Y667969D01*
G01X14328648Y670712D01*
G01X14327734Y673710D01*
G01X14326819Y676148D01*
G01X14325905Y678282D01*
G01X14323162Y683717D01*
G01X14320164Y688594D01*
G01X14318031Y691591D01*
G01X14316202Y694030D01*
G01X14314678Y695554D01*
G01X14313510Y697078D01*
G01X14311986Y698551D01*
G01X14310157Y700075D01*
G01X14308023Y702208D01*
G01X14305585Y704037D01*
G01X14303502Y705561D01*
G01X14301064Y707034D01*
G01X14299235Y708254D01*
G01X14297101Y709473D01*
G01X14294714Y710692D01*
G01X14290446Y712521D01*
G01X14288008Y713435D01*
G01X14282572Y715264D01*
G01X14278966Y716128D01*
G01X14275918Y717042D01*
G01X14271650Y717652D01*
G01X14266215Y718261D01*
G37*
G36*
G01X14186510Y569468D02*
G01X14185900Y560984D01*
G01X14186205Y551586D01*
G01X14186916Y550367D01*
G01X14188338Y549808D01*
G01X14192250Y548894D01*
G01X14198346Y547370D01*
G01X14203782Y546151D01*
G01X14208658Y544932D01*
G01X14219530Y542493D01*
G01X14224406Y541325D01*
G01X14232585Y539496D01*
G01X14236497Y538582D01*
G01X14239545Y537667D01*
G01X14241983Y537362D01*
G01X14244676Y536753D01*
G01X14249552Y535534D01*
G01X14252296Y534924D01*
G01X14257122Y533705D01*
G01X14259865Y533095D01*
G01X14262252Y532536D01*
G01X14265300Y531927D01*
G01X14268653Y531012D01*
G01X14271041Y530403D01*
G01X14277137Y529184D01*
G01X14281963Y527964D01*
G01X14287449Y526745D01*
G01X14289837Y526136D01*
G01X14292885Y525526D01*
G01X14295323Y524916D01*
G01X14298016Y524612D01*
G01X14304112Y523443D01*
G01X14305280Y523189D01*
G01Y522529D01*
G01X14303197Y521310D01*
G01X14296492Y519481D01*
G01X14294104Y518871D01*
G01X14288618Y517652D01*
G01X14283792Y516433D01*
G01X14275308Y514045D01*
G01X14272870Y513436D01*
G01X14269568Y512521D01*
G01X14266824Y511607D01*
G01X14264081Y510997D01*
G01X14258036Y509168D01*
G01X14254378Y508254D01*
G01X14251686Y507340D01*
G01X14249248Y506781D01*
G01X14245895Y505866D01*
G01X14243202Y504952D01*
G01X14240764Y504342D01*
G01X14237411Y503428D01*
G01X14234719Y502514D01*
G01X14231976Y501904D01*
G01X14225930Y500075D01*
G01X14222273Y499161D01*
G01X14219530Y498246D01*
G01X14214704Y497078D01*
G01X14210436Y495859D01*
G01X14207439Y494944D01*
G01X14198956Y492506D01*
G01X14195908Y491592D01*
G01X14193469Y490982D01*
G01X14190167Y490068D01*
G01X14187119Y488899D01*
G01X14186205Y485750D01*
G01X14185900Y477672D01*
G01X14186154Y469494D01*
G01X14186814Y466141D01*
G01X14189558Y464922D01*
G01X14192555Y464007D01*
G01X14194993Y463398D01*
G01X14211960Y458572D01*
G01X14214399Y457962D01*
G01X14217142Y457048D01*
G01X14220444Y456133D01*
G01X14223187Y455219D01*
G01X14228013Y454050D01*
G01X14236497Y451612D01*
G01X14238935Y451002D01*
G01X14241678Y450088D01*
G01X14246504Y448869D01*
G01X14252600Y447040D01*
G01X14254988Y446430D01*
G01X14263472Y444043D01*
G01X14268348Y442824D01*
G01X14270431Y442214D01*
G01X14277746Y440385D01*
G01X14280439Y439776D01*
G01X14283792Y438861D01*
G01X14295933Y436474D01*
G01X14299540Y435864D01*
G01X14301978Y435254D01*
G01X14304416Y434950D01*
G01X14306194Y434340D01*
G01X14306144Y433883D01*
G01X14305280Y433730D01*
G01X14300454Y432511D01*
G01X14298320Y432206D01*
G01X14288618Y429768D01*
G01X14285925Y429158D01*
G01X14281963Y428295D01*
G01X14278966Y427380D01*
G01X14276832Y427076D01*
G01X14269568Y425247D01*
G01X14266824Y424637D01*
G01X14259560Y422808D01*
G01X14257426Y422199D01*
G01X14254378Y421589D01*
G01X14251076Y420675D01*
G01X14247419Y419760D01*
G01X14244371Y418897D01*
G01X14233500Y416458D01*
G01X14218920Y412801D01*
G01X14216228Y412191D01*
G01X14212570Y411277D01*
G01X14209268Y410413D01*
G01X14206830Y409804D01*
G01X14201343Y408584D01*
G01X14196517Y407365D01*
G01X14191082Y406146D01*
G01X14188948Y405536D01*
G01X14186814Y404622D01*
G01X14186154Y402285D01*
G01X14185900Y396443D01*
G01X14186205Y387350D01*
G01X14186611Y386283D01*
G01X14187119Y386131D01*
G01X14189253Y386740D01*
G01X14191691Y387350D01*
G01X14200175Y389788D01*
G01X14202867Y390398D01*
G01X14206220Y391312D01*
G01X14209268Y392227D01*
G01X14212570Y393141D01*
G01X14215313Y394005D01*
G01X14218056Y394614D01*
G01X14221663Y395529D01*
G01X14224406Y396443D01*
G01X14231671Y398272D01*
G01X14237716Y400101D01*
G01X14241374Y401015D01*
G01X14244371Y401930D01*
G01X14247114Y402488D01*
G01X14250162Y403403D01*
G01X14252600Y404012D01*
G01X14256817Y405232D01*
G01X14261694Y406451D01*
G01X14274394Y410108D01*
G01X14276832Y410718D01*
G01X14279829Y411582D01*
G01X14283487Y412496D01*
G01X14286230Y413410D01*
G01X14291056Y414630D01*
G01X14299540Y417068D01*
G01X14301978Y417678D01*
G01X14305280Y418592D01*
G01X14308023Y419506D01*
G01X14311071Y420065D01*
G01X14314373Y420980D01*
G01X14317116Y421894D01*
G01X14324381Y423723D01*
G01X14326514Y424332D01*
G01X14328648Y425552D01*
G01X14329308Y427838D01*
G01X14329562Y432816D01*
G01X14329258Y441300D01*
G01X14328546Y443027D01*
G01X14327124Y444043D01*
G01X14323162Y445262D01*
G01X14320164Y446126D01*
G01X14317421Y446735D01*
G01X14313814Y447650D01*
G01X14311071Y448564D01*
G01X14306804Y449783D01*
G01X14304416Y450393D01*
G01X14301064Y451307D01*
G01X14298320Y452222D01*
G01X14295628Y452831D01*
G01X14292275Y453746D01*
G01X14289837Y454609D01*
G01X14286840Y455219D01*
G01X14283487Y456133D01*
G01X14280744Y457048D01*
G01X14278356Y457657D01*
G01X14274089Y458876D01*
G01X14271346Y459486D01*
G01X14268348Y460400D01*
G01X14265910Y461010D01*
G01X14261694Y462229D01*
G01X14259255Y462839D01*
G01X14256207Y463702D01*
G01X14252600Y464617D01*
G01X14249857Y465531D01*
G01X14247114Y466141D01*
G01X14244117Y467055D01*
G01X14241678Y467665D01*
G01X14228928Y471322D01*
G01X14226540Y471932D01*
G01X14223492Y472796D01*
G01X14219834Y473710D01*
G01X14217142Y474624D01*
G01X14214399Y475234D01*
G01X14211351Y476148D01*
G01X14208963Y476758D01*
G01X14207947Y476961D01*
G01X14207439Y477672D01*
G01Y478434D01*
G01X14208049Y478892D01*
G01X14209827Y479501D01*
G01X14212265Y480111D01*
G01X14215618Y480974D01*
G01X14218310Y481889D01*
G01X14223187Y483108D01*
G01X14225930Y483718D01*
G01X14231976Y485546D01*
G01X14235582Y486461D01*
G01X14238326Y487375D01*
G01X14240764Y487985D01*
G01X14244117Y488899D01*
G01X14246809Y489763D01*
G01X14251686Y490982D01*
G01X14255902Y492201D01*
G01X14261948Y494030D01*
G01X14266824Y495249D01*
G01X14271041Y496468D01*
G01X14273479Y497078D01*
G01X14276832Y497992D01*
G01X14279524Y498856D01*
G01X14286840Y500685D01*
G01X14289532Y501599D01*
G01X14292580Y502514D01*
G01X14296492Y503428D01*
G01X14299540Y504342D01*
G01X14308023Y506781D01*
G01X14310462Y507340D01*
G01X14313814Y508254D01*
G01X14316507Y509168D01*
G01X14319250Y509778D01*
G01X14325295Y511607D01*
G01X14328343Y512826D01*
G01X14329258Y515620D01*
G01X14329562Y522224D01*
G01X14329258Y531317D01*
G01X14327734Y532232D01*
G01X14325600Y533095D01*
G01X14323466Y533705D01*
G01X14320774Y534314D01*
G01X14317726Y535229D01*
G01X14314068Y536143D01*
G01X14311071Y537058D01*
G01X14301368Y539496D01*
G01X14297101Y540715D01*
G01X14289837Y542493D01*
G01X14283182Y544322D01*
G01X14279524Y545236D01*
G01X14276527Y546151D01*
G01X14273784Y546760D01*
G01X14270736Y547675D01*
G01X14263472Y549504D01*
G01X14259255Y550672D01*
G01X14254378Y551891D01*
G01X14250162Y553110D01*
G01X14242898Y554939D01*
G01X14240154Y555854D01*
G01X14232890Y557682D01*
G01X14228623Y558902D01*
G01X14221358Y560680D01*
G01X14214704Y562508D01*
G01X14211046Y563423D01*
G01X14208049Y564337D01*
G01X14205001Y564947D01*
G01X14201953Y565861D01*
G01X14199870Y566471D01*
G01X14194993Y567690D01*
G01X14190777Y568858D01*
G01X14188338Y569468D01*
G37*
G36*
G01X14186510Y367640D02*
G01X14186510Y264008D01*
G01X14202867D01*
G01Y348894D01*
G01X14247114D01*
G01Y269494D01*
G01X14263472D01*
G01Y348894D01*
G01X14312595D01*
G01Y261010D01*
G01X14328953D01*
G01Y367640D01*
G37*
G36*
G01X14186510Y234340D02*
G01X14186510Y215544D01*
G01X14202258D01*
G01X14225626D01*
G01X14249248Y215240D01*
G01X14249552Y194005D01*
G01X14249248Y172212D01*
G01X14248638Y164338D01*
G01X14248333Y162204D01*
G01X14247724Y158852D01*
G01X14246809Y155854D01*
G01X14246200Y153721D01*
G01X14244980Y150978D01*
G01X14243507Y148895D01*
G01X14242593Y147371D01*
G01X14241374Y145847D01*
G01X14239850Y144628D01*
G01X14238021Y143408D01*
G01X14235887Y142189D01*
G01X14233195Y141021D01*
G01X14230452Y140106D01*
G01X14225930Y139802D01*
G01X14220139Y140411D01*
G01X14216532Y141580D01*
G01X14213484Y143104D01*
G01X14211351Y144628D01*
G01X14209827Y145847D01*
G01X14208354Y147371D01*
G01X14207134Y148895D01*
G01X14205915Y150978D01*
G01X14204696Y153721D01*
G01X14203782Y156464D01*
G01X14203172Y158852D01*
G01X14202562Y163119D01*
G01X14202258Y189789D01*
G01Y215544D01*
G01X14186510D01*
G01Y197053D01*
G01X14186814Y158852D01*
G01X14187119Y156769D01*
G01X14187424Y153416D01*
G01X14188034Y149809D01*
G01X14188643Y147371D01*
G01X14189253Y144628D01*
G01X14190167Y141884D01*
G01X14193469Y135230D01*
G01X14194688Y133706D01*
G01X14197736Y130099D01*
G01X14200784Y127660D01*
G01X14202867Y126136D01*
G01X14205610Y124612D01*
G01X14208049Y123444D01*
G01X14210132Y122530D01*
G01X14212570Y121615D01*
G01X14216228Y120701D01*
G01X14219530Y120091D01*
G01X14224102Y119786D01*
G01X14228623Y120091D01*
G01X14230756Y120396D01*
G01X14234109Y121006D01*
G01X14237106Y121920D01*
G01X14239850Y122834D01*
G01X14243202Y124308D01*
G01X14245895Y126136D01*
G01X14248028Y127660D01*
G01X14251076Y130099D01*
G01X14252600Y131623D01*
G01X14254378Y134010D01*
G01X14257426Y138582D01*
G01X14258646Y141021D01*
G01X14259865Y144018D01*
G01X14261694Y149504D01*
G01X14262557Y152502D01*
G01X14263167Y155854D01*
G01X14263776Y158293D01*
G01X14264183Y158750D01*
G01X14264691Y158293D01*
G01X14266215Y155854D01*
G01X14268044Y152806D01*
G01X14269568Y150673D01*
G01X14270736Y149200D01*
G01X14278356Y141580D01*
G01X14282877Y137973D01*
G01X14285011Y136449D01*
G01X14293190Y131013D01*
G01X14298016Y127965D01*
G01X14300759Y126136D01*
G01X14303807Y124308D01*
G01X14306499Y122530D01*
G01X14311376Y119482D01*
G01X14314068Y117653D01*
G01X14317116Y115824D01*
G01X14319860Y114046D01*
G01X14324686Y110998D01*
G01X14327429Y109169D01*
G01X14328953Y108255D01*
G01Y120091D01*
G01X14328343Y132537D01*
G01X14326514Y134010D01*
G01X14323771Y135839D01*
G01X14318945Y138887D01*
G01X14315897Y140716D01*
G01X14313205Y142494D01*
G01X14303502Y148590D01*
G01X14300759Y150368D01*
G01X14297711Y152197D01*
G01X14289532Y157683D01*
G01X14283182Y162204D01*
G01X14280744Y164033D01*
G01X14277746Y166472D01*
G01X14275308Y168250D01*
G01X14272260Y171298D01*
G01X14270431Y173431D01*
G01X14268958Y175870D01*
G01X14267129Y179476D01*
G01X14266215Y182220D01*
G01X14265605Y184912D01*
G01X14265300Y200711D01*
G01Y215544D01*
G01X14328953D01*
G01Y234340D01*
G37*
G36*
G01X4645000Y797712D02*
G01X4645000Y785927D01*
G01X4645609Y773481D01*
G01X4647438Y771957D01*
G01X4650181Y770128D01*
G01X4655007Y767131D01*
G01X4658055Y765302D01*
G01X4660798Y763473D01*
G01X4670501Y757428D01*
G01X4673194Y755599D01*
G01X4676242Y753770D01*
G01X4684420Y748335D01*
G01X4690770Y743763D01*
G01X4693209Y741985D01*
G01X4696257Y739546D01*
G01X4698644Y737718D01*
G01X4701692Y734720D01*
G01X4703521Y732587D01*
G01X4705045Y730148D01*
G01X4706823Y726491D01*
G01X4707738Y723798D01*
G01X4708347Y721055D01*
G01X4708500Y711962D01*
G01X4724400D01*
G01X4724705Y733806D01*
G01X4725314Y741680D01*
G01X4725619Y743763D01*
G01X4726229Y747116D01*
G01X4727143Y750164D01*
G01X4727753Y752297D01*
G01X4728972Y754990D01*
G01X4730496Y757123D01*
G01X4731360Y758647D01*
G01X4732579Y760171D01*
G01X4734103Y761340D01*
G01X4735932Y762559D01*
G01X4738065Y763778D01*
G01X4740758Y764997D01*
G01X4743501Y765912D01*
G01X4748073Y766216D01*
G01X4753813Y765607D01*
G01X4757471Y764388D01*
G01X4760468Y762864D01*
G01X4762602Y761340D01*
G01X4764126Y760171D01*
G01X4765650Y758647D01*
G01X4766818Y757123D01*
G01X4768037Y754990D01*
G01X4769256Y752297D01*
G01X4770171Y749554D01*
G01X4770780Y747116D01*
G01X4771390Y742899D01*
G01X4771695Y716229D01*
G01Y690474D01*
G01X4748378D01*
G01X4724705Y690778D01*
G01X4724400Y711962D01*
G01X4708500D01*
G01X4708652Y705307D01*
G01Y690474D01*
G01X4645000D01*
G01Y671678D01*
G01X4787443D01*
G01Y708965D01*
G01X4787138Y747116D01*
G01X4786833Y749249D01*
G01X4786528Y752551D01*
G01X4785919Y756209D01*
G01X4785309Y758647D01*
G01X4784700Y761340D01*
G01X4783785Y764083D01*
G01X4780483Y770738D01*
G01X4779264Y772262D01*
G01X4776216Y775919D01*
G01X4773219Y778358D01*
G01X4771085Y779831D01*
G01X4768342Y781355D01*
G01X4765954Y782574D01*
G01X4763821Y783488D01*
G01X4761382Y784403D01*
G01X4757725Y785317D01*
G01X4754423Y785927D01*
G01X4749851Y786232D01*
G01X4745330Y785927D01*
G01X4743196Y785622D01*
G01X4739894Y785012D01*
G01X4736846Y784098D01*
G01X4734103Y783184D01*
G01X4730801Y781660D01*
G01X4728058Y779831D01*
G01X4725924Y778358D01*
G01X4722876Y775919D01*
G01X4721403Y774395D01*
G01X4719574Y771957D01*
G01X4716526Y767436D01*
G01X4715307Y764997D01*
G01X4714088Y761949D01*
G01X4712310Y756514D01*
G01X4711395Y753466D01*
G01X4710786Y750164D01*
G01X4710176Y747725D01*
G01X4709770Y747268D01*
G01X4709262Y747725D01*
G01X4707738Y750164D01*
G01X4705909Y753161D01*
G01X4704436Y755294D01*
G01X4703216Y756818D01*
G01X4695647Y764388D01*
G01X4691075Y768045D01*
G01X4688942Y769569D01*
G01X4680763Y775005D01*
G01X4675937Y778053D01*
G01X4673194Y779831D01*
G01X4670196Y781660D01*
G01X4667453Y783488D01*
G01X4662576Y786536D01*
G01X4659884Y788314D01*
G01X4656836Y790143D01*
G01X4654093Y791972D01*
G01X4649267Y795020D01*
G01X4646524Y796798D01*
G37*
G36*
G01X4645000Y645008D02*
G01X4645000Y538328D01*
G01X4787443D01*
G01Y641960D01*
G01X4771085D01*
G01Y557124D01*
G01X4726838D01*
G01Y636524D01*
G01X4710481D01*
G01Y557124D01*
G01X4661408D01*
G01Y645008D01*
G37*
G36*
G01X4786833Y519836D02*
G01X4784700Y519227D01*
G01X4782312Y518617D01*
G01X4773828Y516230D01*
G01X4771085Y515620D01*
G01X4767732Y514706D01*
G01X4764735Y513791D01*
G01X4761382Y512877D01*
G01X4758639Y511962D01*
G01X4755947Y511353D01*
G01X4752289Y510438D01*
G01X4749546Y509524D01*
G01X4742282Y507746D01*
G01X4736236Y505917D01*
G01X4732579Y505003D01*
G01X4729582Y504088D01*
G01X4726838Y503479D01*
G01X4723790Y502564D01*
G01X4721403Y501955D01*
G01X4717136Y500736D01*
G01X4712310Y499567D01*
G01X4699559Y495910D01*
G01X4697120Y495300D01*
G01X4694123Y494386D01*
G01X4690466Y493471D01*
G01X4687773Y492557D01*
G01X4682896Y491388D01*
G01X4674413Y488950D01*
G01X4671974Y488340D01*
G01X4668672Y487426D01*
G01X4665929Y486512D01*
G01X4662881Y485902D01*
G01X4659579Y484988D01*
G01X4656836Y484073D01*
G01X4649572Y482295D01*
G01X4647438Y481686D01*
G01X4645304Y480466D01*
G01X4644644Y478180D01*
G01X4644390Y473202D01*
G01X4644695Y464718D01*
G01X4645406Y462940D01*
G01X4646828Y461975D01*
G01X4650791Y460756D01*
G01X4653788Y459842D01*
G01X4656531Y459232D01*
G01X4660189Y458318D01*
G01X4662881Y457403D01*
G01X4667148Y456235D01*
G01X4669587Y455625D01*
G01X4672889Y454711D01*
G01X4675632Y453796D01*
G01X4678375Y453187D01*
G01X4681677Y452272D01*
G01X4684116Y451358D01*
G01X4687164Y450748D01*
G01X4690466Y449834D01*
G01X4693209Y448920D01*
G01X4695647Y448310D01*
G01X4699864Y447142D01*
G01X4702607Y446532D01*
G01X4705604Y445618D01*
G01X4708042Y445008D01*
G01X4712310Y443789D01*
G01X4714697Y443179D01*
G01X4717745Y442265D01*
G01X4721403Y441350D01*
G01X4724095Y440436D01*
G01X4726838Y439826D01*
G01X4729886Y438963D01*
G01X4732274Y438353D01*
G01X4745025Y434696D01*
G01X4747463Y434086D01*
G01X4750460Y433172D01*
G01X4754118Y432257D01*
G01X4756861Y431343D01*
G01X4759554Y430733D01*
G01X4762602Y429870D01*
G01X4765040Y429260D01*
G01X4766005Y429006D01*
G01X4766513Y428346D01*
G01Y427584D01*
G01X4765954Y427126D01*
G01X4764126Y426517D01*
G01X4761687Y425907D01*
G01X4758334Y424993D01*
G01X4755642Y424078D01*
G01X4750765Y422859D01*
G01X4748073Y422250D01*
G01X4741977Y420472D01*
G01X4738370Y419557D01*
G01X4735627Y418643D01*
G01X4733188Y418033D01*
G01X4729886Y417119D01*
G01X4727143Y416204D01*
G01X4722317Y414985D01*
G01X4718050Y413766D01*
G01X4712005Y411988D01*
G01X4707128Y410769D01*
G01X4702912Y409550D01*
G01X4700473Y408940D01*
G01X4697120Y408026D01*
G01X4694428Y407111D01*
G01X4687164Y405282D01*
G01X4684420Y404419D01*
G01X4681372Y403504D01*
G01X4677461Y402590D01*
G01X4674413Y401676D01*
G01X4665929Y399237D01*
G01X4663491Y398628D01*
G01X4660189Y397713D01*
G01X4657446Y396799D01*
G01X4654702Y396189D01*
G01X4648657Y394411D01*
G01X4645609Y393192D01*
G01X4644695Y390398D01*
G01X4644390Y383794D01*
G01X4644695Y374701D01*
G01X4646219Y373786D01*
G01X4648352Y372872D01*
G01X4650486Y372262D01*
G01X4653178Y371653D01*
G01X4656226Y370738D01*
G01X4659884Y369824D01*
G01X4662881Y368960D01*
G01X4672584Y366522D01*
G01X4676851Y365303D01*
G01X4684116Y363474D01*
G01X4690770Y361645D01*
G01X4694428Y360782D01*
G01X4697425Y359867D01*
G01X4700168Y359258D01*
G01X4703216Y358343D01*
G01X4710481Y356514D01*
G01X4714697Y355295D01*
G01X4719574Y354076D01*
G01X4723790Y352857D01*
G01X4731106Y351079D01*
G01X4733798Y350164D01*
G01X4741062Y348336D01*
G01X4745330Y347116D01*
G01X4752594Y345288D01*
G01X4759249Y343510D01*
G01X4762906Y342595D01*
G01X4765954Y341681D01*
G01X4768952Y341071D01*
G01X4772000Y340157D01*
G01X4774133Y339547D01*
G01X4778959Y338328D01*
G01X4783226Y337109D01*
G01X4785614Y336499D01*
G01X4787443D01*
G01X4788052Y344983D01*
G01X4787748Y354381D01*
G01X4787087Y355600D01*
G01X4785614Y356210D01*
G01X4781702Y357124D01*
G01X4775606Y358648D01*
G01X4770171Y359867D01*
G01X4765345Y361036D01*
G01X4754423Y363474D01*
G01X4749546Y364693D01*
G01X4741367Y366522D01*
G01X4737456Y367436D01*
G01X4734408Y368351D01*
G01X4731969Y368656D01*
G01X4729277Y369265D01*
G01X4724400Y370434D01*
G01X4721708Y371043D01*
G01X4716831Y372262D01*
G01X4714088Y372872D01*
G01X4711700Y373482D01*
G01X4708652Y374091D01*
G01X4705299Y375006D01*
G01X4702912Y375615D01*
G01X4696816Y376834D01*
G01X4691990Y378054D01*
G01X4686554Y379222D01*
G01X4684116Y379832D01*
G01X4681068Y380441D01*
G01X4678680Y381051D01*
G01X4675937Y381356D01*
G01X4669892Y382575D01*
G01X4668672Y382778D01*
G01Y383489D01*
G01X4670755Y384708D01*
G01X4677461Y386537D01*
G01X4679848Y387096D01*
G01X4685335Y388315D01*
G01X4690161Y389534D01*
G01X4698644Y391973D01*
G01X4701083Y392582D01*
G01X4704436Y393497D01*
G01X4707128Y394411D01*
G01X4709871Y395021D01*
G01X4715916Y396799D01*
G01X4719574Y397713D01*
G01X4722317Y398628D01*
G01X4724705Y399237D01*
G01X4728058Y400152D01*
G01X4730801Y401066D01*
G01X4733188Y401676D01*
G01X4736541Y402590D01*
G01X4739284Y403504D01*
G01X4741977Y404114D01*
G01X4748073Y405892D01*
G01X4751680Y406806D01*
G01X4754423Y407721D01*
G01X4759249Y408940D01*
G01X4763516Y410159D01*
G01X4766513Y411074D01*
G01X4774997Y413461D01*
G01X4778045Y414376D01*
G01X4780483Y414985D01*
G01X4783785Y415900D01*
G01X4786833Y417119D01*
G01X4787748Y420218D01*
G01X4788052Y428346D01*
G01X4787849Y436524D01*
G01X4787138Y439826D01*
G01X4784395Y441046D01*
G01X4781398Y441960D01*
G01X4778959Y442570D01*
G01X4761992Y447446D01*
G01X4759554Y448005D01*
G01X4756861Y448920D01*
G01X4753508Y449834D01*
G01X4750765Y450748D01*
G01X4745939Y451968D01*
G01X4737456Y454406D01*
G01X4735017Y455016D01*
G01X4732274Y455930D01*
G01X4727448Y457098D01*
G01X4721403Y458927D01*
G01X4718964Y459537D01*
G01X4710481Y461975D01*
G01X4705604Y463194D01*
G01X4703521Y463804D01*
G01X4696257Y465582D01*
G01X4693514Y466192D01*
G01X4690161Y467106D01*
G01X4678070Y469544D01*
G01X4674413Y470154D01*
G01X4671974Y470764D01*
G01X4669587Y471068D01*
G01X4667758Y471678D01*
G01X4667809Y472135D01*
G01X4668672Y472288D01*
G01X4673498Y473507D01*
G01X4675632Y473812D01*
G01X4685335Y476199D01*
G01X4688027Y476809D01*
G01X4691990Y477723D01*
G01X4695038Y478638D01*
G01X4697120Y478942D01*
G01X4704436Y480771D01*
G01X4707128Y481381D01*
G01X4714392Y483159D01*
G01X4716526Y483768D01*
G01X4719574Y484378D01*
G01X4722876Y485292D01*
G01X4726534Y486207D01*
G01X4729582Y487121D01*
G01X4740453Y489560D01*
G01X4755032Y493166D01*
G01X4757725Y493776D01*
G01X4761382Y494690D01*
G01X4764735Y495605D01*
G01X4767123Y496214D01*
G01X4772609Y497434D01*
G01X4777435Y498653D01*
G01X4782922Y499872D01*
G01X4785004Y500431D01*
G01X4787138Y501345D01*
G01X4787849Y503733D01*
G01X4788052Y509524D01*
G01X4787748Y518617D01*
G01X4787392Y519684D01*
G37*
G36*
G01X4716831Y325018D02*
G01X4713224Y324714D01*
G01X4709871Y324409D01*
G01X4705299Y324104D01*
G01X4701083Y323494D01*
G01X4698035Y322885D01*
G01X4694733Y322275D01*
G01X4691075Y321361D01*
G01X4685640Y319532D01*
G01X4682592Y318313D01*
G01X4679848Y317144D01*
G01X4675022Y314706D01*
G01X4672889Y313487D01*
G01X4670501Y311963D01*
G01X4668368Y310439D01*
G01X4663491Y306832D01*
G01X4658360Y301650D01*
G01X4655922Y298653D01*
G01X4653788Y295605D01*
G01X4652315Y293167D01*
G01X4649876Y288950D01*
G01X4648657Y286512D01*
G01X4647438Y283464D01*
G01X4646219Y280162D01*
G01X4645000Y276200D01*
G01X4644136Y273202D01*
G01X4642917Y266497D01*
G01X4642612Y256235D01*
G01Y255626D01*
G01X4658360D01*
G01X4658665Y261061D01*
G01X4659274Y265278D01*
G01X4659884Y268326D01*
G01X4660798Y271678D01*
G01X4661713Y274066D01*
G01X4662576Y276200D01*
G01X4663796Y278638D01*
G01X4665320Y281381D01*
G01X4666539Y283464D01*
G01X4670196Y288036D01*
G01X4673803Y291643D01*
G01X4676851Y294081D01*
G01X4681372Y297129D01*
G01X4683506Y298348D01*
G01X4686249Y299568D01*
G01X4689246Y300736D01*
G01X4695647Y302870D01*
G01X4702302Y304089D01*
G01X4708347Y304698D01*
G01X4715307Y305003D01*
G01X4722317Y304698D01*
G01X4727753Y304089D01*
G01X4731360Y303479D01*
G01X4736236Y302565D01*
G01X4740148Y301346D01*
G01X4743806Y300126D01*
G01X4746549Y298958D01*
G01X4751375Y296520D01*
G01X4753813Y294996D01*
G01X4755947Y293472D01*
G01X4760468Y289865D01*
G01X4762602Y287731D01*
G01X4765040Y284683D01*
G01X4766818Y281991D01*
G01X4768342Y279552D01*
G01X4769866Y276809D01*
G01X4771085Y273812D01*
G01X4772304Y270154D01*
G01X4773219Y267106D01*
G01X4773828Y262890D01*
G01X4774133Y258013D01*
G01X4773828Y251358D01*
G01X4773219Y247752D01*
G01X4772609Y244399D01*
G01X4771695Y240741D01*
G01X4770476Y237744D01*
G01X4769256Y235001D01*
G01X4768037Y232562D01*
G01X4766513Y229870D01*
G01X4765040Y227736D01*
G01X4763821Y226212D01*
G01X4762602Y224384D01*
G01X4761078Y222555D01*
G01X4758030Y219558D01*
G01X4755642Y217729D01*
G01X4752899Y215900D01*
G01X4750765Y214681D01*
G01X4748378Y213462D01*
G01X4745634Y212293D01*
G01X4740148Y210464D01*
G01X4737151Y209550D01*
G01X4734408Y208940D01*
G01X4730191Y208331D01*
G01X4724705Y207721D01*
G01X4716526Y207416D01*
G01X4707128Y207721D01*
G01X4702302Y208331D01*
G01X4698644Y208940D01*
G01X4695952Y209550D01*
G01X4692294Y210464D01*
G01X4688942Y211684D01*
G01X4685944Y212903D01*
G01X4683506Y214071D01*
G01X4681372Y215290D01*
G01X4678985Y216814D01*
G01X4676851Y218338D01*
G01X4673803Y220777D01*
G01X4669282Y225298D01*
G01X4668063Y226822D01*
G01X4665015Y231038D01*
G01X4663796Y233172D01*
G01X4662576Y235610D01*
G01X4661408Y238354D01*
G01X4660189Y242265D01*
G01X4659274Y245313D01*
G01X4658970Y248310D01*
G01X4658665Y250749D01*
G01X4658360Y255626D01*
G01X4642612D01*
G01X4642917Y245923D01*
G01X4643526Y243484D01*
G01X4644136Y240436D01*
G01X4644695Y238049D01*
G01X4645304Y235306D01*
G01X4646219Y232258D01*
G01X4647133Y229870D01*
G01X4648048Y227736D01*
G01X4650791Y222250D01*
G01X4653788Y217424D01*
G01X4655922Y214376D01*
G01X4657750Y211988D01*
G01X4659274Y210464D01*
G01X4660494Y208940D01*
G01X4661967Y207416D01*
G01X4663796Y205892D01*
G01X4665929Y203810D01*
G01X4668368Y201981D01*
G01X4670501Y200457D01*
G01X4672889Y198933D01*
G01X4674718Y197714D01*
G01X4676851Y196494D01*
G01X4679239Y195326D01*
G01X4683506Y193497D01*
G01X4685944Y192583D01*
G01X4691380Y190754D01*
G01X4695038Y189840D01*
G01X4698035Y188925D01*
G01X4702302Y188316D01*
G01X4707738Y187706D01*
G01X4713834Y187401D01*
G01X4719879Y187706D01*
G01X4722876Y188011D01*
G01X4727143Y188316D01*
G01X4731360Y188925D01*
G01X4735017Y189535D01*
G01X4737456Y190144D01*
G01X4740148Y190754D01*
G01X4743806Y191668D01*
G01X4747158Y192888D01*
G01X4753204Y195326D01*
G01X4755642Y196494D01*
G01X4757725Y197714D01*
G01X4760163Y199238D01*
G01X4762906Y201066D01*
G01X4765040Y202590D01*
G01X4769561Y206197D01*
G01X4774133Y210769D01*
G01X4777740Y215290D01*
G01X4779264Y217424D01*
G01X4780788Y219862D01*
G01X4783226Y224079D01*
G01X4784395Y226822D01*
G01X4785614Y229870D01*
G01X4787443Y235306D01*
G01X4788357Y238354D01*
G01X4788967Y241046D01*
G01X4789576Y245313D01*
G01X4789881Y254102D01*
G01X4789576Y264719D01*
G01X4788967Y268935D01*
G01X4788357Y271983D01*
G01X4787138Y276809D01*
G01X4786224Y279857D01*
G01X4785004Y283159D01*
G01X4783785Y285902D01*
G01X4781398Y290779D01*
G01X4779874Y293167D01*
G01X4778045Y295910D01*
G01X4776521Y298348D01*
G01X4772000Y303784D01*
G01X4770476Y305308D01*
G01X4767428Y307746D01*
G01X4765954Y309220D01*
G01X4763821Y310744D01*
G01X4761078Y312572D01*
G01X4758944Y314096D01*
G01X4756861Y315316D01*
G01X4751984Y317703D01*
G01X4748936Y318922D01*
G01X4745634Y320142D01*
G01X4741672Y321361D01*
G01X4738675Y322275D01*
G01X4733188Y323494D01*
G01X4728362Y324104D01*
G01X4720488Y324714D01*
G37*
G36*
G01X4746549Y169570D02*
G01X4743196Y169266D01*
G01X4739284Y168961D01*
G01X4736236Y168351D01*
G01X4731360Y167132D01*
G01X4728972Y166218D01*
G01X4724095Y163779D01*
G01X4721708Y162255D01*
G01X4719574Y160782D01*
G01X4718050Y159868D01*
G01X4716526Y158648D01*
G01X4713529Y155600D01*
G01X4712005Y153467D01*
G01X4710481Y151079D01*
G01X4709262Y148946D01*
G01X4708042Y146507D01*
G01X4706823Y143205D01*
G01X4705909Y140462D01*
G01X4704740Y134976D01*
G01X4704131Y130759D01*
G01X4703521Y124104D01*
G01X4703216Y101041D01*
G01Y98654D01*
G01X4719574D01*
G01X4719879Y118618D01*
G01X4720184Y121666D01*
G01X4720488Y125324D01*
G01X4721098Y128930D01*
G01X4722012Y132893D01*
G01X4723181Y136195D01*
G01X4724705Y139243D01*
G01X4726229Y141376D01*
G01X4727448Y142900D01*
G01X4728972Y144374D01*
G01X4730496Y145593D01*
G01X4732579Y146812D01*
G01X4735322Y148031D01*
G01X4738370Y148946D01*
G01X4741062Y149555D01*
G01X4744415Y149860D01*
G01X4748378Y149555D01*
G01X4751984Y148946D01*
G01X4755947Y148031D01*
G01X4759249Y146507D01*
G01X4761382Y144983D01*
G01X4762906Y144069D01*
G01X4765040Y142291D01*
G01X4766818Y139852D01*
G01X4768037Y138024D01*
G01X4769256Y135585D01*
G01X4770171Y133198D01*
G01X4770780Y128321D01*
G01X4771085Y103175D01*
G01Y78943D01*
G01X4745634D01*
G01X4719879Y79248D01*
G01X4719574Y98654D01*
G01X4703216D01*
G01Y78943D01*
G01X4645000D01*
G01Y60147D01*
G01X4787443D01*
G01Y94082D01*
G01X4787138Y128930D01*
G01X4786833Y131064D01*
G01X4786528Y133807D01*
G01X4785919Y137414D01*
G01X4785004Y141681D01*
G01X4783785Y145288D01*
G01X4782617Y148336D01*
G01X4781398Y150774D01*
G01X4779874Y153162D01*
G01X4778350Y155296D01*
G01X4777130Y156820D01*
G01X4774133Y159868D01*
G01X4772000Y161646D01*
G01X4769866Y163170D01*
G01X4767732Y164389D01*
G01X4765345Y165608D01*
G01X4763211Y166522D01*
G01X4760773Y167437D01*
G01X4757725Y168351D01*
G01X4755032Y168961D01*
G01X4748378Y169570D01*
G37*
G04 Text End*
G54D10*

M02*
