G04 Layer: InnerLayer1*
G04 EasyEDA Pro v2.1.57.773a98f1.225d47, 2025-02-25 21:56:38*
G04 Gerber Generator version 0.3*
G04 Scale: 100 percent, Rotated: No, Reflected: No*
G04 Dimensions in millimeters*
G04 Leading zeros omitted, absolute positions, 3 integers and 5 decimals*
%FSLAX35Y35*%
%MOMM*%
%ADD8191C,0.2032*%
%ADD10C,0.254*%
%ADD11C,1.0*%
%ADD12C,3.7*%
%ADD13R,1.7X1.7*%
%ADD14C,1.7*%
%ADD15R,1.8X1.8*%
%ADD16C,1.8*%
%ADD17C,2.49999*%
%ADD18R,1.7023X1.7*%
%ADD19R,1.7X1.7*%
%ADD20R,1.7X1.7*%
%ADD21C,0.61*%
%ADD22C,0.6096*%
%ADD23C,0.55*%
%ADD24C,0.75*%
%ADD25C,0.6*%
%ADD26C,0.675*%
%ADD27C,0.5*%
%ADD28C,0.4*%
%ADD29C,0.8*%
G75*


G04 Copper Start*
G36*
G01X7823004Y-1235344D02*
G01X7823004Y127173D01*
G01X5351009D01*
G01Y-1215931D01*
G01X5341925Y-1224346D01*
G01X4025654D01*
G01Y3755166D01*
G01X4223579D01*
G03X4223346Y3748000I110422J-7166D01*
G03X4334000Y3637346I110654J0D01*
G03X4444654Y3748000I0J110654D01*
G03X4444422Y3755166I-110654J0D01*
G01X4477579D01*
G03X4477346Y3748000I110422J-7166D01*
G03X4588000Y3637346I110654J0D01*
G03X4698654Y3748000I0J110654D01*
G03X4698422Y3755166I-110654J0D01*
G01X4807010D01*
G01X4834010Y3728166D01*
G01Y3031167D01*
G01X5006732Y2843024D01*
G01X8484858D01*
G01X8556387Y2914552D01*
G01Y3420167D01*
G01X8763002D01*
G01X8765002Y3422167D01*
G01Y3747626D01*
G03X8766635Y3766992I-114021J19366D01*
G01X8766632Y3767796D01*
G01X8792427Y3793592D01*
G03X8789327Y3766992I112554J-26599D01*
G03X8904981Y3651339I115654J0D01*
G03X9020635Y3766992I0J115654D01*
G03X9017397Y3794166I-115654J0D01*
G01X9046565D01*
G03X9043327Y3766992I112416J-27173D01*
G03X9158981Y3651339I115654J0D01*
G03X9274635Y3766992I0J115654D01*
G03X9271397Y3794166I-115654J0D01*
G01X9300565D01*
G03X9297327Y3766992I112416J-27173D01*
G03X9412981Y3651339I115654J0D01*
G03X9528635Y3766992I0J115654D01*
G03X9525397Y3794166I-115654J0D01*
G01X9623000D01*
G01Y3379167D01*
G01X9654000Y3348167D01*
G01X9656000Y3350167D01*
G01X10691998D01*
G01X10794473Y3247692D01*
G01Y2824643D01*
G01X13753992D01*
G01Y2829643D01*
G01X13980754Y3056405D01*
G01X13981693Y3489167D01*
G01X14200906Y3488691D01*
G01X14201020Y3494138D01*
G01Y3880566D01*
G01X14269775Y3950824D01*
G01X14974346D01*
G01Y-1122468D01*
G01X14861470Y-1235344D01*
G01X7823004D01*
G37*
%LPC*%
G36*
G01X9235827Y142000D02*
G03X9291981Y85846I56154J0D01*
G03X9336622Y107934I0J56154D01*
G01X9344034Y115346D01*
G01X12016976D01*
G03X12056329Y131646I0J55654D01*
G01X12485328Y560646D01*
G03X12501629Y599999I-39353J39353D01*
G01Y1168520D01*
G03X12502129Y1175998I-55654J7478D01*
G03X12466302Y1228343I-56154J0D01*
G01X12615064D01*
G01X12714573Y1128835D01*
G03X12769974Y1081844I55401J9163D01*
G03X12805320Y1094363I0J56154D01*
G01Y983909D01*
G01X12760811Y939400D01*
G03X12713820Y883998I9163J-55401D01*
G03X12769974Y827844I56154J0D01*
G03X12825376Y874835I0J56154D01*
G01X12883257Y932716D01*
G03X12896628Y964998I-32282J32282D01*
G01Y1174998D01*
G03X12883257Y1207280I-45654J0D01*
G01X12707193Y1383343D01*
G01X14179004D01*
G03X14211286Y1396715I0J45654D01*
G01X14259171Y1444599D01*
G03X14306162Y1500001I-9163J55401D01*
G03X14250008Y1556155I-56154J0D01*
G03X14194606Y1509164I0J-56154D01*
G01X14160094Y1474651D01*
G01X12215428D01*
G03X12164976Y1506151I-50453J-24654D01*
G03X12108822Y1449997I0J-56154D01*
G03X12136411Y1401651I56154J0D01*
G01X11651751D01*
G03X11659263Y1407718I-24771J38349D01*
G01X11667140Y1415596D01*
G03X11714131Y1470997I-9163J55401D01*
G03X11657977Y1527151I-56154J0D01*
G03X11603769Y1485655I0J-56154D01*
G01X11258916D01*
G01X11152288Y1592283D01*
G03X11120006Y1605655I-32282J-32282D01*
G01X10960006D01*
G03X10927724Y1592283I0J-45654D01*
G01X10821095Y1485655D01*
G01X9742984D01*
G03X9710702Y1472283I0J-45654D01*
G01X8817700Y579281D01*
G03X8804328Y546999I32282J-32282D01*
G01Y369999D01*
G03X8817700Y337717I45654J0D01*
G01X8927699Y227718D01*
G03X8959981Y214346I32282J32282D01*
G01X9100005D01*
G03X9132287Y227718I0J45654D01*
G01X9161521Y256952D01*
G03X9164982Y256845I3461J56047D01*
G03X9184836Y260472I0J56154D01*
G03X9183851Y250000I55169J-10472D01*
G03X9240005Y193846I56154J0D01*
G03X9296159Y250000I0J56154D01*
G03X9240005Y306154I-56154J0D01*
G03X9220151Y302527I0J-56154D01*
G03X9221136Y312999I-55169J10472D01*
G03X9164982Y369153I-56154J0D01*
G03X9136734Y361531I0J-56154D01*
G03X9138136Y373999I-54752J12468D01*
G03X9090027Y429574I-56154J0D01*
G03X9093136Y447999I-53045J18425D01*
G03X9082636Y480695I-56154J0D01*
G01Y515088D01*
G01X9294253Y726705D01*
G03X9293851Y720000I55752J-6705D01*
G03X9350005Y663846I56154J0D01*
G03X9406159Y720000I0J56154D01*
G03X9350005Y776154I-56154J0D01*
G03X9343300Y775753I0J-56154D01*
G01X9717004Y1149456D01*
G03X9716826Y1144998I55977J-4459D01*
G03X9772980Y1088844I56154J0D01*
G03X9828983Y1140879I0J56154D01*
G03X9871980Y1120844I42997J36118D01*
G03X9878431Y1121215I0J56154D01*
G03X9877826Y1112998I55550J-8218D01*
G03X9933980Y1056844I56154J0D01*
G03X9990134Y1112998I0J56154D01*
G03X9933980Y1169152I-56154J0D01*
G03X9927530Y1168780I0J-56154D01*
G03X9928134Y1176998I-55550J8218D01*
G03X9894715Y1228343I-56154J0D01*
G01X12425648D01*
G03X12389821Y1175998I20327J-52346D01*
G03X12390321Y1168520I56154J0D01*
G01Y882134D01*
G03X12335975Y924152I-54346J-14135D01*
G03X12280574Y877161I0J-56154D01*
G01X11740066Y336653D01*
G01X11724542D01*
G03X11752131Y384999I-28565J48346D01*
G03X11695977Y441153I-56154J0D01*
G03X11639823Y384999I0J-56154D01*
G03X11667412Y336653I56154J0D01*
G01X10490890D01*
G01X10293583Y533960D01*
G03X10346160Y590000I-3577J56040D01*
G03X10290006Y646154I-56154J0D01*
G03X10233966Y593577I0J-56154D01*
G01X10181262Y646281D01*
G03X10148980Y659653I-32282J-32282D01*
G01X10081890D01*
G01X10079597Y661947D01*
G03X10082980Y661844I3383J56052D01*
G03X10139134Y717999I0J56154D01*
G03X10082980Y774153I-56154J0D01*
G03X10026826Y717999I0J-56154D01*
G03X10026928Y714615I56154J0D01*
G01X9863535Y878008D01*
G03X9890980Y870844I27445J48990D01*
G03X9947134Y926998I0J56154D01*
G03X9890980Y983152I-56154J0D01*
G03X9834826Y926998I0J-56154D01*
G03X9851083Y887482I56154J0D01*
G03X9829980Y892652I-21103J-40484D01*
G01X9634981D01*
G03X9602699Y879281I0J-45654D01*
G01X9602698D01*
G01X9515109Y791691D01*
G03X9521135Y816998I-50128J25307D01*
G03X9464981Y873152I-56154J0D01*
G03X9408827Y816998I0J-56154D01*
G03X9464981Y760844I56154J0D01*
G03X9490288Y766870I0J56154D01*
G01X9384818Y661400D01*
G03X9337827Y605999I9163J-55401D01*
G03X9393981Y549845I56154J0D01*
G03X9408690Y551805I0J56154D01*
G03X9407827Y541999I55291J-9806D01*
G03X9463981Y485845I56154J0D01*
G03X9480229Y488247I0J56154D01*
G03X9476827Y468999I52752J-19248D01*
G03X9532981Y412845I56154J0D01*
G03X9589135Y468999I0J56154D01*
G03X9532981Y525153I-56154J0D01*
G03X9516733Y522751I0J-56154D01*
G03X9520135Y541999I-52752J19248D01*
G03X9463981Y598153I-56154J0D01*
G03X9449272Y596192I0J-56154D01*
G01X9449383Y596836D01*
G01X9653891Y801344D01*
G01X9811070D01*
G01X10030698Y581717D01*
G03X10062980Y568345I32282J32282D01*
G01X10130069D01*
G01X10155444Y542970D01*
G03X10103826Y486999I4535J-55971D01*
G03X10104391Y479049I56154J0D01*
G03X10085980Y482153I-18411J-53050D01*
G03X10029837Y427147I0J-56154D01*
G01X10028980Y427153D01*
G03X9972826Y370999I0J-56154D01*
G03X9975685Y353308I56154J0D01*
G03X9965980Y354153I-9705J-55309D01*
G03X9909826Y297999I0J-56154D01*
G03X9965980Y241845I56154J0D01*
G03X10022134Y297999I0J56154D01*
G03X10019275Y315690I-56154J0D01*
G03X10028980Y314845I9705J55309D01*
G03X10085122Y369852I0J56154D01*
G01X10085980Y369845D01*
G03X10142134Y425999I0J56154D01*
G03X10141568Y433949I-56154J0D01*
G03X10159980Y430845I18411J53050D01*
G03X10215950Y482464I0J56154D01*
G01X10439697Y258717D01*
G03X10471979Y245345I32282J32282D01*
G01X11758976D01*
G03X11791259Y258717I0J45654D01*
G01X12345138Y812597D01*
G03X12390321Y853863I-9163J55401D01*
G01Y623051D01*
G01X11993923Y226654D01*
G01X9320981D01*
G03X9281628Y210353I0J-55654D01*
G01X9257916Y186641D01*
G03X9235827Y142000I34066J-44641D01*
G37*
G36*
G01X12594320Y76000D02*
G03X12804974Y-134654I210654J0D01*
G03X13015628Y76000I0J210654D01*
G03X12804974Y286654I-210654J0D01*
G03X12594320Y76000I0J-210654D01*
G37*
G36*
G01X6216988Y721344D02*
G03X6427642Y931998I0J210654D01*
G03X6216988Y1142652I-210654J0D01*
G03X6006334Y931998I0J-210654D01*
G03X6216988Y721344I210654J0D01*
G37*
G36*
G01X14406317Y-891998D02*
G03X14521971Y-1007652I115654J0D01*
G03X14637625Y-891998I0J115654D01*
G03X14521971Y-776344I-115654J0D01*
G03X14406317Y-891998I0J-115654D01*
G37*
G36*
G01X14522971Y144346D02*
G03X14638625Y260000I0J115654D01*
G03X14522971Y375654I-115654J0D01*
G03X14407317Y260000I0J-115654D01*
G03X14522971Y144346I115654J0D01*
G37*
G36*
G01X14521971Y-507653D02*
G03X14637625Y-391999I0J115654D01*
G03X14521971Y-276345I-115654J0D01*
G03X14406317Y-391999I0J-115654D01*
G03X14521971Y-507653I115654J0D01*
G37*
G36*
G01X14407317Y759999D02*
G03X14522971Y644345I115654J0D01*
G03X14638625Y759999I0J115654D01*
G03X14522971Y875653I-115654J0D01*
G03X14407317Y759999I0J-115654D01*
G37*
G36*
G01X4344346Y-951879D02*
G03X4460000Y-1067533I115654J0D01*
G03X4575654Y-951879I0J115654D01*
G03X4460000Y-836225I-115654J0D01*
G03X4344346Y-951879I0J-115654D01*
G37*
G36*
G01X4344337Y700118D02*
G03X4459991Y584465I115654J0D01*
G03X4575645Y700118I0J115654D01*
G03X4459991Y815772I-115654J0D01*
G03X4344337Y700118I0J-115654D01*
G37*
G36*
G01X4344337Y200119D02*
G03X4459991Y84466I115654J0D01*
G03X4575645Y200119I0J115654D01*
G03X4459991Y315773I-115654J0D01*
G03X4344337Y200119I0J-115654D01*
G37*
G36*
G01X4460000Y-567534D02*
G03X4575654Y-451880I0J115654D01*
G03X4460000Y-336226I-115654J0D01*
G03X4344346Y-451880I0J-115654D01*
G03X4460000Y-567534I115654J0D01*
G37*
G36*
G01X11899976Y632342D02*
G03X12015630Y747996I0J115654D01*
G03X11899976Y863650I-115654J0D01*
G03X11784322Y747996I0J-115654D01*
G03X11899976Y632342I115654J0D01*
G37*
G36*
G01X11899976Y-127651D02*
G03X12015630Y-11997I0J115654D01*
G03X11899976Y103656I-115654J0D01*
G03X11784322Y-11997I0J-115654D01*
G03X11899976Y-127651I115654J0D01*
G37*
G36*
G01X4477346Y2139000D02*
G03X4503000Y2113346I25654J0D01*
G01X4673000D01*
G03X4698654Y2139000I0J25654D01*
G01Y2309000D01*
G03X4673000Y2334654I-25654J0D01*
G01X4503000D01*
G03X4477346Y2309000I0J-25654D01*
G01Y2139000D01*
G37*
G36*
G01X10316005Y-1194654D02*
G03X10341659Y-1169000I0J25654D01*
G01Y-999001D01*
G03X10316005Y-973347I-25654J0D01*
G01X10146006D01*
G03X10120352Y-999001I0J-25654D01*
G01Y-1169000D01*
G03X10146006Y-1194654I25654J0D01*
G01X10316005D01*
G37*
G36*
G01X9723005Y-1194654D02*
G03X9833659Y-1084000I0J110654D01*
G03X9723005Y-973347I-110654J0D01*
G03X9612352Y-1084000I0J-110654D01*
G03X9723005Y-1194654I110654J0D01*
G37*
G36*
G01X9358352Y-1084000D02*
G03X9469005Y-1194654I110654J0D01*
G03X9579659Y-1084000I0J110654D01*
G03X9469005Y-973347I-110654J0D01*
G03X9358352Y-1084000I0J-110654D01*
G37*
G36*
G01X9866352Y-1084000D02*
G03X9977005Y-1194654I110654J0D01*
G03X10087659Y-1084000I0J110654D01*
G03X9977005Y-973347I-110654J0D01*
G03X9866352Y-1084000I0J-110654D01*
G37*
G36*
G01X4477346Y3240000D02*
G03X4588000Y3129346I110654J0D01*
G03X4698654Y3240000I0J110654D01*
G03X4588000Y3350654I-110654J0D01*
G03X4477346Y3240000I0J-110654D01*
G37*
G36*
G01X4334000Y3129346D02*
G03X4444654Y3240000I0J110654D01*
G03X4334000Y3350654I-110654J0D01*
G03X4223346Y3240000I0J-110654D01*
G03X4334000Y3129346I110654J0D01*
G37*
G36*
G01X14540317Y2722994D02*
G03X14650971Y2612340I110654J0D01*
G03X14761625Y2722994I0J110654D01*
G03X14650971Y2833648I-110654J0D01*
G03X14540317Y2722994I0J-110654D01*
G37*
G36*
G01X4223346Y2986000D02*
G03X4334000Y2875346I110654J0D01*
G03X4444654Y2986000I0J110654D01*
G03X4334000Y3096654I-110654J0D01*
G03X4223346Y2986000I0J-110654D01*
G37*
G36*
G01X14286317Y2468994D02*
G03X14396971Y2358340I110654J0D01*
G03X14507625Y2468994I0J110654D01*
G03X14396971Y2579648I-110654J0D01*
G03X14286317Y2468994I0J-110654D01*
G37*
G36*
G01X4588000Y2367346D02*
G03X4698654Y2478000I0J110654D01*
G03X4588000Y2588654I-110654J0D01*
G03X4477346Y2478000I0J-110654D01*
G03X4588000Y2367346I110654J0D01*
G37*
G36*
G01X4223346Y2478000D02*
G03X4334000Y2367346I110654J0D01*
G03X4444654Y2478000I0J110654D01*
G03X4334000Y2588654I-110654J0D01*
G03X4223346Y2478000I0J-110654D01*
G37*
G36*
G01X4477346Y2986000D02*
G03X4588000Y2875346I110654J0D01*
G03X4698654Y2986000I0J110654D01*
G03X4588000Y3096654I-110654J0D01*
G03X4477346Y2986000I0J-110654D01*
G37*
G36*
G01X14650971Y2358340D02*
G03X14761625Y2468994I0J110654D01*
G03X14650971Y2579648I-110654J0D01*
G03X14540317Y2468994I0J-110654D01*
G03X14650971Y2358340I110654J0D01*
G37*
G36*
G01X14396971Y2104340D02*
G03X14507625Y2214994I0J110654D01*
G03X14396971Y2325648I-110654J0D01*
G03X14286317Y2214994I0J-110654D01*
G03X14396971Y2104340I110654J0D01*
G37*
G36*
G01X14540317Y2214994D02*
G03X14650971Y2104340I110654J0D01*
G03X14761625Y2214994I0J110654D01*
G03X14650971Y2325648I-110654J0D01*
G03X14540317Y2214994I0J-110654D01*
G37*
G36*
G01X14396971Y3120340D02*
G03X14507625Y3230994I0J110654D01*
G03X14396971Y3341648I-110654J0D01*
G03X14286317Y3230994I0J-110654D01*
G03X14396971Y3120340I110654J0D01*
G37*
G36*
G01X4334000Y2113346D02*
G03X4444654Y2224000I0J110654D01*
G03X4334000Y2334654I-110654J0D01*
G03X4223346Y2224000I0J-110654D01*
G03X4334000Y2113346I110654J0D01*
G37*
G36*
G01X14540317Y3230994D02*
G03X14650971Y3120340I110654J0D01*
G03X14761625Y3230994I0J110654D01*
G03X14650971Y3341648I-110654J0D01*
G03X14540317Y3230994I0J-110654D01*
G37*
G36*
G01X14396971Y2866340D02*
G03X14507625Y2976994I0J110654D01*
G03X14396971Y3087648I-110654J0D01*
G03X14286317Y2976994I0J-110654D01*
G03X14396971Y2866340I110654J0D01*
G37*
G36*
G01X14540317Y2976994D02*
G03X14650971Y2866340I110654J0D01*
G03X14761625Y2976994I0J110654D01*
G03X14650971Y3087648I-110654J0D01*
G03X14540317Y2976994I0J-110654D01*
G37*
G36*
G01X4334000Y2621346D02*
G03X4444654Y2732000I0J110654D01*
G03X4334000Y2842654I-110654J0D01*
G03X4223346Y2732000I0J-110654D01*
G03X4334000Y2621346I110654J0D01*
G37*
G36*
G01X4477346Y2732000D02*
G03X4588000Y2621346I110654J0D01*
G03X4698654Y2732000I0J110654D01*
G03X4588000Y2842654I-110654J0D01*
G03X4477346Y2732000I0J-110654D01*
G37*
G36*
G01X14286317Y2722994D02*
G03X14396971Y2612340I110654J0D01*
G03X14507625Y2722994I0J110654D01*
G03X14396971Y2833648I-110654J0D01*
G03X14286317Y2722994I0J-110654D01*
G37*
G36*
G01X14286317Y3653994D02*
G03X14311971Y3628340I25654J0D01*
G01X14481971D01*
G03X14507625Y3653994I0J25654D01*
G01Y3823994D01*
G03X14481971Y3849648I-25654J0D01*
G01X14311971D01*
G03X14286317Y3823994I0J-25654D01*
G01Y3653994D01*
G37*
G36*
G01X14650971Y3374340D02*
G03X14761625Y3484994I0J110654D01*
G03X14650971Y3595648I-110654J0D01*
G03X14540317Y3484994I0J-110654D01*
G03X14650971Y3374340I110654J0D01*
G37*
G36*
G01X14396971Y3374340D02*
G03X14507625Y3484994I0J110654D01*
G03X14396971Y3595648I-110654J0D01*
G03X14286317Y3484994I0J-110654D01*
G03X14396971Y3374340I110654J0D01*
G37*
G36*
G01X4334000Y3383346D02*
G03X4444654Y3494000I0J110654D01*
G03X4334000Y3604654I-110654J0D01*
G03X4223346Y3494000I0J-110654D01*
G03X4334000Y3383346I110654J0D01*
G37*
G36*
G01X4477346Y3494000D02*
G03X4588000Y3383346I110654J0D01*
G03X4698654Y3494000I0J110654D01*
G03X4588000Y3604654I-110654J0D01*
G03X4477346Y3494000I0J-110654D01*
G37*
G36*
G01X14650971Y3628340D02*
G03X14761625Y3738994I0J110654D01*
G03X14650971Y3849648I-110654J0D01*
G03X14540317Y3738994I0J-110654D01*
G03X14650971Y3628340I110654J0D01*
G37*
G36*
G01X9437981Y-81154D02*
G03X9494135Y-25000I0J56154D01*
G03X9437981Y31154I-56154J0D01*
G03X9421029Y28534I0J-56154D01*
G03X9427135Y54000I-50048J25466D01*
G03X9370981Y110154I-56154J0D01*
G03X9314827Y54000I0J-56154D01*
G03X9370981Y-2154I56154J0D01*
G03X9387933Y466I0J56154D01*
G03X9381827Y-25000I50048J-25466D01*
G03X9437981Y-81154I56154J0D01*
G37*
G36*
G01X9324034Y2632841D02*
G03X9369278Y2655734I0J56154D01*
G03X9412981Y2634841I43703J35261D01*
G03X9469135Y2690995I0J56154D01*
G03X9412981Y2747149I-56154J0D01*
G03X9367737Y2724255I0J-56154D01*
G03X9324034Y2745149I-43703J-35261D01*
G03X9279561Y2723279I0J-56154D01*
G03X9235087Y2745149I-44473J-34284D01*
G03X9178933Y2688995I0J-56154D01*
G03X9235087Y2632841I56154J0D01*
G03X9279561Y2654711I0J56154D01*
G03X9324034Y2632841I44473J34284D01*
G37*
G36*
G01X11311977Y2245841D02*
G03X11368131Y2301995I0J56154D01*
G03X11311977Y2358149I-56154J0D01*
G03X11263977Y2331138I0J-56154D01*
G03X11215978Y2358149I-48000J-29143D01*
G03X11159824Y2301995I0J-56154D01*
G03X11215978Y2245841I56154J0D01*
G03X11263977Y2272853I0J56154D01*
G03X11311977Y2245841I48000J29143D01*
G37*
G36*
G01X8640983Y3192839D02*
G03X8680483Y3209081I0J56154D01*
G03X8719983Y3192839I39500J39913D01*
G03X8776137Y3248994I0J56154D01*
G03X8719983Y3305148I-56154J0D01*
G03X8680483Y3288906I0J-56154D01*
G03X8640983Y3305148I-39500J-39913D01*
G03X8584829Y3248994I0J-56154D01*
G03X8640983Y3192839I56154J0D01*
G37*
G36*
G01X5190835Y-1156880D02*
G03X5246990Y-1213034I56154J0D01*
G03X5303144Y-1156880I0J56154D01*
G03X5246990Y-1100726I-56154J0D01*
G03X5190835Y-1156880I0J-56154D01*
G37*
G36*
G01X5618414Y2543851D02*
G03X5674569Y2600005I0J56154D01*
G03X5618414Y2656159I-56154J0D01*
G03X5562260Y2600005I0J-56154D01*
G03X5618414Y2543851I56154J0D01*
G37*
G36*
G01X5001405Y2600005D02*
G03X5057559Y2543851I56154J0D01*
G03X5113713Y2600005I0J56154D01*
G03X5057559Y2656159I-56154J0D01*
G03X5001405Y2600005I0J-56154D01*
G37*
G36*
G01X6116724Y2600005D02*
G03X6172878Y2543851I56154J0D01*
G03X6229033Y2600005I0J56154D01*
G03X6172878Y2656159I-56154J0D01*
G03X6116724Y2600005I0J-56154D01*
G37*
G36*
G01X5046132Y1974853D02*
G03X5102286Y2031007I0J56154D01*
G03X5046132Y2087161I-56154J0D01*
G03X4989978Y2031007I0J-56154D01*
G03X5046132Y1974853I56154J0D01*
G37*
G36*
G01X6164909Y1973867D02*
G03X6221063Y2030021I0J56154D01*
G03X6164909Y2086175I-56154J0D01*
G03X6108755Y2030021I0J-56154D01*
G03X6164909Y1973867I56154J0D01*
G37*
G36*
G01X5557544Y2030025D02*
G03X5613698Y1973871I56154J0D01*
G03X5669852Y2030025I0J56154D01*
G03X5613698Y2086179I-56154J0D01*
G03X5557544Y2030025I0J-56154D01*
G37*
G36*
G01X5562728Y1582020D02*
G03X5618882Y1525866I56154J0D01*
G03X5675036Y1582020I0J56154D01*
G03X5618882Y1638174I-56154J0D01*
G03X5562728Y1582020I0J-56154D01*
G37*
G36*
G01X5035990Y-202036D02*
G03X5092144Y-145882I0J56154D01*
G03X5035990Y-89728I-56154J0D01*
G03X4979836Y-145882I0J-56154D01*
G03X5035990Y-202036I56154J0D01*
G37*
G36*
G01X5128990Y-668153D02*
G03X5185144Y-611999I0J56154D01*
G03X5128990Y-555845I-56154J0D01*
G03X5072836Y-611999I0J-56154D01*
G03X5128990Y-668153I56154J0D01*
G37*
G36*
G01X5025955Y1519851D02*
G03X5082109Y1576005I0J56154D01*
G03X5025955Y1632159I-56154J0D01*
G03X4969801Y1576005I0J-56154D01*
G03X5025955Y1519851I56154J0D01*
G37*
G36*
G01X5128990Y-868152D02*
G03X5185144Y-811998I0J56154D01*
G03X5128990Y-755844I-56154J0D01*
G03X5072836Y-811998I0J-56154D01*
G03X5128990Y-868152I56154J0D01*
G37*
G36*
G01X13719973Y-1170152D02*
G03X13776127Y-1113998I0J56154D01*
G03X13719973Y-1057844I-56154J0D01*
G03X13663818Y-1113998I0J-56154D01*
G03X13719973Y-1170152I56154J0D01*
G37*
G36*
G01X9471827Y3288993D02*
G03X9527981Y3232839I56154J0D01*
G03X9584135Y3288993I0J56154D01*
G03X9527981Y3345147I-56154J0D01*
G03X9471827Y3288993I0J-56154D01*
G37*
G36*
G01X10123826Y1799996D02*
G03X10179980Y1743842I56154J0D01*
G03X10236134Y1799996I0J56154D01*
G03X10179980Y1856150I-56154J0D01*
G03X10123826Y1799996I0J-56154D01*
G37*
G36*
G01X10460375Y1577443D02*
G03X10516529Y1521289I56154J0D01*
G03X10572683Y1577443I0J56154D01*
G03X10516529Y1633597I-56154J0D01*
G03X10460375Y1577443I0J-56154D01*
G37*
G36*
G01X8785697Y-1006820D02*
G03X8841851Y-1062974I56154J0D01*
G03X8898005Y-1006820I0J56154D01*
G03X8841851Y-950666I-56154J0D01*
G03X8785697Y-1006820I0J-56154D01*
G37*
G36*
G01X10112826Y3273993D02*
G03X10168980Y3217839I56154J0D01*
G03X10225134Y3273993I0J56154D01*
G03X10168980Y3330148I-56154J0D01*
G03X10112826Y3273993I0J-56154D01*
G37*
G36*
G01X10352979Y1801842D02*
G03X10409133Y1857996I0J56154D01*
G03X10352979Y1914150I-56154J0D01*
G03X10296825Y1857996I0J-56154D01*
G03X10352979Y1801842I56154J0D01*
G37*
G36*
G01X12637774Y1602982D02*
G03X12693928Y1546827I56154J0D01*
G03X12750082Y1602982I0J56154D01*
G03X12693928Y1659136I-56154J0D01*
G03X12637774Y1602982I0J-56154D01*
G37*
G36*
G01X13212819Y-960998D02*
G03X13268973Y-1017152I56154J0D01*
G03X13325128Y-960998I0J56154D01*
G03X13268973Y-904844I-56154J0D01*
G03X13212819Y-960998I0J-56154D01*
G37*
G36*
G01X9329981Y3361839D02*
G03X9386135Y3417993I0J56154D01*
G03X9329981Y3474147I-56154J0D01*
G03X9273827Y3417993I0J-56154D01*
G03X9329981Y3361839I56154J0D01*
G37*
G36*
G01X9807654Y1976641D02*
G03X9863808Y1920487I56154J0D01*
G03X9919962Y1976641I0J56154D01*
G03X9863808Y2032795I-56154J0D01*
G03X9807654Y1976641I0J-56154D01*
G37*
G36*
G01X6772822Y861339D02*
G03X6828976Y917493I0J56154D01*
G03X6772822Y973647I-56154J0D01*
G03X6716668Y917493I0J-56154D01*
G03X6772822Y861339I56154J0D01*
G37*
G36*
G01X9470160Y1732565D02*
G03X9526314Y1788720I0J56154D01*
G03X9470160Y1844874I-56154J0D01*
G03X9414006Y1788720I0J-56154D01*
G03X9470160Y1732565I56154J0D01*
G37*
G36*
G01X10464979Y2827840D02*
G03X10521133Y2883994I0J56154D01*
G03X10464979Y2940148I-56154J0D01*
G03X10408825Y2883994I0J-56154D01*
G03X10464979Y2827840I56154J0D01*
G37*
G36*
G01X10394324Y1650560D02*
G03X10450478Y1706714I0J56154D01*
G03X10394324Y1762868I-56154J0D01*
G03X10338170Y1706714I0J-56154D01*
G03X10394324Y1650560I56154J0D01*
G37*
G36*
G01X12095221Y1099996D02*
G03X12151375Y1043842I56154J0D01*
G03X12207529Y1099996I0J56154D01*
G03X12151375Y1156150I-56154J0D01*
G03X12095221Y1099996I0J-56154D01*
G37*
G36*
G01X13805972Y2019842D02*
G03X13862126Y2075996I0J56154D01*
G03X13805972Y2132150I-56154J0D01*
G03X13749818Y2075996I0J-56154D01*
G03X13805972Y2019842I56154J0D01*
G37*
G36*
G01X10021980Y983844D02*
G03X10078134Y1039998I0J56154D01*
G03X10021980Y1096152I-56154J0D01*
G03X9965826Y1039998I0J-56154D01*
G03X10021980Y983844I56154J0D01*
G37*
G36*
G01X7558831Y2095996D02*
G03X7614985Y2039842I56154J0D01*
G03X7671139Y2095996I0J56154D01*
G03X7614985Y2152150I-56154J0D01*
G03X7558831Y2095996I0J-56154D01*
G37*
G36*
G01X7870984Y2039842D02*
G03X7927138Y2095996I0J56154D01*
G03X7870984Y2152150I-56154J0D01*
G03X7814830Y2095996I0J-56154D01*
G03X7870984Y2039842I56154J0D01*
G37*
G36*
G01X9344981Y1600843D02*
G03X9401135Y1656997I0J56154D01*
G03X9344981Y1713151I-56154J0D01*
G03X9288827Y1656997I0J-56154D01*
G03X9344981Y1600843I56154J0D01*
G37*
G36*
G01X13193819Y2110996D02*
G03X13249974Y2054842I56154J0D01*
G03X13306128Y2110996I0J56154D01*
G03X13249974Y2167150I-56154J0D01*
G03X13193819Y2110996I0J-56154D01*
G37*
G36*
G01X13250302Y1548325D02*
G03X13306456Y1604479I0J56154D01*
G03X13250302Y1660633I-56154J0D01*
G03X13194148Y1604479I0J-56154D01*
G03X13250302Y1548325I56154J0D01*
G37*
G36*
G01X7593985Y967844D02*
G03X7650139Y1023998I0J56154D01*
G03X7593985Y1080152I-56154J0D01*
G03X7537831Y1023998I0J-56154D01*
G03X7593985Y967844I56154J0D01*
G37*
G36*
G01X11382823Y2301995D02*
G03X11438977Y2245841I56154J0D01*
G03X11495131Y2301995I0J56154D01*
G03X11438977Y2358149I-56154J0D01*
G03X11382823Y2301995I0J-56154D01*
G37*
G36*
G01X7742985Y2039842D02*
G03X7799139Y2095996I0J56154D01*
G03X7742985Y2152150I-56154J0D01*
G03X7686830Y2095996I0J-56154D01*
G03X7742985Y2039842I56154J0D01*
G37*
G36*
G01X11814822Y1696997D02*
G03X11870976Y1640843I56154J0D01*
G03X11927130Y1696997I0J56154D01*
G03X11870976Y1753151I-56154J0D01*
G03X11814822Y1696997I0J-56154D01*
G37*
G36*
G01X7437820Y966567D02*
G03X7493974Y1022721I0J56154D01*
G03X7437820Y1078875I-56154J0D01*
G03X7381666Y1022721I0J-56154D01*
G03X7437820Y966567I56154J0D01*
G37*
G36*
G01X8924982Y1209843D02*
G03X8981136Y1265997I0J56154D01*
G03X8924982Y1322152I-56154J0D01*
G03X8868828Y1265997I0J-56154D01*
G03X8924982Y1209843I56154J0D01*
G37*
G36*
G01X10166984Y2199853D02*
G03X10223138Y2256007I0J56154D01*
G03X10166984Y2312161I-56154J0D01*
G03X10110830Y2256007I0J-56154D01*
G03X10166984Y2199853I56154J0D01*
G37*
G36*
G01X8795982Y1076844D02*
G03X8852136Y1132998I0J56154D01*
G03X8795982Y1189152I-56154J0D01*
G03X8739828Y1132998I0J-56154D01*
G03X8795982Y1076844I56154J0D01*
G37*
G36*
G01X7187821Y861339D02*
G03X7243975Y917493I0J56154D01*
G03X7187821Y973647I-56154J0D01*
G03X7131667Y917493I0J-56154D01*
G03X7187821Y861339I56154J0D01*
G37*
G36*
G01X13822972Y2548837D02*
G03X13879126Y2604991I0J56154D01*
G03X13822972Y2661145I-56154J0D01*
G03X13766818Y2604991I0J-56154D01*
G03X13822972Y2548837I56154J0D01*
G37*
G36*
G01X8250983Y2447841D02*
G03X8307138Y2503995I0J56154D01*
G03X8250983Y2560149I-56154J0D01*
G03X8194829Y2503995I0J-56154D01*
G03X8250983Y2447841I56154J0D01*
G37*
G36*
G01X12680361Y2546813D02*
G03X12736515Y2602967I0J56154D01*
G03X12680361Y2659121I-56154J0D01*
G03X12624207Y2602967I0J-56154D01*
G03X12680361Y2546813I56154J0D01*
G37*
G36*
G01X13206997Y2602994D02*
G03X13263152Y2546840I56154J0D01*
G03X13319306Y2602994I0J56154D01*
G03X13263152Y2659148I-56154J0D01*
G03X13206997Y2602994I0J-56154D01*
G37*
G36*
G01X11565977Y2684840D02*
G03X11622131Y2740995I0J56154D01*
G03X11565977Y2797149I-56154J0D01*
G03X11509823Y2740995I0J-56154D01*
G03X11565977Y2684840I56154J0D01*
G37*
G36*
G01X11821976Y2684840D02*
G03X11878130Y2740995I0J56154D01*
G03X11821976Y2797149I-56154J0D01*
G03X11765822Y2740995I0J-56154D01*
G03X11821976Y2684840I56154J0D01*
G37*
G36*
G01X7993984Y2447841D02*
G03X8050138Y2503995I0J56154D01*
G03X7993984Y2560149I-56154J0D01*
G03X7937830Y2503995I0J-56154D01*
G03X7993984Y2447841I56154J0D01*
G37*
G36*
G01X11060978Y2684840D02*
G03X11117132Y2740995I0J56154D01*
G03X11060978Y2797149I-56154J0D01*
G03X11004824Y2740995I0J-56154D01*
G03X11060978Y2684840I56154J0D01*
G37*
G36*
G01X12685975Y2056825D02*
G03X12742129Y2112980I0J56154D01*
G03X12685975Y2169134I-56154J0D01*
G03X12629821Y2112980I0J-56154D01*
G03X12685975Y2056825I56154J0D01*
G37*
G36*
G01X7430831Y2503995D02*
G03X7486985Y2447841I56154J0D01*
G03X7543139Y2503995I0J56154D01*
G03X7486985Y2560149I-56154J0D01*
G03X7430831Y2503995I0J-56154D01*
G37*
G36*
G01X12504975Y-907152D02*
G03X12561129Y-850998I0J56154D01*
G03X12504975Y-794844I-56154J0D01*
G03X12448821Y-850998I0J-56154D01*
G03X12504975Y-907152I56154J0D01*
G37*
G36*
G01X10036826Y842998D02*
G03X10092980Y786844I56154J0D01*
G03X10149134Y842998I0J56154D01*
G03X10092980Y899152I-56154J0D01*
G03X10036826Y842998I0J-56154D01*
G37*
G36*
G01X14002972Y783844D02*
G03X14059126Y839998I0J56154D01*
G03X14002972Y896152I-56154J0D01*
G03X13946818Y839998I0J-56154D01*
G03X14002972Y783844I56154J0D01*
G37*
G36*
G01X11033950Y765006D02*
G03X11090104Y821160I0J56154D01*
G03X11033950Y877314I-56154J0D01*
G03X10977796Y821160I0J-56154D01*
G03X11033950Y765006I56154J0D01*
G37*
G36*
G01X11530823Y785998D02*
G03X11586977Y729844I56154J0D01*
G03X11643131Y785998I0J56154D01*
G03X11586977Y842152I-56154J0D01*
G03X11530823Y785998I0J-56154D01*
G37*
G36*
G01X13698818Y-223000D02*
G03X13754972Y-279154I56154J0D01*
G03X13811127Y-223000I0J56154D01*
G03X13754972Y-166845I-56154J0D01*
G03X13698818Y-223000I0J-56154D01*
G37*
G36*
G01X8979982Y-128153D02*
G03X9036136Y-71999I0J56154D01*
G03X8979982Y-15845I-56154J0D01*
G03X8923828Y-71999I0J-56154D01*
G03X8979982Y-128153I56154J0D01*
G37*
G36*
G01X10858978Y-31154D02*
G03X10915132Y25000I0J56154D01*
G03X10858978Y81154I-56154J0D01*
G03X10802824Y25000I0J-56154D01*
G03X10858978Y-31154I56154J0D01*
G37*
G36*
G01X9524827Y-132000D02*
G03X9580981Y-188154I56154J0D01*
G03X9637135Y-132000I0J56154D01*
G03X9580981Y-75846I-56154J0D01*
G03X9524827Y-132000I0J-56154D01*
G37*
G36*
G01X10776978Y-238154D02*
G03X10833133Y-182000I0J56154D01*
G03X10776978Y-125846I-56154J0D01*
G03X10720824Y-182000I0J-56154D01*
G03X10776978Y-238154I56154J0D01*
G37*
G36*
G01X13123974Y-223154D02*
G03X13180128Y-167000I0J56154D01*
G03X13123974Y-110846I-56154J0D01*
G03X13067820Y-167000I0J-56154D01*
G03X13123974Y-223154I56154J0D01*
G37*
G36*
G01X12462821Y-596999D02*
G03X12518975Y-653153I56154J0D01*
G03X12575129Y-596999I0J56154D01*
G03X12518975Y-540845I-56154J0D01*
G03X12462821Y-596999I0J-56154D01*
G37*
G36*
G01X11717977Y595845D02*
G03X11774131Y651999I0J56154D01*
G03X11717977Y708153I-56154J0D01*
G03X11661822Y651999I0J-56154D01*
G03X11717977Y595845I56154J0D01*
G37*
G36*
G01X6884167Y355235D02*
G03X6940321Y299081I56154J0D01*
G03X6996475Y355235I0J56154D01*
G03X6940321Y411389I-56154J0D01*
G03X6884167Y355235I0J-56154D01*
G37*
G36*
G01X10930006Y603846D02*
G03X10986160Y660000I0J56154D01*
G03X10930006Y716155I-56154J0D01*
G03X10873852Y660000I0J-56154D01*
G03X10930006Y603846I56154J0D01*
G37*
G36*
G01X12824976Y-354153D02*
G03X12881130Y-297999I0J56154D01*
G03X12824976Y-241845I-56154J0D01*
G03X12768822Y-297999I0J-56154D01*
G03X12824976Y-354153I56154J0D01*
G37*
G36*
G01X7646167Y355235D02*
G03X7702321Y299081I56154J0D01*
G03X7758475Y355235I0J56154D01*
G03X7702321Y411389I-56154J0D01*
G03X7646167Y355235I0J-56154D01*
G37*
G36*
G01X12998821Y501999D02*
G03X13054975Y445845I56154J0D01*
G03X13111129Y501999I0J56154D01*
G03X13054975Y558153I-56154J0D01*
G03X12998821Y501999I0J-56154D01*
G37*
G36*
G01X11484977Y646845D02*
G03X11541131Y702999I0J56154D01*
G03X11484977Y759153I-56154J0D01*
G03X11428823Y702999I0J-56154D01*
G03X11484977Y646845I56154J0D01*
G37*
G36*
G01X9895298Y-315711D02*
G03X9951452Y-371865I56154J0D01*
G03X10007606Y-315711I0J56154D01*
G03X9951452Y-259557I-56154J0D01*
G03X9895298Y-315711I0J-56154D01*
G37*
G36*
G01X8853093Y-400187D02*
G03X8909247Y-344033I0J56154D01*
G03X8853093Y-287879I-56154J0D01*
G03X8796939Y-344033I0J-56154D01*
G03X8853093Y-400187I56154J0D01*
G37*
G36*
G01X9878826Y-748999D02*
G03X9934980Y-805153I56154J0D01*
G03X9991134Y-748999I0J56154D01*
G03X9934980Y-692844I-56154J0D01*
G03X9878826Y-748999I0J-56154D01*
G37*
G36*
G01X12450821Y-468999D02*
G03X12506975Y-525153I56154J0D01*
G03X12563129Y-468999I0J56154D01*
G03X12506975Y-412845I-56154J0D01*
G03X12450821Y-468999I0J-56154D01*
G37*
G36*
G01X8903828Y-733001D02*
G03X8959982Y-789155I56154J0D01*
G03X9016136Y-733001I0J56154D01*
G03X8959982Y-676846I-56154J0D01*
G03X8903828Y-733001I0J-56154D01*
G37*
%LPD*%
G36*
G01X4851676Y4721157D02*
G01X4851676Y5381821D01*
G03X4815862Y5417635I-35814J0D01*
G01X4760151D01*
G01Y5423923D01*
G03X4749991Y5434083I-10160J0D01*
G01X4035814D01*
G01Y5987397D01*
G01X5214615Y5984565D01*
G01Y5897194D01*
G03X5207586Y5891128I37741J-50836D01*
G01X5064257Y5747798D01*
G03X5045712Y5703028I44770J-44770D01*
G01Y4721157D01*
G01X4851676D01*
G37*
%LPC*%
G36*
G01X4335185Y5642989D02*
G03X4460999Y5517175I125814J0D01*
G03X4586813Y5642989I0J125814D01*
G03X4460999Y5768803I-125814J0D01*
G03X4335185Y5642989I0J-125814D01*
G37*
%LPD*%
G36*
G01X4805702Y4453089D02*
G01X4805702Y3910321D01*
G01X4035814D01*
G01Y5371661D01*
G01X4805702D01*
G01Y4658929D01*
G03X4790213Y4613009I60325J-45920D01*
G01Y4499009D01*
G03X4805702Y4453089I75814J0D01*
G37*
%LPC*%
G36*
G01X4335185Y5142990D02*
G03X4460999Y5017176I125814J0D01*
G03X4586813Y5142990I0J125814D01*
G03X4460999Y5268804I-125814J0D01*
G03X4335185Y5142990I0J-125814D01*
G37*
%LPD*%
G36*
G01X10870983Y3009997D02*
G01X10858983Y2997997D01*
G01X10857361Y2999619D01*
G01Y3414141D01*
G01X10772506Y3498996D01*
G01X9707985D01*
G01Y3972995D01*
G01X8497987D01*
G01Y3042997D01*
G01X8467987Y3012997D01*
G01X7409695D01*
G01X7777050Y3380352D01*
G03X7799139Y3424993I-34066J44641D01*
G03X7742985Y3481147I-56154J0D01*
G03X7698344Y3459059I0J-56154D01*
G01X7319951Y3080666D01*
G01X7178181D01*
G01Y4335544D01*
G03X7375985Y4197337I197804J72447D01*
G03X7566331Y4317749I0J210654D01*
G01Y3585471D01*
G03X7565831Y3577993I55654J-7478D01*
G03X7621985Y3521839I56154J0D01*
G03X7678139Y3577993I0J56154D01*
G03X7677639Y3585471I-56154J0D01*
G01Y4595938D01*
G01X7699195Y4617494D01*
G03X7698816Y4610982I55775J-6512D01*
G03X7754970Y4554828I56154J0D01*
G03X7811124Y4610982I0J56154D01*
G03X7754970Y4667136I-56154J0D01*
G03X7748458Y4666757I0J-56154D01*
G01X7800338Y4718637D01*
G03X7816638Y4757990I-39353J39353D01*
G01Y4904512D01*
G03X7817139Y4911990I-55654J7478D01*
G03X7760984Y4968144I-56154J0D01*
G03X7704830Y4911990I0J-56154D01*
G03X7705331Y4904512I56154J0D01*
G01Y4781043D01*
G01X7582631Y4658344D01*
G03X7566331Y4618991I39353J-39353D01*
G01Y4498234D01*
G03X7375985Y4618645I-190346J-90242D01*
G03X7171953Y4460395I0J-210654D01*
G03X7158951Y4478910I-59427J-27909D01*
G01X7078951Y4558910D01*
G03X7032527Y4578139I-46424J-46424D01*
G01X7016492D01*
G03X6950838Y4512485I0J-65654D01*
G03X7004164Y4447999I65654J0D01*
G01X7046873Y4405290D01*
G01Y4285565D01*
G03X6997679Y4314639I-49193J-27079D01*
G03X6941525Y4258485I0J-56154D01*
G03X6997679Y4202331I56154J0D01*
G03X7046873Y4231406I0J56154D01*
G01Y4056283D01*
G03X7023993Y4061156I-22880J-51281D01*
G03X6967838Y4005002I0J-56154D01*
G03X7023993Y3948848I56154J0D01*
G03X7046873Y3953720I0J56154D01*
G01Y3090666D01*
G01X5305221D01*
G01X5260680Y3135207D01*
G01Y3545011D01*
G03X5256994Y3566702I-65654J0D01*
G01Y3592687D01*
G03X5289017Y3584348I32023J57315D01*
G01X5832505D01*
G03X5818878Y3547677I42527J-36671D01*
G03X5875032Y3491523I56154J0D01*
G03X5931186Y3547677I0J56154D01*
G03X5917559Y3584348I-56154J0D01*
G01X6077051D01*
G03X6063424Y3547677I42527J-36671D01*
G03X6119578Y3491523I56154J0D01*
G03X6175732Y3547677I0J56154D01*
G03X6162105Y3584348I-56154J0D01*
G01X6321597D01*
G03X6307970Y3547677I42527J-36671D01*
G03X6364124Y3491523I56154J0D01*
G03X6420278Y3547677I0J56154D01*
G03X6406651Y3584348I-56154J0D01*
G01X6690004D01*
G03X6736428Y3603578I0J65654D01*
G01X6801411Y3668560D01*
G01Y3668561D01*
G03X6820641Y3714985I-46424J46424D01*
G01Y4463922D01*
G01X6938055Y4581337D01*
G01X7016986D01*
G03X7082640Y4646991I0J65654D01*
G03X7040352Y4708346I-65654J0D01*
G01X7218204D01*
G03X7238976Y4704596I20772J55654D01*
G03X7280981Y4721995I0J59404D01*
G01X7392989Y4834003D01*
G03X7410388Y4876008I-42005J42005D01*
G03X7392989Y4918013I-59404J0D01*
G01X7020998Y5290004D01*
G03X6978993Y5307403I-42005J-42005D01*
G01X6416479D01*
G03X6426673Y5339667I-45960J32264D01*
G03X6370519Y5395821I-56154J0D01*
G03X6314365Y5339667I0J-56154D01*
G03X6324559Y5307403I56154J0D01*
G01X6171933D01*
G03X6182127Y5339667I-45960J32264D01*
G03X6139339Y5394207I-56154J0D01*
G03X6173215Y5445753I-22279J51546D01*
G03X6117061Y5501907I-56154J0D01*
G03X6060907Y5445753I0J-56154D01*
G03X6103695Y5391213I56154J0D01*
G03X6069819Y5339667I22279J-51546D01*
G03X6080013Y5307403I56154J0D01*
G01X5927387D01*
G03X5937581Y5339667I-45960J32264D01*
G03X5881427Y5395821I-56154J0D01*
G03X5825273Y5339667I0J-56154D01*
G03X5835467Y5307403I56154J0D01*
G01X5287996D01*
G03X5256994Y5298672I0J-59404D01*
G01Y5775825D01*
G01X5274373Y5793204D01*
G01X6976615D01*
G01X7151000Y5618820D01*
G03X7144986Y5619143I-6014J-55831D01*
G03X7088832Y5562989I0J-56154D01*
G03X7144986Y5506835I56154J0D01*
G03X7178832Y5518181I0J56154D01*
G01Y5247185D01*
G03X7194400Y5209599I53154J0D01*
G01X7571831Y4832168D01*
G01Y4831099D01*
G03X7568831Y4812990I53154J-18109D01*
G03X7624985Y4756836I56154J0D01*
G03X7681139Y4812990I0J56154D01*
G03X7678139Y4831099I-56154J0D01*
G01Y4854185D01*
G03X7662570Y4891771I-53154J0D01*
G01X7285139Y5269202D01*
G01Y5613005D01*
G03X7269571Y5650591I-53154J0D01*
G01X7036218Y5883944D01*
G03X7019952Y5895049I-37586J-37586D01*
G03X7041140Y5938988I-34966J43939D01*
G03X7007531Y5990418I-56154J0D01*
G01X11978980Y5978473D01*
G01Y5968642D01*
G01X11873976D01*
G03X11808322Y5902988I0J-65654D01*
G01Y5436184D01*
G01X11534552Y5162414D01*
G03X11515323Y5115990I46424J-46424D01*
G01Y4626991D01*
G03X11534552Y4580566I65654J0D01*
G01X11653950Y4461169D01*
G01X11625282D01*
G03X11593453Y4471169I-31829J-45654D01*
G01X11517501D01*
G03X11462712Y4425291I0J-55654D01*
G01X11193695Y4156274D01*
G03X11180324Y4123992I32282J-32282D01*
G01Y4028038D01*
G03X11152978Y4035146I-27346J-49046D01*
G03X11096824Y3978992I0J-56154D01*
G03X11152978Y3922838I56154J0D01*
G03X11208662Y3971743I0J56154D01*
G01X11265323Y3915082D01*
G01Y3689688D01*
G03X11254823Y3656993I45654J-32695D01*
G03X11310977Y3600839I56154J0D01*
G03X11367131Y3656993I0J56154D01*
G03X11356631Y3689688I-56154J0D01*
G01Y3914774D01*
G01X11392323Y3879082D01*
G01Y3687688D01*
G03X11381823Y3654993I45654J-32695D01*
G03X11437977Y3598839I56154J0D01*
G03X11494131Y3654993I0J56154D01*
G03X11483631Y3687688I-56154J0D01*
G01Y3897992D01*
G03X11483170Y3904465I-45654J0D01*
G01X11750853Y3636782D01*
G01Y3190002D01*
G03X11766421Y3152417I53154J0D01*
G01X11886421Y3032417D01*
G03X11924006Y3016849I37586J37586D01*
G01X11978980D01*
G01Y3009997D01*
G01X10870983D01*
G37*
%LPC*%
G36*
G01X8446810Y4294638D02*
G03X8486163Y4278337I39353J39353D01*
G01X10180980D01*
G03X10220333Y4294638I0J55654D01*
G01X10424339Y4498645D01*
G03X10483979Y4486337I59640J138346D01*
G03X10634633Y4636991I0J150654D01*
G03X10483979Y4787644I-150654J0D01*
G03X10333325Y4636991I0J-150654D01*
G03X10345633Y4577351I150654J0D01*
G01X10157927Y4389645D01*
G01X8509215D01*
G01X8381786Y4517075D01*
G03X8337145Y4539163I-44641J-34066D01*
G03X8280991Y4483009I0J-56154D01*
G03X8303079Y4438368I56154J0D01*
G01X8446810Y4294638D01*
G37*
G36*
G01X9983980Y4486337D02*
G03X10107993Y4551450I0J150654D01*
G01X10260075Y4703531D01*
G01X10397450Y4840906D01*
G01X10543491Y4986947D01*
G01X10607879Y5051336D01*
G01X11044481D01*
G03X11195135Y5201990I0J150654D01*
G03X11044481Y5352644I-150654J0D01*
G01X10545476D01*
G03X10438948Y5308518I0J-150654D01*
G01X10330434Y5200004D01*
G01X10184393Y5053963D01*
G01X10047018Y4916588D01*
G01X9874949Y4744519D01*
G03X9830823Y4637991I106528J-106528D01*
G03X9926844Y4497592I150654J0D01*
G03X9983980Y4486337I57136J139399D01*
G37*
G36*
G01X10783978Y5521335D02*
G03X10899632Y5636989I0J115654D01*
G03X10783978Y5752643I-115654J0D01*
G03X10668325Y5636989I0J-115654D01*
G03X10783978Y5521335I115654J0D01*
G37*
G36*
G01X10174981Y3651339D02*
G03X10290635Y3766992I0J115654D01*
G03X10174981Y3882646I-115654J0D01*
G03X10059327Y3766992I0J-115654D01*
G03X10174981Y3651339I115654J0D01*
G37*
G36*
G01X9568327Y5636989D02*
G03X9683981Y5521335I115654J0D01*
G03X9799634Y5636989I0J115654D01*
G03X9683981Y5752643I-115654J0D01*
G03X9568327Y5636989I0J-115654D01*
G37*
G36*
G01X9920981Y3651339D02*
G03X10036635Y3766992I0J115654D01*
G03X9920981Y3882646I-115654J0D01*
G03X9805327Y3766992I0J-115654D01*
G03X9920981Y3651339I115654J0D01*
G37*
G36*
G01X10313327Y3676993D02*
G03X10338981Y3651339I25654J0D01*
G01X10518981D01*
G03X10544635Y3676993I0J25654D01*
G01Y3856992D01*
G03X10518981Y3882646I-25654J0D01*
G01X10338981D01*
G03X10313327Y3856992I0J-25654D01*
G01Y3676993D01*
G37*
G36*
G01X8200319Y5905826D02*
G03X8254097Y5865834I53778J16162D01*
G03X8310251Y5921988I0J56154D01*
G03X8254097Y5978142I-56154J0D01*
G03X8200319Y5938150I0J-56154D01*
G03X8146541Y5978142I-53778J-16162D01*
G03X8092763Y5938150I0J-56154D01*
G03X8038985Y5978142I-53778J-16162D01*
G03X7982831Y5921988I0J-56154D01*
G03X8038985Y5865834I56154J0D01*
G03X8092763Y5905826I0J56154D01*
G03X8146541Y5865834I53778J16162D01*
G03X8200319Y5905826I0J56154D01*
G37*
G36*
G01X8699761Y4703152D02*
G03X8753540Y4663160I53778J16162D01*
G03X8809694Y4719314I0J56154D01*
G03X8753540Y4775468I-56154J0D01*
G03X8699761Y4735476I0J-56154D01*
G03X8645983Y4775468I-53778J-16162D01*
G03X8592205Y4735476I0J-56154D01*
G03X8538427Y4775468I-53778J-16162D01*
G03X8482273Y4719314I0J-56154D01*
G03X8538427Y4663160I56154J0D01*
G03X8592205Y4703152I0J56154D01*
G03X8645983Y4663160I53778J16162D01*
G03X8699761Y4703152I0J56154D01*
G37*
G36*
G01X8105815Y4615982D02*
G03X8161969Y4559828I56154J0D01*
G03X8218123Y4615982I0J56154D01*
G03X8172620Y4671117I-56154J0D01*
G03X8196138Y4716814I-32636J45697D01*
G03X8139984Y4772968I-56154J0D01*
G03X8083830Y4716814I0J-56154D01*
G03X8129334Y4661679I56154J0D01*
G03X8105815Y4615982I32636J-45697D01*
G37*
G36*
G01X5285594Y3418997D02*
G03X5341748Y3362843I56154J0D01*
G03X5397902Y3418997I0J56154D01*
G03X5341748Y3475151I-56154J0D01*
G03X5285594Y3418997I0J-56154D01*
G37*
G36*
G01X6058769Y5700915D02*
G03X6114923Y5644761I56154J0D01*
G03X6171077Y5700915I0J56154D01*
G03X6114923Y5757070I-56154J0D01*
G03X6058769Y5700915I0J-56154D01*
G37*
G36*
G01X5343886Y3237857D02*
G03X5400040Y3294011I0J56154D01*
G03X5343886Y3350165I-56154J0D01*
G03X5287732Y3294011I0J-56154D01*
G03X5343886Y3237857I56154J0D01*
G37*
G36*
G01X5483261Y3294011D02*
G03X5539415Y3237857I56154J0D01*
G03X5595569Y3294011I0J56154D01*
G03X5539415Y3350165I-56154J0D01*
G03X5483261Y3294011I0J-56154D01*
G37*
G36*
G01X5287732Y3163835D02*
G03X5343886Y3107681I56154J0D01*
G03X5400040Y3163835I0J56154D01*
G03X5343886Y3219989I-56154J0D01*
G03X5287732Y3163835I0J-56154D01*
G37*
G36*
G01X6117061Y5519775D02*
G03X6173215Y5575929I0J56154D01*
G03X6117061Y5632083I-56154J0D01*
G03X6060907Y5575929I0J-56154D01*
G03X6117061Y5519775I56154J0D01*
G37*
G36*
G01X5332804Y5644761D02*
G03X5388958Y5700915I0J56154D01*
G03X5332804Y5757070I-56154J0D01*
G03X5276650Y5700915I0J-56154D01*
G03X5332804Y5644761I56154J0D01*
G37*
G36*
G01X5537278Y3362843D02*
G03X5593432Y3418997I0J56154D01*
G03X5537278Y3475151I-56154J0D01*
G03X5481124Y3418997I0J-56154D01*
G03X5537278Y3362843I56154J0D01*
G37*
G36*
G01X5334942Y5519775D02*
G03X5391096Y5575929I0J56154D01*
G03X5334942Y5632083I-56154J0D01*
G03X5278788Y5575929I0J-56154D01*
G03X5334942Y5519775I56154J0D01*
G37*
G36*
G01X5483261Y3163835D02*
G03X5539415Y3107681I56154J0D01*
G03X5595569Y3163835I0J56154D01*
G03X5539415Y3219989I-56154J0D01*
G03X5483261Y3163835I0J-56154D01*
G37*
G36*
G01X5334942Y5389599D02*
G03X5391096Y5445753I0J56154D01*
G03X5334942Y5501907I-56154J0D01*
G03X5278788Y5445753I0J-56154D01*
G03X5334942Y5389599I56154J0D01*
G37*
G36*
G01X6123867Y3362843D02*
G03X6180021Y3418997I0J56154D01*
G03X6123867Y3475151I-56154J0D01*
G03X6067713Y3418997I0J-56154D01*
G03X6123867Y3362843I56154J0D01*
G37*
G36*
G01X6312591Y5389599D02*
G03X6368745Y5445753I0J56154D01*
G03X6312591Y5501907I-56154J0D01*
G03X6256437Y5445753I0J-56154D01*
G03X6312591Y5389599I56154J0D01*
G37*
G36*
G01X6126005Y3237857D02*
G03X6182159Y3294011I0J56154D01*
G03X6126005Y3350165I-56154J0D01*
G03X6069851Y3294011I0J-56154D01*
G03X6126005Y3237857I56154J0D01*
G37*
G36*
G01X5669847Y5445753D02*
G03X5726002Y5389599I56154J0D01*
G03X5782156Y5445753I0J56154D01*
G03X5726002Y5501907I-56154J0D01*
G03X5669847Y5445753I0J-56154D01*
G37*
G36*
G01X6069851Y3163835D02*
G03X6126005Y3107681I56154J0D01*
G03X6182159Y3163835I0J56154D01*
G03X6126005Y3219989I-56154J0D01*
G03X6069851Y3163835I0J-56154D01*
G37*
G36*
G01X5921531Y5389599D02*
G03X5977685Y5445753I0J56154D01*
G03X5921531Y5501907I-56154J0D01*
G03X5865377Y5445753I0J-56154D01*
G03X5921531Y5389599I56154J0D01*
G37*
G36*
G01X6310453Y5644761D02*
G03X6366607Y5700915I0J56154D01*
G03X6310453Y5757070I-56154J0D01*
G03X6254299Y5700915I0J-56154D01*
G03X6310453Y5644761I56154J0D01*
G37*
G36*
G01X5863239Y5700915D02*
G03X5919393Y5644761I56154J0D01*
G03X5975547Y5700915I0J56154D01*
G03X5919393Y5757070I-56154J0D01*
G03X5863239Y5700915I0J-56154D01*
G37*
G36*
G01X6256437Y5575929D02*
G03X6312591Y5519775I56154J0D01*
G03X6368745Y5575929I0J56154D01*
G03X6312591Y5632083I-56154J0D01*
G03X6256437Y5575929I0J-56154D01*
G37*
G36*
G01X5474318Y5445753D02*
G03X5530472Y5389599I56154J0D01*
G03X5586626Y5445753I0J56154D01*
G03X5530472Y5501907I-56154J0D01*
G03X5474318Y5445753I0J-56154D01*
G37*
G36*
G01X5865377Y5575929D02*
G03X5921531Y5519775I56154J0D01*
G03X5977685Y5575929I0J56154D01*
G03X5921531Y5632083I-56154J0D01*
G03X5865377Y5575929I0J-56154D01*
G37*
G36*
G01X5474318Y5575929D02*
G03X5530472Y5519775I56154J0D01*
G03X5586626Y5575929I0J56154D01*
G03X5530472Y5632083I-56154J0D01*
G03X5474318Y5575929I0J-56154D01*
G37*
G36*
G01X5872183Y3418997D02*
G03X5928337Y3362843I56154J0D01*
G03X5984491Y3418997I0J56154D01*
G03X5928337Y3475151I-56154J0D01*
G03X5872183Y3418997I0J-56154D01*
G37*
G36*
G01X5472180Y5700915D02*
G03X5528334Y5644761I56154J0D01*
G03X5584488Y5700915I0J56154D01*
G03X5528334Y5757070I-56154J0D01*
G03X5472180Y5700915I0J-56154D01*
G37*
G36*
G01X6319397Y3362843D02*
G03X6375551Y3418997I0J56154D01*
G03X6319397Y3475151I-56154J0D01*
G03X6263243Y3418997I0J-56154D01*
G03X6319397Y3362843I56154J0D01*
G37*
G36*
G01X5930475Y3237857D02*
G03X5986629Y3294011I0J56154D01*
G03X5930475Y3350165I-56154J0D01*
G03X5874321Y3294011I0J-56154D01*
G03X5930475Y3237857I56154J0D01*
G37*
G36*
G01X6265380Y3294011D02*
G03X6321534Y3237857I56154J0D01*
G03X6377689Y3294011I0J56154D01*
G03X6321534Y3350165I-56154J0D01*
G03X6265380Y3294011I0J-56154D01*
G37*
G36*
G01X5734945Y3107681D02*
G03X5791099Y3163835I0J56154D01*
G03X5734945Y3219989I-56154J0D01*
G03X5678791Y3163835I0J-56154D01*
G03X5734945Y3107681I56154J0D01*
G37*
G36*
G01X6321534Y3107681D02*
G03X6377689Y3163835I0J56154D01*
G03X6321534Y3219989I-56154J0D01*
G03X6265380Y3163835I0J-56154D01*
G03X6321534Y3107681I56154J0D01*
G37*
G36*
G01X5874321Y3163835D02*
G03X5930475Y3107681I56154J0D01*
G03X5986629Y3163835I0J56154D01*
G03X5930475Y3219989I-56154J0D01*
G03X5874321Y3163835I0J-56154D01*
G37*
G36*
G01X5734945Y3237857D02*
G03X5791099Y3294011I0J56154D01*
G03X5734945Y3350165I-56154J0D01*
G03X5678791Y3294011I0J-56154D01*
G03X5734945Y3237857I56154J0D01*
G37*
G36*
G01X5667710Y5700915D02*
G03X5723864Y5644761I56154J0D01*
G03X5780018Y5700915I0J56154D01*
G03X5723864Y5757070I-56154J0D01*
G03X5667710Y5700915I0J-56154D01*
G37*
G36*
G01X5676653Y3418997D02*
G03X5732807Y3362843I56154J0D01*
G03X5788961Y3418997I0J56154D01*
G03X5732807Y3475151I-56154J0D01*
G03X5676653Y3418997I0J-56154D01*
G37*
G36*
G01X5726002Y5519775D02*
G03X5782156Y5575929I0J56154D01*
G03X5726002Y5632083I-56154J0D01*
G03X5669847Y5575929I0J-56154D01*
G03X5726002Y5519775I56154J0D01*
G37*
G36*
G01X6451967Y5445753D02*
G03X6508121Y5389599I56154J0D01*
G03X6564275Y5445753I0J56154D01*
G03X6508121Y5501907I-56154J0D01*
G03X6451967Y5445753I0J-56154D01*
G37*
G36*
G01X6508121Y5519775D02*
G03X6564275Y5575929I0J56154D01*
G03X6508121Y5632083I-56154J0D01*
G03X6451967Y5575929I0J-56154D01*
G03X6508121Y5519775I56154J0D01*
G37*
G36*
G01X6514927Y3362843D02*
G03X6571081Y3418997I0J56154D01*
G03X6514927Y3475151I-56154J0D01*
G03X6458772Y3418997I0J-56154D01*
G03X6514927Y3362843I56154J0D01*
G37*
G36*
G01X6449829Y5700915D02*
G03X6505983Y5644761I56154J0D01*
G03X6562137Y5700915I0J56154D01*
G03X6505983Y5757070I-56154J0D01*
G03X6449829Y5700915I0J-56154D01*
G37*
G36*
G01X6517064Y3237857D02*
G03X6573219Y3294011I0J56154D01*
G03X6517064Y3350165I-56154J0D01*
G03X6460910Y3294011I0J-56154D01*
G03X6517064Y3237857I56154J0D01*
G37*
G36*
G01X6460910Y3163835D02*
G03X6517064Y3107681I56154J0D01*
G03X6573219Y3163835I0J56154D01*
G03X6517064Y3219989I-56154J0D01*
G03X6460910Y3163835I0J-56154D01*
G37*
G36*
G01X7962006Y4080847D02*
G03X8018160Y4137001I0J56154D01*
G03X7962006Y4193155I-56154J0D01*
G03X7905852Y4137001I0J-56154D01*
G03X7962006Y4080847I56154J0D01*
G37*
G36*
G01X8482830Y5921988D02*
G03X8538984Y5865834I56154J0D01*
G03X8595138Y5921988I0J56154D01*
G03X8538984Y5978142I-56154J0D01*
G03X8482830Y5921988I0J-56154D01*
G37*
G36*
G01X7869984Y3368839D02*
G03X7926138Y3424993I0J56154D01*
G03X7869984Y3481147I-56154J0D01*
G03X7813830Y3424993I0J-56154D01*
G03X7869984Y3368839I56154J0D01*
G37*
G36*
G01X11024978Y5830834D02*
G03X11081132Y5886988I0J56154D01*
G03X11024978Y5943142I-56154J0D01*
G03X10968824Y5886988I0J-56154D01*
G03X11024978Y5830834I56154J0D01*
G37*
G36*
G01X10979824Y4490991D02*
G03X11035978Y4434837I56154J0D01*
G03X11092132Y4490991I0J56154D01*
G03X11035978Y4547145I-56154J0D01*
G03X10979824Y4490991I0J-56154D01*
G37*
G36*
G01X6645358Y5700915D02*
G03X6701512Y5644761I56154J0D01*
G03X6757666Y5700915I0J56154D01*
G03X6701512Y5757070I-56154J0D01*
G03X6645358Y5700915I0J-56154D01*
G37*
G36*
G01X7965970Y4480828D02*
G03X8022124Y4536982I0J56154D01*
G03X7965970Y4593136I-56154J0D01*
G03X7909816Y4536982I0J-56154D01*
G03X7965970Y4480828I56154J0D01*
G37*
G36*
G01X6703650Y5519775D02*
G03X6759804Y5575929I0J56154D01*
G03X6703650Y5632083I-56154J0D01*
G03X6647496Y5575929I0J-56154D01*
G03X6703650Y5519775I56154J0D01*
G37*
G36*
G01X6905986Y3362843D02*
G03X6962140Y3418997I0J56154D01*
G03X6905986Y3475151I-56154J0D01*
G03X6849832Y3418997I0J-56154D01*
G03X6905986Y3362843I56154J0D01*
G37*
G36*
G01X6647496Y5445753D02*
G03X6703650Y5389599I56154J0D01*
G03X6759804Y5445753I0J56154D01*
G03X6703650Y5501907I-56154J0D01*
G03X6647496Y5445753I0J-56154D01*
G37*
G36*
G01X6908124Y3237857D02*
G03X6964278Y3294011I0J56154D01*
G03X6908124Y3350165I-56154J0D01*
G03X6851970Y3294011I0J-56154D01*
G03X6908124Y3237857I56154J0D01*
G37*
G36*
G01X6712594Y3237857D02*
G03X6768748Y3294011I0J56154D01*
G03X6712594Y3350165I-56154J0D01*
G03X6656440Y3294011I0J-56154D01*
G03X6712594Y3237857I56154J0D01*
G37*
G36*
G01X11176978Y4603837D02*
G03X11233132Y4659991I0J56154D01*
G03X11176978Y4716145I-56154J0D01*
G03X11120824Y4659991I0J-56154D01*
G03X11176978Y4603837I56154J0D01*
G37*
G36*
G01X8252484Y4659660D02*
G03X8308638Y4715814I0J56154D01*
G03X8252484Y4771968I-56154J0D01*
G03X8196330Y4715814I0J-56154D01*
G03X8252484Y4659660I56154J0D01*
G37*
G36*
G01X8027485Y4663660D02*
G03X8083639Y4719814I0J56154D01*
G03X8027485Y4775968I-56154J0D01*
G03X7971331Y4719814I0J-56154D01*
G03X8027485Y4663660I56154J0D01*
G37*
G36*
G01X9093971Y4522679D02*
G03X9150125Y4578833I0J56154D01*
G03X9093971Y4634987I-56154J0D01*
G03X9037817Y4578833I0J-56154D01*
G03X9093971Y4522679I56154J0D01*
G37*
G36*
G01X10818852Y4886705D02*
G03X10875006Y4830551I56154J0D01*
G03X10931160Y4886705I0J56154D01*
G03X10875006Y4942859I-56154J0D01*
G03X10818852Y4886705I0J-56154D01*
G37*
G36*
G01X9150317Y4575833D02*
G03X9206471Y4519679I56154J0D01*
G03X9262625Y4575833I0J56154D01*
G03X9206471Y4631987I-56154J0D01*
G03X9150317Y4575833I0J-56154D01*
G37*
G36*
G01X7102214Y5284571D02*
G03X7158368Y5340725I0J56154D01*
G03X7102214Y5396879I-56154J0D01*
G03X7046060Y5340725I0J-56154D01*
G03X7102214Y5284571I56154J0D01*
G37*
G36*
G01X9262817Y4574833D02*
G03X9318971Y4518679I56154J0D01*
G03X9375125Y4574833I0J56154D01*
G03X9318971Y4630987I-56154J0D01*
G03X9262817Y4574833I0J-56154D01*
G37*
G36*
G01X8138006Y4080847D02*
G03X8194160Y4137001I0J56154D01*
G03X8138006Y4193155I-56154J0D01*
G03X8081852Y4137001I0J-56154D01*
G03X8138006Y4080847I56154J0D01*
G37*
G36*
G01X10803824Y4490991D02*
G03X10859978Y4434837I56154J0D01*
G03X10916132Y4490991I0J56154D01*
G03X10859978Y4547145I-56154J0D01*
G03X10803824Y4490991I0J-56154D01*
G37*
G36*
G01X10975824Y4072992D02*
G03X11031978Y4016838I56154J0D01*
G03X11088132Y4072992I0J56154D01*
G03X11031978Y4129146I-56154J0D01*
G03X10975824Y4072992I0J-56154D01*
G37*
G36*
G01X6654302Y3418997D02*
G03X6710456Y3362843I56154J0D01*
G03X6766610Y3418997I0J56154D01*
G03X6710456Y3475151I-56154J0D01*
G03X6654302Y3418997I0J-56154D01*
G37*
G36*
G01X6843026Y5445753D02*
G03X6899180Y5389599I56154J0D01*
G03X6955334Y5445753I0J56154D01*
G03X6899180Y5501907I-56154J0D01*
G03X6843026Y5445753I0J-56154D01*
G37*
G36*
G01X6712594Y3107681D02*
G03X6768748Y3163835I0J56154D01*
G03X6712594Y3219989I-56154J0D01*
G03X6656440Y3163835I0J-56154D01*
G03X6712594Y3107681I56154J0D01*
G37*
G36*
G01X10857978Y3941838D02*
G03X10914132Y3997992I0J56154D01*
G03X10857978Y4054146I-56154J0D01*
G03X10801824Y3997992I0J-56154D01*
G03X10857978Y3941838I56154J0D01*
G37*
G36*
G01X7821007Y3911848D02*
G03X7877161Y3968002I0J56154D01*
G03X7821007Y4024156I-56154J0D01*
G03X7764853Y3968002I0J-56154D01*
G03X7821007Y3911848I56154J0D01*
G37*
G36*
G01X11065978Y3775838D02*
G03X11122132Y3831992I0J56154D01*
G03X11065978Y3888146I-56154J0D01*
G03X11009824Y3831992I0J-56154D01*
G03X11065978Y3775838I56154J0D01*
G37*
G36*
G01X7717830Y5544989D02*
G03X7773984Y5488835I56154J0D01*
G03X7830139Y5544989I0J56154D01*
G03X7773984Y5601143I-56154J0D01*
G03X7717830Y5544989I0J-56154D01*
G37*
G36*
G01X8122978Y3685134D02*
G03X8179132Y3741288I0J56154D01*
G03X8122978Y3797442I-56154J0D01*
G03X8066824Y3741288I0J-56154D01*
G03X8122978Y3685134I56154J0D01*
G37*
G36*
G01X6899180Y5519775D02*
G03X6955334Y5575929I0J56154D01*
G03X6899180Y5632083I-56154J0D01*
G03X6843026Y5575929I0J-56154D01*
G03X6899180Y5519775I56154J0D01*
G37*
G36*
G01X8399998Y3212846D02*
G03X8456152Y3269000I0J56154D01*
G03X8399998Y3325154I-56154J0D01*
G03X8343844Y3269000I0J-56154D01*
G03X8399998Y3212846I56154J0D01*
G37*
G36*
G01X6851970Y3163835D02*
G03X6908124Y3107681I56154J0D01*
G03X6964278Y3163835I0J56154D01*
G03X6908124Y3219989I-56154J0D01*
G03X6851970Y3163835I0J-56154D01*
G37*
G36*
G01X7494452Y3539403D02*
G03X7550606Y3595557I0J56154D01*
G03X7494452Y3651711I-56154J0D01*
G03X7438298Y3595557I0J-56154D01*
G03X7494452Y3539403I56154J0D01*
G37*
G36*
G01X6840888Y5700915D02*
G03X6897042Y5644761I56154J0D01*
G03X6953196Y5700915I0J56154D01*
G03X6897042Y5757070I-56154J0D01*
G03X6840888Y5700915I0J-56154D01*
G37*
G36*
G01X8950829Y5770988D02*
G03X9006983Y5714834I56154J0D01*
G03X9063137Y5770988I0J56154D01*
G03X9006983Y5827143I-56154J0D01*
G03X8950829Y5770988I0J-56154D01*
G37*
G36*
G01X11180978Y5830834D02*
G03X11237132Y5886988I0J56154D01*
G03X11180978Y5943142I-56154J0D01*
G03X11124824Y5886988I0J-56154D01*
G03X11180978Y5830834I56154J0D01*
G37*
G36*
G01X10812824Y5886988D02*
G03X10868978Y5830834I56154J0D01*
G03X10925132Y5886988I0J56154D01*
G03X10868978Y5943142I-56154J0D01*
G03X10812824Y5886988I0J-56154D01*
G37*
G36*
G01X8763983Y5861834D02*
G03X8820137Y5917988I0J56154D01*
G03X8763983Y5974142I-56154J0D01*
G03X8707829Y5917988I0J-56154D01*
G03X8763983Y5861834I56154J0D01*
G37*
G36*
G01X8651484Y5864834D02*
G03X8707638Y5920988I0J56154D01*
G03X8651484Y5977142I-56154J0D01*
G03X8595330Y5920988I0J-56154D01*
G03X8651484Y5864834I56154J0D01*
G37*
%LPD*%
G36*
G01X6749605Y-1235344D02*
G01X6603596Y-1081347D01*
G03X6584979Y-1073344I-18616J-17651D01*
G01X5514989D01*
G03X5497555Y-1080178I0J-25654D01*
G01X5427995Y-1144615D01*
G01Y44498D01*
G01X7745666D01*
G01Y-194422D01*
G03X7701820Y-173350I-43846J-35083D01*
G03X7645666Y-229504I0J-56154D01*
G03X7701820Y-285659I56154J0D01*
G03X7745666Y-264587I0J56154D01*
G01Y-1235344D01*
G01X6749605D01*
G37*
%LPC*%
G36*
G01X5758002Y-484137D02*
G03X5816156Y-425983I0J58153D01*
G03X5758002Y-367830I-58153J0D01*
G03X5699849Y-425983I0J-58153D01*
G03X5758002Y-484137I58153J0D01*
G37*
G36*
G01X6336005Y-484137D02*
G03X6394158Y-425983I0J58153D01*
G03X6336005Y-367830I-58153J0D01*
G03X6277851Y-425983I0J-58153D01*
G03X6336005Y-484137I58153J0D01*
G37*
G36*
G01X5509824Y-965657D02*
G03X5565978Y-909503I0J56154D01*
G03X5509824Y-853349I-56154J0D01*
G03X5453670Y-909503I0J-56154D01*
G03X5509824Y-965657I56154J0D01*
G37*
G36*
G01X5670670Y-195505D02*
G03X5726824Y-251659I56154J0D01*
G03X5782978Y-195505I0J56154D01*
G03X5726824Y-139350I-56154J0D01*
G03X5670670Y-195505I0J-56154D01*
G37*
G36*
G01X6365822Y-251659D02*
G03X6421976Y-195505I0J56154D01*
G03X6365822Y-139350I-56154J0D01*
G03X6309668Y-195505I0J-56154D01*
G03X6365822Y-251659I56154J0D01*
G37*
G36*
G01X6066669Y-447504D02*
G03X6122823Y-503658I56154J0D01*
G03X6178977Y-447504I0J56154D01*
G03X6122823Y-391350I-56154J0D01*
G03X6066669Y-447504I0J-56154D01*
G37*
G36*
G01X5513824Y-526658D02*
G03X5569978Y-470504I0J56154D01*
G03X5513824Y-414350I-56154J0D01*
G03X5457670Y-470504I0J-56154D01*
G03X5513824Y-526658I56154J0D01*
G37*
G36*
G01X5972823Y-503658D02*
G03X6028977Y-447504I0J56154D01*
G03X5972823Y-391350I-56154J0D01*
G03X5916669Y-447504I0J-56154D01*
G03X5972823Y-503658I56154J0D01*
G37*
G36*
G01X7073001Y-935152D02*
G03X7129155Y-878998I0J56154D01*
G03X7073001Y-822844I-56154J0D01*
G03X7016847Y-878998I0J-56154D01*
G03X7073001Y-935152I56154J0D01*
G37*
G36*
G01X6812002Y-936152D02*
G03X6868156Y-879998I0J56154D01*
G03X6812002Y-823844I-56154J0D01*
G03X6755848Y-879998I0J-56154D01*
G03X6812002Y-936152I56154J0D01*
G37*
G36*
G01X7372831Y-1063657D02*
G03X7428985Y-1007503I0J56154D01*
G03X7372831Y-951349I-56154J0D01*
G03X7316677Y-1007503I0J-56154D01*
G03X7372831Y-1063657I56154J0D01*
G37*
G36*
G01X6520668Y-909503D02*
G03X6576822Y-965657I56154J0D01*
G03X6632976Y-909503I0J56154D01*
G03X6576822Y-853349I-56154J0D01*
G03X6520668Y-909503I0J-56154D01*
G37*
G36*
G01X7596666Y-1007503D02*
G03X7652820Y-1063657I56154J0D01*
G03X7708974Y-1007503I0J56154D01*
G03X7652820Y-951349I-56154J0D01*
G03X7596666Y-1007503I0J-56154D01*
G37*
G36*
G01X7332820Y-1233657D02*
G03X7388975Y-1177503I0J56154D01*
G03X7332820Y-1121349I-56154J0D01*
G03X7276666Y-1177503I0J-56154D01*
G03X7332820Y-1233657I56154J0D01*
G37*
G36*
G01X7512820Y-1233657D02*
G03X7568974Y-1177503I0J56154D01*
G03X7512820Y-1121349I-56154J0D01*
G03X7456666Y-1177503I0J-56154D01*
G03X7512820Y-1233657I56154J0D01*
G37*
G36*
G01X6939821Y-285659D02*
G03X6995975Y-229504I0J56154D01*
G03X6939821Y-173350I-56154J0D01*
G03X6883667Y-229504I0J-56154D01*
G03X6939821Y-285659I56154J0D01*
G37*
G36*
G01X6523668Y-471504D02*
G03X6579822Y-527658I56154J0D01*
G03X6635976Y-471504I0J56154D01*
G03X6579822Y-415350I-56154J0D01*
G03X6523668Y-471504I0J-56154D01*
G37*
%LPD*%
G36*
G01X13568298Y3749565D02*
G01X13568298Y3802952D01*
G01X13605996Y3840651D01*
G03X13608972Y3847835I-7184J7184D01*
G01Y4073130D01*
G01X13634048D01*
G01X13647439Y4059739D01*
G01Y3802815D01*
G01X13594189Y3749565D01*
G01X13568298D01*
G37*
G36*
G01X13938991Y5441989D02*
G01X13938991Y5319188D01*
G01X13791787Y5466392D01*
G01Y5819988D01*
G03X13769581Y5873597I-75814J0D01*
G01X13732436Y5910743D01*
G01Y5942828D01*
G01X14925919D01*
G01Y5452149D01*
G01X13949151D01*
G03X13938991Y5441989I0J-10160D01*
G37*
%LPC*%
G36*
G01X14521988Y5564175D02*
G03X14647802Y5689989I0J125814D01*
G03X14521988Y5815802I-125814J0D01*
G03X14396175Y5689989I0J-125814D01*
G03X14521988Y5564175I125814J0D01*
G37*
%LPD*%
G36*
G01X13865287Y3655306D02*
G01X13865287Y4178800D01*
G01X14020186D01*
G03X14030346Y4188960I0J10160D01*
G01Y4212545D01*
G03X14070798Y4233600I-13157J74664D01*
G01X14098581Y4261383D01*
G03X14120786Y4314991I-53609J53609D01*
G01Y4428991D01*
G03X14098581Y4482600I-75814J0D01*
G01X14098580D01*
G01X14030346Y4550834D01*
G01Y5372676D01*
G01X14964186D01*
G01Y4046728D01*
G01X14129812D01*
G03X14119652Y4036568I0J-10160D01*
G01Y3665345D01*
G01X14109614Y3655306D01*
G01X13865287D01*
G37*
%LPC*%
G36*
G01X14521988Y5064176D02*
G03X14647802Y5189990I0J125814D01*
G03X14521988Y5315803I-125814J0D01*
G03X14396175Y5189990I0J-125814D01*
G03X14521988Y5064176I125814J0D01*
G37*
%LPD*%
G54D8191*
G01X4851676Y4721157D02*
G01X4851676Y5381821D01*
G03X4815862Y5417635I-35814J0D01*
G01X4760151D01*
G01Y5423923D01*
G03X4749991Y5434083I-10160J0D01*
G01X4035814D01*
G01Y5987397D01*
G01X5214615Y5984565D01*
G01Y5897194D01*
G03X5207586Y5891128I37741J-50836D01*
G01X5064257Y5747798D01*
G03X5045712Y5703028I44770J-44770D01*
G01Y4721157D01*
G01X4851676D01*
G01X4335185Y5642989D02*
G03X4460999Y5517175I125814J0D01*
G03X4586813Y5642989I0J125814D01*
G03X4460999Y5768803I-125814J0D01*
G03X4335185Y5642989I0J-125814D01*
G01X4805702Y4453089D02*
G01X4805702Y3910321D01*
G01X4035814D01*
G01Y5371661D01*
G01X4805702D01*
G01Y4658929D01*
G03X4790213Y4613009I60325J-45920D01*
G01Y4499009D01*
G03X4805702Y4453089I75814J0D01*
G01X4335185Y5142990D02*
G03X4460999Y5017176I125814J0D01*
G03X4586813Y5142990I0J125814D01*
G03X4460999Y5268804I-125814J0D01*
G03X4335185Y5142990I0J-125814D01*
G01X13568298Y3749565D02*
G01X13568298Y3802952D01*
G01X13605996Y3840651D01*
G03X13608972Y3847835I-7184J7184D01*
G01Y4073130D01*
G01X13634048D01*
G01X13647439Y4059739D01*
G01Y3802815D01*
G01X13594189Y3749565D01*
G01X13568298D01*
G01X13938991Y5441989D02*
G01X13938991Y5319188D01*
G01X13791787Y5466392D01*
G01Y5819988D01*
G03X13769581Y5873597I-75814J0D01*
G01X13732436Y5910743D01*
G01Y5942828D01*
G01X14925919D01*
G01Y5452149D01*
G01X13949151D01*
G03X13938991Y5441989I0J-10160D01*
G01X14521988Y5564175D02*
G03X14647802Y5689989I0J125814D01*
G03X14521988Y5815802I-125814J0D01*
G03X14396175Y5689989I0J-125814D01*
G03X14521988Y5564175I125814J0D01*
G01X13865287Y3655306D02*
G01X13865287Y4178800D01*
G01X14020186D01*
G03X14030346Y4188960I0J10160D01*
G01Y4212545D01*
G03X14070798Y4233600I-13157J74664D01*
G01X14098581Y4261383D01*
G03X14120786Y4314991I-53609J53609D01*
G01Y4428991D01*
G03X14098581Y4482600I-75814J0D01*
G01X14098580D01*
G01X14030346Y4550834D01*
G01Y5372676D01*
G01X14964186D01*
G01Y4046728D01*
G01X14129812D01*
G03X14119652Y4036568I0J-10160D01*
G01Y3665345D01*
G01X14109614Y3655306D01*
G01X13865287D01*
G01X14521988Y5064176D02*
G03X14647802Y5189990I0J125814D01*
G03X14521988Y5315803I-125814J0D01*
G03X14396175Y5189990I0J-125814D01*
G03X14521988Y5064176I125814J0D01*
G54D10*
G01X4588000Y2224000D02*
G01X4588000Y2113092D01*
G01X4588000Y2224000D02*
G01X4588000Y2334908D01*
G01X4588000Y2224000D02*
G01X4477092Y2224000D01*
G01X4588000Y2224000D02*
G01X4698908Y2224000D01*
G01X10231005Y-1084000D02*
G01X10341913Y-1084000D01*
G01X10231005Y-1084000D02*
G01X10120098Y-1084000D01*
G01X10231005Y-1084000D02*
G01X10231005Y-1194908D01*
G01X10231005Y-1084000D02*
G01X10231005Y-973093D01*
G01X11899976Y-11997D02*
G01X11899976Y-127905D01*
G01X11899976Y-11997D02*
G01X11784068Y-11997D01*
G01X11899976Y-11997D02*
G01X12015884Y-11997D01*
G01X14396971Y3738994D02*
G01X14396971Y3849902D01*
G01X14396971Y3738994D02*
G01X14396971Y3628086D01*
G01X14396971Y3738994D02*
G01X14507879Y3738994D01*
G01X14396971Y3738994D02*
G01X14286063Y3738994D01*
G54D11*
G01X14521988Y5189990D02*
G01X14521988Y5074082D01*
G01X14521988Y5189990D02*
G01X14521988Y5305897D01*
G01X14521988Y5189990D02*
G01X14406081Y5189990D01*
G01X14521988Y5189990D02*
G01X14637896Y5189990D01*
G01X14521988Y5689989D02*
G01X14521988Y5574081D01*
G01X14521988Y5689989D02*
G01X14521988Y5805896D01*
G01X14521988Y5689989D02*
G01X14406081Y5689989D01*
G01X14521988Y5689989D02*
G01X14637896Y5689989D01*
G01X4460999Y5642989D02*
G01X4460999Y5758897D01*
G01X4460999Y5642989D02*
G01X4460999Y5527081D01*
G01X4460999Y5642989D02*
G01X4576907Y5642989D01*
G01X4460999Y5642989D02*
G01X4345091Y5642989D01*
G01X4460999Y5142990D02*
G01X4460999Y5258898D01*
G01X4460999Y5142990D02*
G01X4460999Y5027082D01*
G01X4460999Y5142990D02*
G01X4576907Y5142990D01*
G01X4460999Y5142990D02*
G01X4345091Y5142990D01*
G04 Copper End*

G04 Pad Start*
G54D12*
G01X7375985Y4407991D03*
G01X6216988Y931998D03*
G01X12804974Y76000D03*
G54D13*
G01X10231005Y-1084000D03*
G54D14*
G01X9977005Y-1084000D03*
G01X9723005Y-1084000D03*
G01X9469005Y-1084000D03*
G54D15*
G01X10428981Y3766992D03*
G54D16*
G01X10174981Y3766992D03*
G01X9920981Y3766992D03*
G01X9412981Y3766992D03*
G01X9158981Y3766992D03*
G01X8904981Y3766992D03*
G01X8650981Y3766992D03*
G01X14521988Y5189990D03*
G01X14521988Y5689989D03*
G01X4460999Y5642989D03*
G01X4460999Y5142990D03*
G54D17*
G01X10483979Y4636991D03*
G01X9983980Y4636991D03*
G54D16*
G01X9683981Y5636989D03*
G01X10783978Y5636989D03*
G54D19*
G01X4588000Y2224000D03*
G54D14*
G01X4334000Y2224000D03*
G01X4588000Y2478000D03*
G01X4334000Y2478000D03*
G01X4588000Y2732000D03*
G01X4334000Y2732000D03*
G01X4588000Y2986000D03*
G01X4334000Y2986000D03*
G01X4588000Y3240000D03*
G01X4334000Y3240000D03*
G01X4588000Y3494000D03*
G01X4334000Y3494000D03*
G01X4588000Y3748000D03*
G01X4334000Y3748000D03*
G54D20*
G01X14396971Y3738994D03*
G54D14*
G01X14650971Y3738994D03*
G01X14396971Y3484994D03*
G01X14650971Y3484994D03*
G01X14396971Y3230994D03*
G01X14650971Y3230994D03*
G01X14396971Y2976994D03*
G01X14650971Y2976994D03*
G01X14396971Y2722994D03*
G01X14650971Y2722994D03*
G01X14396971Y2468994D03*
G01X14650971Y2468994D03*
G01X14396971Y2214994D03*
G01X14650971Y2214994D03*
G54D16*
G01X4459991Y700118D03*
G01X4459991Y200119D03*
G01X14522971Y260000D03*
G01X14522971Y759999D03*
G01X11899976Y747996D03*
G01X11899976Y-11997D03*
G01X4460000Y-451880D03*
G01X4460000Y-951879D03*
G01X14521971Y-891998D03*
G01X14521971Y-391999D03*
G04 Pad End*

G04 Via Start*
G54D21*
G01X10166984Y2256007D03*
G01X10191984Y2107007D03*
G01X11033950Y821160D03*
G01X11036274Y1483258D03*
G01X13754972Y-223000D03*
G01X13719973Y-1113998D03*
G01X12824976Y-297999D03*
G01X13268973Y-960998D03*
G01X11795007Y4744999D03*
G01X11799007Y4854999D03*
G01X11809007Y4036001D03*
G01X11809160Y3958001D03*
G01X11845809Y4797999D03*
G01X11887006Y4922999D03*
G01X11894507Y4415515D03*
G01X11894507Y4288515D03*
G01X11894507Y4035754D03*
G01X11895006Y3958001D03*
G01X11913320Y4669515D03*
G01X11919006Y4797999D03*
G01X11938006Y4164000D03*
G01X12002875Y5633990D03*
G01X12002875Y5764166D03*
G01X12005013Y5509003D03*
G01X12011819Y3352072D03*
G01X12011819Y3482248D03*
G01X12013957Y3227085D03*
G01X12198405Y5633990D03*
G01X12198405Y5764166D03*
G01X12200543Y5509003D03*
G01X12207349Y3352072D03*
G01X12207349Y3482248D03*
G01X12209487Y3227085D03*
G01X12393935Y5633990D03*
G01X12393935Y5764166D03*
G01X12396072Y5509003D03*
G01X12402878Y3352072D03*
G01X12402878Y3482248D03*
G01X12405016Y3227085D03*
G01X12540480Y3588333D03*
G01X12546875Y5380323D03*
G01X12589465Y5633990D03*
G01X12589465Y5764166D03*
G01X12591602Y5509003D03*
G01X12598408Y3352072D03*
G01X12598408Y3482248D03*
G01X12600546Y3227085D03*
G01X12784994Y5633990D03*
G01X12784994Y5764166D03*
G01X12785026Y3588333D03*
G01X12787132Y5509003D03*
G01X12791421Y5380323D03*
G01X12793938Y3352072D03*
G01X12793938Y3482248D03*
G01X12796076Y3227085D03*
G01X12980524Y5633990D03*
G01X12980524Y5764166D03*
G01X12982662Y5509003D03*
G01X12989468Y3352072D03*
G01X12989468Y3482248D03*
G01X12991606Y3227085D03*
G01X13029572Y3588333D03*
G01X13035967Y5380323D03*
G01X13176054Y5764166D03*
G01X13176054Y5633990D03*
G01X13178192Y5509003D03*
G01X13184998Y3482248D03*
G01X13184998Y3352072D03*
G01X13187135Y3227085D03*
G01X13218004Y4108000D03*
G01X13218004Y4179001D03*
G01X13218004Y4037000D03*
G01X13224004Y4794986D03*
G01X13224004Y4865986D03*
G01X13224004Y4723986D03*
G01X13371584Y5633990D03*
G01X13371584Y5764166D03*
G01X13373721Y5509003D03*
G01X13380527Y3352072D03*
G01X13380527Y3482248D03*
G01X13382665Y3227085D03*
G01X13567113Y5633990D03*
G01X13567113Y5764166D03*
G01X13569251Y5509003D03*
G01X13576057Y3352072D03*
G01X13576057Y3482248D03*
G01X13578195Y3227085D03*
G01X13615003Y3797001D03*
G01X13641555Y4164000D03*
G01X13651003Y4667999D03*
G01X13652003Y4543000D03*
G01X13654973Y4921992D03*
G01X13898002Y3806001D03*
G01X13900002Y3930001D03*
G01X13904141Y4415515D03*
G01X13904141Y4287208D03*
G01X13975972Y3929992D03*
G01X13975977Y3806001D03*
G01X11785976Y5046990D03*
G01X11035978Y4490991D03*
G01X10859978Y4490991D03*
G01X11388808Y4073998D03*
G01X5025955Y1576005D03*
G01X5618882Y1582020D03*
G01X5613698Y2030025D03*
G01X5046132Y2031007D03*
G01X5057559Y2600005D03*
G01X6164909Y2030021D03*
G01X6172878Y2600005D03*
G01X5618414Y2600005D03*
G01X13263152Y2602994D03*
G01X12680361Y2602967D03*
G01X12685975Y2112980D03*
G01X13805972Y2075996D03*
G01X13249974Y2110996D03*
G01X12693928Y1602982D03*
G01X13822972Y2604991D03*
G01X13250302Y1604479D03*
G01X11437977Y3654993D03*
G01X11310977Y3656993D03*
G01X11511977Y3834992D03*
G01X11065978Y3831992D03*
G01X10920978Y3831992D03*
G01X10857978Y3997992D03*
G01X11031978Y4072992D03*
G01X11152978Y3978992D03*
G01X11176978Y4659991D03*
G01X10875006Y4886705D03*
G01X9006983Y5770988D03*
G01X8763983Y5917988D03*
G01X8651484Y5920988D03*
G01X8538984Y5921988D03*
G01X8254097Y5921988D03*
G01X8146541Y5921988D03*
G01X8038985Y5921988D03*
G01X8027485Y4719814D03*
G01X8252484Y4715814D03*
G01X8139984Y4716814D03*
G01X8538427Y4719314D03*
G01X8753540Y4719314D03*
G01X8645983Y4719314D03*
G01X7791979Y5262993D03*
G01X7790979Y5182993D03*
G01X7789979Y5102993D03*
G01X5012997Y5121999D03*
G01X5012997Y5204999D03*
G01X5006858Y4512485D03*
G01X5006858Y4640792D03*
G01X4935022Y5204999D03*
G01X4935022Y5121999D03*
G01X6897042Y5700915D03*
G01X5919393Y5700915D03*
G01X6701512Y5700915D03*
G01X5332804Y5700915D03*
G01X6310453Y5700915D03*
G01X5723864Y5700915D03*
G01X6505983Y5700915D03*
G01X5528334Y5700915D03*
G01X6114923Y5700915D03*
G01X6899180Y5575929D03*
G01X5921531Y5575929D03*
G01X6703650Y5575929D03*
G01X5334942Y5575929D03*
G01X6312591Y5575929D03*
G01X5726002Y5575929D03*
G01X6508121Y5575929D03*
G01X5530472Y5575929D03*
G01X6117061Y5575929D03*
G01X6905986Y3418997D03*
G01X5928337Y3418997D03*
G01X6710456Y3418997D03*
G01X5341748Y3418997D03*
G01X6319397Y3418997D03*
G01X5537278Y3418997D03*
G01X6514927Y3418997D03*
G01X5732807Y3418997D03*
G01X6123867Y3418997D03*
G01X6908124Y3294011D03*
G01X5930475Y3294011D03*
G01X6712594Y3294011D03*
G01X5343886Y3294011D03*
G01X6321534Y3294011D03*
G01X5539415Y3294011D03*
G01X6517064Y3294011D03*
G01X5734945Y3294011D03*
G01X6126005Y3294011D03*
G01X6908124Y3163835D03*
G01X5930475Y3163835D03*
G01X6712594Y3163835D03*
G01X5343886Y3163835D03*
G01X6321534Y3163835D03*
G01X5539415Y3163835D03*
G01X6517064Y3163835D03*
G01X7101992Y4892000D03*
G01X5692995Y4891000D03*
G01X7624985Y4812990D03*
G01X5692995Y4820000D03*
G01X6899180Y5445753D03*
G01X5921531Y5445753D03*
G01X6703650Y5445753D03*
G01X5334942Y5445753D03*
G01X6312591Y5445753D03*
G01X5530472Y5445753D03*
G01X6508121Y5445753D03*
G01X5726002Y5445753D03*
G01X6117061Y5445753D03*
G01X6370519Y5339667D03*
G01X5881427Y5339667D03*
G01X6125973Y5339667D03*
G01X5269444Y4764000D03*
G01X6972993Y4764000D03*
G01X5692995Y4749000D03*
G01X6997679Y4258485D03*
G01X5686995Y4204014D03*
G01X5258996Y4385001D03*
G01X5259996Y4260001D03*
G01X5256026Y4006009D03*
G01X7023993Y4005002D03*
G01X7016986Y4646991D03*
G01X7016492Y4512485D03*
G01X5295996Y5130999D03*
G01X8388983Y3430993D03*
G01X7101839Y4970000D03*
G01X7015993Y4970000D03*
G01X7016492Y4892246D03*
G01X5686995Y4133014D03*
G01X6569987Y4129992D03*
G01X5734945Y3163835D03*
G01X6126005Y3163835D03*
G01X6579987Y3785992D03*
G01X6364124Y3547677D03*
G01X5875032Y3547677D03*
G01X6119578Y3547677D03*
G01X8122978Y3741288D03*
G01X7821007Y3968002D03*
G01X8138006Y4137001D03*
G01X7962006Y4137001D03*
G01X7494452Y3595557D03*
G01X7358985Y3601993D03*
G01X7754970Y4610982D03*
G01X8161969Y4615982D03*
G01X7965970Y4536982D03*
G01X5686995Y4062014D03*
G01X8719983Y3248994D03*
G01X8640983Y3248994D03*
G01X9527981Y3288993D03*
G01X10168980Y3273993D03*
G01X10169976Y2868361D03*
G01X10308979Y2999994D03*
G01X9329981Y3417993D03*
G01X7102214Y5340725D03*
G01X7144986Y5562989D03*
G01X6984986Y5938988D03*
G01X8399998Y3269000D03*
G01X7742985Y3424993D03*
G01X7869984Y3424993D03*
G01X7621985Y3577993D03*
G01X6691987Y3649993D03*
G01X7760984Y4911990D03*
G01X8337145Y4483009D03*
G01X10675979Y2811994D03*
G01X10464979Y2883994D03*
G01X8841851Y-1006820D03*
G01X8853093Y-344033D03*
G01X5035990Y-145882D03*
G01X5246990Y-1156880D03*
G01X5128990Y-811998D03*
G01X5128990Y-611999D03*
G01X6940321Y355235D03*
G01X7702321Y355235D03*
G01X7187821Y917493D03*
G01X6772822Y917493D03*
G01X6767002Y780998D03*
G01X7437820Y1022721D03*
G01X7593985Y1023998D03*
G01X7859984Y911998D03*
G01X5509824Y-909503D03*
G01X5513824Y-470504D03*
G01X5972823Y-447504D03*
G01X6122823Y-447504D03*
G01X6197823Y-62505D03*
G01X7701820Y-229504D03*
G01X5726824Y-195505D03*
G01X5832988Y-182000D03*
G01X6270987Y-182000D03*
G01X7512820Y-1177503D03*
G01X7652820Y-1007503D03*
G01X7332820Y-1177503D03*
G01X6576822Y-909503D03*
G01X6939821Y-229504D03*
G01X6365822Y-195505D03*
G01X6579822Y-471504D03*
G01X7073001Y-878998D03*
G01X6812002Y-879998D03*
G01X7372831Y-1007503D03*
G01X6935002Y-606999D03*
G01X13314974Y502999D03*
G01X13054975Y501999D03*
G01X14002972Y839998D03*
G01X14250008Y1500001D03*
G01X7993984Y2503995D03*
G01X8250983Y2503995D03*
G01X11565977Y2740995D03*
G01X11821976Y2740995D03*
G01X11060978Y2740995D03*
G01X7486985Y2503995D03*
G01X7241986Y2213996D03*
G01X7145649Y2067992D03*
G01X10730006Y2280001D03*
G01X10826978Y2396995D03*
G01X10516529Y1577443D03*
G01X10021980Y1039998D03*
G01X8924982Y1265997D03*
G01X9350005Y720000D03*
G01X8795982Y1132998D03*
G01X9344981Y1656997D03*
G01X9772980Y1144998D03*
G01X9318971Y4574833D03*
G01X9206471Y4575833D03*
G01X9093971Y4578833D03*
G01X8896982Y852998D03*
G01X9759980Y1701997D03*
G01X10290006Y590000D03*
G01X9580981Y-132000D03*
G01X10930006Y660000D03*
G01X10822740Y386506D03*
G01X9951452Y-315711D03*
G01X9682383Y-219335D03*
G01X10159980Y486999D03*
G01X10028980Y370999D03*
G01X10085980Y425999D03*
G01X7614985Y2095996D03*
G01X7742985Y2095996D03*
G01X7870984Y2095996D03*
G01X7773984Y5544989D03*
G01X6569987Y4039995D03*
G01X6508928Y3978936D03*
G01X11215978Y2301995D03*
G01X11311977Y2301995D03*
G01X11438977Y2301995D03*
G01X10092980Y842998D03*
G01X10082980Y717999D03*
G01X9965980Y297999D03*
G01X8672983Y-1013000D03*
G01X8688034Y-355813D03*
G01X9863808Y1976641D03*
G01X8959982Y-733001D03*
G01X8979982Y-71999D03*
G01X9464981Y816998D03*
G01X9934980Y-748999D03*
G01X9890980Y926998D03*
G01X9370981Y54000D03*
G01X9437981Y-25000D03*
G01X13123974Y-167000D03*
G01X9412981Y2690995D03*
G01X9036982Y447999D03*
G01X9081982Y373999D03*
G01X9393981Y605999D03*
G01X9164982Y312999D03*
G01X9463981Y541999D03*
G01X9240005Y250000D03*
G01X9532981Y468999D03*
G01X12769974Y1137998D03*
G01X12769974Y883998D03*
G01X12335975Y867998D03*
G01X12506975Y-468999D03*
G01X12518975Y-596999D03*
G01X12504975Y-850998D03*
G01X12445975Y1175998D03*
G01X9291981Y142000D03*
G01X9324034Y2688995D03*
G01X9235087Y2688995D03*
G01X14362971Y4755991D03*
G01X14812971Y4755991D03*
G01X14512971Y4755991D03*
G01X14662971Y4755991D03*
G01X14056971Y4125992D03*
G01X14662971Y4605991D03*
G01X14212971Y4755991D03*
G01X14812971Y4605991D03*
G01X14056971Y3975992D03*
G01X14212971Y4605991D03*
G01X14362971Y4605991D03*
G01X14512971Y4605991D03*
G01X14056971Y3825992D03*
G01X14212971Y4455991D03*
G01X14362971Y4455991D03*
G01X14512971Y4455991D03*
G01X14662971Y4455991D03*
G01X14812971Y4455991D03*
G01X14180972Y5541989D03*
G01X14030972Y5541989D03*
G01X14304971Y5538989D03*
G01X14304971Y5688989D03*
G01X14030972Y5691989D03*
G01X14030972Y5841989D03*
G01X14304971Y5838989D03*
G01X14180972Y5841989D03*
G01X14180972Y5691989D03*
G01X4162857Y4063068D03*
G01X4312857Y4063068D03*
G01X4462857Y4063068D03*
G01X4612857Y4063068D03*
G01X4762857Y4063068D03*
G01X4762857Y4213068D03*
G01X4762857Y4363068D03*
G01X4612857Y4363068D03*
G01X4612857Y4213068D03*
G01X4462857Y4213068D03*
G01X4462857Y4363068D03*
G01X4312857Y4363068D03*
G01X4312857Y4213068D03*
G01X4162857Y4213068D03*
G01X4162857Y4363068D03*
G01X4812990Y5658989D03*
G01X4962990Y5658989D03*
G01X4962990Y5508989D03*
G01X4812990Y5508989D03*
G01X4662990Y5508989D03*
G01X4662990Y5658989D03*
G01X9470160Y1788720D03*
G01X10394324Y1706714D03*
G01X10112980Y1607997D03*
G01X9933980Y1112998D03*
G01X9871980Y1176998D03*
G01X10179980Y1799996D03*
G01X10352979Y1857996D03*
G01X10150000Y4700000D03*
G01X10153546Y4810059D03*
G01X10160980Y4924990D03*
G01X10293979Y4840990D03*
G01X10290922Y4947435D03*
G01X10300979Y5082990D03*
G01X10438979Y4978990D03*
G01X10436962Y5093476D03*
G01X10434979Y5200990D03*
G01X10572979Y5103990D03*
G01X10574364Y5200990D03*
G01X10575979Y5289989D03*
G01X10685979Y5113990D03*
G01X10686979Y5286989D03*
G01X9689246Y5635173D03*
G01X11180978Y5886988D03*
G01X11024978Y5886988D03*
G01X10868978Y5886988D03*
G01X10858978Y25000D03*
G01X10776978Y-182000D03*
G01X10617979Y558999D03*
G01X11870976Y1696997D03*
G01X11738835Y1100024D03*
G01X12151375Y1099996D03*
G01X12164976Y1449997D03*
G01X11657977Y1470997D03*
G01X11484977Y702999D03*
G01X11695977Y384999D03*
G01X11586977Y785998D03*
G01X11717977Y651999D03*
G54D22*
G01X12615975Y4027992D03*
G01X12618975Y4127992D03*
G01X12615975Y4227992D03*
G01X12615975Y4326460D03*
G01X12615975Y4427991D03*
G01X12615975Y4527991D03*
G01X12615975Y4627991D03*
G01X12615975Y4727991D03*
G01X12615975Y4827990D03*
G01X12615975Y4927990D03*
G01X12715975Y4027979D03*
G01X12718974Y4127979D03*
G01X12715975Y4227979D03*
G01X12715975Y4326447D03*
G01X12715975Y4427978D03*
G01X12715975Y4527978D03*
G01X12715975Y4627978D03*
G01X12715975Y4727978D03*
G01X12715975Y4827978D03*
G01X12715975Y4927977D03*
G01X12815974Y4027979D03*
G01X12818974Y4127979D03*
G01X12815974Y4227979D03*
G01X12815974Y4326447D03*
G01X12815974Y4427978D03*
G01X12815974Y4527978D03*
G01X12815974Y4627978D03*
G01X12815974Y4727978D03*
G01X12815974Y4827978D03*
G01X12815974Y4927977D03*
G01X12915961Y4027979D03*
G01X12918961Y4127979D03*
G01X12915961Y4227979D03*
G01X12915961Y4326447D03*
G01X12915961Y4427978D03*
G01X12915961Y4527978D03*
G01X12915961Y4627978D03*
G01X12915961Y4727978D03*
G01X12915961Y4827978D03*
G01X12915961Y4927977D03*
G01X6278998Y4897999D03*
G01X6275998Y4798000D03*
G01X6278998Y4698000D03*
G01X6278998Y4599532D03*
G01X6278998Y4498000D03*
G01X6278998Y4398000D03*
G01X6278998Y4298001D03*
G01X6278998Y4198001D03*
G01X6278998Y4098001D03*
G01X6278998Y3998001D03*
G01X6178998Y4898012D03*
G01X6175999Y4798012D03*
G01X6178998Y4698012D03*
G01X6178998Y4599544D03*
G01X6178998Y4498013D03*
G01X6178998Y4398013D03*
G01X6178998Y4298013D03*
G01X6178998Y4198013D03*
G01X6178998Y4098014D03*
G01X6178998Y3998014D03*
G01X6078999Y4898012D03*
G01X6075999Y4798012D03*
G01X6078999Y4698012D03*
G01X6078999Y4599544D03*
G01X6078999Y4498013D03*
G01X6078999Y4398013D03*
G01X6078999Y4298013D03*
G01X6078999Y4198013D03*
G01X6078999Y4098014D03*
G01X6078999Y3998014D03*
G01X5979011Y4898012D03*
G01X5976012Y4798012D03*
G01X5979011Y4698012D03*
G01X5979011Y4599544D03*
G01X5979011Y4498013D03*
G01X5979011Y4398013D03*
G01X5979011Y4298013D03*
G01X5979011Y4198013D03*
G01X5979011Y4098014D03*
G01X5979011Y3998014D03*
G04 Via End*

G04 Track Start*
G54D11*
G01X11799007Y4756199D02*
G01X11795007Y4756199D01*
G01X11799007Y4854999D02*
G01X11799007Y4756199D01*
G54D23*
G01X11804007Y3190002D02*
G01X11804007Y3658799D01*
G54D11*
G01X11809160Y4035848D02*
G01X11809160Y3958001D01*
G01X11809007Y4036001D02*
G01X11894260Y4036001D01*
G01X11895006Y3958001D02*
G01X11809160Y3958001D01*
G54D23*
G01X11924006Y3070002D02*
G01X11804007Y3190002D01*
G54D24*
G01X11938006Y4164000D02*
G01X11826007Y4164000D01*
G54D11*
G01X11919006Y4797999D02*
G01X11845809Y4797999D01*
G01X11894260Y4036001D02*
G01X11894507Y4035754D01*
G54D25*
G01X11895006Y3858001D02*
G01X11895006Y3958001D01*
G01X11895752Y4037001D02*
G01X11894507Y4035754D01*
G01X11956006Y3797001D02*
G01X11895006Y3858001D01*
G54D11*
G01X12251006Y4797999D02*
G01X11919006Y4797999D01*
G54D25*
G01X12358006Y4037001D02*
G01X11895752Y4037001D01*
G01X12358006Y4036001D02*
G01X12358006Y4037001D01*
G54D11*
G01X12499005Y5045999D02*
G01X12251006Y4797999D01*
G54D25*
G01X12480005Y3914001D02*
G01X12358006Y4036001D01*
G54D11*
G01X13043991Y5045999D02*
G01X12499005Y5045999D01*
G54D26*
G01X13623003Y3680001D02*
G01X11932006Y3680001D01*
G54D23*
G01X13647003Y3070002D02*
G01X11924006Y3070002D01*
G54D25*
G01X13615003Y3797001D02*
G01X11956006Y3797001D01*
G01X13095004Y3914001D02*
G01X12480005Y3914001D01*
G54D11*
G01X13224004Y4865986D02*
G01X13043991Y5045999D01*
G54D25*
G01X13218004Y4037000D02*
G01X13095004Y3914001D01*
G54D11*
G01X13218004Y4108000D02*
G01X13218004Y4037000D01*
G01X13218004Y4179001D02*
G01X13218004Y4108000D01*
G01X13224004Y4723986D02*
G01X13224004Y4794986D01*
G01Y4865986D01*
G54D26*
G01X13717003Y3774001D02*
G01X13623003Y3680001D01*
G54D27*
G01X13651003Y4667999D02*
G01X13699003Y4667999D01*
G54D26*
G01X13641555Y4164000D02*
G01X13717003Y4088553D01*
G01Y3774001D01*
G54D27*
G01X13699003Y4667999D02*
G01X13749003Y4717999D01*
G01Y5101998D01*
G54D23*
G01X11804007Y3658799D02*
G01X11388808Y4073998D01*
G01X13652003Y4543000D02*
G01X13801973Y4393030D01*
G01Y3224972D01*
G01X13647003Y3070002D01*
G54D26*
G01X11932006Y3680001D02*
G01X11616977Y3995031D01*
G01Y4114992D01*
G01X11665985Y4164000D02*
G01X11826007Y4164000D01*
G01X11616977Y4114992D02*
G01X11665985Y4164000D01*
G54D28*
G01X11894507Y4288515D02*
G01X11484501Y4288515D01*
G01X11303977Y4107992D01*
G01Y4031992D01*
G01X11437977Y3897992D02*
G01X11437977Y3654993D01*
G01X11303977Y4031992D02*
G01X11437977Y3897992D01*
G01X11225978Y4123992D02*
G01X11225978Y4018992D01*
G01X11310977Y3933992D01*
G01Y3656993D01*
G54D27*
G01X11890985Y5151998D02*
G01X13699003Y5151998D01*
G01X13749003Y5101998D01*
G01X11785976Y5046990D02*
G01X11890985Y5151998D01*
G54D29*
G01X11686973Y5073192D02*
G01X11686973Y4664995D01*
G01X13734930Y5235032D02*
G01X11848813Y5235032D01*
G01X11686973Y5073192D01*
G01X13904141Y4415515D02*
G01X13831972Y4487684D01*
G01Y5137990D01*
G01X13734930Y5235032D01*
G01X11686973Y4664995D02*
G01X11770986Y4580981D01*
G01X12007644Y4288515D02*
G01X11894507Y4288515D01*
G01X11770986Y4580981D02*
G01X11884124Y4580981D01*
G01X12092117Y4372988D01*
G01X12007644Y4288515D01*
G54D28*
G01X11517501Y4415515D02*
G01X11225978Y4123992D01*
G54D25*
G01X11593453Y4415515D02*
G01X11517501Y4415515D01*
G54D29*
G01X11894507Y4415515D02*
G01X11792452Y4415515D01*
G01X13715973Y5819988D02*
G01X13715973Y5434989D01*
G01X13939972Y5210990D02*
G01X13939972Y4533991D01*
G01X14044972Y4428991D01*
G01Y4314991D01*
G01X14017189Y4287208D02*
G01X13904141Y4287208D01*
G54D28*
G01X11792452Y4415515D02*
G01X11593453Y4415515D01*
G54D29*
G01X11792452Y4415515D02*
G01X11580977Y4626991D01*
G01Y5115990D01*
G01X14044972Y4314991D02*
G01X14017189Y4287208D01*
G01X13632973Y5902988D02*
G01X13715973Y5819988D01*
G01X11580977Y5115990D02*
G01X11873976Y5408989D01*
G01Y5902988D01*
G01X13632973D01*
G01X5143027Y3545011D02*
G01X4971027Y3717011D01*
G01X5006858Y4512485D02*
G01X5079027Y4440316D01*
G54D25*
G01X5012997Y5121999D02*
G01X5012997Y5204999D01*
G01X5012997Y5121999D02*
G01X4971497Y5163499D01*
G01X5012997Y5204999D02*
G01X4971497Y5163499D01*
G54D29*
G01X4971027Y3717011D02*
G01X4971027Y4394010D01*
G54D25*
G01X4971497Y5163499D02*
G01X4935022Y5127025D01*
G01X4971497Y5163499D02*
G01X4935022Y5199974D01*
G54D29*
G01X4893810Y4640792D02*
G01X5006858Y4640792D01*
G54D25*
G01X4935022Y5127025D02*
G01X4935022Y5121999D01*
G01X4935022Y5127025D02*
G01X4935022Y5199974D01*
G01Y5204999D01*
G54D29*
G01X5195026Y3545011D02*
G01X5143027Y3545011D01*
G01X5195026Y3108012D02*
G01X5195026Y3545011D01*
G54D11*
G01X7016739Y4892000D02*
G01X7016492Y4892246D01*
G01X7101992Y4892000D02*
G01X7016739Y4892000D01*
G54D25*
G01X7015247Y4891000D02*
G01X7016492Y4892246D01*
G01X6552993Y4892000D02*
G01X6552993Y4891000D01*
G01X7015247D01*
G54D11*
G01X5692995Y4820000D02*
G01X5692995Y4891000D01*
G54D26*
G01X5193996Y4839448D02*
G01X5269444Y4764000D01*
G54D11*
G01X5692995Y4749000D02*
G01X5692995Y4820000D01*
G54D26*
G01X6978993Y5247999D02*
G01X5287996Y5247999D01*
G54D11*
G01X5686995Y4204014D02*
G01X5686995Y4133014D01*
G54D29*
G01X6910861Y4646991D02*
G01X7016986Y4646991D01*
G54D23*
G01X5109026Y4534971D02*
G01X5258996Y4385001D01*
G54D25*
G01X5295996Y5130999D02*
G01X6954993Y5130999D01*
G54D23*
G01X5109026Y5703028D02*
G01X5109026Y4534971D01*
G54D25*
G01X6954993Y5130999D02*
G01X7015993Y5070000D01*
G01Y4970000D01*
G01X5815995Y5014000D02*
G01X6430994Y5014000D01*
G54D26*
G01X5193996Y5153999D02*
G01X5193996Y4839448D01*
G54D11*
G01X7015993Y4970000D02*
G01X7101839Y4970000D01*
G54D25*
G01X6430994Y5014000D02*
G01X6552993Y4892000D01*
G01X5692995Y4891000D02*
G01X5815995Y5014000D01*
G54D11*
G01X7101839Y4892153D02*
G01X7101839Y4970000D01*
G01X6569987Y4129992D02*
G01X6569987Y4039995D01*
G54D29*
G01X5278026Y3025012D02*
G01X5195026Y3108012D01*
G54D26*
G01X5287996Y5247999D02*
G01X5193996Y5153999D01*
G54D27*
G01X6579987Y3785992D02*
G01X6569997Y3776002D01*
G54D11*
G01X5686995Y4133014D02*
G01X5686995Y4062014D01*
G54D29*
G01X4971027Y4394010D02*
G01X4866027Y4499009D01*
G01X4866027Y4613009D02*
G01X4893810Y4640792D01*
G01X4866027Y4499009D02*
G01X4866027Y4613009D01*
G54D23*
G01X7624985Y4812990D02*
G01X7624985Y4854185D01*
G54D25*
G01X6972993Y4764000D02*
G01X7238976Y4764000D01*
G54D26*
G01X7350984Y4876008D01*
G01X6978993Y5247999D01*
G54D23*
G01X7624985Y4854185D02*
G01X7231986Y5247185D01*
G01Y5613005D01*
G01X6998632Y5846358D01*
G01X5252356D01*
G01X5109026Y5703028D01*
G54D25*
G01X7742985Y3424993D02*
G01X7343004Y3025012D01*
G01X7760984Y4911990D02*
G01X7760984Y4757990D01*
G01X7621985Y4618991D01*
G01Y3577993D01*
G01X10483979Y4636991D02*
G01X10180980Y4333991D01*
G01X8486163D01*
G01X8337145Y4483009D01*
G54D11*
G01X5686995Y4062014D02*
G01X5686995Y3959985D01*
G01X5764979Y3882002D01*
G01X6411994D01*
G01X6569987Y4039995D02*
G01X6508928Y3978936D01*
G01X6411994Y3882002D01*
G54D29*
G01X5079027Y4440316D02*
G01X5079027Y3859993D01*
G01X6754986Y4491116D02*
G01X6910861Y4646991D01*
G01X5079027Y3859993D02*
G01X5289017Y3650002D01*
G01X6690004D01*
G01X6754986Y3714985D01*
G01Y4491116D01*
G54D25*
G01X7343004Y3025012D02*
G01X7117023Y3025012D01*
G54D29*
G01X5278026Y3025012D02*
G01X7117023Y3025012D01*
G01X7112527Y3029508D01*
G01Y4432485D01*
G01X7032527Y4512485D02*
G01X7016492Y4512485D01*
G01X7112527Y4432485D02*
G01X7032527Y4512485D01*
G54D27*
G01X6569997Y3776002D02*
G01X5317980Y3776002D01*
G01X5177990Y3915992D01*
G01Y4210001D01*
G01X5227990Y4260001D01*
G01X5259996D01*
G54D28*
G01X9036982Y533999D02*
G01X9036982Y447999D01*
G01X12769974Y1137998D02*
G01X12633975Y1273997D01*
G01X9776980D01*
G01X9036982Y533999D01*
G01X12769974Y883998D02*
G01X12850974Y964998D01*
G01Y1174998D01*
G01X12669975Y1355997D01*
G01X9765980D01*
G01X8982982Y333999D02*
G01X9041982Y333999D01*
G01X9081982Y373999D01*
G01X9765980Y1355997D02*
G01X8923982Y513999D01*
G01Y392999D01*
G01X8982982Y333999D01*
G01X10062980Y613999D02*
G01X9829980Y846998D01*
G01X9634981D01*
G01X9393981Y605999D01*
G01X11120006Y1560001D02*
G01X10960006Y1560001D01*
G01X10840006Y1440001D01*
G01X9100005Y260000D02*
G01X9153004Y312999D01*
G01X9164982D01*
G01X10840006Y1440001D02*
G01X9742984Y1440001D01*
G01X8849982Y546999D01*
G01Y369999D01*
G01X8959981Y260000D01*
G01X9100005D01*
G01X11240006Y1440001D02*
G01X11120006Y1560001D01*
G54D25*
G01X12445975Y1175998D02*
G01X12445975Y599999D01*
G54D29*
G01X13715973Y5434989D02*
G01X13939972Y5210990D01*
G54D17*
G01X10545476Y5201990D02*
G01X11044481Y5201990D01*
G01X9981477Y4637991D02*
G01X10153546Y4810059D01*
G01X10290922Y4947435D01*
G01X10436962Y5093476D01*
G01X10545476Y5201990D01*
G54D28*
G01X12335975Y867998D02*
G01X11758976Y290999D01*
G54D25*
G01X9291981Y142000D02*
G01X9320981Y171000D01*
G01X12016976D01*
G01X12445975Y599999D01*
G54D28*
G01X11758976Y290999D02*
G01X10471979Y290999D01*
G01X10148980Y613999D01*
G01X10062980D01*
G01X11657977Y1470997D02*
G01X11626980Y1440001D01*
G01X11240006D01*
G01X12164976Y1449997D02*
G01X12185976Y1428997D01*
G01X14179004D01*
G01X14250008Y1500001D01*
G04 Track End*

M02*
