G04 Layer: TopPasteMaskLayer*
G04 EasyEDA Pro v2.1.57.773a98f1.225d47, 2025-02-25 21:56:38*
G04 Gerber Generator version 0.3*
G04 Scale: 100 percent, Rotated: No, Reflected: No*
G04 Dimensions in millimeters*
G04 Leading zeros omitted, absolute positions, 3 integers and 5 decimals*
%FSLAX35Y35*%
%MOMM*%
%AMRect*21,1,$1,$2,0,0,$3*%
%AMPolygonMacro1*4,1,9,1.05001,-0.56999,0.55001,-0.56999,0.55001,-1.25,-0.55001,-1.25,-0.55001,-0.57499,-0.55001,-0.56999,-1.05001,-0.56999,-1.05001,1.25,1.05001,1.25,1.05001,-0.56999,0*%
%AMPolygonMacro2*4,1,9,-1.05001,0.56999,-0.55001,0.56999,-0.55001,1.25,0.55001,1.25,0.55001,0.57499,0.55001,0.56999,1.05001,0.56999,1.05001,-1.25,-1.05001,-1.25,-1.05001,0.56999,0*%
%AMOval*1,1,$1,$2,$3*1,1,$1,$4,$5*20,1,$1,$2,$3,$4,$5,0*%
%ADD10R,1.5X1.273*%
%ADD11R,0.8X0.8*%
%ADD12Rect,0.8X0.9X-135.01*%
%ADD13Rect,0.8X0.9X134.96*%
%ADD14Rect,0.8X0.9X-135.17*%
%ADD15Rect,0.8X0.9X-45.0*%
%ADD16Rect,0.8X0.9X-44.86*%
%ADD17Rect,0.8037X0.9X-90.05*%
%ADD18Rect,0.8X0.9X-90.05*%
%ADD19R,0.8X0.9*%
%ADD20R,0.8X0.9*%
%ADD21R,0.8X0.9*%
%ADD22Rect,0.8X0.9X-89.57*%
%ADD23Rect,0.8X0.9X89.9*%
%ADD24R,1.365X0.55999*%
%ADD25R,0.9X0.8*%
%ADD26R,0.9X0.8*%
%ADD27O,2.6955X0.651*%
%ADD28R,5.99999X15.89999*%
%ADD29R,3.29999X2.69999*%
%ADD30R,2.46499X1.05001*%
%ADD31R,2.46499X3.54*%
%ADD32O,2.045X0.58801*%
%ADD33R,0.75001X1.38001*%
%ADD34PolygonMacro1*%
%ADD35R,0.75001X1.38001*%
%ADD36PolygonMacro2*%
%ADD37Rect,1.6X1.2X-89.96*%
%ADD38Rect,1.273X1.5X-90.05*%
%ADD39Rect,0.8X0.9X-89.6*%
%ADD40R,1.05001X2.46499*%
%ADD41R,3.54X2.46499*%
%ADD42R,5.99999X15.89999*%
%ADD43O,0.57399X2.4005*%
%ADD44Rect,0.8X0.9X136.24*%
%ADD45Rect,0.8X0.9X-46.38*%
%ADD46Rect,0.8X0.9X-135.16*%
%ADD47R,2.04638X1.62001*%
%ADD48Rect,0.8X0.9X-135.35*%
%ADD49R,0.532X1.07201*%
%ADD50Oval,0.3X0.60104X-0.60104X-0.60104X0.60104*%
%ADD51Oval,0.3X-0.60104X-0.60104X0.60104X0.60104*%
%ADD52R,0.8X0.8*%
%ADD53R,1.3589X1.5*%
%ADD54R,1.3589X1.5*%
%ADD55R,1.50625X2.37599*%
%ADD56R,3.0099X2.49999*%
%ADD57R,3.0099X2.49999*%
%ADD58R,1.2X1.4*%
%ADD59R,1.2X1.4*%
%ADD60R,0.4699X0.5207*%
%ADD61R,0.5207X0.5207*%
G75*


G04 PolygonModel Start*
G36*
G01X10737979Y2884992D02*
G01X10609981Y2884992D01*
G01X10604980Y2889993D01*
G01Y3004994D01*
G01X10609981Y3009993D01*
G01X10650984Y3010496D01*
G01Y2965494D01*
G01X10695983D01*
G01Y3009495D01*
G01X10737979Y3009993D01*
G01X10742980Y3004994D01*
G01Y2889993D01*
G01X10737979Y2884992D01*
G37*
G36*
G01X10737979Y3099993D02*
G01X10695983Y3099995D01*
G01Y3144493D01*
G01X10650984D01*
G01Y3100495D01*
G01X10609981Y3099993D01*
G01X10604980Y3104994D01*
G01Y3219992D01*
G01X10609981Y3224994D01*
G01X10737979D01*
G01X10742980Y3219992D01*
G01Y3104994D01*
G01X10737979Y3099993D01*
G37*
G36*
G01X9989578Y2297746D02*
G01X9989464Y2217746D01*
G01X9994458Y2212738D01*
G01X10017255Y2212706D01*
G01X10017307Y2249706D01*
G01X10050307Y2249659D01*
G01X10050254Y2212659D01*
G01X10074458Y2212624D01*
G01X10079464Y2217618D01*
G01X10079577Y2297618D01*
G01X10074586Y2302624D01*
G01X9994586Y2302738D01*
G01X9989578Y2297746D01*
G37*
G36*
G01X10079235Y2058615D02*
G01X10079349Y2138614D01*
G01X10074355Y2143623D01*
G01X10051558Y2143655D01*
G01X10051506Y2106655D01*
G01X10018506Y2106702D01*
G01X10018559Y2143702D01*
G01X9994355Y2143736D01*
G01X9989349Y2138742D01*
G01X9989235Y2058742D01*
G01X9994227Y2053737D01*
G01X10074227Y2053623D01*
G01X10079235Y2058615D01*
G37*
G36*
G01X13899509Y1314999D02*
G01X13819510Y1314999D01*
G01X13814508Y1309998D01*
G01Y1287202D01*
G01X13851508D01*
G01Y1254202D01*
G01X13814508D01*
G01Y1229998D01*
G01X13819510Y1225000D01*
G01X13899509D01*
G01X13904508Y1229998D01*
G01Y1309998D01*
G01X13899509Y1314999D01*
G37*
G36*
G01X13660506Y1225002D02*
G01X13740505Y1225002D01*
G01X13745507Y1230003D01*
G01Y1252800D01*
G01X13708506D01*
G01Y1285800D01*
G01X13745507D01*
G01Y1310003D01*
G01X13740505Y1315002D01*
G01X13660506D01*
G01X13655507Y1310003D01*
G01Y1230003D01*
G01X13660506Y1225002D01*
G37*
G36*
G01X13894497Y1055499D02*
G01X13814497Y1055499D01*
G01X13809496Y1050497D01*
G01Y1027701D01*
G01X13846496D01*
G01Y994701D01*
G01X13809496D01*
G01Y970497D01*
G01X13814497Y965499D01*
G01X13894497D01*
G01X13899496Y970497D01*
G01Y1050497D01*
G01X13894497Y1055499D01*
G37*
G36*
G01X13655493Y965501D02*
G01X13735493Y965501D01*
G01X13740494Y970503D01*
G01Y993299D01*
G01X13703494D01*
G01Y1026299D01*
G01X13740494D01*
G01Y1050502D01*
G01X13735493Y1055501D01*
G01X13655493D01*
G01X13650494Y1050502D01*
G01Y970503D01*
G01X13655493Y965501D01*
G37*
G36*
G01X13896497Y884498D02*
G01X13816497Y884498D01*
G01X13811496Y879497D01*
G01Y856700D01*
G01X13848496D01*
G01Y823701D01*
G01X13811496D01*
G01Y799497D01*
G01X13816497Y794498D01*
G01X13896497D01*
G01X13901496Y799497D01*
G01Y879497D01*
G01X13896497Y884498D01*
G37*
G36*
G01X13657493Y794501D02*
G01X13737493Y794501D01*
G01X13742494Y799502D01*
G01Y822299D01*
G01X13705494D01*
G01Y855298D01*
G01X13742494D01*
G01Y879502D01*
G01X13737493Y884501D01*
G01X13657493D01*
G01X13652494Y879502D01*
G01Y799502D01*
G01X13657493Y794501D01*
G37*
G36*
G01X7544032Y4674495D02*
G01X7544032Y4754494D01*
G01X7539031Y4759496D01*
G01X7516235D01*
G01Y4722496D01*
G01X7483235D01*
G01Y4759496D01*
G01X7459031D01*
G01X7454033Y4754494D01*
G01Y4674495D01*
G01X7459031Y4669496D01*
G01X7539031D01*
G01X7544032Y4674495D01*
G37*
G36*
G01X7454035Y4913498D02*
G01X7454035Y4833499D01*
G01X7459036Y4828497D01*
G01X7481833D01*
G01Y4865498D01*
G01X7514833D01*
G01Y4828497D01*
G01X7539036D01*
G01X7544035Y4833499D01*
G01Y4913498D01*
G01X7539036Y4918497D01*
G01X7459036D01*
G01X7454035Y4913498D01*
G37*
G36*
G01X7997032Y3823501D02*
G01X7997032Y3903501D01*
G01X7992030Y3908502D01*
G01X7969234D01*
G01Y3871502D01*
G01X7936234D01*
G01Y3908502D01*
G01X7912030D01*
G01X7907032Y3903501D01*
G01Y3823501D01*
G01X7912030Y3818503D01*
G01X7992030D01*
G01X7997032Y3823501D01*
G37*
G36*
G01X7907034Y4062505D02*
G01X7907034Y3982505D01*
G01X7912035Y3977504D01*
G01X7934832D01*
G01Y4014504D01*
G01X7967832D01*
G01Y3977504D01*
G01X7992035D01*
G01X7997034Y3982505D01*
G01Y4062505D01*
G01X7992035Y4067504D01*
G01X7912035D01*
G01X7907034Y4062505D01*
G37*
G36*
G01X10995204Y4809291D02*
G01X10995204Y4729292D01*
G01X11000205Y4724290D01*
G01X11023002D01*
G01Y4761290D01*
G01X11056002D01*
G01Y4724290D01*
G01X11080205D01*
G01X11085204Y4729292D01*
G01Y4809291D01*
G01X11080205Y4814290D01*
G01X11000205D01*
G01X10995204Y4809291D01*
G37*
G36*
G01X11085201Y4570288D02*
G01X11085201Y4650287D01*
G01X11080200Y4655289D01*
G01X11057404D01*
G01Y4618288D01*
G01X11024404D01*
G01Y4655289D01*
G01X11000200D01*
G01X10995202Y4650287D01*
G01Y4570288D01*
G01X11000200Y4565289D01*
G01X11080200D01*
G01X11085201Y4570288D01*
G37*
G36*
G01X11474978Y4399493D02*
G01X11474978Y4319494D01*
G01X11479980Y4314492D01*
G01X11502776D01*
G01Y4351492D01*
G01X11535776D01*
G01Y4314492D01*
G01X11559979D01*
G01X11564978Y4319494D01*
G01Y4399493D01*
G01X11559979Y4404492D01*
G01X11479980D01*
G01X11474978Y4399493D01*
G37*
G36*
G01X11564976Y4160490D02*
G01X11564976Y4240489D01*
G01X11559974Y4245491D01*
G01X11537178D01*
G01Y4208490D01*
G01X11504178D01*
G01Y4245491D01*
G01X11479975D01*
G01X11474976Y4240489D01*
G01Y4160490D01*
G01X11479975Y4155491D01*
G01X11559974D01*
G01X11564976Y4160490D01*
G37*
G36*
G01X5690496Y1709003D02*
G01X5770496Y1709003D01*
G01X5775497Y1714004D01*
G01Y1736800D01*
G01X5738497D01*
G01Y1769800D01*
G01X5775497D01*
G01Y1794004D01*
G01X5770496Y1799002D01*
G01X5690496D01*
G01X5685497Y1794004D01*
G01Y1714004D01*
G01X5690496Y1709003D01*
G37*
G36*
G01X5929500Y1799000D02*
G01X5849500Y1799000D01*
G01X5844499Y1793999D01*
G01Y1771202D01*
G01X5881499D01*
G01Y1738203D01*
G01X5844499D01*
G01Y1713999D01*
G01X5849500Y1709000D01*
G01X5929500D01*
G01X5934499Y1713999D01*
G01Y1793999D01*
G01X5929500Y1799000D01*
G37*
G36*
G01X5690496Y2151995D02*
G01X5770496Y2151995D01*
G01X5775497Y2156997D01*
G01Y2179793D01*
G01X5738497D01*
G01Y2212793D01*
G01X5775497D01*
G01Y2236997D01*
G01X5770496Y2241995D01*
G01X5690496D01*
G01X5685497Y2236997D01*
G01Y2156997D01*
G01X5690496Y2151995D01*
G37*
G36*
G01X5929500Y2241993D02*
G01X5849500Y2241993D01*
G01X5844499Y2236991D01*
G01Y2214195D01*
G01X5881499D01*
G01Y2181195D01*
G01X5844499D01*
G01Y2156992D01*
G01X5849500Y2151993D01*
G01X5929500D01*
G01X5934499Y2156992D01*
G01Y2236991D01*
G01X5929500Y2241993D01*
G37*
G36*
G01X5130496Y2725004D02*
G01X5210496Y2725004D01*
G01X5215497Y2730005D01*
G01Y2752802D01*
G01X5178497D01*
G01Y2785801D01*
G01X5215497D01*
G01Y2810005D01*
G01X5210496Y2815004D01*
G01X5130496D01*
G01X5125497Y2810005D01*
G01Y2730005D01*
G01X5130496Y2725004D01*
G37*
G36*
G01X5369500Y2815001D02*
G01X5289500Y2815001D01*
G01X5284499Y2810000D01*
G01Y2787203D01*
G01X5321499D01*
G01Y2754204D01*
G01X5284499D01*
G01Y2730000D01*
G01X5289500Y2725001D01*
G01X5369500D01*
G01X5374499Y2730000D01*
G01Y2810000D01*
G01X5369500Y2815001D01*
G37*
G36*
G01X6250497Y2723010D02*
G01X6330496Y2723010D01*
G01X6335498Y2728011D01*
G01Y2750808D01*
G01X6298497D01*
G01Y2783807D01*
G01X6335498D01*
G01Y2808011D01*
G01X6330496Y2813010D01*
G01X6250497D01*
G01X6245498Y2808011D01*
G01Y2728011D01*
G01X6250497Y2723010D01*
G37*
G36*
G01X6489500Y2813007D02*
G01X6409501Y2813007D01*
G01X6404499Y2808006D01*
G01Y2785210D01*
G01X6441499D01*
G01Y2752210D01*
G01X6404499D01*
G01Y2728006D01*
G01X6409501Y2723008D01*
G01X6489500D01*
G01X6494499Y2728006D01*
G01Y2808006D01*
G01X6489500Y2813007D01*
G37*
G36*
G01X5349500Y1798010D02*
G01X5269500Y1798010D01*
G01X5264498Y1793009D01*
G01Y1770213D01*
G01X5301499D01*
G01Y1737213D01*
G01X5264498D01*
G01Y1713009D01*
G01X5269500Y1708011D01*
G01X5349500D01*
G01X5354498Y1713009D01*
G01Y1793009D01*
G01X5349500Y1798010D01*
G37*
G36*
G01X5110496Y1708013D02*
G01X5190496Y1708013D01*
G01X5195497Y1713014D01*
G01Y1735811D01*
G01X5158497D01*
G01Y1768811D01*
G01X5195497D01*
G01Y1793014D01*
G01X5190496Y1798013D01*
G01X5110496D01*
G01X5105497Y1793014D01*
G01Y1713014D01*
G01X5110496Y1708013D01*
G37*
G36*
G01X5355586Y2247006D02*
G01X5275587Y2247006D01*
G01X5270585Y2242004D01*
G01Y2219208D01*
G01X5307586D01*
G01Y2186208D01*
G01X5270585D01*
G01Y2162005D01*
G01X5275587Y2157006D01*
G01X5355586D01*
G01X5360585Y2162005D01*
G01Y2242004D01*
G01X5355586Y2247006D01*
G37*
G36*
G01X5116583Y2157008D02*
G01X5196582Y2157008D01*
G01X5201584Y2162010D01*
G01Y2184806D01*
G01X5164584D01*
G01Y2217806D01*
G01X5201584D01*
G01Y2242009D01*
G01X5196582Y2247008D01*
G01X5116583D01*
G01X5111584Y2242009D01*
G01Y2162010D01*
G01X5116583Y2157008D01*
G37*
G36*
G01X6479511Y2241986D02*
G01X6399511Y2241986D01*
G01X6394509Y2236985D01*
G01Y2214188D01*
G01X6431510D01*
G01Y2181188D01*
G01X6394509D01*
G01Y2156985D01*
G01X6399511Y2151986D01*
G01X6479511D01*
G01X6484509Y2156985D01*
G01Y2236985D01*
G01X6479511Y2241986D01*
G37*
G36*
G01X6240507Y2151989D02*
G01X6320507Y2151989D01*
G01X6325508Y2156990D01*
G01Y2179786D01*
G01X6288508D01*
G01Y2212786D01*
G01X6325508D01*
G01Y2236990D01*
G01X6320507Y2241988D01*
G01X6240507D01*
G01X6235508Y2236990D01*
G01Y2156990D01*
G01X6240507Y2151989D01*
G37*
G36*
G01X8084482Y3485994D02*
G01X8164482Y3485994D01*
G01X8169483Y3490996D01*
G01Y3513792D01*
G01X8132483D01*
G01Y3546792D01*
G01X8169483D01*
G01Y3570995D01*
G01X8164482Y3575994D01*
G01X8084482D01*
G01X8079483Y3570995D01*
G01Y3490996D01*
G01X8084482Y3485994D01*
G37*
G36*
G01X8323486Y3575992D02*
G01X8243486Y3575992D01*
G01X8238484Y3570990D01*
G01Y3548194D01*
G01X8275485D01*
G01Y3515194D01*
G01X8238484D01*
G01Y3490990D01*
G01X8243486Y3485992D01*
G01X8323486D01*
G01X8328484Y3490990D01*
G01Y3570990D01*
G01X8323486Y3575992D01*
G37*
G36*
G01X11753479Y3769991D02*
G01X11673479Y3769991D01*
G01X11668478Y3764990D01*
G01Y3742193D01*
G01X11705478D01*
G01Y3709194D01*
G01X11668478D01*
G01Y3684990D01*
G01X11673479Y3679991D01*
G01X11753479D01*
G01X11758477Y3684990D01*
G01Y3764990D01*
G01X11753479Y3769991D01*
G37*
G36*
G01X11514475Y3679994D02*
G01X11594475Y3679994D01*
G01X11599476Y3684995D01*
G01Y3707792D01*
G01X11562476D01*
G01Y3740791D01*
G01X11599476D01*
G01Y3764995D01*
G01X11594475Y3769994D01*
G01X11514475D01*
G01X11509476Y3764995D01*
G01Y3684995D01*
G01X11514475Y3679994D01*
G37*
G36*
G01X13746971Y-913500D02*
G01X13746971Y-833500D01*
G01X13741970Y-828499D01*
G01X13719173D01*
G01Y-865499D01*
G01X13686174D01*
G01Y-828499D01*
G01X13661970D01*
G01X13656971Y-833500D01*
G01Y-913500D01*
G01X13661970Y-918499D01*
G01X13741970D01*
G01X13746971Y-913500D01*
G37*
G36*
G01X13656974Y-674496D02*
G01X13656974Y-754496D01*
G01X13661975Y-759498D01*
G01X13684772D01*
G01Y-722497D01*
G01X13717771D01*
G01Y-759498D01*
G01X13741975D01*
G01X13746974Y-754496D01*
G01Y-674496D01*
G01X13741975Y-669498D01*
G01X13661975D01*
G01X13656974Y-674496D01*
G37*
G36*
G01X13656974Y-376497D02*
G01X13656974Y-456497D01*
G01X13661975Y-461498D01*
G01X13684772D01*
G01Y-424498D01*
G01X13717771D01*
G01Y-461498D01*
G01X13741975D01*
G01X13746974Y-456497D01*
G01Y-376497D01*
G01X13741975Y-371498D01*
G01X13661975D01*
G01X13656974Y-376497D01*
G37*
G36*
G01X13746971Y-615501D02*
G01X13746971Y-535501D01*
G01X13741970Y-530500D01*
G01X13719173D01*
G01Y-567500D01*
G01X13686174D01*
G01Y-530500D01*
G01X13661970D01*
G01X13656971Y-535501D01*
G01Y-615501D01*
G01X13661970Y-620500D01*
G01X13741970D01*
G01X13746971Y-615501D01*
G37*
G36*
G01X13583475Y-925999D02*
G01X13503475Y-925999D01*
G01X13498474Y-931001D01*
G01Y-953797D01*
G01X13535474D01*
G01Y-986797D01*
G01X13498474D01*
G01Y-1011001D01*
G01X13503475Y-1015999D01*
G01X13583475D01*
G01X13588474Y-1011001D01*
G01Y-931001D01*
G01X13583475Y-925999D01*
G37*
G36*
G01X13344471Y-1015997D02*
G01X13424471Y-1015997D01*
G01X13429472Y-1010995D01*
G01Y-988199D01*
G01X13392472D01*
G01Y-955199D01*
G01X13429472D01*
G01Y-930996D01*
G01X13424471Y-925997D01*
G01X13344471D01*
G01X13339472Y-930996D01*
G01Y-1010995D01*
G01X13344471Y-1015997D01*
G37*
G36*
G01X13581475Y-274001D02*
G01X13501475Y-274001D01*
G01X13496474Y-279002D01*
G01Y-301798D01*
G01X13533474D01*
G01Y-334798D01*
G01X13496474D01*
G01Y-359002D01*
G01X13501475Y-364001D01*
G01X13581475D01*
G01X13586474Y-359002D01*
G01Y-279002D01*
G01X13581475Y-274001D01*
G37*
G36*
G01X13342471Y-363998D02*
G01X13422471Y-363998D01*
G01X13427472Y-358997D01*
G01Y-336200D01*
G01X13390472D01*
G01Y-303201D01*
G01X13427472D01*
G01Y-278997D01*
G01X13422471Y-273998D01*
G01X13342471D01*
G01X13337472Y-278997D01*
G01Y-358997D01*
G01X13342471Y-363998D01*
G37*
G36*
G01X13422923Y-727500D02*
G01X13459054Y-727500D01*
G01X13469054Y-737500D01*
G01Y-758556D01*
G01X13479054Y-768556D01*
G01X13516890D01*
G01X13526890Y-758556D01*
G01Y-737500D01*
G01X13536890Y-727500D01*
G01X13573022D01*
G01X13583022Y-737500D01*
G01Y-838251D01*
G01X13573022Y-848251D01*
G01X13422923D01*
G01X13412923Y-838251D01*
G01Y-737500D01*
G01X13422923Y-727500D01*
G37*
G36*
G01X13422923Y-552499D02*
G01X13459054Y-552499D01*
G01X13469054Y-542499D01*
G01Y-521442D01*
G01X13479054Y-511442D01*
G01X13516890D01*
G01X13526890Y-521442D01*
G01Y-542499D01*
G01X13536890Y-552499D01*
G01X13573022D01*
G01X13583022Y-542499D01*
G01Y-441747D01*
G01X13573022Y-431747D01*
G01X13422923D01*
G01X13412923Y-441747D01*
G01Y-542499D01*
G01X13422923Y-552499D01*
G37*
G36*
G01X8808095Y-34291D02*
G01X8808095Y-114291D01*
G01X8813096Y-119292D01*
G01X8835892D01*
G01Y-82292D01*
G01X8868892D01*
G01Y-119292D01*
G01X8893096D01*
G01X8898094Y-114291D01*
G01Y-34291D01*
G01X8893096Y-29293D01*
G01X8813096D01*
G01X8808095Y-34291D01*
G37*
G36*
G01X8898092Y-273295D02*
G01X8898092Y-193295D01*
G01X8893091Y-188294D01*
G01X8870294D01*
G01Y-225294D01*
G01X8837294D01*
G01Y-188294D01*
G01X8813091D01*
G01X8808092Y-193295D01*
G01Y-273295D01*
G01X8813091Y-278294D01*
G01X8893091D01*
G01X8898092Y-273295D01*
G37*
G36*
G01X10695252Y1291166D02*
G01X10695746Y1211168D01*
G01X10700778Y1206197D01*
G01X10723574Y1206338D01*
G01X10723346Y1243338D01*
G01X10756345Y1243542D01*
G01X10756573Y1206542D01*
G01X10780776Y1206692D01*
G01X10785744Y1211724D01*
G01X10785250Y1291722D01*
G01X10780220Y1296690D01*
G01X10700222Y1296195D01*
G01X10695252Y1291166D01*
G37*
G36*
G01X10786724Y1052723D02*
G01X10786230Y1132721D01*
G01X10781198Y1137691D01*
G01X10758402Y1137550D01*
G01X10758630Y1100551D01*
G01X10725631Y1100347D01*
G01X10725403Y1137347D01*
G01X10701199Y1137197D01*
G01X10696232Y1132165D01*
G01X10696726Y1052167D01*
G01X10701755Y1047199D01*
G01X10781754Y1047693D01*
G01X10786724Y1052723D01*
G37*
G36*
G01X8795852Y-693319D02*
G01X8795852Y-773318D01*
G01X8800854Y-778320D01*
G01X8823650D01*
G01Y-741320D01*
G01X8856650D01*
G01Y-778320D01*
G01X8880853D01*
G01X8885852Y-773318D01*
G01Y-693319D01*
G01X8880853Y-688320D01*
G01X8800854D01*
G01X8795852Y-693319D01*
G37*
G36*
G01X8885850Y-932322D02*
G01X8885850Y-852323D01*
G01X8880848Y-847321D01*
G01X8858052D01*
G01Y-884322D01*
G01X8825052D01*
G01Y-847321D01*
G01X8800849D01*
G01X8795850Y-852323D01*
G01Y-932322D01*
G01X8800849Y-937321D01*
G01X8880848D01*
G01X8885850Y-932322D01*
G37*
G36*
G01X12367478Y2235977D02*
G01X12447478Y2235977D01*
G01X12452479Y2240979D01*
G01Y2263775D01*
G01X12415479D01*
G01Y2296775D01*
G01X12452479D01*
G01Y2320978D01*
G01X12447478Y2325977D01*
G01X12367478D01*
G01X12362479Y2320978D01*
G01Y2240979D01*
G01X12367478Y2235977D01*
G37*
G36*
G01X12606482Y2325975D02*
G01X12526482Y2325975D01*
G01X12521481Y2320973D01*
G01Y2298177D01*
G01X12558481D01*
G01Y2265177D01*
G01X12521481D01*
G01Y2240973D01*
G01X12526482Y2235975D01*
G01X12606482D01*
G01X12611481Y2240973D01*
G01Y2320973D01*
G01X12606482Y2325975D01*
G37*
G36*
G01X13481466Y2203992D02*
G01X13561466Y2203992D01*
G01X13566467Y2208994D01*
G01Y2231790D01*
G01X13529467D01*
G01Y2264790D01*
G01X13566467D01*
G01Y2288993D01*
G01X13561466Y2293992D01*
G01X13481466D01*
G01X13476467Y2288993D01*
G01Y2208994D01*
G01X13481466Y2203992D01*
G37*
G36*
G01X13720470Y2293990D02*
G01X13640470Y2293990D01*
G01X13635469Y2288988D01*
G01Y2266192D01*
G01X13672469D01*
G01Y2233192D01*
G01X13635469D01*
G01Y2208988D01*
G01X13640470Y2203990D01*
G01X13720470D01*
G01X13725468Y2208988D01*
G01Y2288988D01*
G01X13720470Y2293990D01*
G37*
G36*
G01X12939655Y1725979D02*
G01X13019655Y1725979D01*
G01X13024656Y1730980D01*
G01Y1753776D01*
G01X12987656D01*
G01Y1786776D01*
G01X13024656D01*
G01Y1810980D01*
G01X13019655Y1815978D01*
G01X12939655D01*
G01X12934656Y1810980D01*
G01Y1730980D01*
G01X12939655Y1725979D01*
G37*
G36*
G01X13178659Y1815976D02*
G01X13098659Y1815976D01*
G01X13093658Y1810975D01*
G01Y1788178D01*
G01X13130658D01*
G01Y1755178D01*
G01X13093658D01*
G01Y1730975D01*
G01X13098659Y1725976D01*
G01X13178659D01*
G01X13183657Y1730975D01*
G01Y1810975D01*
G01X13178659Y1815976D01*
G37*
G36*
G01X5929510Y2812000D02*
G01X5849510Y2812000D01*
G01X5844509Y2806998D01*
G01Y2784202D01*
G01X5881509D01*
G01Y2751202D01*
G01X5844509D01*
G01Y2726999D01*
G01X5849510Y2722000D01*
G01X5929510D01*
G01X5934509Y2726999D01*
G01Y2806998D01*
G01X5929510Y2812000D01*
G37*
G36*
G01X5690506Y2722002D02*
G01X5770506Y2722002D01*
G01X5775507Y2727004D01*
G01Y2749800D01*
G01X5738507D01*
G01Y2782800D01*
G01X5775507D01*
G01Y2807004D01*
G01X5770506Y2812002D01*
G01X5690506D01*
G01X5685508Y2807004D01*
G01Y2727004D01*
G01X5690506Y2722002D01*
G37*
G36*
G01X12599515Y2822986D02*
G01X12519515Y2822986D01*
G01X12514514Y2817985D01*
G01Y2795189D01*
G01X12551514D01*
G01Y2762189D01*
G01X12514514D01*
G01Y2737985D01*
G01X12519515Y2732987D01*
G01X12599515D01*
G01X12604514Y2737985D01*
G01Y2817985D01*
G01X12599515Y2822986D01*
G37*
G36*
G01X12360511Y2732989D02*
G01X12440511Y2732989D01*
G01X12445512Y2737990D01*
G01Y2760787D01*
G01X12408512D01*
G01Y2793787D01*
G01X12445512D01*
G01Y2817990D01*
G01X12440511Y2822989D01*
G01X12360511D01*
G01X12355513Y2817990D01*
G01Y2737990D01*
G01X12360511Y2732989D01*
G37*
G36*
G01X13739480Y2817970D02*
G01X13659480Y2817970D01*
G01X13654479Y2812968D01*
G01Y2790172D01*
G01X13691479D01*
G01Y2757172D01*
G01X13654479D01*
G01Y2732969D01*
G01X13659480Y2727970D01*
G01X13739480D01*
G01X13744478Y2732969D01*
G01Y2812968D01*
G01X13739480Y2817970D01*
G37*
G36*
G01X13500476Y2727972D02*
G01X13580476Y2727972D01*
G01X13585477Y2732974D01*
G01Y2755770D01*
G01X13548477D01*
G01Y2788770D01*
G01X13585477D01*
G01Y2812974D01*
G01X13580476Y2817972D01*
G01X13500476D01*
G01X13495477Y2812974D01*
G01Y2732974D01*
G01X13500476Y2727972D01*
G37*
G36*
G01X13172481Y2329989D02*
G01X13092481Y2329989D01*
G01X13087480Y2324988D01*
G01Y2302191D01*
G01X13124480D01*
G01Y2269192D01*
G01X13087480D01*
G01Y2244988D01*
G01X13092481Y2239989D01*
G01X13172481D01*
G01X13177480Y2244988D01*
G01Y2324988D01*
G01X13172481Y2329989D01*
G37*
G36*
G01X12933477Y2239992D02*
G01X13013477Y2239992D01*
G01X13018478Y2244993D01*
G01Y2267790D01*
G01X12981478D01*
G01Y2300789D01*
G01X13018478D01*
G01Y2324993D01*
G01X13013477Y2329992D01*
G01X12933477D01*
G01X12928478Y2324993D01*
G01Y2244993D01*
G01X12933477Y2239992D01*
G37*
G36*
G01X12619482Y1815976D02*
G01X12539482Y1815976D01*
G01X12534481Y1810975D01*
G01Y1788178D01*
G01X12571481D01*
G01Y1755178D01*
G01X12534481D01*
G01Y1730975D01*
G01X12539482Y1725976D01*
G01X12619482D01*
G01X12624481Y1730975D01*
G01Y1810975D01*
G01X12619482Y1815976D01*
G37*
G36*
G01X12380478Y1725979D02*
G01X12460478Y1725979D01*
G01X12465479Y1730980D01*
G01Y1753776D01*
G01X12428479D01*
G01Y1786776D01*
G01X12465479D01*
G01Y1810980D01*
G01X12460478Y1815978D01*
G01X12380478D01*
G01X12375479Y1810980D01*
G01Y1730980D01*
G01X12380478Y1725979D01*
G37*
G36*
G01X12945702Y2730996D02*
G01X13025702Y2730996D01*
G01X13030703Y2735997D01*
G01Y2758793D01*
G01X12993703D01*
G01Y2791793D01*
G01X13030703D01*
G01Y2815997D01*
G01X13025702Y2820995D01*
G01X12945702D01*
G01X12940703Y2815997D01*
G01Y2735997D01*
G01X12945702Y2730996D01*
G37*
G36*
G01X13184706Y2820993D02*
G01X13104706Y2820993D01*
G01X13099705Y2815992D01*
G01Y2793195D01*
G01X13136705D01*
G01Y2760195D01*
G01X13099705D01*
G01Y2735992D01*
G01X13104706Y2730993D01*
G01X13184706D01*
G01X13189705Y2735992D01*
G01Y2815992D01*
G01X13184706Y2820993D01*
G37*
G36*
G01X7386002Y-600497D02*
G01X7386002Y-680496D01*
G01X7391003Y-685498D01*
G01X7413800D01*
G01Y-648498D01*
G01X7446799D01*
G01Y-685498D01*
G01X7471003D01*
G01X7476002Y-680496D01*
G01Y-600497D01*
G01X7471003Y-595498D01*
G01X7391003D01*
G01X7386002Y-600497D01*
G37*
G36*
G01X7475999Y-839500D02*
G01X7475999Y-759501D01*
G01X7470998Y-754499D01*
G01X7448202D01*
G01Y-791500D01*
G01X7415202D01*
G01Y-754499D01*
G01X7390998D01*
G01X7385999Y-759501D01*
G01Y-839500D01*
G01X7390998Y-844499D01*
G01X7470998D01*
G01X7475999Y-839500D01*
G37*
G36*
G01X7542002Y-601497D02*
G01X7542002Y-681496D01*
G01X7547003Y-686498D01*
G01X7569799D01*
G01Y-649498D01*
G01X7602799D01*
G01Y-686498D01*
G01X7627003D01*
G01X7632002Y-681496D01*
G01Y-601497D01*
G01X7627003Y-596498D01*
G01X7547003D01*
G01X7542002Y-601497D01*
G37*
G36*
G01X7631999Y-840500D02*
G01X7631999Y-760501D01*
G01X7626998Y-755499D01*
G01X7604201D01*
G01Y-792500D01*
G01X7571202D01*
G01Y-755499D01*
G01X7546998D01*
G01X7541999Y-760501D01*
G01Y-840500D01*
G01X7546998Y-845499D01*
G01X7626998D01*
G01X7631999Y-840500D01*
G37*
G36*
G01X7393002Y958500D02*
G01X7393002Y878500D01*
G01X7398003Y873499D01*
G01X7420800D01*
G01Y910499D01*
G01X7453799D01*
G01Y873499D01*
G01X7478003D01*
G01X7483002Y878500D01*
G01Y958500D01*
G01X7478003Y963499D01*
G01X7398003D01*
G01X7393002Y958500D01*
G37*
G36*
G01X7482999Y719496D02*
G01X7482999Y799496D01*
G01X7477998Y804498D01*
G01X7455201D01*
G01Y767497D01*
G01X7422202D01*
G01Y804498D01*
G01X7397998D01*
G01X7392999Y799496D01*
G01Y719496D01*
G01X7397998Y714498D01*
G01X7477998D01*
G01X7482999Y719496D01*
G37*
G36*
G01X7548002Y958500D02*
G01X7548002Y878500D01*
G01X7553003Y873499D01*
G01X7575799D01*
G01Y910499D01*
G01X7608799D01*
G01Y873499D01*
G01X7633003D01*
G01X7638001Y878500D01*
G01Y958500D01*
G01X7633003Y963499D01*
G01X7553003D01*
G01X7548002Y958500D01*
G37*
G36*
G01X7637999Y719496D02*
G01X7637999Y799496D01*
G01X7632998Y804498D01*
G01X7610201D01*
G01Y767497D01*
G01X7577202D01*
G01Y804498D01*
G01X7552998D01*
G01X7547999Y799496D01*
G01Y719496D01*
G01X7552998Y714498D01*
G01X7632998D01*
G01X7637999Y719496D01*
G37*
G36*
G01X6207003Y-258483D02*
G01X6237006Y-258483D01*
G01Y-373484D01*
G01X6207003D01*
G01Y-258483D01*
G37*
G36*
G01X6157003Y-258483D02*
G01X6187006Y-258483D01*
G01Y-373484D01*
G01X6157003D01*
G01Y-258483D01*
G37*
G36*
G01X6107003Y-258483D02*
G01X6137006Y-258483D01*
G01Y-373484D01*
G01X6107003D01*
G01Y-258483D01*
G37*
G36*
G01X6057003Y-258483D02*
G01X6087006Y-258483D01*
G01Y-373484D01*
G01X6057003D01*
G01Y-258483D01*
G37*
G36*
G01X6007003Y-258483D02*
G01X6037006Y-258483D01*
G01Y-373484D01*
G01X6007003D01*
G01Y-258483D01*
G37*
G36*
G01X5957004Y-258483D02*
G01X5987006Y-258483D01*
G01Y-373484D01*
G01X5957004D01*
G01Y-258483D01*
G37*
G36*
G01X5907004Y-258483D02*
G01X5937006Y-258483D01*
G01Y-373484D01*
G01X5907004D01*
G01Y-258483D01*
G37*
G36*
G01X5857004Y-258483D02*
G01X5887006Y-258483D01*
G01Y-373484D01*
G01X5857004D01*
G01Y-258483D01*
G37*
G36*
G01X5439491Y-304010D02*
G01X5589494Y-304010D01*
G01Y-424010D01*
G01X5439491D01*
G01Y-304010D01*
G37*
G36*
G01X5439491Y-709023D02*
G01X5589494Y-709023D01*
G01Y-859025D01*
G01X5439491D01*
G01Y-709023D01*
G37*
G36*
G01X6504513Y-709023D02*
G01X6654516Y-709023D01*
G01Y-859025D01*
G01X6504513D01*
G01Y-709023D01*
G37*
G36*
G01X6504513Y-303985D02*
G01X6654516Y-303985D01*
G01Y-423984D01*
G01X6504513D01*
G01Y-303985D01*
G37*
G36*
G01X6394506Y-373484D02*
G01X6394506Y-258483D01*
G01X6369507D01*
G01X6364503D01*
G01X6339505D01*
G01Y-373484D01*
G01X6364503D01*
G01X6369507D01*
G01X6394506D01*
G37*
G36*
G01X5699501Y-258483D02*
G01X5699501Y-373484D01*
G01X5724502D01*
G01X5729503D01*
G01X5754505D01*
G01Y-258483D01*
G01X5729503D01*
G01X5724502D01*
G01X5699501D01*
G37*
G36*
G01X5834504Y-373484D02*
G01X5834504Y-258483D01*
G01X5809506D01*
G01X5804502D01*
G01X5779503D01*
G01Y-373484D01*
G01X5804502D01*
G01X5809506D01*
G01X5834504D01*
G37*
G36*
G01X6259502Y-258483D02*
G01X6259502Y-373484D01*
G01X6284504D01*
G01X6289502D01*
G01X6314506D01*
G01Y-258483D01*
G01X6289502D01*
G01X6284504D01*
G01X6259502D01*
G37*
G36*
G01X5599003Y-229502D02*
G01X5599003Y-149502D01*
G01X5594002Y-144501D01*
G01X5571205D01*
G01Y-181501D01*
G01X5538206D01*
G01Y-144501D01*
G01X5514002D01*
G01X5509003Y-149502D01*
G01Y-229502D01*
G01X5514002Y-234500D01*
G01X5594002D01*
G01X5599003Y-229502D01*
G37*
G36*
G01X5509006Y9502D02*
G01X5509006Y-70498D01*
G01X5514007Y-75499D01*
G01X5536804D01*
G01Y-38499D01*
G01X5569803D01*
G01Y-75499D01*
G01X5594007D01*
G01X5599006Y-70498D01*
G01Y9502D01*
G01X5594007Y14501D01*
G01X5514007D01*
G01X5509006Y9502D01*
G37*
G36*
G01X7796999Y719496D02*
G01X7796999Y799496D01*
G01X7791997Y804498D01*
G01X7769201D01*
G01Y767497D01*
G01X7736201D01*
G01Y804498D01*
G01X7711998D01*
G01X7706999Y799496D01*
G01Y719496D01*
G01X7711998Y714498D01*
G01X7791997D01*
G01X7796999Y719496D01*
G37*
G36*
G01X7707001Y958500D02*
G01X7707001Y878500D01*
G01X7712003Y873499D01*
G01X7734799D01*
G01Y910499D01*
G01X7767799D01*
G01Y873499D01*
G01X7792002D01*
G01X7797001Y878500D01*
G01Y958500D01*
G01X7792002Y963499D01*
G01X7712003D01*
G01X7707001Y958500D01*
G37*
G36*
G01X6506505Y-15001D02*
G01X6426505Y-15001D01*
G01X6421504Y-20002D01*
G01Y-42799D01*
G01X6458504D01*
G01Y-75799D01*
G01X6421504D01*
G01Y-100002D01*
G01X6426505Y-105001D01*
G01X6506505D01*
G01X6511503Y-100002D01*
G01Y-20002D01*
G01X6506505Y-15001D01*
G37*
G36*
G01X6267501Y-104999D02*
G01X6347501Y-104999D01*
G01X6352502Y-99997D01*
G01Y-77201D01*
G01X6315502D01*
G01Y-44201D01*
G01X6352502D01*
G01Y-19997D01*
G01X6347501Y-14999D01*
G01X6267501D01*
G01X6262502Y-19997D01*
G01Y-99997D01*
G01X6267501Y-104999D01*
G37*
G36*
G01X11367478Y5065460D02*
G01X11367478Y5141510D01*
G01X11377478Y5151510D01*
G01X11456419D01*
G01X11466419Y5161510D01*
G01Y5240469D01*
G01X11456419Y5250469D01*
G01X11377478D01*
G01X11367478Y5260469D01*
G01Y5336519D01*
G01X11377478Y5346519D01*
G01X11648478D01*
G01X11658478Y5336519D01*
G01Y5065460D01*
G01X11648478Y5055460D01*
G01X11377478D01*
G01X11367478Y5065460D01*
G37*
G36*
G01X11192477Y5065460D02*
G01X11192477Y5141510D01*
G01X11182477Y5151510D01*
G01X11103536D01*
G01X11093536Y5161510D01*
G01Y5240469D01*
G01X11103536Y5250469D01*
G01X11182477D01*
G01X11192477Y5260469D01*
G01Y5336519D01*
G01X11182477Y5346519D01*
G01X10911477D01*
G01X10901477Y5336519D01*
G01Y5065460D01*
G01X10911477Y5055460D01*
G01X11182477D01*
G01X11192477Y5065460D01*
G37*
G36*
G01X13708971Y387497D02*
G01X13708971Y467497D01*
G01X13703970Y472498D01*
G01X13681174D01*
G01Y435498D01*
G01X13648174D01*
G01Y472498D01*
G01X13623970D01*
G01X13618971Y467497D01*
G01Y387497D01*
G01X13623970Y382498D01*
G01X13703970D01*
G01X13708971Y387497D01*
G37*
G36*
G01X13618974Y626501D02*
G01X13618974Y546501D01*
G01X13623975Y541500D01*
G01X13646772D01*
G01Y578500D01*
G01X13679771D01*
G01Y541500D01*
G01X13703975D01*
G01X13708974Y546501D01*
G01Y626501D01*
G01X13703975Y631500D01*
G01X13623975D01*
G01X13618974Y626501D01*
G37*
G04 PolygonModel End*

G04 Pad Start*
G54D10*
G01X9685014Y2053008D03*
G01X9135003Y2052994D03*
G01X9134996Y2306994D03*
G01X9685008Y2307008D03*
G54D11*
G01X10465317Y2998047D03*
G01X10464631Y3157940D03*
G54D12*
G01X10331468Y1392510D03*
G01X10430490Y1491485D03*
G54D13*
G01X9768518Y-132463D03*
G01X9867442Y-231536D03*
G54D14*
G01X10741336Y472644D03*
G01X10840621Y571354D03*
G54D15*
G01X8989501Y942498D03*
G01X8890509Y1041503D03*
G54D16*
G01X9534603Y1474621D03*
G01X9435359Y1573373D03*
G54D18*
G01X9863944Y2107999D03*
G01X9864064Y2248004D03*
G54D19*
G01X12556977Y2110996D03*
G01X12416973Y2110996D03*
G54D20*
G01X13530970Y2073996D03*
G01X13670975Y2073996D03*
G54D21*
G01X5740001Y1580001D03*
G01X5880006Y1580001D03*
G01X5160000Y1580001D03*
G01X5300005Y1580001D03*
G01X5740001Y2030001D03*
G01X5880006Y2030001D03*
G01X5166087Y2030001D03*
G01X5306092Y2030001D03*
G01X5180001Y2600009D03*
G01X5320005Y2600009D03*
G54D19*
G01X6430006Y2029993D03*
G01X6290001Y2029993D03*
G54D21*
G01X6300001Y2600009D03*
G01X6440006Y2600009D03*
G54D19*
G01X13135201Y2602991D03*
G01X12995197Y2602991D03*
G54D22*
G01X10911439Y936778D03*
G01X10910390Y1076779D03*
G54D23*
G01X10908029Y1385919D03*
G01X10907786Y1245915D03*
G54D24*
G01X12906750Y1391500D03*
G01X12906750Y1264500D03*
G01X12906750Y1137500D03*
G01X12906750Y1010500D03*
G01X12906750Y883500D03*
G01X12906750Y756500D03*
G01X12906750Y629500D03*
G01X12906750Y502500D03*
G01X13463264Y502500D03*
G01X13463264Y629500D03*
G01X13463264Y756500D03*
G01X13463264Y883500D03*
G01X13463264Y1010500D03*
G01X13463264Y1137500D03*
G01X13463264Y1264500D03*
G01X13463264Y1391500D03*
G54D25*
G01X7324034Y4863994D03*
G01X7324034Y4723989D03*
G01X8125033Y4013001D03*
G01X8125033Y3872996D03*
G01X7664033Y3920001D03*
G01X7664033Y3779996D03*
G54D26*
G01X7961033Y4276995D03*
G01X7961033Y4417000D03*
G01X11689955Y4209982D03*
G01X11689955Y4349987D03*
G01X10874978Y4624988D03*
G01X10874978Y4764993D03*
G01X11330977Y4702988D03*
G01X11330977Y4842993D03*
G54D25*
G01X11034978Y4355995D03*
G01X11034978Y4215991D03*
G54D27*
G01X12101206Y5049491D03*
G01X12101206Y4922491D03*
G01X12101206Y4795491D03*
G01X12101206Y4668491D03*
G01X12101206Y4541491D03*
G01X12101206Y4414491D03*
G01X12101206Y4287491D03*
G01X12101206Y4160491D03*
G01X12101206Y4033491D03*
G01X12101206Y3906491D03*
G01X13430743Y5049491D03*
G01X13430743Y4922491D03*
G01X13430743Y4795491D03*
G01X13430743Y4668491D03*
G01X13430743Y4541491D03*
G01X13430743Y4414491D03*
G01X13430743Y4287491D03*
G01X13430743Y4160491D03*
G01X13430743Y4033491D03*
G01X13430743Y3906491D03*
G54D28*
G01X12765974Y4477991D03*
G54D29*
G01X9212992Y4771359D03*
G01X9212992Y5508620D03*
G54D21*
G01X9148990Y5773988D03*
G01X9288995Y5773988D03*
G01X8928978Y2795994D03*
G01X9068983Y2795994D03*
G54D30*
G01X9326231Y3286991D03*
G01X9326231Y3056994D03*
G01X9326231Y2826997D03*
G54D31*
G01X9897731Y3056994D03*
G54D25*
G01X10169980Y3139996D03*
G01X10169980Y2999991D03*
G54D20*
G01X10927976Y2285995D03*
G01X11067980Y2285995D03*
G01X10923976Y3709993D03*
G01X11063980Y3709993D03*
G54D21*
G01X7353983Y2067996D03*
G01X7493988Y2067996D03*
G54D20*
G01X7351450Y3470557D03*
G01X7491454Y3470557D03*
G54D32*
G01X12674756Y-471483D03*
G01X12674756Y-598483D03*
G01X12674756Y-725483D03*
G01X12674756Y-852483D03*
G01X13229238Y-471483D03*
G01X13229238Y-598483D03*
G01X13229238Y-725483D03*
G01X13229238Y-852483D03*
G54D33*
G01X13940971Y-759394D03*
G54D34*
G01X13940971Y-1014604D03*
G54D35*
G01X13942972Y-560606D03*
G54D36*
G01X13942972Y-305396D03*
G54D19*
G01X13116998Y-300983D03*
G01X12976993Y-300983D03*
G54D33*
G01X5037990Y-810391D03*
G54D34*
G01X5037990Y-1065601D03*
G54D35*
G01X5037990Y-611606D03*
G54D36*
G01X5037990Y-356396D03*
G54D10*
G01X8495010Y-277000D03*
G01X7944999Y-277000D03*
G01X7944999Y-23000D03*
G01X8495010Y-23000D03*
G54D26*
G01X8688030Y-211011D03*
G01X8688030Y-71006D03*
G54D37*
G01X11125856Y1348918D03*
G01X11126120Y948919D03*
G01X11366099Y949077D03*
G01X11365835Y1349076D03*
G54D38*
G01X8494907Y-937225D03*
G01X7944895Y-936776D03*
G01X7945102Y-682776D03*
G01X8495114Y-683225D03*
G54D39*
G01X8676527Y-875006D03*
G01X8675544Y-735004D03*
G54D19*
G01X12550009Y2602991D03*
G01X12410004Y2602991D03*
G01X13689975Y2602991D03*
G01X13549970Y2602991D03*
G01X13129154Y1600997D03*
G01X12989149Y1600997D03*
G01X5880006Y2600001D03*
G01X5740001Y2600001D03*
G01X13122976Y2108996D03*
G01X12982971Y2108996D03*
G01X12569977Y1600997D03*
G01X12429973Y1600997D03*
G54D40*
G01X7774976Y5748742D03*
G01X7544979Y5748742D03*
G01X7314982Y5748742D03*
G54D41*
G01X7544979Y5177242D03*
G54D21*
G01X7109983Y5210990D03*
G01X7249988Y5210990D03*
G54D25*
G01X7150980Y5852994D03*
G01X7150980Y5712989D03*
G54D27*
G01X6793767Y3876500D03*
G01X6793767Y4003500D03*
G01X6793767Y4130500D03*
G01X6793767Y4257500D03*
G01X6793767Y4384500D03*
G01X6793767Y4511500D03*
G01X6793767Y4638500D03*
G01X6793767Y4765500D03*
G01X6793767Y4892500D03*
G01X6793767Y5019500D03*
G01X5464230Y3876500D03*
G01X5464230Y4003500D03*
G01X5464230Y4130500D03*
G01X5464230Y4257500D03*
G01X5464230Y4384500D03*
G01X5464230Y4511500D03*
G01X5464230Y4638500D03*
G01X5464230Y4765500D03*
G01X5464230Y4892500D03*
G01X5464230Y5019500D03*
G54D42*
G01X6128998Y4448000D03*
G54D26*
G01X7072001Y-763001D03*
G01X7072001Y-622996D03*
G01X6814002Y-763001D03*
G01X6814002Y-622996D03*
G54D25*
G01X7068001Y918001D03*
G01X7068001Y777996D03*
G54D43*
G01X6814501Y-412031D03*
G01X6941501Y-412031D03*
G01X7068501Y-412031D03*
G01X7195501Y-412031D03*
G01X7322501Y-412031D03*
G01X7449501Y-412031D03*
G01X7576501Y-412031D03*
G01X7703501Y-412031D03*
G01X6814501Y538031D03*
G01X6941501Y538031D03*
G01X7068501Y538031D03*
G01X7195501Y538031D03*
G01X7322501Y538031D03*
G01X7449501Y538031D03*
G01X7576501Y538031D03*
G01X7703501Y538031D03*
G54D26*
G01X6888002Y776996D03*
G01X6888002Y917001D03*
G54D44*
G01X9562425Y1697416D03*
G01X9663536Y1600577D03*
G54D45*
G01X9116271Y1065317D03*
G01X9019693Y1166678D03*
G54D46*
G01X10203343Y1516636D03*
G01X10302616Y1615358D03*
G54D47*
G01X11563517Y5625989D03*
G01X11050437Y5625989D03*
G54D48*
G01X10687180Y682801D03*
G01X10786777Y781196D03*
G54D49*
G01X11966972Y1583907D03*
G01X11871976Y1583907D03*
G01X11776980Y1583907D03*
G01X11776980Y1354088D03*
G01X11871976Y1354088D03*
G01X11966972Y1354088D03*
G54D21*
G01X11879998Y1100000D03*
G01X12020003Y1100000D03*
G54D50*
G01X10521747Y538597D03*
G01X10486382Y503233D03*
G01X10451036Y467887D03*
G01X10415672Y432523D03*
G01X10380325Y397176D03*
G01X10344961Y361812D03*
G01X10309615Y326466D03*
G01X10274251Y291101D03*
G01X10238904Y255755D03*
G01X10203540Y220391D03*
G01X10168194Y185045D03*
G01X10132830Y149680D03*
G01X10097483Y114334D03*
G01X10062119Y78970D03*
G01X10026773Y43624D03*
G01X9991409Y8259D03*
G54D51*
G01X9708602Y8259D03*
G01X9673238Y43624D03*
G01X9637892Y78970D03*
G01X9602528Y114334D03*
G01X9567181Y149680D03*
G01X9531817Y185045D03*
G01X9496471Y220391D03*
G01X9461106Y255755D03*
G01X9425760Y291101D03*
G01X9390396Y326466D03*
G01X9355050Y361812D03*
G01X9319685Y397176D03*
G01X9284339Y432523D03*
G01X9248975Y467887D03*
G01X9213629Y503233D03*
G01X9178264Y538597D03*
G54D50*
G01X9178264Y821404D03*
G01X9213629Y856768D03*
G01X9248975Y892114D03*
G01X9284339Y927478D03*
G01X9319685Y962825D03*
G01X9355050Y998189D03*
G01X9390396Y1033535D03*
G01X9425760Y1068899D03*
G01X9461106Y1104246D03*
G01X9496471Y1139610D03*
G01X9531817Y1174956D03*
G01X9567181Y1210320D03*
G01X9602528Y1245667D03*
G01X9637892Y1281031D03*
G01X9673238Y1316377D03*
G01X9708602Y1351742D03*
G54D51*
G01X9991409Y1351742D03*
G01X10026773Y1316377D03*
G01X10062119Y1281031D03*
G01X10097483Y1245667D03*
G01X10132830Y1210320D03*
G01X10168194Y1174956D03*
G01X10203540Y1139610D03*
G01X10238904Y1104246D03*
G01X10274251Y1068899D03*
G01X10309615Y1033535D03*
G01X10344961Y998189D03*
G01X10380325Y962825D03*
G01X10415672Y927478D03*
G01X10451036Y892114D03*
G01X10486382Y856768D03*
G01X10521747Y821404D03*
G54D43*
G01X7361484Y2300964D03*
G01X7488484Y2300964D03*
G01X7615484Y2300964D03*
G01X7742484Y2300964D03*
G01X7869484Y2300964D03*
G01X7996484Y2300964D03*
G01X8123484Y2300964D03*
G01X8250484Y2300964D03*
G01X7361484Y3251025D03*
G01X7488484Y3251025D03*
G01X7615484Y3251025D03*
G01X7742484Y3251025D03*
G01X7869484Y3251025D03*
G01X7996484Y3251025D03*
G01X8123484Y3251025D03*
G01X8250484Y3251025D03*
G01X10932477Y2528963D03*
G01X11059477Y2528963D03*
G01X11186477Y2528963D03*
G01X11313477Y2528963D03*
G01X11440477Y2528963D03*
G01X11567477Y2528963D03*
G01X11694477Y2528963D03*
G01X11821477Y2528963D03*
G01X10932477Y3479025D03*
G01X11059477Y3479025D03*
G01X11186477Y3479025D03*
G01X11313477Y3479025D03*
G01X11440477Y3479025D03*
G01X11567477Y3479025D03*
G01X11694477Y3479025D03*
G01X11821477Y3479025D03*
G54D52*
G01X7019948Y-1099660D03*
G01X6860055Y-1100346D03*
G54D53*
G01X8138032Y4496987D03*
G01X8138032Y4257008D03*
G54D54*
G01X10856979Y4119003D03*
G01X10856979Y4358983D03*
G54D55*
G01X9053035Y3057994D03*
G01X8680925Y3057994D03*
G54D56*
G01X8644993Y5066343D03*
G01X8644993Y5705635D03*
G54D57*
G01X8141994Y5590636D03*
G01X8141994Y4951343D03*
G54D58*
G01X7757023Y4149498D03*
G01X7757023Y4496487D03*
G01X7449994Y3746502D03*
G01X7449994Y4093492D03*
G54D59*
G01X11228988Y4483493D03*
G01X11228988Y4136503D03*
G01X11534987Y4871492D03*
G01X11534987Y4524503D03*
G54D60*
G01X7552005Y-1006998D03*
G01X7471995Y-1006998D03*
G54D61*
G01X7512000Y-1106998D03*
G04 Pad End*

M02*
