G04 Layer: TopLayer*
G04 EasyEDA Pro v2.1.57.773a98f1.225d47, 2025-02-25 21:56:38*
G04 Gerber Generator version 0.3*
G04 Scale: 100 percent, Rotated: No, Reflected: No*
G04 Dimensions in millimeters*
G04 Leading zeros omitted, absolute positions, 3 integers and 5 decimals*
%FSLAX35Y35*%
%MOMM*%
%AMRect*21,1,$1,$2,0,0,$3*%
%AMPolygonMacro1*4,1,9,1.05001,-0.56999,0.55001,-0.56999,0.55001,-1.25,-0.55001,-1.25,-0.55001,-0.57499,-0.55001,-0.56999,-1.05001,-0.56999,-1.05001,1.25,1.05001,1.25,1.05001,-0.56999,0*%
%AMPolygonMacro2*4,1,9,-1.05001,0.56999,-0.55001,0.56999,-0.55001,1.25,0.55001,1.25,0.55001,0.57499,0.55001,0.56999,1.05001,0.56999,1.05001,-1.25,-1.05001,-1.25,-1.05001,0.56999,0*%
%AMOval*1,1,$1,$2,$3*1,1,$1,$4,$5*20,1,$1,$2,$3,$4,$5,0*%
%ADD8191C,0.2032*%
%ADD10C,1.0*%
%ADD11C,0.6*%
%ADD12C,0.254*%
%ADD13C,3.7*%
%ADD14R,1.5X1.273*%
%ADD15R,0.8014X0.8*%
%ADD16R,0.8X0.8*%
%ADD17R,1.37701X1.13254*%
%ADD18Rect,0.8X0.9X-135.01*%
%ADD19Rect,0.8X0.9X134.96*%
%ADD20Rect,0.8X0.9X-135.17*%
%ADD21Rect,0.8X0.9X-45.0*%
%ADD22Rect,0.8X0.9X-44.86*%
%ADD23Rect,0.8X0.9X-90.05*%
%ADD24Rect,0.80648X0.86401X89.92*%
%ADD25R,1.7X1.7*%
%ADD26C,1.7*%
%ADD27R,0.8X0.9*%
%ADD28R,0.8X0.9*%
%ADD29R,0.8X0.9*%
%ADD30Rect,0.8X0.9X-89.57*%
%ADD31Rect,0.8X0.9X89.9*%
%ADD32R,1.365X0.55999*%
%ADD33R,0.80648X0.86401*%
%ADD34R,0.86401X0.80648*%
%ADD35R,0.9X0.8*%
%ADD36R,0.9X0.8*%
%ADD37R,0.86401X0.80648*%
%ADD38O,2.6955X0.651*%
%ADD39R,5.99999X15.89999*%
%ADD40R,3.29999X2.69999*%
%ADD41R,0.80648X0.86401*%
%ADD42R,1.8X1.8*%
%ADD43C,1.8*%
%ADD44R,2.46499X1.05001*%
%ADD45R,2.46499X3.54*%
%ADD46O,2.045X0.58801*%
%ADD47R,0.75001X1.38001*%
%ADD48PolygonMacro1*%
%ADD49R,0.75001X1.38001*%
%ADD50PolygonMacro2*%
%ADD51R,1.70101X1.20752*%
%ADD52Rect,0.80648X0.86401X90.35*%
%ADD53Rect,1.6X1.2X-89.96*%
%ADD54Rect,1.273X1.5X-90.05*%
%ADD55Rect,0.8X0.9X-89.6*%
%ADD56R,0.80648X0.86401*%
%ADD57R,1.05001X2.46499*%
%ADD58R,3.54X2.46499*%
%ADD59R,5.99999X15.89999*%
%ADD60C,2.49999*%
%ADD61R,1.5X1.5*%
%ADD62R,1.5X1.2*%
%ADD63R,0.3X1.15001*%
%ADD64O,0.57399X2.4005*%
%ADD65R,1.7X1.7*%
%ADD66R,1.7X1.7*%
%ADD67Rect,0.8X0.9X136.24*%
%ADD68Rect,0.8X0.9X-46.38*%
%ADD69Rect,0.8X0.9X-135.16*%
%ADD70R,2.04638X1.62001*%
%ADD71R,2.91X2.91061*%
%ADD72Rect,0.8X0.9X-135.35*%
%ADD73R,0.532X1.07201*%
%ADD74Oval,0.3X0.60104X-0.60104X-0.60104X0.60104*%
%ADD75Oval,0.3X-0.60104X-0.60104X0.60104X0.60104*%
%ADD76R,0.8X0.8*%
%ADD77R,1.3589X1.5*%
%ADD78R,1.3589X1.5*%
%ADD79R,1.50625X2.37599*%
%ADD80R,3.0099X2.49999*%
%ADD81R,3.0099X2.49999*%
%ADD82R,1.2X1.4*%
%ADD83R,1.2X1.4*%
%ADD84R,0.4699X0.5207*%
%ADD85R,0.5207X0.5207*%
%ADD86C,0.61*%
%ADD87C,0.6096*%
%ADD88C,0.45*%
%ADD89C,0.4*%
%ADD90C,0.5*%
%ADD91C,0.55*%
%ADD92C,2.0*%
%ADD93C,0.8*%
%ADD94C,0.28*%
%ADD95C,0.3*%
G75*


G04 Copper Start*
G36*
G01X4764211Y4720163D02*
G01X4760163Y4724211D01*
G01Y5422929D01*
G03X4750003Y5433089I-10160J0D01*
G01X4035814D01*
G01Y5987397D01*
G01X5214627Y5984565D01*
G01Y5310003D01*
G03X5224787Y5299843I10160J0D01*
G01X5389843D01*
G01Y5154211D01*
G01X5299805Y5064174D01*
G03X5296829Y5056989I7184J-7184D01*
G01Y5040136D01*
G03X5293641Y5019500I65175J-20635D01*
G03X5296829Y4998865I68364J0D01*
G01Y4913136D01*
G03X5293641Y4892500I65175J-20635D01*
G03X5296829Y4871865I68364J0D01*
G01Y4857150D01*
G01X5186539D01*
G03X5179355Y4854175I0J-10160D01*
G01Y4854174D01*
G01X5178806Y4853625D01*
G01X5178805D01*
G03X5175830Y4846441I7184J-7184D01*
G01Y4720163D01*
G01X4764211D01*
G37*
%LPC*%
G36*
G01X4335185Y5642989D02*
G03X4460999Y5517175I125814J0D01*
G03X4586813Y5642989I0J125814D01*
G03X4460999Y5768803I-125814J0D01*
G03X4335185Y5642989I0J-125814D01*
G37*
%LPD*%
G36*
G01X4036150Y3908150D02*
G01X4036150Y5369490D01*
G01X4714189D01*
G01Y4720003D01*
G01Y4720002D01*
G03X4724678Y4694678I35814J0D01*
G01X4734678Y4684678D01*
G03X4760003Y4674189I25324J25324D01*
G01X4949567D01*
G03X4940544Y4640792I57291J-33396D01*
G03X4990068Y4576639I66314J0D01*
G03X4940544Y4512485I16790J-64153D01*
G03X5006858Y4446171I66314J0D01*
G03X5026578Y4449171I0J66314D01*
G01X5242272D01*
G03X5192682Y4385001I16725J-64170D01*
G03X5237337Y4322324I66314J0D01*
G03X5193682Y4260001I22659J-62323D01*
G03X5259996Y4193687I66314J0D01*
G03X5286439Y4199187I0J66314D01*
G01X5326322D01*
G03X5336679Y4194000I35682J58313D01*
G03X5293641Y4130500I25326J-63500D01*
G03X5326925Y4071823I68364J0D01*
G01X5264155D01*
G03X5256026Y4072323I-8129J-65814D01*
G03X5189712Y4006009I0J-66314D01*
G03X5256026Y3939695I66314J0D01*
G03X5264155Y3940195I0J66314D01*
G01X5336196D01*
G01X5336679Y3940000D01*
G03X5301408Y3908150I25326J-63500D01*
G01X4036150D01*
G37*
%LPC*%
G36*
G01X4460999Y5017176D02*
G03X4586813Y5142990I0J125814D01*
G03X4460999Y5268804I-125814J0D01*
G03X4335185Y5142990I0J-125814D01*
G03X4460999Y5017176I125814J0D01*
G37*
%LPD*%
G36*
G01X11216373Y5355870D02*
G03X11192483Y5372174I-23889J-9350D01*
G01X10901483D01*
G03X10877594Y5355870I0J-25654D01*
G01X9396514D01*
G03X9403646Y5373620I-18522J17750D01*
G01Y5643619D01*
G03X9377992Y5669273I-25654J0D01*
G01X9047993D01*
G03X9022339Y5643619I0J-25654D01*
G01Y5373620D01*
G03X9029470Y5355870I25654J0D01*
G01X8860710D01*
G01Y5985965D01*
G01X11239720Y5980249D01*
G01Y5355870D01*
G01X11216373D01*
G37*
%LPC*%
G36*
G01X10922465Y5544988D02*
G03X10948119Y5519334I25654J0D01*
G01X11152756D01*
G03X11178410Y5544988I0J25654D01*
G01Y5706989D01*
G03X11152756Y5732643I-25654J0D01*
G01X10948119D01*
G03X10922465Y5706989I0J-25654D01*
G01Y5544988D01*
G37*
G36*
G01X10783978Y5521335D02*
G03X10899632Y5636989I0J115654D01*
G03X10783978Y5752643I-115654J0D01*
G03X10668325Y5636989I0J-115654D01*
G03X10783978Y5521335I115654J0D01*
G37*
G36*
G01X9568327Y5636989D02*
G03X9683981Y5521335I115654J0D01*
G03X9799634Y5636989I0J115654D01*
G03X9683981Y5752643I-115654J0D01*
G03X9568327Y5636989I0J-115654D01*
G37*
G36*
G01X9087271Y5715335D02*
G03X9108990Y5703334I21719J13654D01*
G01X9188990D01*
G03X9214644Y5728988I0J25654D01*
G01Y5818988D01*
G03X9188990Y5844642I-25654J0D01*
G01X9108990D01*
G03X9084504Y5826642I0J-25654D01*
G01X9014461D01*
G03X9006983Y5827143I-7478J-55654D01*
G03X8950829Y5770988I0J-56154D01*
G03X9006983Y5714834I56154J0D01*
G03X9014461Y5715335I0J56154D01*
G01X9087271D01*
G37*
G36*
G01X9223341Y5728988D02*
G03X9248995Y5703334I25654J0D01*
G01X9328995D01*
G03X9354649Y5728988I0J25654D01*
G01Y5818988D01*
G03X9328995Y5844642I-25654J0D01*
G01X9248995D01*
G03X9223341Y5818988I0J-25654D01*
G01Y5728988D01*
G37*
%LPD*%
G36*
G01X9572978Y4446994D02*
G01X9571981Y4447991D01*
G01Y5320989D01*
G01X10860172D01*
G01Y5022690D01*
G01X10727678D01*
G01X10588979Y4883990D01*
G01X10476280D01*
G01X10323328Y4731038D01*
G01Y4446994D01*
G01X9572978D01*
G37*
%LPC*%
G36*
G01X9983980Y4486337D02*
G03X10134634Y4636991I0J150654D01*
G03X9983980Y4787644I-150654J0D01*
G03X9833326Y4636991I0J-150654D01*
G03X9983980Y4486337I150654J0D01*
G37*
%LPD*%
G36*
G01X12251021Y4956000D02*
G03X12203431Y4980695I-47591J-33509D01*
G01X11998981D01*
G03X11983697Y4978653I0J-58204D01*
G01X11894484D01*
G03X11887006Y4979153I-7478J-55654D01*
G03X11841573Y4956000I0J-56154D01*
G01X11773693D01*
G01X11820042Y5002349D01*
G03X11842130Y5046990I-34066J44641D01*
G03X11785976Y5103144I-56154J0D01*
G03X11741336Y5081056I0J-56154D01*
G01X11616280Y4956000D01*
G01X11616145D01*
G03X11594987Y4967146I-21157J-14508D01*
G01X11474987D01*
G03X11453830Y4956000I0J-25654D01*
G01X11277000D01*
G01Y5980160D01*
G01X12331000Y5977628D01*
G01Y5854097D01*
G01X11938461D01*
G03X11912807Y5828443I0J-25654D01*
G01Y5441083D01*
G03X11938461Y5415429I25654J0D01*
G01X12331000D01*
G01Y5106169D01*
G01X12216671D01*
G03X12203431Y5107695I-13241J-56678D01*
G01X11998981D01*
G03X11940777Y5049491I0J-58204D01*
G03X11998981Y4991287I58204J0D01*
G01X12203431D01*
G03X12223513Y4994861I0J58204D01*
G01X12331000D01*
G01Y4956000D01*
G01X12251021D01*
G37*
%LPC*%
G36*
G01X11341818Y5055459D02*
G03X11367472Y5029805I25654J0D01*
G01X11658472D01*
G03X11684126Y5055459I0J25654D01*
G01Y5346520D01*
G03X11658472Y5372174I-25654J0D01*
G01X11367472D01*
G03X11341818Y5346520I0J-25654D01*
G01Y5055459D01*
G37*
G36*
G01X11435545Y5544988D02*
G03X11461199Y5519334I25654J0D01*
G01X11665836D01*
G03X11691490Y5544988I0J25654D01*
G01Y5706989D01*
G03X11665836Y5732643I-25654J0D01*
G01X11461199D01*
G03X11435545Y5706989I0J-25654D01*
G01Y5544988D01*
G37*
%LPD*%
G36*
G01X13694736Y4618150D02*
G03X13717317Y4667999I-43733J49849D01*
G03X13651003Y4734313I-66314J0D01*
G03X13624560Y4728813I0J-66314D01*
G01X13565138D01*
G03X13558294Y4731991I-32170J-60322D01*
G03X13601332Y4795491I-25326J63500D01*
G03X13564445Y4856178I-68364J0D01*
G01X13646844D01*
G03X13654973Y4855678I8129J65814D01*
G03X13721287Y4921992I0J66314D01*
G03X13654973Y4988306I-66314J0D01*
G03X13646844Y4987806I0J-66314D01*
G01X13562439D01*
G03X13601332Y5049491I-29471J61685D01*
G03X13532968Y5117855I-68364J0D01*
G01X13328518D01*
G03X13319130Y5117207I0J-68364D01*
G01Y5405269D01*
G01X13631527D01*
G03X13667341Y5441083I0J35814D01*
G01Y5828443D01*
G03X13631527Y5864257I-35814J0D01*
G01X13319130D01*
G01Y5963830D01*
G01X13845078D01*
G01X14954820Y5961164D01*
G01Y5425817D01*
G01X14020381D01*
G03X13984567Y5390003I0J-35814D01*
G01Y4618150D01*
G01X13694736D01*
G37*
%LPC*%
G36*
G01X14396175Y5689989D02*
G03X14521988Y5564175I125814J0D01*
G03X14647802Y5689989I0J125814D01*
G03X14521988Y5815802I-125814J0D01*
G03X14396175Y5689989I0J-125814D01*
G37*
%LPD*%
G36*
G01X13593229Y3662474D02*
G01X13568493Y3687210D01*
G01Y3810119D01*
G01X13606192Y3847818D01*
G03X13609167Y3855002I-7184J7184D01*
G01Y4080297D01*
G01X13757209D01*
G03X13767369Y4090457I0J10160D01*
G01Y4185967D01*
G01X14020381D01*
G03X14030541Y4196127I0J10160D01*
G01Y5379843D01*
G01X14964186D01*
G01Y4053896D01*
G01X14130008D01*
G03X14119848Y4043736I0J-10160D01*
G01Y3672512D01*
G01X14109809Y3662474D01*
G01X13593229D01*
G37*
%LPC*%
G36*
G01X14521988Y5064176D02*
G03X14647802Y5189990I0J125814D01*
G03X14521988Y5315803I-125814J0D01*
G03X14396175Y5189990I0J-125814D01*
G03X14521988Y5064176I125814J0D01*
G37*
%LPD*%
G54D8191*
G01X4764211Y4720163D02*
G01X4760163Y4724211D01*
G01Y5422929D01*
G03X4750003Y5433089I-10160J0D01*
G01X4035814D01*
G01Y5987397D01*
G01X5214627Y5984565D01*
G01Y5310003D01*
G03X5224787Y5299843I10160J0D01*
G01X5389843D01*
G01Y5154211D01*
G01X5299805Y5064174D01*
G03X5296829Y5056989I7184J-7184D01*
G01Y5040136D01*
G03X5293641Y5019500I65175J-20635D01*
G03X5296829Y4998865I68364J0D01*
G01Y4913136D01*
G03X5293641Y4892500I65175J-20635D01*
G03X5296829Y4871865I68364J0D01*
G01Y4857150D01*
G01X5186539D01*
G03X5179355Y4854175I0J-10160D01*
G01Y4854174D01*
G01X5178806Y4853625D01*
G01X5178805D01*
G03X5175830Y4846441I7184J-7184D01*
G01Y4720163D01*
G01X4764211D01*
G01X4335185Y5642989D02*
G03X4460999Y5517175I125814J0D01*
G03X4586813Y5642989I0J125814D01*
G03X4460999Y5768803I-125814J0D01*
G03X4335185Y5642989I0J-125814D01*
G01X4036150Y3908150D02*
G01X4036150Y5369490D01*
G01X4714189D01*
G01Y4720003D01*
G01Y4720002D01*
G03X4724678Y4694678I35814J0D01*
G01X4734678Y4684678D01*
G03X4760003Y4674189I25324J25324D01*
G01X4949567D01*
G03X4940544Y4640792I57291J-33396D01*
G03X4990068Y4576639I66314J0D01*
G03X4940544Y4512485I16790J-64153D01*
G03X5006858Y4446171I66314J0D01*
G03X5026578Y4449171I0J66314D01*
G01X5242272D01*
G03X5192682Y4385001I16725J-64170D01*
G03X5237337Y4322324I66314J0D01*
G03X5193682Y4260001I22659J-62323D01*
G03X5259996Y4193687I66314J0D01*
G03X5286439Y4199187I0J66314D01*
G01X5326322D01*
G03X5336679Y4194000I35682J58313D01*
G03X5293641Y4130500I25326J-63500D01*
G03X5326925Y4071823I68364J0D01*
G01X5264155D01*
G03X5256026Y4072323I-8129J-65814D01*
G03X5189712Y4006009I0J-66314D01*
G03X5256026Y3939695I66314J0D01*
G03X5264155Y3940195I0J66314D01*
G01X5336196D01*
G01X5336679Y3940000D01*
G03X5301408Y3908150I25326J-63500D01*
G01X4036150D01*
G01X4460999Y5017176D02*
G03X4586813Y5142990I0J125814D01*
G03X4460999Y5268804I-125814J0D01*
G03X4335185Y5142990I0J-125814D01*
G03X4460999Y5017176I125814J0D01*
G01X13694736Y4618150D02*
G03X13717317Y4667999I-43733J49849D01*
G03X13651003Y4734313I-66314J0D01*
G03X13624560Y4728813I0J-66314D01*
G01X13565138D01*
G03X13558294Y4731991I-32170J-60322D01*
G03X13601332Y4795491I-25326J63500D01*
G03X13564445Y4856178I-68364J0D01*
G01X13646844D01*
G03X13654973Y4855678I8129J65814D01*
G03X13721287Y4921992I0J66314D01*
G03X13654973Y4988306I-66314J0D01*
G03X13646844Y4987806I0J-66314D01*
G01X13562439D01*
G03X13601332Y5049491I-29471J61685D01*
G03X13532968Y5117855I-68364J0D01*
G01X13328518D01*
G03X13319130Y5117207I0J-68364D01*
G01Y5405269D01*
G01X13631527D01*
G03X13667341Y5441083I0J35814D01*
G01Y5828443D01*
G03X13631527Y5864257I-35814J0D01*
G01X13319130D01*
G01Y5963830D01*
G01X13845078D01*
G01X14954820Y5961164D01*
G01Y5425817D01*
G01X14020381D01*
G03X13984567Y5390003I0J-35814D01*
G01Y4618150D01*
G01X13694736D01*
G01X14396175Y5689989D02*
G03X14521988Y5564175I125814J0D01*
G03X14647802Y5689989I0J125814D01*
G03X14521988Y5815802I-125814J0D01*
G03X14396175Y5689989I0J-125814D01*
G01X13593229Y3662474D02*
G01X13568493Y3687210D01*
G01Y3810119D01*
G01X13606192Y3847818D01*
G03X13609167Y3855002I-7184J7184D01*
G01Y4080297D01*
G01X13757209D01*
G03X13767369Y4090457I0J10160D01*
G01Y4185967D01*
G01X14020381D01*
G03X14030541Y4196127I0J10160D01*
G01Y5379843D01*
G01X14964186D01*
G01Y4053896D01*
G01X14130008D01*
G03X14119848Y4043736I0J-10160D01*
G01Y3672512D01*
G01X14109809Y3662474D01*
G01X13593229D01*
G01X14521988Y5064176D02*
G03X14647802Y5189990I0J125814D01*
G03X14521988Y5315803I-125814J0D01*
G03X14396175Y5189990I0J-125814D01*
G03X14521988Y5064176I125814J0D01*
G54D10*
G01X4460999Y5642989D02*
G01X4460999Y5758897D01*
G01X4460999Y5642989D02*
G01X4460999Y5527081D01*
G01X4460999Y5642989D02*
G01X4576907Y5642989D01*
G01X4460999Y5642989D02*
G01X4345091Y5642989D01*
G01X14521988Y5189990D02*
G01X14521988Y5074082D01*
G01X14521988Y5189990D02*
G01X14521988Y5305897D01*
G01X14521988Y5189990D02*
G01X14406081Y5189990D01*
G01X14521988Y5189990D02*
G01X14637896Y5189990D01*
G54D11*
G01X9983980Y4636991D02*
G01X10134888Y4636991D01*
G01X9983980Y4636991D02*
G01X9833072Y4636991D01*
G01X9983980Y4636991D02*
G01X9983980Y4486083D01*
G01X9983980Y4636991D02*
G01X9983980Y4787898D01*
G54D12*
G01X13430743Y4795491D02*
G01X13591426Y4795491D01*
G54D10*
G01X14521988Y5689989D02*
G01X14521988Y5574081D01*
G01X14521988Y5689989D02*
G01X14521988Y5805896D01*
G01X14521988Y5689989D02*
G01X14406081Y5689989D01*
G01X14521988Y5689989D02*
G01X14637896Y5689989D01*
G01X4460999Y5142990D02*
G01X4460999Y5258898D01*
G01X4460999Y5142990D02*
G01X4460999Y5027082D01*
G01X4460999Y5142990D02*
G01X4576907Y5142990D01*
G01X4460999Y5142990D02*
G01X4345091Y5142990D01*
G01X11512972Y5200990D02*
G01X11341564Y5200990D01*
G01X11512972Y5200990D02*
G01X11684380Y5200990D01*
G01X11512972Y5200990D02*
G01X11512972Y5372428D01*
G01X11512972Y5200990D02*
G01X11512972Y5029551D01*
G01X11563517Y5625989D02*
G01X11435291Y5625989D01*
G01X11563517Y5625989D02*
G01X11691744Y5625989D01*
G01X11563517Y5625989D02*
G01X11563517Y5732897D01*
G01X11563517Y5625989D02*
G01X11563517Y5519080D01*
G54D11*
G01X9212992Y5508620D02*
G01X9212992Y5669527D01*
G01X9212992Y5508620D02*
G01X9403900Y5508620D01*
G01X9212992Y5508620D02*
G01X9022085Y5508620D01*
G01X9288995Y5773988D02*
G01X9354903Y5773988D01*
G01X9288995Y5773988D02*
G01X9288995Y5703080D01*
G01X9288995Y5773988D02*
G01X9288995Y5844896D01*
G01X11050437Y5625989D02*
G01X10922211Y5625989D01*
G01X11050437Y5625989D02*
G01X11178664Y5625989D01*
G01X11050437Y5625989D02*
G01X11050437Y5732897D01*
G01X11050437Y5625989D02*
G01X11050437Y5519080D01*
G01X9683981Y5636989D02*
G01X9799888Y5636989D01*
G01X9683981Y5636989D02*
G01X9568073Y5636989D01*
G01X9683981Y5636989D02*
G01X9683981Y5521081D01*
G01X9683981Y5636989D02*
G01X9683981Y5752897D01*
G01X10783978Y5636989D02*
G01X10899886Y5636989D01*
G01X10783978Y5636989D02*
G01X10668071Y5636989D01*
G01X10783978Y5636989D02*
G01X10783978Y5521081D01*
G01X10783978Y5636989D02*
G01X10783978Y5752897D01*
G04 Copper End*

G04 Rect Start*
G36*
G01X12471943Y5479776D02*
G01X12471943Y5282416D01*
G01X13098003D01*
G01Y5479776D01*
G01X12471943D01*
G37*
G36*
G01X11938461Y5828443D02*
G01X11938461Y5441083D01*
G01X13631527D01*
G01Y5828443D01*
G01X11938461D01*
G37*
G36*
G01X13098058Y3510692D02*
G01X13098058Y3708052D01*
G01X12471998D01*
G01Y3510692D01*
G01X13098058D01*
G37*
G36*
G01X13641540Y3162025D02*
G01X13641540Y3549385D01*
G01X11948474D01*
G01Y3162025D01*
G01X13641540D01*
G37*
G36*
G01X6439056Y3448224D02*
G01X6439056Y3645584D01*
G01X5812996D01*
G01Y3448224D01*
G01X6439056D01*
G37*
G36*
G01X6972538Y3099557D02*
G01X6972538Y3486917D01*
G01X5279472D01*
G01Y3099557D01*
G01X6972538D01*
G37*
G36*
G01X5812941Y5417308D02*
G01X5812941Y5219948D01*
G01X6439001D01*
G01Y5417308D01*
G01X5812941D01*
G37*
G36*
G01X5269459Y5765975D02*
G01X5269459Y5378615D01*
G01X6962525D01*
G01Y5765975D01*
G01X5269459D01*
G37*
G04 Rect End*

G04 Pad Start*
G54D13*
G01X7375985Y4407991D03*
G01X6216988Y931998D03*
G01X12804974Y76000D03*
G54D14*
G01X9685014Y2053008D03*
G01X9135003Y2052994D03*
G01X9134996Y2306994D03*
G01X9685008Y2307008D03*
G54D16*
G01X10465317Y2998047D03*
G01X10464631Y3157940D03*
G54D17*
G01X10673979Y3154994D03*
G01X10673979Y2954994D03*
G54D18*
G01X10331468Y1392510D03*
G01X10430490Y1491485D03*
G54D19*
G01X9768518Y-132463D03*
G01X9867442Y-231536D03*
G54D20*
G01X10741336Y472644D03*
G01X10840621Y571354D03*
G54D21*
G01X8989501Y942498D03*
G01X8890509Y1041503D03*
G54D22*
G01X9534603Y1474621D03*
G01X9435359Y1573373D03*
G54D23*
G01X9863944Y2107999D03*
G01X9864064Y2248004D03*
G54D24*
G01X10034513Y2253517D03*
G01X10034299Y2102844D03*
G54D25*
G01X10231005Y-1084000D03*
G54D26*
G01X9977005Y-1084000D03*
G01X9723005Y-1084000D03*
G01X9469005Y-1084000D03*
G54D27*
G01X12556977Y2110996D03*
G01X12416973Y2110996D03*
G54D28*
G01X13530970Y2073996D03*
G01X13670975Y2073996D03*
G54D29*
G01X5740001Y1580001D03*
G01X5880006Y1580001D03*
G01X5160000Y1580001D03*
G01X5300005Y1580001D03*
G01X5740001Y2030001D03*
G01X5880006Y2030001D03*
G01X5166087Y2030001D03*
G01X5306092Y2030001D03*
G01X5180001Y2600009D03*
G01X5320005Y2600009D03*
G54D27*
G01X6430006Y2029993D03*
G01X6290001Y2029993D03*
G54D29*
G01X6300001Y2600009D03*
G01X6440006Y2600009D03*
G54D27*
G01X13135201Y2602991D03*
G01X12995197Y2602991D03*
G54D30*
G01X10911439Y936778D03*
G01X10910390Y1076779D03*
G54D31*
G01X10908029Y1385919D03*
G01X10907786Y1245915D03*
G54D32*
G01X12906750Y1391500D03*
G01X12906750Y1264500D03*
G01X12906750Y1137500D03*
G01X12906750Y1010500D03*
G01X12906750Y883500D03*
G01X12906750Y756500D03*
G01X12906750Y629500D03*
G01X12906750Y502500D03*
G01X13463264Y502500D03*
G01X13463264Y629500D03*
G01X13463264Y756500D03*
G01X13463264Y883500D03*
G01X13463264Y1010500D03*
G01X13463264Y1137500D03*
G01X13463264Y1264500D03*
G01X13463264Y1391500D03*
G54D33*
G01X13855344Y1270001D03*
G01X13704671Y1270001D03*
G01X13850331Y1010500D03*
G01X13699659Y1010500D03*
G01X13852331Y839499D03*
G01X13701659Y839499D03*
G54D34*
G01X7499034Y4718660D03*
G01X7499034Y4869333D03*
G54D35*
G01X7324034Y4863994D03*
G01X7324034Y4723989D03*
G01X8125033Y4013001D03*
G01X8125033Y3872996D03*
G01X7664033Y3920001D03*
G01X7664033Y3779996D03*
G54D36*
G01X7961033Y4276995D03*
G01X7961033Y4417000D03*
G54D34*
G01X7952033Y3867667D03*
G01X7952033Y4018340D03*
G54D36*
G01X11689955Y4209982D03*
G01X11689955Y4349987D03*
G01X10874978Y4624988D03*
G01X10874978Y4764993D03*
G01X11330977Y4702988D03*
G01X11330977Y4842993D03*
G54D35*
G01X11034978Y4355995D03*
G01X11034978Y4215991D03*
G54D37*
G01X11040203Y4765126D03*
G01X11040203Y4614453D03*
G54D38*
G01X12101206Y5049491D03*
G01X12101206Y4922491D03*
G01X12101206Y4795491D03*
G01X12101206Y4668491D03*
G01X12101206Y4541491D03*
G01X12101206Y4414491D03*
G01X12101206Y4287491D03*
G01X12101206Y4160491D03*
G01X12101206Y4033491D03*
G01X12101206Y3906491D03*
G01X13430743Y5049491D03*
G01X13430743Y4922491D03*
G01X13430743Y4795491D03*
G01X13430743Y4668491D03*
G01X13430743Y4541491D03*
G01X13430743Y4414491D03*
G01X13430743Y4287491D03*
G01X13430743Y4160491D03*
G01X13430743Y4033491D03*
G01X13430743Y3906491D03*
G54D39*
G01X12765974Y4477991D03*
G54D37*
G01X11519977Y4355328D03*
G01X11519977Y4204655D03*
G54D40*
G01X9212992Y4771359D03*
G01X9212992Y5508620D03*
G54D29*
G01X9148990Y5773988D03*
G01X9288995Y5773988D03*
G54D41*
G01X5734662Y1754001D03*
G01X5885334Y1754001D03*
G01X5734662Y2196994D03*
G01X5885334Y2196994D03*
G01X5174661Y2770003D03*
G01X5325334Y2770003D03*
G01X6294662Y2768009D03*
G01X6445335Y2768009D03*
G54D33*
G01X5305334Y1753012D03*
G01X5154661Y1753012D03*
G01X5311421Y2202007D03*
G01X5160748Y2202007D03*
G01X6435345Y2196987D03*
G01X6284672Y2196987D03*
G54D42*
G01X10428981Y3766992D03*
G54D43*
G01X10174981Y3766992D03*
G01X9920981Y3766992D03*
G01X9412981Y3766992D03*
G01X9158981Y3766992D03*
G01X8904981Y3766992D03*
G01X8650981Y3766992D03*
G54D29*
G01X8928978Y2795994D03*
G01X9068983Y2795994D03*
G54D44*
G01X9326231Y3286991D03*
G01X9326231Y3056994D03*
G01X9326231Y2826997D03*
G54D45*
G01X9897731Y3056994D03*
G54D35*
G01X10169980Y3139996D03*
G01X10169980Y2999991D03*
G54D28*
G01X10927976Y2285995D03*
G01X11067980Y2285995D03*
G01X10923976Y3709993D03*
G01X11063980Y3709993D03*
G54D41*
G01X8128647Y3530993D03*
G01X8279320Y3530993D03*
G54D29*
G01X7353983Y2067996D03*
G01X7493988Y2067996D03*
G54D28*
G01X7351450Y3470557D03*
G01X7491454Y3470557D03*
G54D33*
G01X11709313Y3724993D03*
G01X11558640Y3724993D03*
G54D46*
G01X12674756Y-471483D03*
G01X12674756Y-598483D03*
G01X12674756Y-725483D03*
G01X12674756Y-852483D03*
G01X13229238Y-471483D03*
G01X13229238Y-598483D03*
G01X13229238Y-725483D03*
G01X13229238Y-852483D03*
G54D34*
G01X13701973Y-869335D03*
G01X13701973Y-718662D03*
G54D37*
G01X13701973Y-420663D03*
G01X13701973Y-571335D03*
G54D47*
G01X13940971Y-759394D03*
G54D48*
G01X13940971Y-1014604D03*
G54D49*
G01X13942972Y-560606D03*
G54D50*
G01X13942972Y-305396D03*
G54D33*
G01X13539309Y-970998D03*
G01X13388637Y-970998D03*
G01X13537309Y-318999D03*
G01X13386637Y-318999D03*
G54D27*
G01X13116998Y-300983D03*
G01X12976993Y-300983D03*
G54D51*
G01X13497972Y-787878D03*
G01X13497972Y-492120D03*
G54D47*
G01X5037990Y-810391D03*
G54D48*
G01X5037990Y-1065601D03*
G54D49*
G01X5037990Y-611606D03*
G54D50*
G01X5037990Y-356396D03*
G54D43*
G01X14521988Y5189990D03*
G01X14521988Y5689989D03*
G01X4460999Y5642989D03*
G01X4460999Y5142990D03*
G54D14*
G01X8495010Y-277000D03*
G01X7944999Y-277000D03*
G01X7944999Y-23000D03*
G01X8495010Y-23000D03*
G54D36*
G01X8688030Y-211011D03*
G01X8688030Y-71006D03*
G54D37*
G01X8853093Y-78457D03*
G01X8853093Y-229130D03*
G54D52*
G01X10740522Y1247279D03*
G01X10741453Y1096609D03*
G54D53*
G01X11125856Y1348918D03*
G01X11126120Y948919D03*
G01X11366099Y949077D03*
G01X11365835Y1349076D03*
G54D54*
G01X8494907Y-937225D03*
G01X7944895Y-936776D03*
G01X7945102Y-682776D03*
G01X8495114Y-683225D03*
G54D55*
G01X8676527Y-875006D03*
G01X8675544Y-735004D03*
G54D37*
G01X8840851Y-737484D03*
G01X8840851Y-888157D03*
G54D27*
G01X12550009Y2602991D03*
G01X12410004Y2602991D03*
G01X13689975Y2602991D03*
G01X13549970Y2602991D03*
G54D56*
G01X12411644Y2280976D03*
G01X12562317Y2280976D03*
G01X13525631Y2248991D03*
G01X13676304Y2248991D03*
G01X12983820Y1770977D03*
G01X13134493Y1770977D03*
G54D27*
G01X13129154Y1600997D03*
G01X12989149Y1600997D03*
G54D33*
G01X5885345Y2767001D03*
G01X5734672Y2767001D03*
G54D27*
G01X5880006Y2600001D03*
G01X5740001Y2600001D03*
G01X13122976Y2108996D03*
G01X12982971Y2108996D03*
G01X12569977Y1600997D03*
G01X12429973Y1600997D03*
G54D33*
G01X12555350Y2777988D03*
G01X12404677Y2777988D03*
G01X13695314Y2772971D03*
G01X13544641Y2772971D03*
G01X13128315Y2284991D03*
G01X12977643Y2284991D03*
G01X12575316Y1770977D03*
G01X12424644Y1770977D03*
G54D56*
G01X12989868Y2775994D03*
G01X13140540Y2775994D03*
G54D57*
G01X7774976Y5748742D03*
G01X7544979Y5748742D03*
G01X7314982Y5748742D03*
G54D58*
G01X7544979Y5177242D03*
G54D29*
G01X7109983Y5210990D03*
G01X7249988Y5210990D03*
G54D35*
G01X7150980Y5852994D03*
G01X7150980Y5712989D03*
G54D38*
G01X6793767Y3876500D03*
G01X6793767Y4003500D03*
G01X6793767Y4130500D03*
G01X6793767Y4257500D03*
G01X6793767Y4384500D03*
G01X6793767Y4511500D03*
G01X6793767Y4638500D03*
G01X6793767Y4765500D03*
G01X6793767Y4892500D03*
G01X6793767Y5019500D03*
G01X5464230Y3876500D03*
G01X5464230Y4003500D03*
G01X5464230Y4130500D03*
G01X5464230Y4257500D03*
G01X5464230Y4384500D03*
G01X5464230Y4511500D03*
G01X5464230Y4638500D03*
G01X5464230Y4765500D03*
G01X5464230Y4892500D03*
G01X5464230Y5019500D03*
G54D59*
G01X6128998Y4448000D03*
G54D37*
G01X7431001Y-644662D03*
G01X7431001Y-795335D03*
G01X7587000Y-645662D03*
G01X7587000Y-796335D03*
G01X7438001Y914335D03*
G01X7438001Y763662D03*
G01X7593000Y914335D03*
G01X7593000Y763662D03*
G54D36*
G01X7072001Y-763001D03*
G01X7072001Y-622996D03*
G01X6814002Y-763001D03*
G01X6814002Y-622996D03*
G54D35*
G01X7068001Y918001D03*
G01X7068001Y777996D03*
G54D60*
G01X10483979Y4636991D03*
G01X9983980Y4636991D03*
G54D43*
G01X9683981Y5636989D03*
G01X10783978Y5636989D03*
G54D61*
G01X5514492Y-784022D03*
G54D62*
G01X5514492Y-364007D03*
G01X6579514Y-363982D03*
G54D61*
G01X6579514Y-784022D03*
G54D63*
G01X6379515Y-315976D03*
G01X5714492Y-315976D03*
G01X6354496Y-315976D03*
G01X5739511Y-315976D03*
G01X6299505Y-315976D03*
G01X5794502Y-315976D03*
G01X6274511Y-315976D03*
G01X5819496Y-315976D03*
G01X6222009Y-315976D03*
G01X6171997Y-315976D03*
G01X6122010Y-315976D03*
G01X6071997Y-315976D03*
G01X6022010Y-315976D03*
G01X5971997Y-315976D03*
G01X5922010Y-315976D03*
G01X5871997Y-315976D03*
G54D34*
G01X5554004Y-185336D03*
G01X5554004Y-34663D03*
G54D64*
G01X6814501Y-412031D03*
G01X6941501Y-412031D03*
G01X7068501Y-412031D03*
G01X7195501Y-412031D03*
G01X7322501Y-412031D03*
G01X7449501Y-412031D03*
G01X7576501Y-412031D03*
G01X7703501Y-412031D03*
G01X6814501Y538031D03*
G01X6941501Y538031D03*
G01X7068501Y538031D03*
G01X7195501Y538031D03*
G01X7322501Y538031D03*
G01X7449501Y538031D03*
G01X7576501Y538031D03*
G01X7703501Y538031D03*
G54D36*
G01X6888002Y776996D03*
G01X6888002Y917001D03*
G54D34*
G01X7752000Y763662D03*
G01X7752000Y914335D03*
G54D33*
G01X6462339Y-60000D03*
G01X6311666Y-60000D03*
G54D65*
G01X4588000Y2224000D03*
G54D26*
G01X4334000Y2224000D03*
G01X4588000Y2478000D03*
G01X4334000Y2478000D03*
G01X4588000Y2732000D03*
G01X4334000Y2732000D03*
G01X4588000Y2986000D03*
G01X4334000Y2986000D03*
G01X4588000Y3240000D03*
G01X4334000Y3240000D03*
G01X4588000Y3494000D03*
G01X4334000Y3494000D03*
G01X4588000Y3748000D03*
G01X4334000Y3748000D03*
G54D66*
G01X14396971Y3738994D03*
G54D26*
G01X14650971Y3738994D03*
G01X14396971Y3484994D03*
G01X14650971Y3484994D03*
G01X14396971Y3230994D03*
G01X14650971Y3230994D03*
G01X14396971Y2976994D03*
G01X14650971Y2976994D03*
G01X14396971Y2722994D03*
G01X14650971Y2722994D03*
G01X14396971Y2468994D03*
G01X14650971Y2468994D03*
G01X14396971Y2214994D03*
G01X14650971Y2214994D03*
G54D43*
G01X4459991Y700118D03*
G01X4459991Y200119D03*
G01X14522971Y260000D03*
G01X14522971Y759999D03*
G54D67*
G01X9562425Y1697416D03*
G01X9663536Y1600577D03*
G54D68*
G01X9116271Y1065317D03*
G01X9019693Y1166678D03*
G54D69*
G01X10203343Y1516636D03*
G01X10302616Y1615358D03*
G54D70*
G01X11563517Y5625989D03*
G01X11050437Y5625989D03*
G54D71*
G01X11512972Y5200990D03*
G01X11046983Y5200990D03*
G54D34*
G01X13663973Y431663D03*
G01X13663973Y582335D03*
G54D72*
G01X10687180Y682801D03*
G01X10786777Y781196D03*
G54D73*
G01X11966972Y1583907D03*
G01X11871976Y1583907D03*
G01X11776980Y1583907D03*
G01X11776980Y1354088D03*
G01X11871976Y1354088D03*
G01X11966972Y1354088D03*
G54D29*
G01X11879998Y1100000D03*
G01X12020003Y1100000D03*
G54D74*
G01X10521747Y538597D03*
G01X10486382Y503233D03*
G01X10451036Y467887D03*
G01X10415672Y432523D03*
G01X10380325Y397176D03*
G01X10344961Y361812D03*
G01X10309615Y326466D03*
G01X10274251Y291101D03*
G01X10238904Y255755D03*
G01X10203540Y220391D03*
G01X10168194Y185045D03*
G01X10132830Y149680D03*
G01X10097483Y114334D03*
G01X10062119Y78970D03*
G01X10026773Y43624D03*
G01X9991409Y8259D03*
G54D75*
G01X9708602Y8259D03*
G01X9673238Y43624D03*
G01X9637892Y78970D03*
G01X9602528Y114334D03*
G01X9567181Y149680D03*
G01X9531817Y185045D03*
G01X9496471Y220391D03*
G01X9461106Y255755D03*
G01X9425760Y291101D03*
G01X9390396Y326466D03*
G01X9355050Y361812D03*
G01X9319685Y397176D03*
G01X9284339Y432523D03*
G01X9248975Y467887D03*
G01X9213629Y503233D03*
G01X9178264Y538597D03*
G54D74*
G01X9178264Y821404D03*
G01X9213629Y856768D03*
G01X9248975Y892114D03*
G01X9284339Y927478D03*
G01X9319685Y962825D03*
G01X9355050Y998189D03*
G01X9390396Y1033535D03*
G01X9425760Y1068899D03*
G01X9461106Y1104246D03*
G01X9496471Y1139610D03*
G01X9531817Y1174956D03*
G01X9567181Y1210320D03*
G01X9602528Y1245667D03*
G01X9637892Y1281031D03*
G01X9673238Y1316377D03*
G01X9708602Y1351742D03*
G54D75*
G01X9991409Y1351742D03*
G01X10026773Y1316377D03*
G01X10062119Y1281031D03*
G01X10097483Y1245667D03*
G01X10132830Y1210320D03*
G01X10168194Y1174956D03*
G01X10203540Y1139610D03*
G01X10238904Y1104246D03*
G01X10274251Y1068899D03*
G01X10309615Y1033535D03*
G01X10344961Y998189D03*
G01X10380325Y962825D03*
G01X10415672Y927478D03*
G01X10451036Y892114D03*
G01X10486382Y856768D03*
G01X10521747Y821404D03*
G54D64*
G01X7361484Y2300964D03*
G01X7488484Y2300964D03*
G01X7615484Y2300964D03*
G01X7742484Y2300964D03*
G01X7869484Y2300964D03*
G01X7996484Y2300964D03*
G01X8123484Y2300964D03*
G01X8250484Y2300964D03*
G01X7361484Y3251025D03*
G01X7488484Y3251025D03*
G01X7615484Y3251025D03*
G01X7742484Y3251025D03*
G01X7869484Y3251025D03*
G01X7996484Y3251025D03*
G01X8123484Y3251025D03*
G01X8250484Y3251025D03*
G01X10932477Y2528963D03*
G01X11059477Y2528963D03*
G01X11186477Y2528963D03*
G01X11313477Y2528963D03*
G01X11440477Y2528963D03*
G01X11567477Y2528963D03*
G01X11694477Y2528963D03*
G01X11821477Y2528963D03*
G01X10932477Y3479025D03*
G01X11059477Y3479025D03*
G01X11186477Y3479025D03*
G01X11313477Y3479025D03*
G01X11440477Y3479025D03*
G01X11567477Y3479025D03*
G01X11694477Y3479025D03*
G01X11821477Y3479025D03*
G54D43*
G01X11899976Y747996D03*
G01X11899976Y-11997D03*
G54D76*
G01X7019948Y-1099660D03*
G01X6860055Y-1100346D03*
G54D77*
G01X8138032Y4496987D03*
G01X8138032Y4257008D03*
G54D78*
G01X10856979Y4119003D03*
G01X10856979Y4358983D03*
G54D79*
G01X9053035Y3057994D03*
G01X8680925Y3057994D03*
G54D80*
G01X8644993Y5066343D03*
G01X8644993Y5705635D03*
G54D81*
G01X8141994Y5590636D03*
G01X8141994Y4951343D03*
G54D43*
G01X4460000Y-451880D03*
G01X4460000Y-951879D03*
G01X14521971Y-891998D03*
G01X14521971Y-391999D03*
G54D82*
G01X7757023Y4149498D03*
G01X7757023Y4496487D03*
G01X7449994Y3746502D03*
G01X7449994Y4093492D03*
G54D83*
G01X11228988Y4483493D03*
G01X11228988Y4136503D03*
G01X11534987Y4871492D03*
G01X11534987Y4524503D03*
G54D84*
G01X7552005Y-1006998D03*
G01X7471995Y-1006998D03*
G54D85*
G01X7512000Y-1106998D03*
G04 Pad End*

G04 Via Start*
G54D86*
G01X10166984Y2256007D03*
G01X10191984Y2107007D03*
G01X11033950Y821160D03*
G01X11036274Y1483258D03*
G01X13754972Y-223000D03*
G01X13719973Y-1113998D03*
G01X12824976Y-297999D03*
G01X13268973Y-960998D03*
G01X11795007Y4744999D03*
G01X11799007Y4854999D03*
G01X11809007Y4036001D03*
G01X11809160Y3958001D03*
G01X11845809Y4797999D03*
G01X11887006Y4922999D03*
G01X11894507Y4415515D03*
G01X11894507Y4288515D03*
G01X11894507Y4035754D03*
G01X11895006Y3958001D03*
G01X11913320Y4669515D03*
G01X11919006Y4797999D03*
G01X11938006Y4164000D03*
G01X12002875Y5633990D03*
G01X12002875Y5764166D03*
G01X12005013Y5509003D03*
G01X12011819Y3352072D03*
G01X12011819Y3482248D03*
G01X12013957Y3227085D03*
G01X12198405Y5633990D03*
G01X12198405Y5764166D03*
G01X12200543Y5509003D03*
G01X12207349Y3352072D03*
G01X12207349Y3482248D03*
G01X12209487Y3227085D03*
G01X12393935Y5633990D03*
G01X12393935Y5764166D03*
G01X12396072Y5509003D03*
G01X12402878Y3352072D03*
G01X12402878Y3482248D03*
G01X12405016Y3227085D03*
G01X12540480Y3588333D03*
G01X12546875Y5380323D03*
G01X12589465Y5633990D03*
G01X12589465Y5764166D03*
G01X12591602Y5509003D03*
G01X12598408Y3352072D03*
G01X12598408Y3482248D03*
G01X12600546Y3227085D03*
G01X12784994Y5633990D03*
G01X12784994Y5764166D03*
G01X12785026Y3588333D03*
G01X12787132Y5509003D03*
G01X12791421Y5380323D03*
G01X12793938Y3352072D03*
G01X12793938Y3482248D03*
G01X12796076Y3227085D03*
G01X12980524Y5633990D03*
G01X12980524Y5764166D03*
G01X12982662Y5509003D03*
G01X12989468Y3352072D03*
G01X12989468Y3482248D03*
G01X12991606Y3227085D03*
G01X13029572Y3588333D03*
G01X13035967Y5380323D03*
G01X13176054Y5764166D03*
G01X13176054Y5633990D03*
G01X13178192Y5509003D03*
G01X13184998Y3482248D03*
G01X13184998Y3352072D03*
G01X13187135Y3227085D03*
G01X13218004Y4108000D03*
G01X13218004Y4179001D03*
G01X13218004Y4037000D03*
G01X13224004Y4794986D03*
G01X13224004Y4865986D03*
G01X13224004Y4723986D03*
G01X13371584Y5633990D03*
G01X13371584Y5764166D03*
G01X13373721Y5509003D03*
G01X13380527Y3352072D03*
G01X13380527Y3482248D03*
G01X13382665Y3227085D03*
G01X13567113Y5633990D03*
G01X13567113Y5764166D03*
G01X13569251Y5509003D03*
G01X13576057Y3352072D03*
G01X13576057Y3482248D03*
G01X13578195Y3227085D03*
G01X13615003Y3797001D03*
G01X13641555Y4164000D03*
G01X13651003Y4667999D03*
G01X13652003Y4543000D03*
G01X13654973Y4921992D03*
G01X13898002Y3806001D03*
G01X13900002Y3930001D03*
G01X13904141Y4415515D03*
G01X13904141Y4287208D03*
G01X13975972Y3929992D03*
G01X13975977Y3806001D03*
G01X11785976Y5046990D03*
G01X11035978Y4490991D03*
G01X10859978Y4490991D03*
G01X11388808Y4073998D03*
G01X5025955Y1576005D03*
G01X5618882Y1582020D03*
G01X5613698Y2030025D03*
G01X5046132Y2031007D03*
G01X5057559Y2600005D03*
G01X6164909Y2030021D03*
G01X6172878Y2600005D03*
G01X5618414Y2600005D03*
G01X13263152Y2602994D03*
G01X12680361Y2602967D03*
G01X12685975Y2112980D03*
G01X13805972Y2075996D03*
G01X13249974Y2110996D03*
G01X12693928Y1602982D03*
G01X13822972Y2604991D03*
G01X13250302Y1604479D03*
G01X11437977Y3654993D03*
G01X11310977Y3656993D03*
G01X11511977Y3834992D03*
G01X11065978Y3831992D03*
G01X10920978Y3831992D03*
G01X10857978Y3997992D03*
G01X11031978Y4072992D03*
G01X11152978Y3978992D03*
G01X11176978Y4659991D03*
G01X10875006Y4886705D03*
G01X9006983Y5770988D03*
G01X8763983Y5917988D03*
G01X8651484Y5920988D03*
G01X8538984Y5921988D03*
G01X8254097Y5921988D03*
G01X8146541Y5921988D03*
G01X8038985Y5921988D03*
G01X8027485Y4719814D03*
G01X8252484Y4715814D03*
G01X8139984Y4716814D03*
G01X8538427Y4719314D03*
G01X8753540Y4719314D03*
G01X8645983Y4719314D03*
G01X7791979Y5262993D03*
G01X7790979Y5182993D03*
G01X7789979Y5102993D03*
G01X5012997Y5121999D03*
G01X5012997Y5204999D03*
G01X5006858Y4512485D03*
G01X5006858Y4640792D03*
G01X4935022Y5204999D03*
G01X4935022Y5121999D03*
G01X6897042Y5700915D03*
G01X5919393Y5700915D03*
G01X6701512Y5700915D03*
G01X5332804Y5700915D03*
G01X6310453Y5700915D03*
G01X5723864Y5700915D03*
G01X6505983Y5700915D03*
G01X5528334Y5700915D03*
G01X6114923Y5700915D03*
G01X6899180Y5575929D03*
G01X5921531Y5575929D03*
G01X6703650Y5575929D03*
G01X5334942Y5575929D03*
G01X6312591Y5575929D03*
G01X5726002Y5575929D03*
G01X6508121Y5575929D03*
G01X5530472Y5575929D03*
G01X6117061Y5575929D03*
G01X6905986Y3418997D03*
G01X5928337Y3418997D03*
G01X6710456Y3418997D03*
G01X5341748Y3418997D03*
G01X6319397Y3418997D03*
G01X5537278Y3418997D03*
G01X6514927Y3418997D03*
G01X5732807Y3418997D03*
G01X6123867Y3418997D03*
G01X6908124Y3294011D03*
G01X5930475Y3294011D03*
G01X6712594Y3294011D03*
G01X5343886Y3294011D03*
G01X6321534Y3294011D03*
G01X5539415Y3294011D03*
G01X6517064Y3294011D03*
G01X5734945Y3294011D03*
G01X6126005Y3294011D03*
G01X6908124Y3163835D03*
G01X5930475Y3163835D03*
G01X6712594Y3163835D03*
G01X5343886Y3163835D03*
G01X6321534Y3163835D03*
G01X5539415Y3163835D03*
G01X6517064Y3163835D03*
G01X7101992Y4892000D03*
G01X5692995Y4891000D03*
G01X7624985Y4812990D03*
G01X5692995Y4820000D03*
G01X6899180Y5445753D03*
G01X5921531Y5445753D03*
G01X6703650Y5445753D03*
G01X5334942Y5445753D03*
G01X6312591Y5445753D03*
G01X5530472Y5445753D03*
G01X6508121Y5445753D03*
G01X5726002Y5445753D03*
G01X6117061Y5445753D03*
G01X6370519Y5339667D03*
G01X5881427Y5339667D03*
G01X6125973Y5339667D03*
G01X5269444Y4764000D03*
G01X6972993Y4764000D03*
G01X5692995Y4749000D03*
G01X6997679Y4258485D03*
G01X5686995Y4204014D03*
G01X5258996Y4385001D03*
G01X5259996Y4260001D03*
G01X5256026Y4006009D03*
G01X7023993Y4005002D03*
G01X7016986Y4646991D03*
G01X7016492Y4512485D03*
G01X5295996Y5130999D03*
G01X8388983Y3430993D03*
G01X7101839Y4970000D03*
G01X7015993Y4970000D03*
G01X7016492Y4892246D03*
G01X5686995Y4133014D03*
G01X6569987Y4129992D03*
G01X5734945Y3163835D03*
G01X6126005Y3163835D03*
G01X6579987Y3785992D03*
G01X6364124Y3547677D03*
G01X5875032Y3547677D03*
G01X6119578Y3547677D03*
G01X8122978Y3741288D03*
G01X7821007Y3968002D03*
G01X8138006Y4137001D03*
G01X7962006Y4137001D03*
G01X7494452Y3595557D03*
G01X7358985Y3601993D03*
G01X7754970Y4610982D03*
G01X8161969Y4615982D03*
G01X7965970Y4536982D03*
G01X5686995Y4062014D03*
G01X8719983Y3248994D03*
G01X8640983Y3248994D03*
G01X9527981Y3288993D03*
G01X10168980Y3273993D03*
G01X10169976Y2868361D03*
G01X10308979Y2999994D03*
G01X9329981Y3417993D03*
G01X7102214Y5340725D03*
G01X7144986Y5562989D03*
G01X6984986Y5938988D03*
G01X8399998Y3269000D03*
G01X7742985Y3424993D03*
G01X7869984Y3424993D03*
G01X7621985Y3577993D03*
G01X6691987Y3649993D03*
G01X7760984Y4911990D03*
G01X8337145Y4483009D03*
G01X10675979Y2811994D03*
G01X10464979Y2883994D03*
G01X8841851Y-1006820D03*
G01X8853093Y-344033D03*
G01X5035990Y-145882D03*
G01X5246990Y-1156880D03*
G01X5128990Y-811998D03*
G01X5128990Y-611999D03*
G01X6940321Y355235D03*
G01X7702321Y355235D03*
G01X7187821Y917493D03*
G01X6772822Y917493D03*
G01X6767002Y780998D03*
G01X7437820Y1022721D03*
G01X7593985Y1023998D03*
G01X7859984Y911998D03*
G01X5509824Y-909503D03*
G01X5513824Y-470504D03*
G01X5972823Y-447504D03*
G01X6122823Y-447504D03*
G01X6197823Y-62505D03*
G01X7701820Y-229504D03*
G01X5726824Y-195505D03*
G01X5832988Y-182000D03*
G01X6270987Y-182000D03*
G01X7512820Y-1177503D03*
G01X7652820Y-1007503D03*
G01X7332820Y-1177503D03*
G01X6576822Y-909503D03*
G01X6939821Y-229504D03*
G01X6365822Y-195505D03*
G01X6579822Y-471504D03*
G01X7073001Y-878998D03*
G01X6812002Y-879998D03*
G01X7372831Y-1007503D03*
G01X6935002Y-606999D03*
G01X13314974Y502999D03*
G01X13054975Y501999D03*
G01X14002972Y839998D03*
G01X14250008Y1500001D03*
G01X7993984Y2503995D03*
G01X8250983Y2503995D03*
G01X11565977Y2740995D03*
G01X11821976Y2740995D03*
G01X11060978Y2740995D03*
G01X7486985Y2503995D03*
G01X7241986Y2213996D03*
G01X7145649Y2067992D03*
G01X10730006Y2280001D03*
G01X10826978Y2396995D03*
G01X10516529Y1577443D03*
G01X10021980Y1039998D03*
G01X8924982Y1265997D03*
G01X9350005Y720000D03*
G01X8795982Y1132998D03*
G01X9344981Y1656997D03*
G01X9772980Y1144998D03*
G01X9318971Y4574833D03*
G01X9206471Y4575833D03*
G01X9093971Y4578833D03*
G01X8896982Y852998D03*
G01X9759980Y1701997D03*
G01X10290006Y590000D03*
G01X9580981Y-132000D03*
G01X10930006Y660000D03*
G01X10822740Y386506D03*
G01X9951452Y-315711D03*
G01X9682383Y-219335D03*
G01X10159980Y486999D03*
G01X10028980Y370999D03*
G01X10085980Y425999D03*
G01X7614985Y2095996D03*
G01X7742985Y2095996D03*
G01X7870984Y2095996D03*
G01X7773984Y5544989D03*
G01X6569987Y4039995D03*
G01X6508928Y3978936D03*
G01X11215978Y2301995D03*
G01X11311977Y2301995D03*
G01X11438977Y2301995D03*
G01X10092980Y842998D03*
G01X10082980Y717999D03*
G01X9965980Y297999D03*
G01X8672983Y-1013000D03*
G01X8688034Y-355813D03*
G01X9863808Y1976641D03*
G01X8959982Y-733001D03*
G01X8979982Y-71999D03*
G01X9464981Y816998D03*
G01X9934980Y-748999D03*
G01X9890980Y926998D03*
G01X9370981Y54000D03*
G01X9437981Y-25000D03*
G01X13123974Y-167000D03*
G01X9412981Y2690995D03*
G01X9036982Y447999D03*
G01X9081982Y373999D03*
G01X9393981Y605999D03*
G01X9164982Y312999D03*
G01X9463981Y541999D03*
G01X9240005Y250000D03*
G01X9532981Y468999D03*
G01X12769974Y1137998D03*
G01X12769974Y883998D03*
G01X12335975Y867998D03*
G01X12506975Y-468999D03*
G01X12518975Y-596999D03*
G01X12504975Y-850998D03*
G01X12445975Y1175998D03*
G01X9291981Y142000D03*
G01X9324034Y2688995D03*
G01X9235087Y2688995D03*
G01X14362971Y4755991D03*
G01X14812971Y4755991D03*
G01X14512971Y4755991D03*
G01X14662971Y4755991D03*
G01X14056971Y4125992D03*
G01X14662971Y4605991D03*
G01X14212971Y4755991D03*
G01X14812971Y4605991D03*
G01X14056971Y3975992D03*
G01X14212971Y4605991D03*
G01X14362971Y4605991D03*
G01X14512971Y4605991D03*
G01X14056971Y3825992D03*
G01X14212971Y4455991D03*
G01X14362971Y4455991D03*
G01X14512971Y4455991D03*
G01X14662971Y4455991D03*
G01X14812971Y4455991D03*
G01X14180972Y5541989D03*
G01X14030972Y5541989D03*
G01X14304971Y5538989D03*
G01X14304971Y5688989D03*
G01X14030972Y5691989D03*
G01X14030972Y5841989D03*
G01X14304971Y5838989D03*
G01X14180972Y5841989D03*
G01X14180972Y5691989D03*
G01X4162857Y4063068D03*
G01X4312857Y4063068D03*
G01X4462857Y4063068D03*
G01X4612857Y4063068D03*
G01X4762857Y4063068D03*
G01X4762857Y4213068D03*
G01X4762857Y4363068D03*
G01X4612857Y4363068D03*
G01X4612857Y4213068D03*
G01X4462857Y4213068D03*
G01X4462857Y4363068D03*
G01X4312857Y4363068D03*
G01X4312857Y4213068D03*
G01X4162857Y4213068D03*
G01X4162857Y4363068D03*
G01X4812990Y5658989D03*
G01X4962990Y5658989D03*
G01X4962990Y5508989D03*
G01X4812990Y5508989D03*
G01X4662990Y5508989D03*
G01X4662990Y5658989D03*
G01X9470160Y1788720D03*
G01X10394324Y1706714D03*
G01X10112980Y1607997D03*
G01X9933980Y1112998D03*
G01X9871980Y1176998D03*
G01X10179980Y1799996D03*
G01X10352979Y1857996D03*
G01X10150000Y4700000D03*
G01X10153546Y4810059D03*
G01X10160980Y4924990D03*
G01X10293979Y4840990D03*
G01X10290922Y4947435D03*
G01X10300979Y5082990D03*
G01X10438979Y4978990D03*
G01X10436962Y5093476D03*
G01X10434979Y5200990D03*
G01X10572979Y5103990D03*
G01X10574364Y5200990D03*
G01X10575979Y5289989D03*
G01X10685979Y5113990D03*
G01X10686979Y5286989D03*
G01X9689246Y5635173D03*
G01X11180978Y5886988D03*
G01X11024978Y5886988D03*
G01X10868978Y5886988D03*
G01X10858978Y25000D03*
G01X10776978Y-182000D03*
G01X10617979Y558999D03*
G01X11870976Y1696997D03*
G01X11738835Y1100024D03*
G01X12151375Y1099996D03*
G01X12164976Y1449997D03*
G01X11657977Y1470997D03*
G01X11484977Y702999D03*
G01X11695977Y384999D03*
G01X11586977Y785998D03*
G01X11717977Y651999D03*
G54D87*
G01X12615975Y4027992D03*
G01X12618975Y4127992D03*
G01X12615975Y4227992D03*
G01X12615975Y4326460D03*
G01X12615975Y4427991D03*
G01X12615975Y4527991D03*
G01X12615975Y4627991D03*
G01X12615975Y4727991D03*
G01X12615975Y4827990D03*
G01X12615975Y4927990D03*
G01X12715975Y4027979D03*
G01X12718974Y4127979D03*
G01X12715975Y4227979D03*
G01X12715975Y4326447D03*
G01X12715975Y4427978D03*
G01X12715975Y4527978D03*
G01X12715975Y4627978D03*
G01X12715975Y4727978D03*
G01X12715975Y4827978D03*
G01X12715975Y4927977D03*
G01X12815974Y4027979D03*
G01X12818974Y4127979D03*
G01X12815974Y4227979D03*
G01X12815974Y4326447D03*
G01X12815974Y4427978D03*
G01X12815974Y4527978D03*
G01X12815974Y4627978D03*
G01X12815974Y4727978D03*
G01X12815974Y4827978D03*
G01X12815974Y4927977D03*
G01X12915961Y4027979D03*
G01X12918961Y4127979D03*
G01X12915961Y4227979D03*
G01X12915961Y4326447D03*
G01X12915961Y4427978D03*
G01X12915961Y4527978D03*
G01X12915961Y4627978D03*
G01X12915961Y4727978D03*
G01X12915961Y4827978D03*
G01X12915961Y4927977D03*
G01X6278998Y4897999D03*
G01X6275998Y4798000D03*
G01X6278998Y4698000D03*
G01X6278998Y4599532D03*
G01X6278998Y4498000D03*
G01X6278998Y4398000D03*
G01X6278998Y4298001D03*
G01X6278998Y4198001D03*
G01X6278998Y4098001D03*
G01X6278998Y3998001D03*
G01X6178998Y4898012D03*
G01X6175999Y4798012D03*
G01X6178998Y4698012D03*
G01X6178998Y4599544D03*
G01X6178998Y4498013D03*
G01X6178998Y4398013D03*
G01X6178998Y4298013D03*
G01X6178998Y4198013D03*
G01X6178998Y4098014D03*
G01X6178998Y3998014D03*
G01X6078999Y4898012D03*
G01X6075999Y4798012D03*
G01X6078999Y4698012D03*
G01X6078999Y4599544D03*
G01X6078999Y4498013D03*
G01X6078999Y4398013D03*
G01X6078999Y4298013D03*
G01X6078999Y4198013D03*
G01X6078999Y4098014D03*
G01X6078999Y3998014D03*
G01X5979011Y4898012D03*
G01X5976012Y4798012D03*
G01X5979011Y4698012D03*
G01X5979011Y4599544D03*
G01X5979011Y4498013D03*
G01X5979011Y4398013D03*
G01X5979011Y4298013D03*
G01X5979011Y4198013D03*
G01X5979011Y4098014D03*
G01X5979011Y3998014D03*
G04 Via End*

G04 Track Start*
G54D88*
G01X10191984Y2107007D02*
G01X10032602Y2107007D01*
G01X10030421Y2104827D01*
G54D11*
G01X10166476Y2255499D02*
G01X10030421Y2255499D01*
G01X10166984Y2256007D02*
G01X10166476Y2255499D01*
G01X9694324Y2312316D02*
G01X9693993Y2311985D01*
G54D88*
G01X9868987Y2254988D02*
G01X9750991Y2254988D01*
G01X9693993Y2311985D01*
G54D89*
G01X9685014Y2053009D02*
G01X9808954Y2053009D01*
G54D11*
G01X11224995Y1120495D02*
G01X10985000Y1121335D01*
G01X11354532Y990049D02*
G01X11224995Y1120495D01*
G01X10985000Y1121335D02*
G01X10924790Y1061545D01*
G01X11354392Y950040D02*
G01X11354532Y990049D01*
G01X10924790Y1061545D02*
G01X10900216Y1086292D01*
G01X10744878Y1086836D01*
G01X11085451Y1250979D02*
G01X10925455Y1251539D01*
G01X11115569Y1280887D02*
G01X11085451Y1250979D01*
G01X10925455Y1251539D02*
G01X10910743Y1236929D01*
G01X11115813Y1350876D02*
G01X11115569Y1280887D01*
G01X10910743Y1236929D02*
G01X10745405Y1237507D01*
G01X10947139Y1483570D02*
G01X11036274Y1483258D01*
G01X10914896Y1451552D02*
G01X10947139Y1483570D01*
G01X10914651Y1381555D02*
G01X10914896Y1451552D01*
G01X11036274Y1483258D02*
G01X11224151Y1482601D01*
G01X11355791Y1350036D01*
G01X10952665Y821444D02*
G01X11033950Y821160D01*
G01X10924051Y850258D02*
G01X10952665Y821444D01*
G01X10924301Y921541D02*
G01X10924051Y850258D01*
G01X11033950Y821160D02*
G01X11114239Y900889D01*
G01X11114414Y950879D01*
G54D88*
G01X12826070Y-681135D02*
G01X12826070Y-640135D01*
G01X12785070Y-599135D01*
G01X12781070Y-726135D02*
G01X12826070Y-681135D01*
G01X12785070Y-599135D02*
G01X12682829Y-599135D01*
G01X12682829Y-726135D02*
G01X12781070Y-726135D01*
G54D90*
G01X13268973Y-960998D02*
G01X13268973Y-884798D01*
G01X13237311Y-853135D01*
G01X12824976Y-297999D02*
G01X12972429Y-297999D01*
G01X12973066Y-298636D01*
G54D89*
G01X13497972Y-787878D02*
G01X13567188Y-718662D01*
G01X13701973D01*
G01X13577187Y-571335D02*
G01X13701973Y-571335D01*
G01X13539309Y-970998D02*
G01X13539309Y-829216D01*
G01X13497972Y-787878D01*
G01X13537309Y-318999D02*
G01X13537309Y-452783D01*
G01X13497972Y-492120D01*
G01X13388637Y-970998D02*
G01X13278973Y-970998D01*
G01X13268973Y-960998D01*
G01X13386637Y-318999D02*
G01X13386637Y-404255D01*
G01X13319409Y-471483D01*
G01X13229238D01*
G01X13116998Y-300983D02*
G01X13197958Y-300983D01*
G01X13229238Y-332264D01*
G01Y-471483D01*
G01X14521971Y-391999D02*
G01X14169080Y-391999D01*
G01X14000473Y-560606D01*
G01X13942972D01*
G01X14521971Y-891998D02*
G01X14389366Y-759394D01*
G01X13942972Y-560606D02*
G01X13863352Y-480986D01*
G01X13765173D01*
G01X13704849Y-420663D01*
G01X13701973D01*
G01X13701973Y-869335D02*
G01X13744636Y-869335D01*
G01X13854577Y-759394D01*
G54D11*
G01X13754972Y-223000D02*
G01X13814972Y-163000D01*
G01X13918972D01*
G01X13942972Y-187000D01*
G01Y-305387D01*
G01X13940971Y-1014613D02*
G01X13940971Y-1113998D01*
G01X13719973D01*
G01X11795007Y4744999D02*
G01X11795007Y4747197D01*
G01X11799007Y4854999D02*
G01X11799007Y4815197D01*
G01X11809160Y3958001D02*
G01X11809160Y4035848D01*
G01X11795007Y4747197D02*
G01X11831007Y4783197D01*
G01X11795007Y4744999D02*
G01X11831007Y4780999D01*
G01X11817007Y4036001D02*
G01X11809007Y4036001D01*
G01X11799007Y4815197D02*
G01X11831007Y4783197D01*
G01X11831007Y4780999D02*
G01X11831007Y4783197D01*
G01X11845809Y4797999D01*
G01X11895006Y3958001D02*
G01X11809160Y3958001D01*
G01X11894260Y4036001D02*
G01X11817007Y4036001D01*
G01X11895006Y3958001D02*
G01X11817007Y4036001D01*
G01X11919006Y4797999D02*
G01X11845809Y4797999D01*
G01X11894506Y4035754D02*
G01X11894260Y4036001D01*
G01X11895006Y4035255D02*
G01X11894507Y4035754D01*
G01X11895006Y3958001D02*
G01X11895006Y4035255D01*
G01X11887006Y4922999D02*
G01X12119741Y4922999D01*
G01X12119018Y4035754D02*
G01X11894507Y4035754D01*
G01X11894507Y4415515D02*
G01X12120257Y4415515D01*
G01X11894507Y4288515D02*
G01X12120257Y4288515D01*
G54D90*
G01X12120257Y4669515D02*
G01X11913320Y4669515D01*
G54D11*
G01X12118773Y4797999D02*
G01X11919006Y4797999D01*
G01X11938006Y4164000D02*
G01X12117772Y4164000D01*
G01X12120257Y4161515D01*
G01X12120257Y4796515D02*
G01X12118773Y4797999D01*
G01X12120257Y4034515D02*
G01X12119018Y4035754D01*
G01X12119741Y4922999D02*
G01X12120257Y4923515D01*
G01X12613501Y5050515D02*
G01X12120257Y5050515D01*
G01X12635026Y5028990D02*
G01X12613501Y5050515D01*
G01X12635026Y4929014D02*
G01X12635026Y5028990D01*
G01X12935013Y4929002D02*
G01X12935013Y4977007D01*
G01X13008521Y5050515D01*
G01X13220489Y4034515D02*
G01X13218004Y4037000D01*
G01X13224004Y4723986D02*
G01X13224004Y4794986D01*
G01X13224004Y4865986D02*
G01X13224004Y4794986D01*
G01X13225533Y4796515D02*
G01X13224004Y4794986D01*
G01X13008521Y5050515D02*
G01X13449795Y5050515D01*
G54D91*
G01X13450279Y4543000D02*
G01X13449795Y4542515D01*
G54D90*
G01X13451311Y4667999D02*
G01X13449795Y4669515D01*
G54D11*
G01X13451318Y4921992D02*
G01X13449795Y4923515D01*
G01X13449795Y4161515D02*
G01X13639070Y4161515D01*
G54D91*
G01X13652003Y4543000D02*
G01X13450279Y4543000D01*
G54D90*
G01X13651003Y4667999D02*
G01X13451311Y4667999D01*
G54D11*
G01X13654973Y4921992D02*
G01X13451318Y4921992D01*
G01X13615003Y3797001D02*
G01X13624003Y3806001D01*
G01X13615003Y3797001D02*
G01X13648003Y3797001D01*
G01X13586488Y4034515D02*
G01X13691517Y4034515D01*
G01X13639070Y4161515D02*
G01X13641555Y4164000D01*
G01X13624003Y3806001D02*
G01X13657003Y3806001D01*
G01X13648003Y3797001D02*
G01X13657003Y3806001D01*
G01X13736003Y3885001D02*
G01X13586488Y4034515D01*
G54D91*
G01X13449795Y4288515D02*
G01X13902834Y4288515D01*
G01X13449795Y4415515D02*
G01X13904141Y4415515D01*
G54D11*
G01X13691517Y4034515D02*
G01X13692003Y4035001D01*
G01X13695487Y4796515D02*
G01X13696003Y4795999D01*
G01X13657003Y3806001D02*
G01X13736003Y3885001D01*
G01X13898002Y3806001D02*
G01X13657003Y3806001D01*
G01X13900002Y3930001D02*
G01X13900002Y3808001D01*
G54D91*
G01X13902834Y4288515D02*
G01X13904141Y4287208D01*
G54D11*
G01X13898002Y3806001D02*
G01X13975977Y3806001D01*
G01X13695487Y4796515D02*
G01X13225533Y4796515D01*
G01X13586488Y4034515D02*
G01X13220489Y4034515D01*
G01X5156000Y1576005D02*
G01X5160000Y1580005D01*
G01X5025955Y1576005D02*
G01X5156000Y1576005D01*
G54D89*
G01X5618882Y1582020D02*
G01X5740956Y1582020D01*
G01X5613722Y2030001D02*
G01X5740001Y2030001D01*
G01X5047138Y2030001D02*
G01X5166087Y2030001D01*
G01X5046132Y2031007D02*
G01X5047138Y2030001D01*
G01X5057559Y2600005D02*
G01X5179997Y2600005D01*
G01X6164937Y2029993D02*
G01X6290001Y2029993D01*
G01X6172882Y2600009D02*
G01X6300001Y2600009D01*
G01X5618418Y2600001D02*
G01X5740001Y2600001D01*
G01X13135201Y2602991D02*
G01X13263148Y2602991D01*
G01X12550009Y2602991D02*
G01X12680337Y2602991D01*
G01X12556977Y2111980D02*
G01X12684975Y2111980D01*
G01X12685975Y2112980D01*
G01X13805972Y2075996D02*
G01X13803972Y2073996D01*
G01X13670975D01*
G01X13122976Y2108996D02*
G01X13247974Y2108996D01*
G01X13249974Y2110996D01*
G01X12569977Y1601976D02*
G01X12692923Y1601976D01*
G01X12693928Y1602982D01*
G01X13822972Y2604991D02*
G01X13691975Y2604991D01*
G01X13689975Y2602991D01*
G01X13250302Y1604479D02*
G01X13129158Y1604479D01*
G54D11*
G01X11689955Y4349987D02*
G01X11525318Y4349987D01*
G01X11519977Y4355328D01*
G01X12101206Y4541491D02*
G01X11766477Y4541491D01*
G01X11689955Y4464969D02*
G01X11689955Y4349987D01*
G01X11766477Y4541491D02*
G01X11689955Y4464969D01*
G01X11388808Y4073998D02*
G01X11388808Y4289822D01*
G01X11448977Y4349991D01*
G01X11514640D01*
G01X11519977Y4355328D01*
G54D89*
G01X11519977Y4204655D02*
G01X11519977Y4063992D01*
G01X11185978Y3729993D01*
G01Y3479524D01*
G01X11186477Y3479025D01*
G01X11735937Y4164000D02*
G01X11689955Y4209982D01*
G01X11938006Y4164000D02*
G01X11735937Y4164000D01*
G01X11437977Y3654993D02*
G01X11437977Y3481525D01*
G01X11440477Y3479025D01*
G01X11310977Y3656993D02*
G01X11310977Y3481525D01*
G01X11313477Y3479025D01*
G01X11821477Y3479025D02*
G01X11821477Y3777493D01*
G01X11950475Y3906491D01*
G01X12101206D01*
G01X11709313Y3724993D02*
G01X11709313Y3659329D01*
G01X11690977Y3640993D01*
G01Y3482525D01*
G01X11694477Y3479025D01*
G01X11511977Y3834992D02*
G01X11511977Y3771656D01*
G01X11558640Y3724993D01*
G54D11*
G01X10857978Y3997992D02*
G01X10856979Y3998992D01*
G01Y4119003D01*
G01X11031978Y4072992D02*
G01X11031978Y4212990D01*
G01X11034978Y4215991D01*
G01X11152978Y3978992D02*
G01X11228988Y4055002D01*
G01Y4136503D01*
G01X11325980Y4849990D02*
G01X11513486Y4849990D01*
G01X11534987Y4871492D01*
G01X11785976Y5046990D02*
G01X11610478Y4871492D01*
G01X11534987D01*
G01X11228988Y4483493D02*
G01X11362479Y4483493D01*
G01X11403489Y4524503D01*
G01X11534987D01*
G01X10859978Y4490991D02*
G01X10859978Y4410983D01*
G01X11035978Y4490991D02*
G01X11034978Y4489991D01*
G01Y4355995D01*
G01X11176978Y4659991D02*
G01X11219975Y4702988D01*
G01X11330977D01*
G54D89*
G01X10874978Y4624988D02*
G01X10900065Y4624988D01*
G01X11040203Y4765126D01*
G01X11228988Y4483493D02*
G01X11098028Y4614453D01*
G01X11040203D01*
G01X10875006Y4765021D02*
G01X10875006Y4886705D01*
G54D11*
G01X12615975Y4027992D02*
G01X12494474Y3906491D01*
G01X12101206D01*
G01X13430743Y3906491D02*
G01X13146473Y3906491D01*
G01X13090974Y3850992D01*
G01X12765974Y4175992D01*
G01Y4477991D01*
G01X9288995Y5773988D02*
G01X9288995Y5584622D01*
G54D92*
G01X9214423Y5510050D02*
G01X9213487Y5510050D01*
G54D11*
G01X9006983Y5770988D02*
G01X9145990Y5770988D01*
G01X9148990Y5773988D01*
G54D93*
G01X8763983Y5824625D02*
G01X8763983Y5917988D01*
G01X8651484Y5920988D02*
G01X8651484Y5712125D01*
G54D11*
G01X8644993Y5705635D01*
G54D93*
G01X8651484Y5712125D02*
G01X8763983Y5824625D01*
G01X8538984Y5921988D02*
G01X8538984Y5811645D01*
G01X8644993Y5705635D01*
G01X8254097Y5921988D02*
G01X8254097Y5702738D01*
G01X8146541Y5921988D02*
G01X8146541Y5595182D01*
G54D11*
G01X8141994Y5590636D01*
G54D93*
G01X8254097Y5702738D02*
G01X8146541Y5595182D01*
G01X8038985Y5921988D02*
G01X8038985Y5693645D01*
G01X8141994Y5590636D01*
G54D11*
G01X8139984Y4925676D02*
G01X8146474Y4932167D01*
G54D93*
G01X8139984Y4925676D02*
G01X8027485Y4813177D01*
G01X8252484Y4826157D02*
G01X8146474Y4932167D01*
G01X8027485Y4813177D02*
G01X8027485Y4719814D01*
G01X8139984Y4716814D02*
G01X8139984Y4925676D01*
G01X8252484Y4715814D02*
G01X8252484Y4826157D01*
G54D11*
G01X8645983Y5046120D02*
G01X8650530Y5050667D01*
G54D93*
G01X8538427Y4938565D02*
G01X8645983Y5046120D01*
G01X8753540Y4947657D02*
G01X8650530Y5050667D01*
G01X8538427Y4719314D02*
G01X8538427Y4938565D01*
G01X8645983Y4719314D02*
G01X8645983Y5046120D01*
G01X8753540Y4719314D02*
G01X8753540Y4947657D01*
G54D11*
G01X7150980Y5712989D02*
G01X7279229Y5712989D01*
G01X7314982Y5748742D01*
G01X7544979Y5748742D02*
G01X7544979Y5177242D01*
G01X7791979Y5262993D02*
G01X7630730Y5262993D01*
G01X7790979Y5182993D02*
G01X7550730Y5182993D01*
G01X7544979Y5177242D01*
G01X7630730Y5262993D02*
G01X7550730Y5182993D01*
G01X7789979Y5102993D02*
G01X7619229Y5102993D01*
G01X7544979Y5177242D01*
G01X5012997Y5121999D02*
G01X5012997Y5204999D01*
G54D91*
G01X5008165Y4639485D02*
G01X5006858Y4640792D01*
G54D11*
G01X5012997Y5121999D02*
G01X4935022Y5121999D01*
G01Y5204999D01*
G01X7576007Y4723000D02*
G01X7510344Y4723000D01*
G01X6791981Y4892246D02*
G01X7016492Y4892246D01*
G01X5692995Y4891000D02*
G01X5690510Y4893485D01*
G01X7016493Y4892246D02*
G01X7016739Y4892000D01*
G01X7093992Y4892000D02*
G01X7101992Y4892000D01*
G01X7016739Y4892000D02*
G01X7093992Y4892000D01*
G01X5461204Y4766485D02*
G01X5271929Y4766485D01*
G01X6793227Y4764000D02*
G01X6790742Y4766485D01*
G01X5271929Y4766485D02*
G01X5269444Y4764000D01*
G01X6972993Y4764000D02*
G01X6793227Y4764000D01*
G01X7624985Y4812990D02*
G01X7624985Y4771978D01*
G54D90*
G01X5459688Y4260001D02*
G01X5461204Y4258485D01*
G01X6790742Y4258485D02*
G01X6997679Y4258485D01*
G54D11*
G01X7778009Y3925004D02*
G01X7667007Y3925004D01*
G01X5686995Y4204014D02*
G01X5686995Y4133014D01*
G54D91*
G01X5460720Y4385001D02*
G01X5461204Y4385485D01*
G01X5258996Y4385001D02*
G01X5460720Y4385001D01*
G54D90*
G01X5259996Y4260001D02*
G01X5459688Y4260001D01*
G54D11*
G01X5256026Y4006009D02*
G01X5459681Y4006009D01*
G01X5461204Y4004485D01*
G01X7023993Y4005002D02*
G01X6791258Y4005002D01*
G01X6790742Y4004485D01*
G01X5975986Y3998999D02*
G01X5975986Y3950993D01*
G01X6275973Y3998986D02*
G01X6275973Y3899011D01*
G01X5975986Y3950993D02*
G01X5902478Y3877485D01*
G54D91*
G01X5461204Y4639485D02*
G01X5008165Y4639485D01*
G54D11*
G01X7016986Y4646991D02*
G01X6798247Y4646991D01*
G01X7624985Y4771978D02*
G01X7576007Y4723000D01*
G54D91*
G01X5461204Y4512485D02*
G01X5006858Y4512485D01*
G54D11*
G01X7016492Y4512485D02*
G01X6790742Y4512485D01*
G01X5295996Y5130999D02*
G01X5262996Y5130999D01*
G01X5295996Y5130999D02*
G01X5286996Y5121999D01*
G01X5262996Y5130999D02*
G01X5253996Y5121999D01*
G01X5286996Y5121999D02*
G01X5253996Y5121999D01*
G01X5012997Y5121999D02*
G01X5253996Y5121999D01*
G01X7015993Y4970000D02*
G01X7101839Y4970000D01*
G01X6295024Y4900008D02*
G01X6416525Y5021509D01*
G01X7015993Y4970000D02*
G01X7015993Y4892746D01*
G01X7101839Y4970000D02*
G01X7101839Y4892153D01*
G01X7015993Y4970000D02*
G01X7093992Y4892000D01*
G01X6790742Y4893485D02*
G01X6791981Y4892246D01*
G01X7015993Y4892746D02*
G01X7016492Y4892246D01*
G01X5685466Y4131485D02*
G01X5686995Y4133014D01*
G01X5215512Y4131485D02*
G01X5214996Y4132001D01*
G01X5215512Y4131485D02*
G01X5685466Y4131485D01*
G01X6275973Y3899011D02*
G01X6297498Y3877485D01*
G01X6790742D01*
G01X5902478Y3877485D02*
G01X5461204Y3877485D01*
G54D89*
G01X8122978Y3862971D02*
G01X8122978Y3741288D01*
G54D11*
G01X7821007Y3968002D02*
G01X7778009Y3925004D01*
G01X7963006Y4138001D02*
G01X7963006Y4271997D01*
G01X8138006Y4137001D02*
G01X8138006Y4217010D01*
G01X7962006Y4137001D02*
G01X7963006Y4138001D01*
G01X8161963Y4615989D02*
G01X8161963Y4529946D01*
G01X5686995Y4062014D02*
G01X5686995Y4133014D01*
G01X11065978Y3831992D02*
G01X11065978Y3711990D01*
G01X11063980Y3709993D01*
G01X10920978Y3831992D02*
G01X10920978Y3712990D01*
G01X10923976Y3709993D01*
G54D89*
G01X10932477Y3479025D02*
G01X10932477Y3701491D01*
G01X10923976Y3709993D01*
G01X11059477Y3479025D02*
G01X11059477Y3705489D01*
G01X11063980Y3709993D01*
G01X7358985Y3601993D02*
G01X7351450Y3594457D01*
G01Y3470557D01*
G01X7494452Y3595557D02*
G01X7494452Y3473555D01*
G01X7359951Y3252591D02*
G01X7359951Y3462056D01*
G01X7486951Y3252591D02*
G01X7486951Y3466054D01*
G01X8123006Y4003004D02*
G01X8097919Y4003004D01*
G01X7957782Y3862867D01*
G54D11*
G01X5869524Y5021509D02*
G01X5480256Y5021509D01*
G01X6179024Y4531013D02*
G01X6146025Y4498013D01*
G01X6147025Y4698012D02*
G01X6146025Y4697012D01*
G01X9068983Y2795994D02*
G01X9068983Y3042046D01*
G01X9053035Y3057994D01*
G01X9068983Y2795994D02*
G01X9122982Y2795994D01*
G01X9153984Y2826997D01*
G01X9326231D01*
G01X9326231Y3056994D02*
G01X9897731Y3056994D01*
G01X8640983Y3097936D02*
G01X8680925Y3057994D01*
G01X8640983Y3246994D02*
G01X8640983Y3097936D01*
G01X8719983Y3097051D02*
G01X8680925Y3057994D01*
G01X8719983Y3248994D02*
G01X8719983Y3097051D01*
G01X9527981Y3288993D02*
G01X9525978Y3286991D01*
G01X9326231D01*
G01X10168980Y3273993D02*
G01X10168980Y3140996D01*
G01X10169980Y3139996D01*
G01X10169976Y2868361D02*
G01X10169976Y2999988D01*
G01X9897731Y3056994D02*
G01X10037977Y3056994D01*
G01X10094980Y2999991D01*
G01X10169980D01*
G01X10308979Y2999994D02*
G01X10169982Y2999994D01*
G01X9329981Y3417993D02*
G01X9326231Y3414243D01*
G01Y3286991D01*
G01X7461238Y5210990D02*
G01X7519982Y5152245D01*
G01X7544979Y5177242D01*
G01X7102218Y5210741D02*
G01X7102218Y5340721D01*
G01X6984986Y5938988D02*
G01X7064986Y5938988D01*
G01X7150980Y5852994D01*
G01X7144986Y5562989D02*
G01X7144986Y5706995D01*
G01X7150980Y5712989D01*
G54D89*
G01X8123484Y3251025D02*
G01X8123484Y3515777D01*
G01X8138712Y3531005D01*
G54D11*
G01X8399998Y3269000D02*
G01X8268459Y3269000D01*
G01X8250484Y3251025D01*
G54D89*
G01X7869984Y3424993D02*
G01X7869984Y3251525D01*
G01X7869484Y3251025D01*
G01X7742985Y3424993D02*
G01X7742985Y3251525D01*
G01X7742484Y3251025D01*
G01X7621985Y3577993D02*
G01X7621985Y3257526D01*
G01X7615484Y3251025D01*
G54D11*
G01X7461238Y5210990D02*
G01X7249988Y5210990D01*
G01X8161963Y4529946D02*
G01X8141006Y4508989D01*
G01X7754970Y4610982D02*
G01X7754970Y4498982D01*
G01X7747477Y4491489D01*
G54D89*
G01X7965970Y4536982D02*
G01X7961033Y4532045D01*
G01Y4417000D01*
G54D11*
G01X6798247Y4646991D02*
G01X6790742Y4639485D01*
G01X6972993Y4764000D02*
G01X7128995Y4764000D01*
G01X7228989Y4863994D02*
G01X7324034Y4863994D01*
G01X7128995Y4764000D02*
G01X7228989Y4863994D01*
G54D89*
G01X8277359Y3522008D02*
G01X8372968Y3522008D01*
G01X8388983Y3505993D01*
G01Y3430993D01*
G54D11*
G01X7952033Y4018340D02*
G01X7820875Y4149498D01*
G01X7757023D01*
G01X7541691Y4911990D02*
G01X7499034Y4869333D01*
G01X7760984Y4911990D02*
G01X7541691Y4911990D01*
G01X7499034Y4718660D02*
G01X7329363Y4718660D01*
G01X7324034Y4723989D01*
G54D89*
G01X11067980Y2285995D02*
G01X11059477Y2294499D01*
G01Y2528963D01*
G01X10932477Y2528963D02*
G01X10932477Y2290497D01*
G01X10927976Y2285995D01*
G01X7361484Y2300964D02*
G01X7361484Y2075498D01*
G01X7353983Y2067996D01*
G54D11*
G01X5979016Y4898017D02*
G01X5870524Y5006509D01*
G01X6145025Y4464009D02*
G01X6145025Y4450009D01*
G01X6179024Y4498009D02*
G01X6145025Y4464009D01*
G01X5870524Y5006509D02*
G01X5870524Y5021509D01*
G01X6416525Y5021509D02*
G01X6809793Y5021509D01*
G01X6179024Y4599544D02*
G01X6179024Y4531013D01*
G01X6078999Y4778035D02*
G01X6179021Y4678012D01*
G01X6179024Y4599544D02*
G01X6179024Y4664013D01*
G01X6078999Y4898013D02*
G01X6078999Y4818035D01*
G01X6099021Y4798013D01*
G01X5979021Y4897990D02*
G01X6078999Y4798013D01*
G01X6078999Y4818035D02*
G01X6078999Y4798013D01*
G01Y4778035D01*
G54D10*
G01X9158981Y3766992D02*
G01X9158981Y3674992D01*
G01X9044982Y3560993D01*
G01Y3066047D01*
G01X9053035Y3057994D01*
G01X10675979Y2811994D02*
G01X10675979Y2952994D01*
G01X10673979Y2954994D01*
G54D11*
G01X10673979Y3154994D02*
G01X10671032Y3157940D01*
G01X10464631D01*
G01X10464979Y2883994D02*
G01X10464979Y2997710D01*
G01X10465317Y2998047D01*
G01X8928978Y2795994D02*
G01X8762982Y2795994D01*
G01X8680925Y2878052D01*
G01Y3057994D01*
G01X8614308Y-937224D02*
G01X8494907Y-937224D01*
G01X8675544Y-735004D02*
G01X8623764Y-683225D01*
G01X8495114D01*
G01X8840851Y-1005820D02*
G01X8840851Y-888157D01*
G01X8841851Y-1006820D02*
G01X8840851Y-1005820D01*
G01X8688030Y-71006D02*
G01X8640024Y-23000D01*
G01X8495010D01*
G01X8688030Y-211011D02*
G01X8622041Y-277000D01*
G01X8495010D01*
G01X8853093Y-229130D02*
G01X8853093Y-344033D01*
G54D89*
G01X14389366Y-759394D02*
G01X13940971Y-759394D01*
G01X13854577D01*
G54D11*
G01X5035990Y-145882D02*
G01X5035990Y-340182D01*
G01X5038343Y-342535D01*
G01X5246990Y-1156880D02*
G01X5155598Y-1065488D01*
G01X5038341D01*
G54D94*
G01X5554824Y-189841D02*
G01X5721160Y-189841D01*
G54D11*
G01X6579822Y-476504D02*
G01X6579822Y-366975D01*
G01X5513824Y-470504D02*
G01X5514312Y-470016D01*
G01Y-366512D01*
G01X6579822Y-366975D02*
G01X6579334Y-366487D01*
G54D94*
G01X5721160Y-189841D02*
G01X5726824Y-195505D01*
G01X5922823Y-317487D02*
G01X5921830Y-318481D01*
G54D90*
G01X7321321Y-246502D02*
G01X7321321Y-359536D01*
G01X7293321Y-218502D02*
G01X7321321Y-246502D01*
G01X7222321Y-218502D02*
G01X7293321Y-218502D01*
G01X7194321Y-246502D02*
G01X7222321Y-218502D01*
G01X5806824Y-299979D02*
G01X5806824Y-208505D01*
G01X7701820Y-229504D02*
G01X7701820Y-359035D01*
G01X7702321Y-359536D01*
G01X6939821Y-229504D02*
G01X6939821Y-359037D01*
G01X6940321Y-359536D01*
G01X7575321Y-409536D02*
G01X7575321Y-558004D01*
G01X7586820Y-569504D01*
G01X7448321Y-409536D02*
G01X7448321Y-545003D01*
G01X7430820Y-562504D01*
G01X6827821Y-607501D02*
G01X6813321Y-599501D01*
G54D11*
G01X5509801Y-909527D02*
G01X5509801Y-791038D01*
G01X6576822Y-902503D02*
G01X6576822Y-789039D01*
G01X5509801Y-791038D02*
G01X5514312Y-786527D01*
G01X6576822Y-789039D02*
G01X6579332Y-786529D01*
G01X7073001Y-878998D02*
G01X7073001Y-755687D01*
G01X6812002Y-879998D02*
G01X6812002Y-756326D01*
G01X6812822Y-755506D01*
G54D90*
G01X7586820Y-569504D02*
G01X7586820Y-643179D01*
G01X7587809Y-644168D01*
G01X7430820Y-562504D02*
G01X7430820Y-643179D01*
G01X7431810Y-644168D01*
G01X7512820Y-1177503D02*
G01X7512820Y-1107503D01*
G54D89*
G01X7472815Y-1007503D02*
G01X7472815Y-947498D01*
G01X7432820Y-907503D01*
G01Y-795852D01*
G01X7431810Y-794841D01*
G01X7552825Y-1007503D02*
G01X7552825Y-952498D01*
G01X7592820Y-912503D01*
G54D90*
G01X7187818Y917496D02*
G01X7067821Y917496D01*
G01X7067821Y777491D02*
G01X7153818Y777491D01*
G01X7154821Y778493D01*
G01X6772822Y917493D02*
G01X6882763Y917493D01*
G01X6767002Y780998D02*
G01X6869319Y780998D01*
G01X6887821Y782491D02*
G01X7062821Y782491D01*
G01X7067821Y777491D01*
G01X7437820Y1022721D02*
G01X7437820Y913769D01*
G01X5726824Y-305974D02*
G01X5726824Y-195505D01*
G01X6365822Y-199505D02*
G01X6365822Y-306974D01*
G01X6940321Y355235D02*
G01X6940321Y540526D01*
G01X7702321Y355235D02*
G01X7702321Y540526D01*
G01X7321321Y540526D02*
G01X7321321Y395994D01*
G01X7307821Y382494D01*
G01X7217821D01*
G01X7194321Y405994D01*
G01X7067821Y777491D02*
G01X7067821Y541026D01*
G01X7067321Y540526D01*
G01X6812822Y541025D02*
G01X6813321Y540526D01*
G01X7447820Y541026D02*
G01X7448321Y540526D01*
G01X7575321Y540526D02*
G01X7572820Y543026D01*
G01X7154821Y778493D02*
G01X7194321Y738994D01*
G01X6877824Y722496D02*
G01X6812822Y657494D01*
G01X7572820Y671952D02*
G01X7593253Y692385D01*
G01Y763096D01*
G01X7437820Y687494D02*
G01X7447820Y677494D01*
G01X6882763Y917493D02*
G01X6887821Y922552D01*
G54D11*
G01X7859984Y911998D02*
G01X7753652Y911998D01*
G01X7752820Y762157D02*
G01X7594192Y762157D01*
G01X7593253Y763096D01*
G54D94*
G01X6122823Y-442504D02*
G01X6122823Y-319475D01*
G01X6121829Y-318481D01*
G01X5827487Y-39168D02*
G01X5922823Y-134505D01*
G01Y-317487D01*
G54D89*
G01X7592820Y-912503D02*
G01X7592820Y-799852D01*
G01X7587809Y-794841D01*
G54D11*
G01X7332820Y-1177503D02*
G01X7262821Y-1177503D01*
G01X7187831Y-1102513D01*
G01X7052834D01*
G54D89*
G01X7652820Y-1007503D02*
G01X7552825Y-1007503D01*
G54D94*
G01X5971817Y-318481D02*
G01X5971817Y-446498D01*
G01X5972823Y-447504D01*
G01X6071817Y-318481D02*
G01X6071817Y-397511D01*
G01X6030823Y-438504D01*
G01X5981823D01*
G01X5972823Y-447504D01*
G54D11*
G01X6742832Y-1102513D02*
G01X6832819Y-1102513D01*
G01X6702822Y-122505D02*
G01X6702822Y-1062503D01*
G01X6742832Y-1102513D01*
G54D94*
G01X6221829Y-318481D02*
G01X6221829Y-246980D01*
G01X6014017Y-39168D01*
G01X5827487D01*
G54D90*
G01X5806824Y-208505D02*
G01X5832823Y-182505D01*
G01X6272823Y-187505D02*
G01X6272823Y-216969D01*
G01X6286734Y-303900D02*
G01X6287823Y-304989D01*
G01X6286734Y-230880D02*
G01X6286734Y-303900D01*
G01X6272823Y-216969D02*
G01X6286734Y-230880D01*
G54D94*
G01X5554824Y-39168D02*
G01X5827487Y-39168D01*
G54D11*
G01X6463159Y-62505D02*
G01X6642822Y-62505D01*
G01X6702822Y-122505D01*
G54D89*
G01X7372831Y-1007503D02*
G01X7472815Y-1007503D01*
G54D11*
G01X6934999Y-606996D02*
G01X6828326Y-606996D01*
G54D90*
G01X7194321Y-562504D02*
G01X7194321Y-246502D01*
G54D94*
G01X6121829Y-318481D02*
G01X6121829Y-240825D01*
G01X6098820Y-217816D01*
G01X6043297D01*
G01X6021829Y-239284D01*
G01Y-318481D01*
G54D11*
G01X6828326Y-606996D02*
G01X6827821Y-606491D01*
G54D90*
G01X7128826Y-627999D02*
G01X7194321Y-562504D01*
G01X7104318Y-627999D02*
G01X7128826Y-627999D01*
G01X7067321Y-591001D02*
G01X7104318Y-627999D01*
G01X7067321Y-359536D02*
G01X7067321Y-591001D01*
G54D11*
G01X7073001Y-755687D02*
G01X7072821Y-755506D01*
G54D90*
G01X7194321Y405994D02*
G01X7194321Y738994D01*
G54D95*
G01X14523970Y3357993D02*
G01X14650971Y3484994D01*
G01X14299044Y3357993D02*
G01X14523970Y3357993D01*
G01X14343972Y3484994D02*
G01X14396971Y3484994D01*
G01X13758972Y2899994D02*
G01X14343972Y3484994D01*
G01X14332972Y3230994D02*
G01X14396971Y3230994D01*
G01X12566316Y2765994D02*
G01X12658975Y2765994D01*
G01X12792974Y2899994D01*
G01X13758972D01*
G01X13134310Y2766988D02*
G01X13246967Y2766988D01*
G01X14650971Y3230994D02*
G01X14519979Y3100002D01*
G01X12670981Y2280001D02*
G01X12575343Y2280001D01*
G01X13137315Y2282013D02*
G01X13239992Y2282013D01*
G01X13960972Y2512995D02*
G01X13960972Y2680995D01*
G01X14519979Y3100002D02*
G01X14312049Y3100002D01*
G01X13912966Y2700919D01*
G01Y2532880D01*
G01X13960972Y2680995D02*
G01X14256971Y2976994D01*
G01X14396971D01*
G01X14650971Y2976994D02*
G01X14519971Y2845994D01*
G01X13697313Y2246996D02*
G01X13695339Y2245021D01*
G01X14519971Y2845994D02*
G01X14193862Y2845994D01*
G01X14008978Y2661110D01*
G01Y2414001D01*
G01X13841972Y2246996D01*
G01X13697313D01*
G01X12575348Y1771994D02*
G01X12652000Y1771994D01*
G01X14239971Y2722994D02*
G01X14396971Y2722994D01*
G01X14060972Y2543995D02*
G01X14239971Y2722994D01*
G01X14060972Y2386995D02*
G01X14060972Y2543995D01*
G01X13887972Y2037966D02*
G01X13887972Y2213995D01*
G01X14060972Y2386995D01*
G01X14650971Y2722994D02*
G01X14521972Y2593995D01*
G01X12652000Y1771994D02*
G01X12749002Y1868996D01*
G01X13719003D01*
G01X13887972Y2037966D01*
G01X13947972Y2030036D02*
G01X13690938Y1773001D01*
G01X13145338D01*
G01X13947972Y2206105D02*
G01X13947972Y2030036D01*
G01X14521972Y2593995D02*
G01X14178862Y2593995D01*
G01X14108978Y2524110D01*
G01Y2367110D01*
G01X13947972Y2206105D01*
G54D89*
G01X13463264Y1010500D02*
G01X13699659Y1010500D01*
G01X13463264Y1137500D02*
G01X13364507Y1137500D01*
G01X13325007Y1177000D01*
G01Y1227000D01*
G01X13362507Y1264500D01*
G01X13463264Y883500D02*
G01X13356472Y883500D01*
G01X13329974Y909998D02*
G01X13329974Y979998D01*
G01X13360476Y1010500D01*
G01X13463264D01*
G01X13356472Y883500D02*
G01X13329974Y909998D01*
G01X13314974Y502999D02*
G01X13462765Y502999D01*
G01X13054975Y501999D02*
G01X12907251Y501999D01*
G01X12906750Y502500D01*
G01X13462765Y502999D02*
G01X13463264Y502500D01*
G01X12906750Y1137500D02*
G01X13007477Y1137500D01*
G01X13039975Y1169997D02*
G01X13039975Y1230997D01*
G01X13006472Y1264500D01*
G01X12906750D01*
G01X13007477Y1137500D02*
G01X13039975Y1169997D01*
G01X12906750Y1010500D02*
G01X13011472Y1010500D01*
G01X13038975Y982998D01*
G01Y915998D01*
G01X13006477Y883500D01*
G01X12906750D01*
G01X14354972Y2426995D02*
G01X14396971Y2468994D01*
G01X14198972Y2426995D02*
G01X14354972Y2426995D01*
G01X14161978Y2390001D02*
G01X14198972Y2426995D01*
G01X14161978Y2345157D02*
G01X14161978Y2390001D01*
G01X14000972Y2184151D02*
G01X14161978Y2345157D01*
G01X14650971Y2468994D02*
G01X14834970Y2284995D01*
G01X13852331Y839499D02*
G01X14002473Y839499D01*
G01X14002972Y839998D01*
G01X8250484Y2300964D02*
G01X8250484Y2503496D01*
G01X8250983Y2503995D01*
G01X7996484Y2300964D02*
G01X7996484Y2501495D01*
G01X7993984Y2503995D01*
G01X11567477Y2528963D02*
G01X11567477Y2739494D01*
G01X11565977Y2740995D01*
G01X11821477Y2528963D02*
G01X11821477Y2740495D01*
G01X11821976Y2740995D01*
G01X11059477Y2528963D02*
G01X11059477Y2736495D01*
G01X11057978Y2737995D01*
G01X7488484Y2300964D02*
G01X7488484Y2502496D01*
G01X7486985Y2503995D01*
G01X7493988Y2067996D02*
G01X7488484Y2073499D01*
G01Y2300964D01*
G01X7145649Y2067992D02*
G01X7353979Y2067992D01*
G01X7241986Y2213996D02*
G01X7241986Y2149996D01*
G01X7323985Y2067996D01*
G01X7353983D01*
G01X10730006Y2280001D02*
G01X10921981Y2280001D01*
G01X10927976Y2285995D01*
G01X10826978Y2396995D02*
G01X10826978Y2353995D01*
G01X10894978Y2285995D01*
G01X10927976D01*
G54D95*
G01X6221961Y2770021D02*
G01X6304662Y2770021D01*
G01X6070988Y2920994D02*
G01X6221961Y2770021D01*
G01X4588000Y3240000D02*
G01X4680984Y3240000D01*
G01X4999990Y2920994D01*
G01X6070988D01*
G01X4334000Y3240000D02*
G01X4462007Y3111994D01*
G01X4734991D01*
G01X4979990Y2866994D01*
G01X5515989D01*
G01X5612962Y2770021D01*
G01X5719709D01*
G01X4588000Y2986000D02*
G01X4793102Y2986000D01*
G01X5015095Y2764007D01*
G01X5144661D01*
G01X13246967Y2766988D02*
G01X13331967Y2851988D01*
G01X13793039D01*
G01X14299044Y3357993D01*
G01X4466006Y2853994D02*
G01X4334000Y2986000D01*
G01X6290202Y2190996D02*
G01X6186988Y2190996D01*
G01X6294672Y2195465D02*
G01X6290202Y2190996D01*
G01X6186988Y2190996D02*
G01X5992988Y2384995D01*
G01X5121990D01*
G01X4652991Y2853994D01*
G01X4466006D01*
G01X5655496Y2200488D02*
G01X5734662Y2200488D01*
G01X5519989Y2335995D02*
G01X5655496Y2200488D01*
G01X4588000Y2732000D02*
G01X4702985Y2732000D01*
G01X5098990Y2335995D01*
G01X5519989D01*
G01X4334000Y2732000D02*
G01X4452006Y2613995D01*
G01X4697991D01*
G01X5111498Y2200488D01*
G01X5164661D01*
G01X4443006Y1756998D02*
G01X5164661Y1756998D01*
G01X4334000Y2478000D02*
G01X4117992Y2261992D01*
G01Y2082012D01*
G01X4443006Y1756998D01*
G01X4588000Y2478000D02*
G01X4870003Y2195998D01*
G01Y1990001D01*
G01X5000003Y1860001D01*
G01X5629664D01*
G01X5734660Y1755004D01*
G54D89*
G01X12410004Y2602991D02*
G01X12410004Y2772660D01*
G01X12404677Y2777988D01*
G01X12989868Y2775994D02*
G01X12995197Y2770665D01*
G01Y2602991D01*
G01X12411644Y2280976D02*
G01X12416973Y2275647D01*
G01Y2110996D01*
G01X13544641Y2772971D02*
G01X13544641Y2608320D01*
G01X13549970Y2602991D01*
G01X13525631Y2248991D02*
G01X13530970Y2243652D01*
G01Y2073996D01*
G01X12424644Y1770977D02*
G01X12424644Y1606326D01*
G01X12429972Y1600997D01*
G01X12983820Y1770977D02*
G01X12989149Y1765648D01*
G01Y1600997D01*
G01X12977643Y2284991D02*
G01X12977643Y2114325D01*
G01X12982971Y2108996D01*
G01X5880006Y1580001D02*
G01X5880006Y1748672D01*
G01X5885334Y1754001D01*
G01X5300005Y1580001D02*
G01X5300005Y1747683D01*
G01X5305334Y1753012D01*
G01X5880006Y2030001D02*
G01X5880006Y2191665D01*
G01X5885334Y2196994D01*
G01X6430006Y2029993D02*
G01X6430006Y2191648D01*
G01X6435345Y2196987D01*
G01X5320005Y2600009D02*
G01X5320005Y2764674D01*
G01X5325334Y2770003D01*
G01X5306092Y2030001D02*
G01X5306092Y2196678D01*
G01X5311421Y2202007D01*
G01X6440006Y2600009D02*
G01X6440006Y2762680D01*
G01X6445335Y2768009D01*
G01X5880006Y2600001D02*
G01X5880006Y2761662D01*
G01X5885345Y2767001D01*
G54D95*
G01X13872953Y2770975D02*
G01X14332972Y3230994D01*
G01X13697310Y2770975D02*
G01X13695314Y2772971D01*
G01X13697310Y2770975D02*
G01X13872953Y2770975D01*
G54D94*
G01X7090004Y1940001D02*
G01X7000004Y2030001D01*
G01Y2530001D01*
G01X6929996Y2600009D01*
G01X6440006D01*
G01X9567181Y1210320D02*
G01X8897501Y1880001D01*
G01X6150003Y2470001D02*
G01X6030003Y2590001D01*
G01X5890005Y2590001D02*
G01X5880006Y2600001D01*
G01X6030003Y2590001D02*
G01X5890005Y2590001D01*
G01X6929986Y2162996D02*
G01X6622980Y2470001D01*
G01X6150003D01*
G01X6062003Y2470001D02*
G01X5614982Y2470001D01*
G01X5484975Y2600009D01*
G01X5320005D01*
G01X6182009Y2349995D02*
G01X6062003Y2470001D01*
G01X8897501Y1880001D02*
G01X7064981Y1880001D01*
G01X6929986Y2014996D01*
G01Y2162996D01*
G01X6486987Y2349995D02*
G01X6182009Y2349995D01*
G01X9531817Y1174956D02*
G01X8892777Y1813996D01*
G01X7022986D01*
G01X6486987Y2349995D01*
G01X9496471Y1139610D02*
G01X8886080Y1750001D01*
G01X6020003Y2030001D02*
G01X5880006Y2030001D01*
G01X6160003Y1890001D02*
G01X6020003Y2030001D01*
G01X9461107Y1104246D02*
G01X8869356Y1695997D01*
G01X9425760Y1068899D02*
G01X8854659Y1640001D01*
G01X6950004Y1640001D02*
G01X6770004Y1820001D01*
G01X8854659Y1640001D02*
G01X6950004Y1640001D01*
G01X5605984Y1910001D02*
G01X5485984Y2030001D01*
G01X5306092D01*
G01X6770004Y1820001D02*
G01X6122983Y1820001D01*
G01X6032983Y1910001D01*
G01X5605984D01*
G01X8869356Y1695997D02*
G01X6980986Y1695997D01*
G01X6786982Y1890001D01*
G01X6160003D01*
G01X8886080Y1750001D02*
G01X7007982Y1750001D01*
G01X6727989Y2029993D01*
G01X6430006D01*
G01X9390396Y1033535D02*
G01X8843930Y1580001D01*
G01X5880006D01*
G01X9355050Y998189D02*
G01X8833238Y1520001D01*
G01X5427985Y1580001D02*
G01X5300005Y1580001D01*
G01X6060003Y1520001D02*
G01X6012999Y1472997D01*
G01X5534989D01*
G01X5427985Y1580001D01*
G01X12162996Y2602991D02*
G01X12410004Y2602991D01*
G01X8908193Y1940001D02*
G01X7090004Y1940001D01*
G01X9602528Y1245667D02*
G01X8908193Y1940001D01*
G54D11*
G01X10430490Y1491484D02*
G01X10516449Y1577443D01*
G54D94*
G01X10331468Y1392510D02*
G01X10273729Y1334771D01*
G01X10186587D01*
G01X10097483Y1245667D01*
G01X10168194Y1174956D02*
G01X10281235Y1287997D01*
G01X10676979Y1818996D02*
G01X10795978Y1937996D01*
G01X12900972Y2026996D02*
G01X12982971Y2108996D01*
G01X10730979Y1798996D02*
G01X10823978Y1891996D01*
G01X13409973Y2073996D02*
G01X13530970Y2073996D01*
G01X13311973Y1975996D02*
G01X13409973Y2073996D01*
G01X10730979Y1617962D02*
G01X10730979Y1798996D01*
G01X10203540Y1139610D02*
G01X10305954Y1242023D01*
G01X10355040D01*
G01X10730979Y1617962D01*
G01X10274251Y1068899D02*
G01X10355401Y1150050D01*
G01X10021980Y1039998D02*
G01X10025980Y1043998D01*
G01X10025980Y1103471D02*
G01X10132830Y1210320D01*
G01X10025980Y1043998D02*
G01X10025980Y1103471D01*
G01X10344961Y998189D02*
G01X10594052Y1247279D01*
G01X10740522D01*
G01X10380325Y962825D02*
G01X10507499Y1089998D01*
G01X10734842Y1089998D02*
G01X10741453Y1096609D01*
G01X10507499Y1089998D02*
G01X10734842Y1089998D01*
G01X9350005Y720000D02*
G01X9213629Y856377D01*
G01Y856768D01*
G54D11*
G01X8795982Y1132998D02*
G01X8887477Y1041503D01*
G01X8890509D01*
G54D94*
G01X9178264Y821403D02*
G01X9057170Y942498D01*
G01X8989500D01*
G01X9529628Y1470625D02*
G01X9548788Y1451465D01*
G01Y1370135D01*
G01X9637892Y1281031D01*
G54D11*
G01X9344981Y1656997D02*
G01X9344981Y1654778D01*
G01X9430383Y1569376D01*
G54D94*
G01X9772980Y1144998D02*
G01X9772980Y1216635D01*
G01X9673238Y1316377D01*
G54D93*
G01X9318971Y4574833D02*
G01X9318971Y4685176D01*
G01X9212961Y4791186D01*
G01X9206471Y4575833D02*
G01X9206471Y4784696D01*
G01X9093971Y4672196D02*
G01X9093971Y4578833D01*
G01X9206471Y4784696D02*
G01X9093971Y4672196D01*
G54D94*
G01X8833238Y1520001D02*
G01X6060003Y1520001D01*
G54D11*
G01X8896982Y852998D02*
G01X8986482Y942498D01*
G01X8989500D01*
G54D94*
G01X10486382Y503233D02*
G01X10399615Y590000D01*
G01X10290006D01*
G01X9580981Y-48634D02*
G01X9673238Y43623D01*
G01X9580981Y-132000D02*
G01X9580981Y-48634D01*
G01X10741336Y472644D02*
G01X10704691Y435999D01*
G01X10624345Y435999D02*
G01X10521747Y538597D01*
G01X10704691Y435999D02*
G01X10624345Y435999D01*
G54D11*
G01X10930006Y660000D02*
G01X10841360Y571354D01*
G01X10840621D01*
G01X10822740Y386506D02*
G01X10741336Y467910D01*
G01Y472644D01*
G01X9951452Y-315711D02*
G01X9867443Y-231701D01*
G01X9682383Y-219335D02*
G01X9768518Y-133199D01*
G01Y-132463D01*
G54D94*
G01X10028980Y370999D02*
G01X10090485Y309495D01*
G01X10114436D01*
G01X10203540Y220391D01*
G01X10085980Y425999D02*
G01X10140005Y371974D01*
G01Y354654D01*
G01X10238904Y255755D01*
G54D89*
G01X7742484Y2096496D02*
G01X7742484Y2300964D01*
G01X7742985Y2095996D02*
G01X7742484Y2096496D01*
G01X7869484Y2097496D02*
G01X7869484Y2300964D01*
G01X7870984Y2095996D02*
G01X7869484Y2097496D01*
G01X7614985Y2094996D02*
G01X7614985Y2300464D01*
G01X7615484Y2300964D01*
G54D94*
G01X10159980Y486999D02*
G01X10185980Y460999D01*
G01Y379373D01*
G01X10274251Y291102D01*
G54D11*
G01X7773984Y5544989D02*
G01X7773984Y5747751D01*
G01X7774976Y5748742D01*
G01X7449994Y3746502D02*
G01X7630540Y3746502D01*
G01X7664033Y3779996D01*
G01X6579987Y3785992D02*
G01X6619477Y3746502D01*
G01X7449994D01*
G01X7449994Y4093492D02*
G01X7701017Y4093492D01*
G01X7757023Y4149498D01*
G01X7117986Y4444500D02*
G01X7057986Y4384500D01*
G01X6793767D01*
G01X7324034Y4723989D02*
G01X7204984Y4723989D01*
G01X7117986Y4636991D01*
G01Y4444500D01*
G01X6569987Y4129992D02*
G01X6793259Y4129992D01*
G01X6793767Y4130500D01*
G54D89*
G01X11186477Y2528963D02*
G01X11186477Y2331496D01*
G01X11215978Y2301995D01*
G01X11313477Y2307495D02*
G01X11313477Y2528963D01*
G01X11311977Y2305995D02*
G01X11313477Y2307495D01*
G01X11440477Y2310496D02*
G01X11440477Y2528963D01*
G01X11438977Y2308995D02*
G01X11440477Y2310496D01*
G54D94*
G01X10097483Y114334D02*
G01X10008980Y202838D01*
G01X9965980Y297999D02*
G01X10008980Y254999D01*
G01Y202838D01*
G01X10082980Y717999D02*
G01X9811980Y446999D01*
G01Y332999D01*
G01X10062119Y82861D01*
G01Y78970D01*
G01X10026773Y43623D02*
G01X9755980Y314416D01*
G01X9755980Y505999D02*
G01X9755980Y314416D01*
G01X10092980Y842998D02*
G01X9755980Y505999D01*
G54D11*
G01X8840851Y-737484D02*
G01X8838371Y-735004D01*
G01X8675544D01*
G01X8853093Y-78457D02*
G01X8845643Y-71006D01*
G01X8688030D01*
G01X8672983Y-1013000D02*
G01X8672983Y-878550D01*
G01X8676527Y-875006D01*
G01X8672983Y-878550D02*
G01X8614308Y-937224D01*
G01X8688034Y-355813D02*
G01X8688034Y-211015D01*
G01X10034513Y2253517D02*
G01X10029000Y2248004D01*
G01X9864064D01*
G01X9863808Y1976641D02*
G01X9863808Y2107863D01*
G54D89*
G01X9808954Y2053009D02*
G01X9863808Y2107862D01*
G54D11*
G01X8959982Y-733001D02*
G01X8845335Y-733001D01*
G01X8840851Y-737484D01*
G01X8979982Y-71999D02*
G01X8859551Y-71999D01*
G01X8853093Y-78457D01*
G54D94*
G01X9464981Y817529D02*
G01X9319685Y962825D01*
G01X9464981Y816998D02*
G01X9464981Y817529D01*
G01X10309615Y1033535D02*
G01X10203078Y926998D01*
G01X9890980D01*
G01X9567181Y149680D02*
G01X9471501Y54000D01*
G01X9370981D01*
G01X9602528Y114334D02*
G01X9463193Y-25000D01*
G01X9437981D01*
G54D11*
G01X7753652Y911998D02*
G01X7752820Y912830D01*
G01X7437820Y1195997D02*
G01X7497820Y1255997D01*
G01X7437820Y1022721D02*
G01X7437820Y1195997D01*
G01X9412981Y2690995D02*
G01X9412981Y2740246D01*
G01X9326231Y2826997D01*
G01X9370981Y54000D02*
G01X9229982Y54000D01*
G01X8027984Y1255997D02*
G01X9229982Y54000D01*
G01X7497820Y1255997D02*
G01X8027984Y1255997D01*
G01X9437981Y-25000D02*
G01X9172982Y-25000D01*
G01X8123984Y1023998D02*
G01X9172982Y-25000D01*
G54D94*
G01X9393981Y605999D02*
G01X9387087Y605999D01*
G01X9248975Y467887D01*
G01X9463981Y541999D02*
G01X9408789Y486807D01*
G01Y486280D01*
G01X9319685Y397176D01*
G01X9240005Y250000D02*
G01X9351817Y361812D01*
G01X9355050D01*
G01X9532981Y468999D02*
G01X9390396Y326466D01*
G01X9164982Y312999D02*
G01X9284339Y432523D01*
G01X9081982Y373999D02*
G01X9084395Y373999D01*
G01X9213629Y503233D01*
G01X9036982Y447999D02*
G01X9087666Y447999D01*
G01X9178264Y538597D01*
G54D89*
G01X12769974Y1137998D02*
G01X12906252Y1137998D01*
G01X12906750Y1137500D01*
G01X12769974Y883998D02*
G01X12906251Y883998D01*
G01X12906750Y883500D01*
G01X13362507Y1264500D02*
G01X13463264Y1264500D01*
G01X13704671Y1270001D02*
G01X13699170Y1264500D01*
G01X13463264D01*
G01X13845807Y1264997D02*
G01X13945004Y1264997D01*
G01X14000972Y1320965D02*
G01X14000972Y2184151D01*
G01X13945004Y1264997D02*
G01X14000972Y1320965D01*
G01X13463264Y1391500D02*
G01X13261506Y1391500D01*
G54D11*
G01X13178974Y1308967D01*
G01Y414999D01*
G01X13118974Y354999D01*
G01X12292973D01*
G01X11899976Y747996D01*
G54D89*
G01X12906750Y1391500D02*
G01X12661477Y1391500D01*
G01X12445975Y1175998D01*
G54D94*
G01X9461107Y255755D02*
G01X9347351Y142000D01*
G01X9291981D01*
G54D11*
G01X5690510Y4893485D02*
G01X5266520Y4893485D01*
G01X5146001Y5014004D01*
G01X5253996Y5121999D01*
G01X13900002Y3808001D02*
G01X13898002Y3806001D01*
G54D89*
G01X14047474Y1010500D02*
G01X13850331Y1010500D01*
G01X14834970Y1797996D02*
G01X14047474Y1010500D01*
G01X14834970Y2284995D02*
G01X14834970Y1797996D01*
G01X14650971Y2214994D02*
G01X14650971Y1900964D01*
G01X14250008Y1500001D01*
G54D90*
G01X7437820Y763096D02*
G01X7437820Y687494D01*
G01X6869319Y780998D02*
G01X6877824Y772494D01*
G01X6887821Y782491D01*
G01X7447820Y677494D02*
G01X7447820Y541026D01*
G01X7572820Y543026D02*
G01X7572820Y671952D01*
G01X6812822Y657494D02*
G01X6812822Y541025D01*
G01X6877824Y772494D02*
G01X6877824Y722496D01*
G54D89*
G01X13229256Y-600486D02*
G01X13391627Y-600486D01*
G54D11*
G01X6827821Y-606491D02*
G01X6827821Y-465501D01*
G54D90*
G01X6813321Y-557501D02*
G01X6813321Y-465501D01*
G01Y-317536D01*
G54D11*
G01X6827821Y-465501D02*
G01X6813321Y-465501D01*
G01X6812822D01*
G01X7593985Y1023998D02*
G01X8123984Y1023998D01*
G01X6197823Y-62505D02*
G01X6295486Y-62505D01*
G01X6312486Y-45505D01*
G54D94*
G01X9977005Y-1084000D02*
G01X9855008Y-1205998D01*
G01X9617981D01*
G01X9588981Y-1176998D01*
G01Y-602999D01*
G01X9506981Y-520999D01*
G01Y-51941D01*
G01X9637892Y78970D01*
G01X10160025Y-160357D02*
G01X9991409Y8259D01*
G54D89*
G01X12523975Y-601999D02*
G01X12720001Y-601999D01*
G01X12518975Y-596999D02*
G01X12523975Y-601999D01*
G01X12506975Y-468999D02*
G01X12702007Y-468999D01*
G01X12506460Y-852483D02*
G01X12674756Y-852483D01*
G01X12504975Y-850998D02*
G01X12506460Y-852483D01*
G01X12702007Y-468999D02*
G01X12704007Y-470999D01*
G01X13208251Y-726481D02*
G01X13414590Y-726481D01*
G01X13497990Y-809881D01*
G01X13391627Y-598486D02*
G01X13497982Y-492131D01*
G01X13577187Y-571335D01*
G54D11*
G01X4460000Y-451880D02*
G01X4619727Y-611606D01*
G01X5037990D01*
G01X4460000Y-951879D02*
G01X4601488Y-810391D01*
G01X5037990D01*
G01X5128990Y-611999D02*
G01X5128597Y-611606D01*
G01X5037990D01*
G01X5128990Y-811998D02*
G01X5039597Y-811998D01*
G01X5037990Y-810391D01*
G01X13123974Y-294008D02*
G01X13116998Y-300983D01*
G01X13123974Y-167000D02*
G01X13123974Y-294008D01*
G01X9324034Y2688995D02*
G01X9326231Y2691191D01*
G01Y2826997D01*
G01X9235087Y2688995D02*
G01X9235087Y2735853D01*
G01X9326231Y2826997D01*
G01X7593985Y1023998D02*
G01X7593985Y915319D01*
G01X7593000Y914335D01*
G01X13975977Y3929984D02*
G01X13975977Y3806001D01*
G01X8924982Y1265997D02*
G01X9019693Y1171286D01*
G01Y1166678D01*
G54D94*
G01X9248975Y892114D02*
G01X9116271Y1024818D01*
G01Y1065317D01*
G54D11*
G01X9759980Y1701997D02*
G01X9759980Y1699998D01*
G01X9534603Y1474621D01*
G01X9470160Y1786501D02*
G01X9555562Y1701099D01*
G01X9470160Y1788720D02*
G01X9470160Y1786501D01*
G54D94*
G01X9708602Y1351742D02*
G01X9708602Y1503619D01*
G54D11*
G01X10308285Y1620755D02*
G01X10394243Y1706714D01*
G54D94*
G01X10026773Y1316377D02*
G01X9887393Y1176998D01*
G01X9871980D01*
G01X10062119Y1281031D02*
G01X9933980Y1152892D01*
G01Y1112998D01*
G01X10054980Y1415313D02*
G01X9991409Y1351742D01*
G01X11748977Y2102996D02*
G01X10384979Y2102996D01*
G01X10054980Y1480997D02*
G01X10054980Y1415313D01*
G01X10384979Y2102996D02*
G01X9991409Y1709425D01*
G01Y1544568D01*
G01X10054980Y1480997D01*
G01X12995197Y2602991D02*
G01X12906201Y2513995D01*
G01X12159976D01*
G01X11748977Y2102996D01*
G01X11789976Y2050996D02*
G01X10419979Y2050996D01*
G01X10179980Y1810996D01*
G01Y1799996D01*
G01X12155710Y2416729D02*
G01X11789976Y2050996D01*
G01X10823978Y1891996D02*
G01X11926976Y1891996D01*
G01X12010976Y1975996D01*
G01X13311973D01*
G01X10795978Y1937996D02*
G01X11880976Y1937996D01*
G01X11969976Y2026996D01*
G01X12900972D01*
G01X11710006Y2150001D02*
G01X12162996Y2602991D01*
G01X10354985Y2150001D02*
G01X11710006Y2150001D01*
G01X9708602Y1503619D02*
G01X10354985Y2150001D01*
G54D95*
G01X13239992Y2282013D02*
G01X13284973Y2326995D01*
G01X13774972D01*
G01X13960972Y2512995D01*
G01X13912966Y2532880D02*
G01X13757082Y2376995D01*
G01X12767974D01*
G01X12670981Y2280001D01*
G54D94*
G01X12635709Y2416729D02*
G01X12155710Y2416729D01*
G01X13549970Y2602991D02*
G01X13391709Y2444729D01*
G01X12663709D01*
G01X12635709Y2416729D01*
G01X12416973Y2110996D02*
G01X11953976Y2110996D01*
G01X11840976Y1997996D01*
G01X10492979D01*
G01X10352979Y1857996D01*
G54D11*
G01X10112980Y1607997D02*
G01X10112980Y1606999D01*
G01X10203343Y1516636D01*
G01X10327469Y1392510D01*
G01X10331468D01*
G54D94*
G01X9723005Y-1084000D02*
G01X9723005Y-711974D01*
G01X10160025Y-274954D01*
G01Y-160357D01*
G01X9708602Y8259D02*
G01X9668199Y-32144D01*
G01X9768518Y-132464D01*
G54D60*
G01X9983980Y4636991D02*
G01X10547979Y5200990D01*
G01X11046983D01*
G54D11*
G01X9214423Y5510050D02*
G01X9212992Y5508620D01*
G01X9288995Y5584622D02*
G01X9214423Y5510050D01*
G54D89*
G01X12335975Y867998D02*
G01X12447474Y756500D01*
G01X12906750D01*
G54D94*
G01X13689158Y826998D02*
G01X13701659Y839499D01*
G01X13463264Y756500D02*
G01X13536474Y756500D01*
G01X13606973Y826998D01*
G01X13689158D01*
G01X13463264Y629500D02*
G01X13544472Y629500D01*
G01X13591636Y582335D02*
G01X13663973Y582335D01*
G01X13544472Y629500D02*
G01X13591636Y582335D01*
G01X10636979Y285999D02*
G01X10455091Y467887D01*
G01X10451036D01*
G01X12906750Y629500D02*
G01X12340474Y629500D01*
G01X10858978Y25000D02*
G01X11063978Y-180000D01*
G01X13663973Y431663D02*
G01X13532636Y431663D01*
G01X12920974Y-180000D01*
G01X11063978Y-180000D02*
G01X12920974Y-180000D01*
G54D11*
G01X10786777Y781196D02*
G01X10808810Y781196D01*
G01X10930006Y660000D01*
G01X10617979Y558999D02*
G01X10617979Y619731D01*
G01X10681048Y682801D02*
G01X10687180Y682801D01*
G54D94*
G01X10673765Y669386D02*
G01X10687180Y682801D01*
G54D11*
G01X10617979Y619731D02*
G01X10670699Y672451D01*
G01X10681048Y682801D01*
G54D94*
G01X10521747Y821403D02*
G01X10670699Y672451D01*
G01X10673765Y669386D01*
G01X9934980Y-748999D02*
G01X10503979Y-180000D01*
G01Y273523D01*
G01X10380325Y397176D01*
G01X10676979Y1629064D02*
G01X10676979Y1818996D01*
G01X10335912Y1287997D02*
G01X10676979Y1629064D01*
G01X10281235Y1287997D02*
G01X10335912Y1287997D01*
G01X10355401Y1150050D02*
G01X10407031Y1150050D01*
G01X10330708Y1196049D02*
G01X10238904Y1104246D01*
G01X10385031Y1196049D02*
G01X10330708Y1196049D01*
G01X10790978Y1601997D02*
G01X10385031Y1196049D01*
G01X12429973Y1600997D02*
G01X12357975Y1600997D01*
G01X10862978Y1839996D02*
G01X10789978Y1766996D01*
G01Y1602997D01*
G01X10790978Y1601997D01*
G01X12357975Y1600997D02*
G01X12118976Y1839996D01*
G01X10862978D01*
G01X12989149Y1600997D02*
G01X12854974Y1600997D01*
G01X12758974Y1504997D02*
G01X12333975Y1504997D01*
G01X12069976Y1768996D01*
G01Y1771996D01*
G01X10898978D01*
G01X10851978Y1724997D01*
G01Y1594997D01*
G01X12854974Y1600997D02*
G01X12758974Y1504997D01*
G01X10851978Y1594997D02*
G01X10407031Y1150050D01*
G54D89*
G01X11870976Y1696997D02*
G01X11870976Y1584907D01*
G01X11871976Y1583907D01*
G01X12151371Y1100000D02*
G01X12020003Y1100000D01*
G01X11738835Y1100024D02*
G01X11879974Y1100024D01*
G01X11872976Y1353088D02*
G01X11871976Y1354088D01*
G01X11879998Y1100000D02*
G01X11879998Y1235976D01*
G01X11872976Y1242998D01*
G01Y1353088D01*
G54D94*
G01X12340474Y629500D02*
G01X12078976Y890998D01*
G54D89*
G01X12164976Y1449997D02*
G01X12031066Y1583907D01*
G01X11966972D01*
G01X11966972Y1427688D02*
G01X11966972Y1354088D01*
G01X11657977Y1470997D02*
G01X11923663Y1470997D01*
G01X11966972Y1427688D01*
G54D94*
G01X12078976Y890998D02*
G01X11809976Y890998D01*
G01X11204978Y285999D01*
G01X10636979D01*
G54D89*
G01X11776980Y1583907D02*
G01X11604887Y1583907D01*
G01X11484977Y1463997D02*
G01X11604887Y1583907D01*
G01X11484977Y702999D02*
G01X11484977Y1463997D01*
G01X11695977Y384999D02*
G01X11428977Y118000D01*
G01X10823978D01*
G01X10776978Y71000D01*
G01Y-182000D01*
G01X11776980Y1354088D02*
G01X11776980Y1268001D01*
G01X11586977Y1077998D01*
G01Y785998D01*
G01X11717977Y651999D02*
G01X11612977Y546999D01*
G01Y407999D01*
G01X11406977Y202000D01*
G54D94*
G01X10415672Y432523D02*
G01X10646195Y202000D01*
G54D89*
G01X11406977Y202000D01*
G04 Track End*

M02*
