G04 Layer: BottomSolderMaskLayer*
G04 EasyEDA Pro v2.1.57.773a98f1.225d47, 2025-02-25 21:56:38*
G04 Gerber Generator version 0.3*
G04 Scale: 100 percent, Rotated: No, Reflected: No*
G04 Dimensions in millimeters*
G04 Leading zeros omitted, absolute positions, 3 integers and 5 decimals*
%FSLAX35Y35*%
%MOMM*%
%AMRoundRect*1,1,$1,$2,$3*1,1,$1,$4,$5*1,1,$1,0-$2,0-$3*1,1,$1,0-$4,0-$5*20,1,$1,$2,$3,$4,$5,0*20,1,$1,$4,$5,0-$2,0-$3,0*20,1,$1,0-$2,0-$3,0-$4,0-$5,0*20,1,$1,0-$4,0-$5,$2,$3,0*4,1,4,$2,$3,$4,$5,0-$2,0-$3,0-$4,0-$5,$2,$3,0*%
%ADD10C,3.802*%
%ADD11RoundRect,0.09618X0.85271X-0.85271X-0.85271X-0.85271*%
%ADD12C,1.8016*%
%ADD13RoundRect,0.09502X0.9025X-0.9025X-0.9025X-0.9025*%
%ADD14C,1.90002*%
%ADD15C,1.9016*%
%ADD16C,2.6016*%
%ADD17RoundRect,0.09618X-0.85271X-0.85271X-0.85271X0.85271*%
%ADD18RoundRect,0.09618X0.85271X0.85271X0.85271X-0.85271*%
%ADD19C,1.902*%
G75*


G04 Rect Start*
G36*
G01X12471943Y5479003D02*
G01X12471943Y5281643D01*
G01X13098003D01*
G01Y5479003D01*
G01X12471943D01*
G37*
G36*
G01X11938461Y5827670D02*
G01X11938461Y5440310D01*
G01X13631527D01*
G01Y5827670D01*
G01X11938461D01*
G37*
G36*
G01X12471943Y5282413D02*
G01X12471943Y3709753D01*
G01X13098063D01*
G01Y5282413D01*
G01X12471943D01*
G37*
G36*
G01X13098058Y3512392D02*
G01X13098058Y3709752D01*
G01X12471998D01*
G01Y3512392D01*
G01X13098058D01*
G37*
G36*
G01X13641540Y3163725D02*
G01X13641540Y3551085D01*
G01X11948474D01*
G01Y3163725D01*
G01X13641540D01*
G37*
G36*
G01X6439056Y3645588D02*
G01X6439056Y5218248D01*
G01X5812936D01*
G01Y3645588D01*
G01X6439056D01*
G37*
G36*
G01X6972538Y3100331D02*
G01X6972538Y3487691D01*
G01X5279472D01*
G01Y3100331D01*
G01X6972538D01*
G37*
G36*
G01X5812941Y5415609D02*
G01X5812941Y5218249D01*
G01X6439001D01*
G01Y5415609D01*
G01X5812941D01*
G37*
G36*
G01X6439056Y3448997D02*
G01X6439056Y3646357D01*
G01X5812996D01*
G01Y3448997D01*
G01X6439056D01*
G37*
G36*
G01X5269459Y5764275D02*
G01X5269459Y5376916D01*
G01X6962525D01*
G01Y5764275D01*
G01X5269459D01*
G37*
G04 Rect End*

G04 Pad Start*
G54D10*
G01X7375985Y4407991D03*
G01X6216988Y931998D03*
G01X12804974Y76000D03*
G54D11*
G01X10231005Y-1084000D03*
G54D12*
G01X9977005Y-1084000D03*
G01X9723005Y-1084000D03*
G01X9469005Y-1084000D03*
G54D13*
G01X10428981Y3766992D03*
G54D14*
G01X10174981Y3766992D03*
G01X9920981Y3766992D03*
G01X9412981Y3766992D03*
G01X9158981Y3766992D03*
G01X8904981Y3766992D03*
G01X8650981Y3766992D03*
G54D15*
G01X14521988Y5189990D03*
G01X14521988Y5689989D03*
G01X4460999Y5642989D03*
G01X4460999Y5142990D03*
G54D16*
G01X10483979Y4636991D03*
G01X9983980Y4636991D03*
G54D15*
G01X9683981Y5636989D03*
G01X10783978Y5636989D03*
G54D17*
G01X4588000Y2224000D03*
G54D12*
G01X4334000Y2224000D03*
G01X4588000Y2478000D03*
G01X4334000Y2478000D03*
G01X4588000Y2732000D03*
G01X4334000Y2732000D03*
G01X4588000Y2986000D03*
G01X4334000Y2986000D03*
G01X4588000Y3240000D03*
G01X4334000Y3240000D03*
G01X4588000Y3494000D03*
G01X4334000Y3494000D03*
G01X4588000Y3748000D03*
G01X4334000Y3748000D03*
G54D18*
G01X14396971Y3738994D03*
G54D12*
G01X14650971Y3738994D03*
G01X14396971Y3484994D03*
G01X14650971Y3484994D03*
G01X14396971Y3230994D03*
G01X14650971Y3230994D03*
G01X14396971Y2976994D03*
G01X14650971Y2976994D03*
G01X14396971Y2722994D03*
G01X14650971Y2722994D03*
G01X14396971Y2468994D03*
G01X14650971Y2468994D03*
G01X14396971Y2214994D03*
G01X14650971Y2214994D03*
G54D15*
G01X4459991Y700118D03*
G01X4459991Y200119D03*
G01X14522971Y260000D03*
G01X14522971Y759999D03*
G01X11899976Y747996D03*
G01X11899976Y-11997D03*
G54D19*
G01X4460000Y-451880D03*
G01X4460000Y-951879D03*
G01X14521971Y-891998D03*
G01X14521971Y-391999D03*
G04 Pad End*

M02*
