G04 Layer: InnerLayer2*
G04 EasyEDA Pro v2.1.57.773a98f1.225d47, 2025-02-25 21:56:38*
G04 Gerber Generator version 0.3*
G04 Scale: 100 percent, Rotated: No, Reflected: No*
G04 Dimensions in millimeters*
G04 Leading zeros omitted, absolute positions, 3 integers and 5 decimals*
%FSLAX35Y35*%
%MOMM*%
%ADD10C,0.6*%
%ADD11C,0.254*%
%ADD12C,3.7*%
%ADD13R,1.7X1.7*%
%ADD14C,1.7*%
%ADD15R,1.8X1.8*%
%ADD16C,1.8*%
%ADD17C,2.5036*%
%ADD18C,2.49999*%
%ADD19R,1.7X1.7*%
%ADD20R,1.7X1.7*%
%ADD21C,0.61*%
%ADD22C,0.6096*%
%ADD23C,1.0*%
%ADD24C,0.4*%
%ADD25C,2.0*%
%ADD26C,0.28*%
G75*


G04 Copper Start*
G36*
G01X10870722Y2981006D02*
G01X10869101Y2982628D01*
G01Y3397150D01*
G01X10765246Y3501005D01*
G01X9702725D01*
G01Y3976004D01*
G01X8494727D01*
G01Y3011006D01*
G01X8479727Y2996006D01*
G01X5271733D01*
G01X5268733Y2993006D01*
G01X5042734D01*
G01X4949697Y3086043D01*
G01Y3817345D01*
G01X4870845Y3896198D01*
G01X4025654D01*
G01Y5985012D01*
G01X6952814D01*
G03X6928832Y5938988I32172J-46024D01*
G03X6984986Y5882834I56154J0D01*
G03X7041140Y5938988I0J56154D01*
G03X7017158Y5985012I-56154J0D01*
G01X9257290D01*
G01X14974346Y5971277D01*
G01Y4048004D01*
G01X14147716D01*
G01Y3628005D01*
G01X14140716Y3621005D01*
G01X13925716D01*
G01X13915716Y3611005D01*
G01Y3183006D01*
G01X13918716Y3180006D01*
G01X13731717Y2993006D01*
G01X10882722D01*
G01X10870722Y2981006D01*
G37*
%LPC*%
G36*
G01X11969511Y3776506D02*
G03X12023006Y3754347I53495J53495D01*
G01X13011004D01*
G03X13064500Y3776506I0J75654D01*
G01X13271499Y3983505D01*
G03X13293658Y4037000I-53495J53495D01*
G03X13271394Y4090601I-75654J0D01*
G03X13274158Y4108000I-53390J17400D01*
G03X13261513Y4143500I-56154J0D01*
G03X13274158Y4179001I-43509J35500D01*
G03X13218004Y4235155I-56154J0D01*
G03X13161850Y4179001I0J-56154D01*
G03X13174495Y4143500I56154J0D01*
G03X13161850Y4108000I43509J-35500D01*
G03X13164613Y4090601I56154J0D01*
G01X13164508Y4090496D01*
G01X12979668Y3905655D01*
G01X12054343D01*
G01X11960763Y3999235D01*
G03X11970161Y4035754I-66256J36519D01*
G03X11948002Y4089250I-75654J0D01*
G01X11948001Y4089251D01*
G01X11947757Y4089495D01*
G01X11947756Y4089496D01*
G03X11916388Y4108346I-53495J-53495D01*
G01X11930529D01*
G03X11938006Y4107846I7478J55654D01*
G03X11994160Y4164000I0J56154D01*
G03X11938006Y4220154I-56154J0D01*
G03X11930529Y4219654I0J-56154D01*
G01X11520021D01*
G01X11080331Y4659344D01*
G03X11040978Y4675645I-39353J-39353D01*
G01X10860978D01*
G03X10821625Y4659344I0J-55654D01*
G01X10680979Y4518698D01*
G01X10622325Y4577351D01*
G03X10634633Y4636991I-138346J59640D01*
G03X10483979Y4787644I-150654J0D01*
G03X10333325Y4636991I0J-150654D01*
G03X10483979Y4486337I150654J0D01*
G03X10543619Y4498645I0J150654D01*
G01X10631614Y4410649D01*
G03X10670967Y4394349I39353J39353D01*
G01X10690990D01*
G03X10730343Y4410649I0J55654D01*
G01X10804200Y4484506D01*
G03X10859978Y4434837I55778J6485D01*
G03X10916132Y4490991I0J56154D01*
G03X10866463Y4546769I-56154J0D01*
G01X10884031Y4564337D01*
G01X11017925D01*
G01X11035124Y4547139D01*
G03X10979824Y4490991I854J-56148D01*
G03X11035978Y4434837I56154J0D01*
G03X11092125Y4490137I0J56154D01*
G01X11457615Y4124647D01*
G03X11496968Y4108346I39353J39353D01*
G01X11786879D01*
G03X11733353Y4036001I22127J-72346D01*
G03X11733505Y4031193I75654J0D01*
G01Y3958001D01*
G03X11809160Y3882347I75654J0D01*
G03X11851028Y3894988I0J75654D01*
G01X11969511Y3776506D01*
G37*
G36*
G01X7882613Y4268656D02*
G03X7921966Y4252356I39353J39353D01*
G01X8050021D01*
G03X8089374Y4268656I0J55654D01*
G01X8248073Y4427355D01*
G01X8329667D01*
G03X8337145Y4426855I7478J55654D01*
G03X8393299Y4483009I0J56154D01*
G03X8337145Y4539163I-56154J0D01*
G03X8329667Y4538663I0J-56154D01*
G01X8225020D01*
G03X8185667Y4522363I0J-55654D01*
G01X8026968Y4363664D01*
G01X7945018D01*
G01X7505329Y4803353D01*
G03X7465975Y4819654I-39353J-39353D01*
G01X7124120D01*
G03X7177646Y4892000I-22127J72346D01*
G03X7177494Y4896807I-75654J0D01*
G01Y4970000D01*
G03X7101839Y5045654I-75654J0D01*
G03X7059971Y5033012I0J-75654D01*
G01X6941488Y5151495D01*
G03X6887993Y5173653I-53495J-53495D01*
G01X5899995D01*
G03X5846499Y5151495I0J-75654D01*
G01X5639500Y4944496D01*
G03X5617341Y4891000I53495J-53495D01*
G03X5639605Y4837400I75654J0D01*
G03X5636841Y4820000I53390J-17400D01*
G03X5649486Y4784500I56154J0D01*
G03X5636841Y4749000I43509J-35500D01*
G03X5692995Y4692846I56154J0D01*
G03X5749149Y4749000I0J56154D01*
G03X5736504Y4784500I-56154J0D01*
G03X5749149Y4820000I-43509J35500D01*
G03X5746386Y4837400I-56154J0D01*
G01X5746491Y4837505D01*
G01X5931331Y5022345D01*
G01X6856656D01*
G01X6950236Y4928765D01*
G03X6940838Y4892246I66256J-36519D01*
G03X6962997Y4838751I75654J0D01*
G01X6963243Y4838504D01*
G03X6994611Y4819654I53495J53495D01*
G01X6980470D01*
G03X6972993Y4820154I-7478J-55654D01*
G03X6916839Y4764000I0J-56154D01*
G03X6972993Y4707846I56154J0D01*
G03X6980470Y4708346I0J56154D01*
G01X7442923D01*
G01X7882613Y4268656D01*
G37*
G36*
G01X11457514Y4604890D02*
G03X11489796Y4591518I32282J32282D01*
G01X11880976D01*
G03X11913258Y4604890I0J45654D01*
G01X11913259D01*
G01X11922483Y4614114D01*
G03X11969474Y4669515I-9163J55401D01*
G03X11929971Y4723144I-56154J0D01*
G03X11972502Y4744504I-10964J74855D01*
G01X12288343Y5060344D01*
G01X13090667D01*
G01X13148350Y5002662D01*
G01Y4865986D01*
G01Y4794986D01*
G01Y4723986D01*
G03X13224004Y4648332I75654J0D01*
G03X13299658Y4723986I0J75654D01*
G01Y4794986D01*
G01Y4865986D01*
G01Y5033999D01*
G03X13277499Y5087494I-75654J0D01*
G01X13175499Y5189494D01*
G03X13122004Y5211652I-53495J-53495D01*
G01X12257006D01*
G03X12203510Y5189494I0J-75654D01*
G01X11887506Y4873490D01*
G01X11852502Y4908494D01*
G03X11799007Y4930653I-53495J-53495D01*
G03X11723353Y4854999I0J-75654D01*
G03X11745018Y4802001I75654J0D01*
G01X11741511Y4798495D01*
G03X11719353Y4744999I53495J-53495D01*
G03X11751902Y4682826I75654J0D01*
G01X11508706D01*
G01X11272545Y4918987D01*
G03X11240263Y4932359I-32282J-32282D01*
G01X10907702D01*
G03X10875006Y4942859I-32695J-45654D01*
G03X10818852Y4886705I0J-56154D01*
G03X10875006Y4830551I56154J0D01*
G03X10907702Y4841051I0J56154D01*
G01X11221353D01*
G01X11457514Y4604890D01*
G37*
G36*
G01X5716493Y3828497D02*
G03X5769988Y3806338I53495J53495D01*
G01X6405987D01*
G03X6459483Y3828497I0J75654D01*
G01X6623482Y3992496D01*
G03X6645641Y4045992I-53495J53495D01*
G01Y4129992D01*
G03X6569987Y4205646I-75654J0D01*
G03X6494333Y4129992I0J-75654D01*
G01Y4077329D01*
G01X6374650Y3957646D01*
G01X6331852D01*
G03X6351158Y4000010I-36828J42364D01*
G03X6312865Y4053234I-56134J0D01*
G03X6335132Y4098001I-33866J44767D01*
G03X6304514Y4148001I-56134J0D01*
G03X6335132Y4198001I-25515J50000D01*
G03X6304514Y4248001I-56134J0D01*
G03X6335132Y4298001I-25515J50000D01*
G03X6304514Y4348000I-56134J0D01*
G03X6335132Y4398000I-25515J50000D01*
G03X6304514Y4448000I-56134J0D01*
G03X6335132Y4498000I-25515J50000D01*
G03X6302954Y4548766I-56134J0D01*
G03X6335132Y4599532I-23956J50766D01*
G03X6305962Y4648766I-56134J0D01*
G03X6335132Y4698000I-26964J49234D01*
G03X6302958Y4748763I-56134J0D01*
G03X6332132Y4798000I-26960J49236D01*
G03X6302958Y4847236I-56134J0D01*
G03X6335132Y4897999I-23960J50764D01*
G03X6278998Y4954133I-56134J0D01*
G03X6229001Y4923521I0J-56134D01*
G03X6178998Y4954146I-50003J-25509D01*
G03X6128998Y4923527I0J-56134D01*
G03X6078999Y4954146I-50000J-25515D01*
G03X6029005Y4923540I0J-56134D01*
G03X5979011Y4954146I-49994J-25528D01*
G03X5922877Y4898012I0J-56134D01*
G03X5952052Y4848776I56134J0D01*
G03X5919878Y4798012I23960J-50764D01*
G03X5952052Y4747249I56134J0D01*
G03X5922877Y4698012I26960J-49236D01*
G03X5952048Y4648778I56134J0D01*
G03X5922877Y4599544I26964J-49234D01*
G03X5955056Y4548779I56134J0D01*
G03X5922877Y4498013I23956J-50766D01*
G03X5953496Y4448013I56134J0D01*
G03X5922877Y4398013I25515J-50000D01*
G03X5953496Y4348013I56134J0D01*
G03X5922877Y4298013I25515J-50000D01*
G03X5953496Y4248013I56134J0D01*
G03X5922877Y4198013I25515J-50000D01*
G03X5953496Y4148014I56134J0D01*
G03X5922877Y4098014I25515J-50000D01*
G03X5953496Y4048014I56134J0D01*
G03X5922877Y3998014I25515J-50000D01*
G03X5940005Y3957646I56134J0D01*
G01X5801325D01*
G01X5762649Y3996322D01*
G01Y4062014D01*
G01Y4133014D01*
G01Y4204014D01*
G03X5686995Y4279668I-75654J0D01*
G03X5611341Y4204014I0J-75654D01*
G01Y4133014D01*
G01Y4062014D01*
G01Y3964985D01*
G03X5633500Y3911490I75654J0D01*
G01X5716493Y3828497D01*
G37*
G36*
G01X9983980Y4486337D02*
G03X10102385Y4543842I0J150654D01*
G01X10609879Y5051336D01*
G01X11046481D01*
G03X11197135Y5201990I0J150654D01*
G03X11046481Y5352644I-150654J0D01*
G01X10547476D01*
G03X10440948Y5308518I0J-150654D01*
G01X9876949Y4744519D01*
G03X9832823Y4637991I106528J-106528D01*
G03X9849140Y4569799I150654J0D01*
G03X9983980Y4486337I134840J67192D01*
G37*
G36*
G01X8090283Y3695634D02*
G03X8122978Y3685134I32695J45654D01*
G03X8179132Y3741288I0J56154D01*
G03X8122978Y3797442I-56154J0D01*
G03X8090283Y3786942I0J-56154D01*
G01X7533788D01*
G01X7053081Y4267648D01*
G03X6997679Y4314639I-55401J-9163D01*
G03X6941525Y4258485I0J-56154D01*
G03X6988516Y4203084I56154J0D01*
G01X7482595Y3709005D01*
G03X7514877Y3695634I32282J32282D01*
G01X8090283D01*
G37*
G36*
G01X7385632Y3189640D02*
G03X7424985Y3173340I39353J39353D01*
G01X7673985D01*
G03X7713338Y3189640I0J55654D01*
G01X7904050Y3380352D01*
G03X7926138Y3424993I-34066J44641D01*
G03X7869984Y3481147I-56154J0D01*
G03X7825343Y3459059I0J-56154D01*
G01X7798652Y3432368D01*
G03X7742985Y3481147I-55668J-7375D01*
G03X7686830Y3424993I0J-56154D01*
G03X7735610Y3369325I56154J0D01*
G01X7650932Y3284647D01*
G01X7448038D01*
G01X7043339Y3689346D01*
G03X7003986Y3705647I-39353J-39353D01*
G01X6699464D01*
G03X6691987Y3706147I-7478J-55654D01*
G03X6635833Y3649993I0J-56154D01*
G03X6691987Y3593839I56154J0D01*
G03X6699464Y3594339I0J56154D01*
G01X6980933D01*
G01X7385632Y3189640D01*
G37*
G36*
G01X12665971Y4002470D02*
G03X12715975Y3971845I50003J25509D01*
G03X12765974Y4002464I0J56134D01*
G03X12815974Y3971845I50000J25515D01*
G03X12865968Y4002451I0J56134D01*
G03X12915961Y3971845I49994J25528D01*
G03X12972095Y4027979I0J56134D01*
G03X12942921Y4077215I-56134J0D01*
G03X12975095Y4127979I-23960J50764D01*
G03X12942921Y4178743I-56134J0D01*
G03X12972095Y4227979I-26960J49236D01*
G03X12942925Y4277213I-56134J0D01*
G03X12972095Y4326447I-26964J49234D01*
G03X12939917Y4377213I-56134J0D01*
G03X12972095Y4427978I-23956J50766D01*
G03X12941477Y4477978I-56134J0D01*
G03X12972095Y4527978I-25515J50000D01*
G03X12941477Y4577978I-56134J0D01*
G03X12972095Y4627978I-25515J50000D01*
G03X12941477Y4677978I-56134J0D01*
G03X12972095Y4727978I-25515J50000D01*
G03X12941477Y4777978I-56134J0D01*
G03X12972095Y4827978I-25515J50000D01*
G03X12941477Y4877978I-56134J0D01*
G03X12972095Y4927977I-25515J50000D01*
G03X12915961Y4984111I-56134J0D01*
G03X12865968Y4953505I0J-56134D01*
G03X12815974Y4984111I-49994J-25528D01*
G03X12765974Y4953493I0J-56134D01*
G03X12715975Y4984111I-50000J-25515D01*
G03X12665978Y4953499I0J-56134D01*
G03X12615975Y4984124I-50003J-25509D01*
G03X12559841Y4927990I0J-56134D01*
G03X12590459Y4877990I56134J0D01*
G03X12559841Y4827990I25515J-50000D01*
G03X12590459Y4777990I56134J0D01*
G03X12559841Y4727991I25515J-50000D01*
G03X12590459Y4677991I56134J0D01*
G03X12559841Y4627991I25515J-50000D01*
G03X12590459Y4577991I56134J0D01*
G03X12559841Y4527991I25515J-50000D01*
G03X12590459Y4477991I56134J0D01*
G03X12559841Y4427991I25515J-50000D01*
G03X12592019Y4377225I56134J0D01*
G03X12559841Y4326460I23956J-50766D01*
G03X12589011Y4277226I56134J0D01*
G03X12559841Y4227992I26964J-49234D01*
G03X12592015Y4177228I56134J0D01*
G03X12562841Y4127992I26960J-49236D01*
G03X12592015Y4078756I56134J0D01*
G03X12559841Y4027992I23960J-50764D01*
G03X12615975Y3971858I56134J0D01*
G03X12665971Y4002470I0J56134D01*
G37*
G36*
G01X7375985Y4197337D02*
G03X7586639Y4407991I0J210654D01*
G03X7375985Y4618645I-210654J0D01*
G03X7165331Y4407991I0J-210654D01*
G03X7375985Y4197337I210654J0D01*
G37*
G36*
G01X14521988Y5074336D02*
G03X14637642Y5189990I0J115654D01*
G03X14521988Y5305643I-115654J0D01*
G03X14406335Y5189990I0J-115654D01*
G03X14521988Y5074336I115654J0D01*
G37*
G36*
G01X14521988Y5574335D02*
G03X14637642Y5689989I0J115654D01*
G03X14521988Y5805642I-115654J0D01*
G03X14406335Y5689989I0J-115654D01*
G03X14521988Y5574335I115654J0D01*
G37*
G36*
G01X4345345Y5142990D02*
G03X4460999Y5027336I115654J0D01*
G03X4576653Y5142990I0J115654D01*
G03X4460999Y5258644I-115654J0D01*
G03X4345345Y5142990I0J-115654D01*
G37*
G36*
G01X4345345Y5642989D02*
G03X4460999Y5527335I115654J0D01*
G03X4576653Y5642989I0J115654D01*
G03X4460999Y5758643I-115654J0D01*
G03X4345345Y5642989I0J-115654D01*
G37*
G36*
G01X10313327Y3676993D02*
G03X10338981Y3651339I25654J0D01*
G01X10518981D01*
G03X10544635Y3676993I0J25654D01*
G01Y3856992D01*
G03X10518981Y3882646I-25654J0D01*
G01X10338981D01*
G03X10313327Y3856992I0J-25654D01*
G01Y3676993D01*
G37*
G36*
G01X9683981Y5521335D02*
G03X9799634Y5636989I0J115654D01*
G03X9683981Y5752643I-115654J0D01*
G03X9568327Y5636989I0J-115654D01*
G03X9683981Y5521335I115654J0D01*
G37*
G36*
G01X10059327Y3766992D02*
G03X10174981Y3651339I115654J0D01*
G03X10290635Y3766992I0J115654D01*
G03X10174981Y3882646I-115654J0D01*
G03X10059327Y3766992I0J-115654D01*
G37*
G36*
G01X10668325Y5636989D02*
G03X10783978Y5521335I115654J0D01*
G03X10899632Y5636989I0J115654D01*
G03X10783978Y5752643I-115654J0D01*
G03X10668325Y5636989I0J-115654D01*
G37*
G36*
G01X9805327Y3766992D02*
G03X9920981Y3651339I115654J0D01*
G03X10036635Y3766992I0J115654D01*
G03X9920981Y3882646I-115654J0D01*
G03X9805327Y3766992I0J-115654D01*
G37*
G36*
G01X13937983Y3888639D02*
G03X13975972Y3873838I37990J41353D01*
G03X14031963Y3925714I0J56154D01*
G03X14056971Y3919838I25008J50278D01*
G03X14113125Y3975992I0J56154D01*
G03X14056971Y4032146I-56154J0D01*
G03X14000980Y3980270I0J-56154D01*
G03X13975972Y3986146I-25008J-50278D01*
G03X13937992Y3971354I0J-56154D01*
G03X13900002Y3986155I-37990J-41353D01*
G03X13843848Y3930001I0J-56154D01*
G03X13900002Y3873847I56154J0D01*
G03X13937983Y3888639I0J56154D01*
G37*
G36*
G01X5012997Y5065845D02*
G03X5069151Y5121999I0J56154D01*
G03X5050826Y5163499I-56154J0D01*
G03X5069151Y5204999I-37829J41500D01*
G03X5012997Y5261153I-56154J0D01*
G03X4974009Y5245413I0J-56154D01*
G03X4935022Y5261153I-38987J-40414D01*
G03X4878868Y5204999I0J-56154D01*
G03X4897193Y5163499I56154J0D01*
G03X4878868Y5121999I37829J-41500D01*
G03X4935022Y5065845I56154J0D01*
G03X4974009Y5081586I0J56154D01*
G03X5012997Y5065845I38987J40414D01*
G37*
G36*
G01X13841848Y3806001D02*
G03X13898002Y3749847I56154J0D01*
G03X13936990Y3765587I0J56154D01*
G03X13975977Y3749847I38987J40414D01*
G03X14025483Y3779497I0J56154D01*
G03X14056971Y3769838I31488J46495D01*
G03X14113125Y3825992I0J56154D01*
G03X14056971Y3882146I-56154J0D01*
G03X14007465Y3852496I0J-56154D01*
G03X13975977Y3862155I-31488J-46495D01*
G03X13936990Y3846415I0J-56154D01*
G03X13898002Y3862155I-38987J-40414D01*
G03X13841848Y3806001I0J-56154D01*
G37*
G36*
G01X7733825Y5102993D02*
G03X7789979Y5046839I56154J0D01*
G03X7846133Y5102993I0J56154D01*
G03X7829884Y5142500I-56154J0D01*
G03X7847133Y5182993I-38905J40493D01*
G03X7830884Y5222500I-56154J0D01*
G03X7848133Y5262993I-38905J40493D01*
G03X7791979Y5319147I-56154J0D01*
G03X7735825Y5262993I0J-56154D01*
G03X7752073Y5223485I56154J0D01*
G03X7734825Y5182993I38905J-40493D01*
G03X7751073Y5143485I56154J0D01*
G03X7733825Y5102993I38905J-40493D01*
G37*
G36*
G01X6125973Y5283513D02*
G03X6182127Y5339667I0J56154D01*
G03X6139339Y5394207I-56154J0D01*
G03X6173215Y5445753I-22279J51546D01*
G03X6117061Y5501907I-56154J0D01*
G03X6060907Y5445753I0J-56154D01*
G03X6103695Y5391213I56154J0D01*
G03X6069819Y5339667I22279J-51546D01*
G03X6125973Y5283513I56154J0D01*
G37*
G36*
G01X12737784Y3482248D02*
G03X12793938Y3426093I56154J0D01*
G03X12850092Y3482248I0J56154D01*
G03X12807305Y3536788I-56154J0D01*
G03X12841180Y3588333I-22279J51546D01*
G03X12785026Y3644487I-56154J0D01*
G03X12728872Y3588333I0J-56154D01*
G03X12771660Y3533793I56154J0D01*
G03X12737784Y3482248I22279J-51546D01*
G37*
G36*
G01X5343886Y3237857D02*
G03X5400040Y3294011I0J56154D01*
G03X5343886Y3350165I-56154J0D01*
G03X5287732Y3294011I0J-56154D01*
G03X5343886Y3237857I56154J0D01*
G37*
G36*
G01X5239842Y5130999D02*
G03X5295996Y5074845I56154J0D01*
G03X5352150Y5130999I0J56154D01*
G03X5295996Y5187153I-56154J0D01*
G03X5239842Y5130999I0J-56154D01*
G37*
G36*
G01X5278788Y5445753D02*
G03X5334942Y5389599I56154J0D01*
G03X5391096Y5445753I0J56154D01*
G03X5334942Y5501907I-56154J0D01*
G03X5278788Y5445753I0J-56154D01*
G37*
G36*
G01X5669847Y5575929D02*
G03X5726002Y5519775I56154J0D01*
G03X5782156Y5575929I0J56154D01*
G03X5726002Y5632083I-56154J0D01*
G03X5669847Y5575929I0J-56154D01*
G37*
G36*
G01X5203842Y4260001D02*
G03X5259996Y4203847I56154J0D01*
G03X5316150Y4260001I0J56154D01*
G03X5259996Y4316155I-56154J0D01*
G03X5203842Y4260001I0J-56154D01*
G37*
G36*
G01X6312591Y5389599D02*
G03X6368745Y5445753I0J56154D01*
G03X6312591Y5501907I-56154J0D01*
G03X6256437Y5445753I0J-56154D01*
G03X6312591Y5389599I56154J0D01*
G37*
G36*
G01X4256703Y4213068D02*
G03X4312857Y4156914I56154J0D01*
G03X4369011Y4213068I0J56154D01*
G03X4312857Y4269222I-56154J0D01*
G03X4256703Y4213068I0J-56154D01*
G37*
G36*
G01X5723864Y5644761D02*
G03X5780018Y5700915I0J56154D01*
G03X5723864Y5757070I-56154J0D01*
G03X5667710Y5700915I0J-56154D01*
G03X5723864Y5644761I56154J0D01*
G37*
G36*
G01X5287732Y3163835D02*
G03X5343886Y3107681I56154J0D01*
G03X5400040Y3163835I0J56154D01*
G03X5343886Y3219989I-56154J0D01*
G03X5287732Y3163835I0J-56154D01*
G37*
G36*
G01X4256703Y4363068D02*
G03X4312857Y4306914I56154J0D01*
G03X4369011Y4363068I0J56154D01*
G03X4312857Y4419222I-56154J0D01*
G03X4256703Y4363068I0J-56154D01*
G37*
G36*
G01X4662990Y5452835D02*
G03X4719144Y5508989I0J56154D01*
G03X4662990Y5565143I-56154J0D01*
G03X4606836Y5508989I0J-56154D01*
G03X4662990Y5452835I56154J0D01*
G37*
G36*
G01X5874321Y3294011D02*
G03X5930475Y3237857I56154J0D01*
G03X5986629Y3294011I0J56154D01*
G03X5930475Y3350165I-56154J0D01*
G03X5874321Y3294011I0J-56154D01*
G37*
G36*
G01X4162857Y4156914D02*
G03X4219011Y4213068I0J56154D01*
G03X4162857Y4269222I-56154J0D01*
G03X4106703Y4213068I0J-56154D01*
G03X4162857Y4156914I56154J0D01*
G37*
G36*
G01X4462857Y4156914D02*
G03X4519011Y4213068I0J56154D01*
G03X4462857Y4269222I-56154J0D01*
G03X4406703Y4213068I0J-56154D01*
G03X4462857Y4156914I56154J0D01*
G37*
G36*
G01X4312857Y4006914D02*
G03X4369011Y4063068I0J56154D01*
G03X4312857Y4119222I-56154J0D01*
G03X4256703Y4063068I0J-56154D01*
G03X4312857Y4006914I56154J0D01*
G37*
G36*
G01X6114923Y5644761D02*
G03X6171077Y5700915I0J56154D01*
G03X6114923Y5757070I-56154J0D01*
G03X6058769Y5700915I0J-56154D01*
G03X6114923Y5644761I56154J0D01*
G37*
G36*
G01X5875032Y3491523D02*
G03X5931186Y3547677I0J56154D01*
G03X5875032Y3603832I-56154J0D01*
G03X5818878Y3547677I0J-56154D01*
G03X5875032Y3491523I56154J0D01*
G37*
G36*
G01X5276650Y5700915D02*
G03X5332804Y5644761I56154J0D01*
G03X5388958Y5700915I0J56154D01*
G03X5332804Y5757070I-56154J0D01*
G03X5276650Y5700915I0J-56154D01*
G37*
G36*
G01X6119578Y3491523D02*
G03X6175732Y3547677I0J56154D01*
G03X6119578Y3603832I-56154J0D01*
G03X6063424Y3547677I0J-56154D01*
G03X6119578Y3491523I56154J0D01*
G37*
G36*
G01X5872183Y3418997D02*
G03X5928337Y3362843I56154J0D01*
G03X5984491Y3418997I0J56154D01*
G03X5928337Y3475151I-56154J0D01*
G03X5872183Y3418997I0J-56154D01*
G37*
G36*
G01X4162857Y4006914D02*
G03X4219011Y4063068I0J56154D01*
G03X4162857Y4119222I-56154J0D01*
G03X4106703Y4063068I0J-56154D01*
G03X4162857Y4006914I56154J0D01*
G37*
G36*
G01X4406703Y4063068D02*
G03X4462857Y4006914I56154J0D01*
G03X4519011Y4063068I0J56154D01*
G03X4462857Y4119222I-56154J0D01*
G03X4406703Y4063068I0J-56154D01*
G37*
G36*
G01X4762857Y4306914D02*
G03X4819011Y4363068I0J56154D01*
G03X4762857Y4419222I-56154J0D01*
G03X4706703Y4363068I0J-56154D01*
G03X4762857Y4306914I56154J0D01*
G37*
G36*
G01X6312591Y5519775D02*
G03X6368745Y5575929I0J56154D01*
G03X6312591Y5632083I-56154J0D01*
G03X6256437Y5575929I0J-56154D01*
G03X6312591Y5519775I56154J0D01*
G37*
G36*
G01X5285594Y3418997D02*
G03X5341748Y3362843I56154J0D01*
G03X5397902Y3418997I0J56154D01*
G03X5341748Y3475151I-56154J0D01*
G03X5285594Y3418997I0J-56154D01*
G37*
G36*
G01X4662990Y5602835D02*
G03X4719144Y5658989I0J56154D01*
G03X4662990Y5715143I-56154J0D01*
G03X4606836Y5658989I0J-56154D01*
G03X4662990Y5602835I56154J0D01*
G37*
G36*
G01X6307970Y3547677D02*
G03X6364124Y3491523I56154J0D01*
G03X6420278Y3547677I0J56154D01*
G03X6364124Y3603832I-56154J0D01*
G03X6307970Y3547677I0J-56154D01*
G37*
G36*
G01X5530472Y5519775D02*
G03X5586626Y5575929I0J56154D01*
G03X5530472Y5632083I-56154J0D01*
G03X5474318Y5575929I0J-56154D01*
G03X5530472Y5519775I56154J0D01*
G37*
G36*
G01X4162857Y4306914D02*
G03X4219011Y4363068I0J56154D01*
G03X4162857Y4419222I-56154J0D01*
G03X4106703Y4363068I0J-56154D01*
G03X4162857Y4306914I56154J0D01*
G37*
G36*
G01X4556703Y4363068D02*
G03X4612857Y4306914I56154J0D01*
G03X4669011Y4363068I0J56154D01*
G03X4612857Y4419222I-56154J0D01*
G03X4556703Y4363068I0J-56154D01*
G37*
G36*
G01X4762857Y4156914D02*
G03X4819011Y4213068I0J56154D01*
G03X4762857Y4269222I-56154J0D01*
G03X4706703Y4213068I0J-56154D01*
G03X4762857Y4156914I56154J0D01*
G37*
G36*
G01X6310453Y5644761D02*
G03X6366607Y5700915I0J56154D01*
G03X6310453Y5757070I-56154J0D01*
G03X6254299Y5700915I0J-56154D01*
G03X6310453Y5644761I56154J0D01*
G37*
G36*
G01X5258996Y4328847D02*
G03X5315150Y4385001I0J56154D01*
G03X5258996Y4441155I-56154J0D01*
G03X5202842Y4385001I0J-56154D01*
G03X5258996Y4328847I56154J0D01*
G37*
G36*
G01X5334942Y5519775D02*
G03X5391096Y5575929I0J56154D01*
G03X5334942Y5632083I-56154J0D01*
G03X5278788Y5575929I0J-56154D01*
G03X5334942Y5519775I56154J0D01*
G37*
G36*
G01X5483261Y3294011D02*
G03X5539415Y3237857I56154J0D01*
G03X5595569Y3294011I0J56154D01*
G03X5539415Y3350165I-56154J0D01*
G03X5483261Y3294011I0J-56154D01*
G37*
G36*
G01X4906836Y5658989D02*
G03X4962990Y5602835I56154J0D01*
G03X5019144Y5658989I0J56154D01*
G03X4962990Y5715143I-56154J0D01*
G03X4906836Y5658989I0J-56154D01*
G37*
G36*
G01X5825273Y5339667D02*
G03X5881427Y5283513I56154J0D01*
G03X5937581Y5339667I0J56154D01*
G03X5881427Y5395821I-56154J0D01*
G03X5825273Y5339667I0J-56154D01*
G37*
G36*
G01X5734945Y3107681D02*
G03X5791099Y3163835I0J56154D01*
G03X5734945Y3219989I-56154J0D01*
G03X5678791Y3163835I0J-56154D01*
G03X5734945Y3107681I56154J0D01*
G37*
G36*
G01X4706703Y4063068D02*
G03X4762857Y4006914I56154J0D01*
G03X4819011Y4063068I0J56154D01*
G03X4762857Y4119222I-56154J0D01*
G03X4706703Y4063068I0J-56154D01*
G37*
G36*
G01X5863239Y5700915D02*
G03X5919393Y5644761I56154J0D01*
G03X5975547Y5700915I0J56154D01*
G03X5919393Y5757070I-56154J0D01*
G03X5863239Y5700915I0J-56154D01*
G37*
G36*
G01X5213290Y4764000D02*
G03X5269444Y4707846I56154J0D01*
G03X5325598Y4764000I0J56154D01*
G03X5269444Y4820154I-56154J0D01*
G03X5213290Y4764000I0J-56154D01*
G37*
G36*
G01X4756836Y5508989D02*
G03X4812990Y5452835I56154J0D01*
G03X4869144Y5508989I0J56154D01*
G03X4812990Y5565143I-56154J0D01*
G03X4756836Y5508989I0J-56154D01*
G37*
G36*
G01X5537278Y3362843D02*
G03X5593432Y3418997I0J56154D01*
G03X5537278Y3475151I-56154J0D01*
G03X5481124Y3418997I0J-56154D01*
G03X5537278Y3362843I56154J0D01*
G37*
G36*
G01X4812990Y5602835D02*
G03X4869144Y5658989I0J56154D01*
G03X4812990Y5715143I-56154J0D01*
G03X4756836Y5658989I0J-56154D01*
G03X4812990Y5602835I56154J0D01*
G37*
G36*
G01X4950704Y4512485D02*
G03X5006858Y4456331I56154J0D01*
G03X5063012Y4512485I0J56154D01*
G03X5006858Y4568639I-56154J0D01*
G03X4950704Y4512485I0J-56154D01*
G37*
G36*
G01X4556703Y4213068D02*
G03X4612857Y4156914I56154J0D01*
G03X4669011Y4213068I0J56154D01*
G03X4612857Y4269222I-56154J0D01*
G03X4556703Y4213068I0J-56154D01*
G37*
G36*
G01X5539415Y3107681D02*
G03X5595569Y3163835I0J56154D01*
G03X5539415Y3219989I-56154J0D01*
G03X5483261Y3163835I0J-56154D01*
G03X5539415Y3107681I56154J0D01*
G37*
G36*
G01X6069851Y3163835D02*
G03X6126005Y3107681I56154J0D01*
G03X6182159Y3163835I0J56154D01*
G03X6126005Y3219989I-56154J0D01*
G03X6069851Y3163835I0J-56154D01*
G37*
G36*
G01X4950704Y4640792D02*
G03X5006858Y4584638I56154J0D01*
G03X5063012Y4640792I0J56154D01*
G03X5006858Y4696946I-56154J0D01*
G03X4950704Y4640792I0J-56154D01*
G37*
G36*
G01X4906836Y5508989D02*
G03X4962990Y5452835I56154J0D01*
G03X5019144Y5508989I0J56154D01*
G03X4962990Y5565143I-56154J0D01*
G03X4906836Y5508989I0J-56154D01*
G37*
G36*
G01X5472180Y5700915D02*
G03X5528334Y5644761I56154J0D01*
G03X5584488Y5700915I0J56154D01*
G03X5528334Y5757070I-56154J0D01*
G03X5472180Y5700915I0J-56154D01*
G37*
G36*
G01X5678791Y3294011D02*
G03X5734945Y3237857I56154J0D01*
G03X5791099Y3294011I0J56154D01*
G03X5734945Y3350165I-56154J0D01*
G03X5678791Y3294011I0J-56154D01*
G37*
G36*
G01X6117061Y5519775D02*
G03X6173215Y5575929I0J56154D01*
G03X6117061Y5632083I-56154J0D01*
G03X6060907Y5575929I0J-56154D01*
G03X6117061Y5519775I56154J0D01*
G37*
G36*
G01X5474318Y5445753D02*
G03X5530472Y5389599I56154J0D01*
G03X5586626Y5445753I0J56154D01*
G03X5530472Y5501907I-56154J0D01*
G03X5474318Y5445753I0J-56154D01*
G37*
G36*
G01X6265380Y3163835D02*
G03X6321534Y3107681I56154J0D01*
G03X6377689Y3163835I0J56154D01*
G03X6321534Y3219989I-56154J0D01*
G03X6265380Y3163835I0J-56154D01*
G37*
G36*
G01X4406703Y4363068D02*
G03X4462857Y4306914I56154J0D01*
G03X4519011Y4363068I0J56154D01*
G03X4462857Y4419222I-56154J0D01*
G03X4406703Y4363068I0J-56154D01*
G37*
G36*
G01X6321534Y3237857D02*
G03X6377689Y3294011I0J56154D01*
G03X6321534Y3350165I-56154J0D01*
G03X6265380Y3294011I0J-56154D01*
G03X6321534Y3237857I56154J0D01*
G37*
G36*
G01X5865377Y5445753D02*
G03X5921531Y5389599I56154J0D01*
G03X5977685Y5445753I0J56154D01*
G03X5921531Y5501907I-56154J0D01*
G03X5865377Y5445753I0J-56154D01*
G37*
G36*
G01X5930475Y3107681D02*
G03X5986629Y3163835I0J56154D01*
G03X5930475Y3219989I-56154J0D01*
G03X5874321Y3163835I0J-56154D01*
G03X5930475Y3107681I56154J0D01*
G37*
G36*
G01X4612857Y4006914D02*
G03X4669011Y4063068I0J56154D01*
G03X4612857Y4119222I-56154J0D01*
G03X4556703Y4063068I0J-56154D01*
G03X4612857Y4006914I56154J0D01*
G37*
G36*
G01X6263243Y3418997D02*
G03X6319397Y3362843I56154J0D01*
G03X6375551Y3418997I0J56154D01*
G03X6319397Y3475151I-56154J0D01*
G03X6263243Y3418997I0J-56154D01*
G37*
G36*
G01X6370519Y5283513D02*
G03X6426673Y5339667I0J56154D01*
G03X6370519Y5395821I-56154J0D01*
G03X6314365Y5339667I0J-56154D01*
G03X6370519Y5283513I56154J0D01*
G37*
G36*
G01X6069851Y3294011D02*
G03X6126005Y3237857I56154J0D01*
G03X6182159Y3294011I0J56154D01*
G03X6126005Y3350165I-56154J0D01*
G03X6069851Y3294011I0J-56154D01*
G37*
G36*
G01X5676653Y3418997D02*
G03X5732807Y3362843I56154J0D01*
G03X5788961Y3418997I0J56154D01*
G03X5732807Y3475151I-56154J0D01*
G03X5676653Y3418997I0J-56154D01*
G37*
G36*
G01X5865377Y5575929D02*
G03X5921531Y5519775I56154J0D01*
G03X5977685Y5575929I0J56154D01*
G03X5921531Y5632083I-56154J0D01*
G03X5865377Y5575929I0J-56154D01*
G37*
G36*
G01X5726002Y5389599D02*
G03X5782156Y5445753I0J56154D01*
G03X5726002Y5501907I-56154J0D01*
G03X5669847Y5445753I0J-56154D01*
G03X5726002Y5389599I56154J0D01*
G37*
G36*
G01X6067713Y3418997D02*
G03X6123867Y3362843I56154J0D01*
G03X6180021Y3418997I0J56154D01*
G03X6123867Y3475151I-56154J0D01*
G03X6067713Y3418997I0J-56154D01*
G37*
G36*
G01X6508121Y5389599D02*
G03X6564275Y5445753I0J56154D01*
G03X6508121Y5501907I-56154J0D01*
G03X6451967Y5445753I0J-56154D01*
G03X6508121Y5389599I56154J0D01*
G37*
G36*
G01X6514927Y3362843D02*
G03X6571081Y3418997I0J56154D01*
G03X6514927Y3475151I-56154J0D01*
G03X6458772Y3418997I0J-56154D01*
G03X6514927Y3362843I56154J0D01*
G37*
G36*
G01X6517064Y3107681D02*
G03X6573219Y3163835I0J56154D01*
G03X6517064Y3219989I-56154J0D01*
G03X6460910Y3163835I0J-56154D01*
G03X6517064Y3107681I56154J0D01*
G37*
G36*
G01X6449829Y5700915D02*
G03X6505983Y5644761I56154J0D01*
G03X6562137Y5700915I0J56154D01*
G03X6505983Y5757070I-56154J0D01*
G03X6449829Y5700915I0J-56154D01*
G37*
G36*
G01X6460910Y3294011D02*
G03X6517064Y3237857I56154J0D01*
G03X6573219Y3294011I0J56154D01*
G03X6517064Y3350165I-56154J0D01*
G03X6460910Y3294011I0J-56154D01*
G37*
G36*
G01X6451967Y5575929D02*
G03X6508121Y5519775I56154J0D01*
G03X6564275Y5575929I0J56154D01*
G03X6508121Y5632083I-56154J0D01*
G03X6451967Y5575929I0J-56154D01*
G37*
G36*
G01X8388983Y3374839D02*
G03X8445137Y3430993I0J56154D01*
G03X8388983Y3487147I-56154J0D01*
G03X8332829Y3430993I0J-56154D01*
G03X8388983Y3374839I56154J0D01*
G37*
G36*
G01X14662971Y4399837D02*
G03X14719125Y4455991I0J56154D01*
G03X14662971Y4512145I-56154J0D01*
G03X14606817Y4455991I0J-56154D01*
G03X14662971Y4399837I56154J0D01*
G37*
G36*
G01X14304971Y5782835D02*
G03X14361125Y5838989I0J56154D01*
G03X14304971Y5895143I-56154J0D01*
G03X14248817Y5838989I0J-56154D01*
G03X14304971Y5782835I56154J0D01*
G37*
G36*
G01X6701512Y5644761D02*
G03X6757666Y5700915I0J56154D01*
G03X6701512Y5757070I-56154J0D01*
G03X6645358Y5700915I0J-56154D01*
G03X6701512Y5644761I56154J0D01*
G37*
G36*
G01X13595849Y4543000D02*
G03X13652003Y4486845I56154J0D01*
G03X13708157Y4543000I0J56154D01*
G03X13652003Y4599154I-56154J0D01*
G03X13595849Y4543000I0J-56154D01*
G37*
G36*
G01X12346724Y3352072D02*
G03X12402878Y3295917I56154J0D01*
G03X12459032Y3352072I0J56154D01*
G03X12402878Y3408226I-56154J0D01*
G03X12346724Y3352072I0J-56154D01*
G37*
G36*
G01X13184998Y3426093D02*
G03X13241152Y3482248I0J56154D01*
G03X13184998Y3538402I-56154J0D01*
G03X13128843Y3482248I0J-56154D01*
G03X13184998Y3426093I56154J0D01*
G37*
G36*
G01X12198405Y5577836D02*
G03X12254559Y5633990I0J56154D01*
G03X12198405Y5690144I-56154J0D01*
G03X12142251Y5633990I0J-56154D01*
G03X12198405Y5577836I56154J0D01*
G37*
G36*
G01X12011819Y3426093D02*
G03X12067973Y3482248I0J56154D01*
G03X12011819Y3538402I-56154J0D01*
G03X11955665Y3482248I0J-56154D01*
G03X12011819Y3426093I56154J0D01*
G37*
G36*
G01X14662971Y4699837D02*
G03X14719125Y4755991I0J56154D01*
G03X14662971Y4812145I-56154J0D01*
G03X14606817Y4755991I0J-56154D01*
G03X14662971Y4699837I56154J0D01*
G37*
G36*
G01X13974818Y5841989D02*
G03X14030972Y5785835I56154J0D01*
G03X14087126Y5841989I0J56154D01*
G03X14030972Y5898143I-56154J0D01*
G03X13974818Y5841989I0J-56154D01*
G37*
G36*
G01X12198405Y5708012D02*
G03X12254559Y5764166I0J56154D01*
G03X12198405Y5820320I-56154J0D01*
G03X12142251Y5764166I0J-56154D01*
G03X12198405Y5708012I56154J0D01*
G37*
G36*
G01X14812971Y4549837D02*
G03X14869125Y4605991I0J56154D01*
G03X14812971Y4662145I-56154J0D01*
G03X14756817Y4605991I0J-56154D01*
G03X14812971Y4549837I56154J0D01*
G37*
G36*
G01X13184998Y3295917D02*
G03X13241152Y3352072I0J56154D01*
G03X13184998Y3408226I-56154J0D01*
G03X13128843Y3352072I0J-56154D01*
G03X13184998Y3295917I56154J0D01*
G37*
G36*
G01X11065978Y3775838D02*
G03X11122132Y3831992I0J56154D01*
G03X11065978Y3888146I-56154J0D01*
G03X11009824Y3831992I0J-56154D01*
G03X11065978Y3775838I56154J0D01*
G37*
G36*
G01X12787132Y5452849D02*
G03X12843286Y5509003I0J56154D01*
G03X12787132Y5565157I-56154J0D01*
G03X12730978Y5509003I0J-56154D01*
G03X12787132Y5452849I56154J0D01*
G37*
G36*
G01X13576057Y3426093D02*
G03X13632211Y3482248I0J56154D01*
G03X13576057Y3538402I-56154J0D01*
G03X13519903Y3482248I0J-56154D01*
G03X13576057Y3426093I56154J0D01*
G37*
G36*
G01X12791421Y5324169D02*
G03X12847575Y5380323I0J56154D01*
G03X12791421Y5436477I-56154J0D01*
G03X12735267Y5380323I0J-56154D01*
G03X12791421Y5324169I56154J0D01*
G37*
G36*
G01X14124818Y5841989D02*
G03X14180972Y5785835I56154J0D01*
G03X14237126Y5841989I0J56154D01*
G03X14180972Y5898143I-56154J0D01*
G03X14124818Y5841989I0J-56154D01*
G37*
G36*
G01X14124818Y5691989D02*
G03X14180972Y5635835I56154J0D01*
G03X14237126Y5691989I0J56154D01*
G03X14180972Y5748143I-56154J0D01*
G03X14124818Y5691989I0J-56154D01*
G37*
G36*
G01X13904141Y4359361D02*
G03X13960295Y4415515I0J56154D01*
G03X13904141Y4471669I-56154J0D01*
G03X13847987Y4415515I0J-56154D01*
G03X13904141Y4359361I56154J0D01*
G37*
G36*
G01X6710456Y3362843D02*
G03X6766610Y3418997I0J56154D01*
G03X6710456Y3475151I-56154J0D01*
G03X6654302Y3418997I0J-56154D01*
G03X6710456Y3362843I56154J0D01*
G37*
G36*
G01X8081852Y4137001D02*
G03X8138006Y4080847I56154J0D01*
G03X8194160Y4137001I0J56154D01*
G03X8138006Y4193155I-56154J0D01*
G03X8081852Y4137001I0J-56154D01*
G37*
G36*
G01X12535448Y5509003D02*
G03X12591602Y5452849I56154J0D01*
G03X12647756Y5509003I0J56154D01*
G03X12591602Y5565157I-56154J0D01*
G03X12535448Y5509003I0J-56154D01*
G37*
G36*
G01X11955665Y3352072D02*
G03X12011819Y3295917I56154J0D01*
G03X12067973Y3352072I0J56154D01*
G03X12011819Y3408226I-56154J0D01*
G03X11955665Y3352072I0J-56154D01*
G37*
G36*
G01X14212971Y4699837D02*
G03X14269125Y4755991I0J56154D01*
G03X14212971Y4812145I-56154J0D01*
G03X14156817Y4755991I0J-56154D01*
G03X14212971Y4699837I56154J0D01*
G37*
G36*
G01X8707829Y5917988D02*
G03X8763983Y5861834I56154J0D01*
G03X8820137Y5917988I0J56154D01*
G03X8763983Y5974142I-56154J0D01*
G03X8707829Y5917988I0J-56154D01*
G37*
G36*
G01X14030972Y5635835D02*
G03X14087126Y5691989I0J56154D01*
G03X14030972Y5748143I-56154J0D01*
G03X13974818Y5691989I0J-56154D01*
G03X14030972Y5635835I56154J0D01*
G37*
G36*
G01X13904141Y4231054D02*
G03X13960295Y4287208I0J56154D01*
G03X13904141Y4343362I-56154J0D01*
G03X13847987Y4287208I0J-56154D01*
G03X13904141Y4231054I56154J0D01*
G37*
G36*
G01X6712594Y3237857D02*
G03X6768748Y3294011I0J56154D01*
G03X6712594Y3350165I-56154J0D01*
G03X6656440Y3294011I0J-56154D01*
G03X6712594Y3237857I56154J0D01*
G37*
G36*
G01X11838352Y4288515D02*
G03X11894507Y4232361I56154J0D01*
G03X11950661Y4288515I0J56154D01*
G03X11894507Y4344669I-56154J0D01*
G03X11838352Y4288515I0J-56154D01*
G37*
G36*
G01X12793938Y3295917D02*
G03X12850092Y3352072I0J56154D01*
G03X12793938Y3408226I-56154J0D01*
G03X12737784Y3352072I0J-56154D01*
G03X12793938Y3295917I56154J0D01*
G37*
G36*
G01X7565831Y3577993D02*
G03X7621985Y3521839I56154J0D01*
G03X7678139Y3577993I0J56154D01*
G03X7621985Y3634147I-56154J0D01*
G03X7565831Y3577993I0J-56154D01*
G37*
G36*
G01X14662971Y4549837D02*
G03X14719125Y4605991I0J56154D01*
G03X14662971Y4662145I-56154J0D01*
G03X14606817Y4605991I0J-56154D01*
G03X14662971Y4549837I56154J0D01*
G37*
G36*
G01X8595330Y5920988D02*
G03X8651484Y5864834I56154J0D01*
G03X8707638Y5920988I0J56154D01*
G03X8651484Y5977142I-56154J0D01*
G03X8595330Y5920988I0J-56154D01*
G37*
G36*
G01X13315430Y5633990D02*
G03X13371584Y5577836I56154J0D01*
G03X13427738Y5633990I0J56154D01*
G03X13371584Y5690144I-56154J0D01*
G03X13315430Y5633990I0J-56154D01*
G37*
G36*
G01X13651003Y4611845D02*
G03X13707157Y4667999I0J56154D01*
G03X13651003Y4724153I-56154J0D01*
G03X13594849Y4667999I0J-56154D01*
G03X13651003Y4611845I56154J0D01*
G37*
G36*
G01X12002875Y5708012D02*
G03X12059029Y5764166I0J56154D01*
G03X12002875Y5820320I-56154J0D01*
G03X11946721Y5764166I0J-56154D01*
G03X12002875Y5708012I56154J0D01*
G37*
G36*
G01X11838352Y4415515D02*
G03X11894507Y4359361I56154J0D01*
G03X11950661Y4415515I0J56154D01*
G03X11894507Y4471669I-56154J0D01*
G03X11838352Y4415515I0J-56154D01*
G37*
G36*
G01X12924370Y5633990D02*
G03X12980524Y5577836I56154J0D01*
G03X13036678Y5633990I0J56154D01*
G03X12980524Y5690144I-56154J0D01*
G03X12924370Y5633990I0J-56154D01*
G37*
G36*
G01X13029572Y3532179D02*
G03X13085726Y3588333I0J56154D01*
G03X13029572Y3644487I-56154J0D01*
G03X12973418Y3588333I0J-56154D01*
G03X13029572Y3532179I56154J0D01*
G37*
G36*
G01X6703650Y5389599D02*
G03X6759804Y5445753I0J56154D01*
G03X6703650Y5501907I-56154J0D01*
G03X6647496Y5445753I0J-56154D01*
G03X6703650Y5389599I56154J0D01*
G37*
G36*
G01X8538984Y5865834D02*
G03X8595138Y5921988I0J56154D01*
G03X8538984Y5978142I-56154J0D01*
G03X8482830Y5921988I0J-56154D01*
G03X8538984Y5865834I56154J0D01*
G37*
G36*
G01X13122038Y5509003D02*
G03X13178192Y5452849I56154J0D01*
G03X13234346Y5509003I0J56154D01*
G03X13178192Y5565157I-56154J0D01*
G03X13122038Y5509003I0J-56154D01*
G37*
G36*
G01X14756817Y4755991D02*
G03X14812971Y4699837I56154J0D01*
G03X14869125Y4755991I0J56154D01*
G03X14812971Y4812145I-56154J0D01*
G03X14756817Y4755991I0J-56154D01*
G37*
G36*
G01X14306817Y4455991D02*
G03X14362971Y4399837I56154J0D01*
G03X14419125Y4455991I0J56154D01*
G03X14362971Y4512145I-56154J0D01*
G03X14306817Y4455991I0J-56154D01*
G37*
G36*
G01X7962006Y4080847D02*
G03X8018160Y4137001I0J56154D01*
G03X7962006Y4193155I-56154J0D01*
G03X7905852Y4137001I0J-56154D01*
G03X7962006Y4080847I56154J0D01*
G37*
G36*
G01X12924370Y5764166D02*
G03X12980524Y5708012I56154J0D01*
G03X13036678Y5764166I0J56154D01*
G03X12980524Y5820320I-56154J0D01*
G03X12924370Y5764166I0J-56154D01*
G37*
G36*
G01X12540480Y3532179D02*
G03X12596634Y3588333I0J56154D01*
G03X12540480Y3644487I-56154J0D01*
G03X12484326Y3588333I0J-56154D01*
G03X12540480Y3532179I56154J0D01*
G37*
G36*
G01X11948859Y5509003D02*
G03X12005013Y5452849I56154J0D01*
G03X12061167Y5509003I0J56154D01*
G03X12005013Y5565157I-56154J0D01*
G03X11948859Y5509003I0J-56154D01*
G37*
G36*
G01X9006983Y5714834D02*
G03X9063137Y5770988I0J56154D01*
G03X9006983Y5827143I-56154J0D01*
G03X8950829Y5770988I0J-56154D01*
G03X9006983Y5714834I56154J0D01*
G37*
G36*
G01X13315430Y5764166D02*
G03X13371584Y5708012I56154J0D01*
G03X13427738Y5764166I0J56154D01*
G03X13371584Y5820320I-56154J0D01*
G03X13315430Y5764166I0J-56154D01*
G37*
G36*
G01X14756817Y4455991D02*
G03X14812971Y4399837I56154J0D01*
G03X14869125Y4455991I0J56154D01*
G03X14812971Y4512145I-56154J0D01*
G03X14756817Y4455991I0J-56154D01*
G37*
G36*
G01X14306817Y4605991D02*
G03X14362971Y4549837I56154J0D01*
G03X14419125Y4605991I0J56154D01*
G03X14362971Y4662145I-56154J0D01*
G03X14306817Y4605991I0J-56154D01*
G37*
G36*
G01X11388808Y4017844D02*
G03X11444962Y4073998I0J56154D01*
G03X11388808Y4130152I-56154J0D01*
G03X11332654Y4073998I0J-56154D01*
G03X11388808Y4017844I56154J0D01*
G37*
G36*
G01X12393935Y5708012D02*
G03X12450089Y5764166I0J56154D01*
G03X12393935Y5820320I-56154J0D01*
G03X12337781Y5764166I0J-56154D01*
G03X12393935Y5708012I56154J0D01*
G37*
G36*
G01X7438298Y3595557D02*
G03X7494452Y3539403I56154J0D01*
G03X7550606Y3595557I0J56154D01*
G03X7494452Y3651711I-56154J0D01*
G03X7438298Y3595557I0J-56154D01*
G37*
G36*
G01X7717830Y5544989D02*
G03X7773984Y5488835I56154J0D01*
G03X7830139Y5544989I0J56154D01*
G03X7773984Y5601143I-56154J0D01*
G03X7717830Y5544989I0J-56154D01*
G37*
G36*
G01X6712594Y3107681D02*
G03X6768748Y3163835I0J56154D01*
G03X6712594Y3219989I-56154J0D01*
G03X6656440Y3163835I0J-56154D01*
G03X6712594Y3107681I56154J0D01*
G37*
G36*
G01X6899180Y5519775D02*
G03X6955334Y5575929I0J56154D01*
G03X6899180Y5632083I-56154J0D01*
G03X6843026Y5575929I0J-56154D01*
G03X6899180Y5519775I56154J0D01*
G37*
G36*
G01X13641555Y4107846D02*
G03X13697709Y4164000I0J56154D01*
G03X13641555Y4220154I-56154J0D01*
G03X13585401Y4164000I0J-56154D01*
G03X13641555Y4107846I56154J0D01*
G37*
G36*
G01X6840888Y5700915D02*
G03X6897042Y5644761I56154J0D01*
G03X6953196Y5700915I0J56154D01*
G03X6897042Y5757070I-56154J0D01*
G03X6840888Y5700915I0J-56154D01*
G37*
G36*
G01X12346724Y3482248D02*
G03X12402878Y3426093I56154J0D01*
G03X12459032Y3482248I0J56154D01*
G03X12402878Y3538402I-56154J0D01*
G03X12346724Y3482248I0J-56154D01*
G37*
G36*
G01X12533310Y5764166D02*
G03X12589465Y5708012I56154J0D01*
G03X12645619Y5764166I0J56154D01*
G03X12589465Y5820320I-56154J0D01*
G03X12533310Y5764166I0J-56154D01*
G37*
G36*
G01X7302831Y3601993D02*
G03X7358985Y3545839I56154J0D01*
G03X7415139Y3601993I0J56154D01*
G03X7358985Y3658147I-56154J0D01*
G03X7302831Y3601993I0J-56154D01*
G37*
G36*
G01X12546875Y5324169D02*
G03X12603029Y5380323I0J56154D01*
G03X12546875Y5436477I-56154J0D01*
G03X12490721Y5380323I0J-56154D01*
G03X12546875Y5324169I56154J0D01*
G37*
G36*
G01X6899180Y5389599D02*
G03X6955334Y5445753I0J56154D01*
G03X6899180Y5501907I-56154J0D01*
G03X6843026Y5445753I0J-56154D01*
G03X6899180Y5389599I56154J0D01*
G37*
G36*
G01X12144389Y5509003D02*
G03X12200543Y5452849I56154J0D01*
G03X12256697Y5509003I0J56154D01*
G03X12200543Y5565157I-56154J0D01*
G03X12144389Y5509003I0J-56154D01*
G37*
G36*
G01X14000817Y4125992D02*
G03X14056971Y4069838I56154J0D01*
G03X14113125Y4125992I0J56154D01*
G03X14056971Y4182146I-56154J0D01*
G03X14000817Y4125992I0J-56154D01*
G37*
G36*
G01X13510959Y5764166D02*
G03X13567113Y5708012I56154J0D01*
G03X13623267Y5764166I0J56154D01*
G03X13567113Y5820320I-56154J0D01*
G03X13510959Y5764166I0J-56154D01*
G37*
G36*
G01X7016492Y4456331D02*
G03X7072647Y4512485I0J56154D01*
G03X7016492Y4568639I-56154J0D01*
G03X6960338Y4512485I0J-56154D01*
G03X7016492Y4456331I56154J0D01*
G37*
G36*
G01X12393935Y5577836D02*
G03X12450089Y5633990I0J56154D01*
G03X12393935Y5690144I-56154J0D01*
G03X12337781Y5633990I0J-56154D01*
G03X12393935Y5577836I56154J0D01*
G37*
G36*
G01X11381823Y3654993D02*
G03X11437977Y3598839I56154J0D01*
G03X11494131Y3654993I0J56154D01*
G03X11437977Y3711147I-56154J0D01*
G03X11381823Y3654993I0J-56154D01*
G37*
G36*
G01X13317567Y5509003D02*
G03X13373721Y5452849I56154J0D01*
G03X13429875Y5509003I0J56154D01*
G03X13373721Y5565157I-56154J0D01*
G03X13317567Y5509003I0J-56154D01*
G37*
G36*
G01X13569251Y5452849D02*
G03X13625405Y5509003I0J56154D01*
G03X13569251Y5565157I-56154J0D01*
G03X13513097Y5509003I0J-56154D01*
G03X13569251Y5452849I56154J0D01*
G37*
G36*
G01X12989468Y3295917D02*
G03X13045622Y3352072I0J56154D01*
G03X12989468Y3408226I-56154J0D01*
G03X12933314Y3352072I0J-56154D01*
G03X12989468Y3295917I56154J0D01*
G37*
G36*
G01X11455823Y3834992D02*
G03X11511977Y3778838I56154J0D01*
G03X11568131Y3834992I0J56154D01*
G03X11511977Y3891146I-56154J0D01*
G03X11455823Y3834992I0J-56154D01*
G37*
G36*
G01X14304971Y5632835D02*
G03X14361125Y5688989I0J56154D01*
G03X14304971Y5745143I-56154J0D01*
G03X14248817Y5688989I0J-56154D01*
G03X14304971Y5632835I56154J0D01*
G37*
G36*
G01X7016986Y4590837D02*
G03X7073140Y4646991I0J56154D01*
G03X7016986Y4703145I-56154J0D01*
G03X6960832Y4646991I0J-56154D01*
G03X7016986Y4590837I56154J0D01*
G37*
G36*
G01X13176054Y5708012D02*
G03X13232208Y5764166I0J56154D01*
G03X13176054Y5820320I-56154J0D01*
G03X13119900Y5764166I0J-56154D01*
G03X13176054Y5708012I56154J0D01*
G37*
G36*
G01X11254823Y3656993D02*
G03X11310977Y3600839I56154J0D01*
G03X11367131Y3656993I0J56154D01*
G03X11310977Y3713147I-56154J0D01*
G03X11254823Y3656993I0J-56154D01*
G37*
G36*
G01X13974818Y5541989D02*
G03X14030972Y5485835I56154J0D01*
G03X14087126Y5541989I0J56154D01*
G03X14030972Y5598143I-56154J0D01*
G03X13974818Y5541989I0J-56154D01*
G37*
G36*
G01X6908124Y3237857D02*
G03X6964278Y3294011I0J56154D01*
G03X6908124Y3350165I-56154J0D01*
G03X6851970Y3294011I0J-56154D01*
G03X6908124Y3237857I56154J0D01*
G37*
G36*
G01X12542254Y3352072D02*
G03X12598408Y3295917I56154J0D01*
G03X12654562Y3352072I0J56154D01*
G03X12598408Y3408226I-56154J0D01*
G03X12542254Y3352072I0J-56154D01*
G37*
G36*
G01X10864824Y3831992D02*
G03X10920978Y3775838I56154J0D01*
G03X10977132Y3831992I0J56154D01*
G03X10920978Y3888146I-56154J0D01*
G03X10864824Y3831992I0J-56154D01*
G37*
G36*
G01X14456817Y4455991D02*
G03X14512971Y4399837I56154J0D01*
G03X14569125Y4455991I0J56154D01*
G03X14512971Y4512145I-56154J0D01*
G03X14456817Y4455991I0J-56154D01*
G37*
G36*
G01X14156817Y4455991D02*
G03X14212971Y4399837I56154J0D01*
G03X14269125Y4455991I0J56154D01*
G03X14212971Y4512145I-56154J0D01*
G03X14156817Y4455991I0J-56154D01*
G37*
G36*
G01X13119900Y5633990D02*
G03X13176054Y5577836I56154J0D01*
G03X13232208Y5633990I0J56154D01*
G03X13176054Y5690144I-56154J0D01*
G03X13119900Y5633990I0J-56154D01*
G37*
G36*
G01X13519903Y3352072D02*
G03X13576057Y3295917I56154J0D01*
G03X13632211Y3352072I0J56154D01*
G03X13576057Y3408226I-56154J0D01*
G03X13519903Y3352072I0J-56154D01*
G37*
G36*
G01X14124818Y5541989D02*
G03X14180972Y5485835I56154J0D01*
G03X14237126Y5541989I0J56154D01*
G03X14180972Y5598143I-56154J0D01*
G03X14124818Y5541989I0J-56154D01*
G37*
G36*
G01X6905986Y3362843D02*
G03X6962140Y3418997I0J56154D01*
G03X6905986Y3475151I-56154J0D01*
G03X6849832Y3418997I0J-56154D01*
G03X6905986Y3362843I56154J0D01*
G37*
G36*
G01X12982662Y5452849D02*
G03X13038816Y5509003I0J56154D01*
G03X12982662Y5565157I-56154J0D01*
G03X12926508Y5509003I0J-56154D01*
G03X12982662Y5452849I56154J0D01*
G37*
G36*
G01X8399998Y3212846D02*
G03X8456152Y3269000I0J56154D01*
G03X8399998Y3325154I-56154J0D01*
G03X8343844Y3269000I0J-56154D01*
G03X8399998Y3212846I56154J0D01*
G37*
G36*
G01X14456817Y4605991D02*
G03X14512971Y4549837I56154J0D01*
G03X14569125Y4605991I0J56154D01*
G03X14512971Y4662145I-56154J0D01*
G03X14456817Y4605991I0J-56154D01*
G37*
G36*
G01X14156817Y4605991D02*
G03X14212971Y4549837I56154J0D01*
G03X14269125Y4605991I0J56154D01*
G03X14212971Y4662145I-56154J0D01*
G03X14156817Y4605991I0J-56154D01*
G37*
G36*
G01X12589465Y5577836D02*
G03X12645619Y5633990I0J56154D01*
G03X12589465Y5690144I-56154J0D01*
G03X12533310Y5633990I0J-56154D01*
G03X12589465Y5577836I56154J0D01*
G37*
G36*
G01X6908124Y3107681D02*
G03X6964278Y3163835I0J56154D01*
G03X6908124Y3219989I-56154J0D01*
G03X6851970Y3163835I0J-56154D01*
G03X6908124Y3107681I56154J0D01*
G37*
G36*
G01X7046060Y5340725D02*
G03X7102214Y5284571I56154J0D01*
G03X7158368Y5340725I0J56154D01*
G03X7102214Y5396879I-56154J0D01*
G03X7046060Y5340725I0J-56154D01*
G37*
G36*
G01X14304971Y5482835D02*
G03X14361125Y5538989I0J56154D01*
G03X14304971Y5595143I-56154J0D01*
G03X14248817Y5538989I0J-56154D01*
G03X14304971Y5482835I56154J0D01*
G37*
G36*
G01X12396072Y5452849D02*
G03X12452227Y5509003I0J56154D01*
G03X12396072Y5565157I-56154J0D01*
G03X12339918Y5509003I0J-56154D01*
G03X12396072Y5452849I56154J0D01*
G37*
G36*
G01X6579987Y3729838D02*
G03X6636141Y3785992I0J56154D01*
G03X6579987Y3842146I-56154J0D01*
G03X6523833Y3785992I0J-56154D01*
G03X6579987Y3729838I56154J0D01*
G37*
G36*
G01X14362971Y4699837D02*
G03X14419125Y4755991I0J56154D01*
G03X14362971Y4812145I-56154J0D01*
G03X14306817Y4755991I0J-56154D01*
G03X14362971Y4699837I56154J0D01*
G37*
G36*
G01X12542254Y3482248D02*
G03X12598408Y3426093I56154J0D01*
G03X12654562Y3482248I0J56154D01*
G03X12598408Y3538402I-56154J0D01*
G03X12542254Y3482248I0J-56154D01*
G37*
G36*
G01X12784994Y5577836D02*
G03X12841148Y5633990I0J56154D01*
G03X12784994Y5690144I-56154J0D01*
G03X12728840Y5633990I0J-56154D01*
G03X12784994Y5577836I56154J0D01*
G37*
G36*
G01X13558849Y3797001D02*
G03X13615003Y3740847I56154J0D01*
G03X13671157Y3797001I0J56154D01*
G03X13615003Y3853155I-56154J0D01*
G03X13558849Y3797001I0J-56154D01*
G37*
G36*
G01X11729822Y5046990D02*
G03X11785976Y4990836I56154J0D01*
G03X11842130Y5046990I0J56154D01*
G03X11785976Y5103144I-56154J0D01*
G03X11729822Y5046990I0J-56154D01*
G37*
G36*
G01X13035967Y5324169D02*
G03X13092121Y5380323I0J56154D01*
G03X13035967Y5436477I-56154J0D01*
G03X12979813Y5380323I0J-56154D01*
G03X13035967Y5324169I56154J0D01*
G37*
G36*
G01X11946721Y5633990D02*
G03X12002875Y5577836I56154J0D01*
G03X12059029Y5633990I0J56154D01*
G03X12002875Y5690144I-56154J0D01*
G03X11946721Y5633990I0J-56154D01*
G37*
G36*
G01X12933314Y3482248D02*
G03X12989468Y3426093I56154J0D01*
G03X13045622Y3482248I0J56154D01*
G03X12989468Y3538402I-56154J0D01*
G03X12933314Y3482248I0J-56154D01*
G37*
G36*
G01X14456817Y4755991D02*
G03X14512971Y4699837I56154J0D01*
G03X14569125Y4755991I0J56154D01*
G03X14512971Y4812145I-56154J0D01*
G03X14456817Y4755991I0J-56154D01*
G37*
G36*
G01X13324373Y3352072D02*
G03X13380527Y3295917I56154J0D01*
G03X13436681Y3352072I0J56154D01*
G03X13380527Y3408226I-56154J0D01*
G03X13324373Y3352072I0J-56154D01*
G37*
G36*
G01X12784994Y5708012D02*
G03X12841148Y5764166I0J56154D01*
G03X12784994Y5820320I-56154J0D01*
G03X12728840Y5764166I0J-56154D01*
G03X12784994Y5708012I56154J0D01*
G37*
G36*
G01X9262817Y4574833D02*
G03X9318971Y4518679I56154J0D01*
G03X9375125Y4574833I0J56154D01*
G03X9318971Y4630987I-56154J0D01*
G03X9262817Y4574833I0J-56154D01*
G37*
G36*
G01X7760984Y4855836D02*
G03X7817139Y4911990I0J56154D01*
G03X7760984Y4968144I-56154J0D01*
G03X7704830Y4911990I0J-56154D01*
G03X7760984Y4855836I56154J0D01*
G37*
G36*
G01X12207349Y3295917D02*
G03X12263503Y3352072I0J56154D01*
G03X12207349Y3408226I-56154J0D01*
G03X12151195Y3352072I0J-56154D01*
G03X12207349Y3295917I56154J0D01*
G37*
G36*
G01X6647496Y5575929D02*
G03X6703650Y5519775I56154J0D01*
G03X6759804Y5575929I0J56154D01*
G03X6703650Y5632083I-56154J0D01*
G03X6647496Y5575929I0J-56154D01*
G37*
G36*
G01X9150317Y4575833D02*
G03X9206471Y4519679I56154J0D01*
G03X9262625Y4575833I0J56154D01*
G03X9206471Y4631987I-56154J0D01*
G03X9150317Y4575833I0J-56154D01*
G37*
G36*
G01X13510959Y5633990D02*
G03X13567113Y5577836I56154J0D01*
G03X13623267Y5633990I0J56154D01*
G03X13567113Y5690144I-56154J0D01*
G03X13510959Y5633990I0J-56154D01*
G37*
G36*
G01X13380527Y3426093D02*
G03X13436681Y3482248I0J56154D01*
G03X13380527Y3538402I-56154J0D01*
G03X13324373Y3482248I0J-56154D01*
G03X13380527Y3426093I56154J0D01*
G37*
G36*
G01X9093971Y4522679D02*
G03X9150125Y4578833I0J56154D01*
G03X9093971Y4634987I-56154J0D01*
G03X9037817Y4578833I0J-56154D01*
G03X9093971Y4522679I56154J0D01*
G37*
G36*
G01X12207349Y3426093D02*
G03X12263503Y3482248I0J56154D01*
G03X12207349Y3538402I-56154J0D01*
G03X12151195Y3482248I0J-56154D01*
G03X12207349Y3426093I56154J0D01*
G37*
G36*
G01X8196330Y4715814D02*
G03X8252484Y4659660I56154J0D01*
G03X8308638Y4715814I0J56154D01*
G03X8252484Y4771968I-56154J0D01*
G03X8196330Y4715814I0J-56154D01*
G37*
G36*
G01X8139984Y4660660D02*
G03X8196138Y4716814I0J56154D01*
G03X8139984Y4772968I-56154J0D01*
G03X8083830Y4716814I0J-56154D01*
G03X8139984Y4660660I56154J0D01*
G37*
G36*
G01X8027485Y4663660D02*
G03X8083639Y4719814I0J56154D01*
G03X8027485Y4775968I-56154J0D01*
G03X7971331Y4719814I0J-56154D01*
G03X8027485Y4663660I56154J0D01*
G37*
G36*
G01X7568831Y4812990D02*
G03X7624985Y4756836I56154J0D01*
G03X7681139Y4812990I0J56154D01*
G03X7624985Y4869144I-56154J0D01*
G03X7568831Y4812990I0J-56154D01*
G37*
G36*
G01X11957803Y3227085D02*
G03X12013957Y3170931I56154J0D01*
G03X12070111Y3227085I0J56154D01*
G03X12013957Y3283239I-56154J0D01*
G03X11957803Y3227085I0J-56154D01*
G37*
G36*
G01X13187135Y3170931D02*
G03X13243289Y3227085I0J56154D01*
G03X13187135Y3283239I-56154J0D01*
G03X13130981Y3227085I0J-56154D01*
G03X13187135Y3170931I56154J0D01*
G37*
G36*
G01X13326511Y3227085D02*
G03X13382665Y3170931I56154J0D01*
G03X13438819Y3227085I0J56154D01*
G03X13382665Y3283239I-56154J0D01*
G03X13326511Y3227085I0J-56154D01*
G37*
G36*
G01X12935452Y3227085D02*
G03X12991606Y3170931I56154J0D01*
G03X13047760Y3227085I0J56154D01*
G03X12991606Y3283239I-56154J0D01*
G03X12935452Y3227085I0J-56154D01*
G37*
G36*
G01X13578195Y3170931D02*
G03X13634349Y3227085I0J56154D01*
G03X13578195Y3283239I-56154J0D01*
G03X13522041Y3227085I0J-56154D01*
G03X13578195Y3170931I56154J0D01*
G37*
G36*
G01X12348862Y3227085D02*
G03X12405016Y3170931I56154J0D01*
G03X12461170Y3227085I0J56154D01*
G03X12405016Y3283239I-56154J0D01*
G03X12348862Y3227085I0J-56154D01*
G37*
G36*
G01X12209487Y3170931D02*
G03X12265641Y3227085I0J56154D01*
G03X12209487Y3283239I-56154J0D01*
G03X12153333Y3227085I0J-56154D01*
G03X12209487Y3170931I56154J0D01*
G37*
G36*
G01X12739922Y3227085D02*
G03X12796076Y3170931I56154J0D01*
G03X12852230Y3227085I0J56154D01*
G03X12796076Y3283239I-56154J0D01*
G03X12739922Y3227085I0J-56154D01*
G37*
G36*
G01X12544392Y3227085D02*
G03X12600546Y3170931I56154J0D01*
G03X12656700Y3227085I0J56154D01*
G03X12600546Y3283239I-56154J0D01*
G03X12544392Y3227085I0J-56154D01*
G37*
%LPD*%
G54D10*
G01X9683981Y5636989D02*
G01X9799888Y5636989D01*
G01X9683981Y5636989D02*
G01X9568073Y5636989D01*
G01X9683981Y5636989D02*
G01X9683981Y5521081D01*
G01X9683981Y5636989D02*
G01X9683981Y5752897D01*
G01X10783978Y5636989D02*
G01X10899886Y5636989D01*
G01X10783978Y5636989D02*
G01X10668071Y5636989D01*
G01X10783978Y5636989D02*
G01X10783978Y5521081D01*
G01X10783978Y5636989D02*
G01X10783978Y5752897D01*
G54D11*
G01X10174981Y3766992D02*
G01X10290889Y3766992D01*
G01X10174981Y3766992D02*
G01X10059073Y3766992D01*
G01X10174981Y3766992D02*
G01X10174981Y3651085D01*
G01X10174981Y3766992D02*
G01X10174981Y3882900D01*
G04 Copper End*

G04 Pad Start*
G54D12*
G01X7375985Y4407991D03*
G01X6216988Y931998D03*
G01X12804974Y76000D03*
G54D13*
G01X10231005Y-1084000D03*
G54D14*
G01X9977005Y-1084000D03*
G01X9723005Y-1084000D03*
G01X9469005Y-1084000D03*
G54D15*
G01X10428981Y3766992D03*
G54D16*
G01X10174981Y3766992D03*
G01X9920981Y3766992D03*
G01X9412981Y3766992D03*
G01X9158981Y3766992D03*
G01X8904981Y3766992D03*
G01X8650981Y3766992D03*
G01X14521988Y5189990D03*
G01X14521988Y5689989D03*
G01X4460999Y5642989D03*
G01X4460999Y5142990D03*
G54D18*
G01X10483979Y4636991D03*
G01X9983980Y4636991D03*
G54D16*
G01X9683981Y5636989D03*
G01X10783978Y5636989D03*
G54D19*
G01X4588000Y2224000D03*
G54D14*
G01X4334000Y2224000D03*
G01X4588000Y2478000D03*
G01X4334000Y2478000D03*
G01X4588000Y2732000D03*
G01X4334000Y2732000D03*
G01X4588000Y2986000D03*
G01X4334000Y2986000D03*
G01X4588000Y3240000D03*
G01X4334000Y3240000D03*
G01X4588000Y3494000D03*
G01X4334000Y3494000D03*
G01X4588000Y3748000D03*
G01X4334000Y3748000D03*
G54D20*
G01X14396971Y3738994D03*
G54D14*
G01X14650971Y3738994D03*
G01X14396971Y3484994D03*
G01X14650971Y3484994D03*
G01X14396971Y3230994D03*
G01X14650971Y3230994D03*
G01X14396971Y2976994D03*
G01X14650971Y2976994D03*
G01X14396971Y2722994D03*
G01X14650971Y2722994D03*
G01X14396971Y2468994D03*
G01X14650971Y2468994D03*
G01X14396971Y2214994D03*
G01X14650971Y2214994D03*
G54D16*
G01X4459991Y700118D03*
G01X4459991Y200119D03*
G01X14522971Y260000D03*
G01X14522971Y759999D03*
G01X11899976Y747996D03*
G01X11899976Y-11997D03*
G01X4460000Y-451880D03*
G01X4460000Y-951879D03*
G01X14521971Y-891998D03*
G01X14521971Y-391999D03*
G04 Pad End*

G04 Via Start*
G54D21*
G01X10166984Y2256007D03*
G01X10191984Y2107007D03*
G01X11033950Y821160D03*
G01X11036274Y1483258D03*
G01X13754972Y-223000D03*
G01X13719973Y-1113998D03*
G01X12824976Y-297999D03*
G01X13268973Y-960998D03*
G01X11795007Y4744999D03*
G01X11799007Y4854999D03*
G01X11809007Y4036001D03*
G01X11809160Y3958001D03*
G01X11845809Y4797999D03*
G01X11887006Y4922999D03*
G01X11894507Y4415515D03*
G01X11894507Y4288515D03*
G01X11894507Y4035754D03*
G01X11895006Y3958001D03*
G01X11913320Y4669515D03*
G01X11919006Y4797999D03*
G01X11938006Y4164000D03*
G01X12002875Y5633990D03*
G01X12002875Y5764166D03*
G01X12005013Y5509003D03*
G01X12011819Y3352072D03*
G01X12011819Y3482248D03*
G01X12013957Y3227085D03*
G01X12198405Y5633990D03*
G01X12198405Y5764166D03*
G01X12200543Y5509003D03*
G01X12207349Y3352072D03*
G01X12207349Y3482248D03*
G01X12209487Y3227085D03*
G01X12393935Y5633990D03*
G01X12393935Y5764166D03*
G01X12396072Y5509003D03*
G01X12402878Y3352072D03*
G01X12402878Y3482248D03*
G01X12405016Y3227085D03*
G01X12540480Y3588333D03*
G01X12546875Y5380323D03*
G01X12589465Y5633990D03*
G01X12589465Y5764166D03*
G01X12591602Y5509003D03*
G01X12598408Y3352072D03*
G01X12598408Y3482248D03*
G01X12600546Y3227085D03*
G01X12784994Y5633990D03*
G01X12784994Y5764166D03*
G01X12785026Y3588333D03*
G01X12787132Y5509003D03*
G01X12791421Y5380323D03*
G01X12793938Y3352072D03*
G01X12793938Y3482248D03*
G01X12796076Y3227085D03*
G01X12980524Y5633990D03*
G01X12980524Y5764166D03*
G01X12982662Y5509003D03*
G01X12989468Y3352072D03*
G01X12989468Y3482248D03*
G01X12991606Y3227085D03*
G01X13029572Y3588333D03*
G01X13035967Y5380323D03*
G01X13176054Y5764166D03*
G01X13176054Y5633990D03*
G01X13178192Y5509003D03*
G01X13184998Y3482248D03*
G01X13184998Y3352072D03*
G01X13187135Y3227085D03*
G01X13218004Y4108000D03*
G01X13218004Y4179001D03*
G01X13218004Y4037000D03*
G01X13224004Y4794986D03*
G01X13224004Y4865986D03*
G01X13224004Y4723986D03*
G01X13371584Y5633990D03*
G01X13371584Y5764166D03*
G01X13373721Y5509003D03*
G01X13380527Y3352072D03*
G01X13380527Y3482248D03*
G01X13382665Y3227085D03*
G01X13567113Y5633990D03*
G01X13567113Y5764166D03*
G01X13569251Y5509003D03*
G01X13576057Y3352072D03*
G01X13576057Y3482248D03*
G01X13578195Y3227085D03*
G01X13615003Y3797001D03*
G01X13641555Y4164000D03*
G01X13651003Y4667999D03*
G01X13652003Y4543000D03*
G01X13654973Y4921992D03*
G01X13898002Y3806001D03*
G01X13900002Y3930001D03*
G01X13904141Y4415515D03*
G01X13904141Y4287208D03*
G01X13975972Y3929992D03*
G01X13975977Y3806001D03*
G01X11785976Y5046990D03*
G01X11035978Y4490991D03*
G01X10859978Y4490991D03*
G01X11388808Y4073998D03*
G01X5025955Y1576005D03*
G01X5618882Y1582020D03*
G01X5613698Y2030025D03*
G01X5046132Y2031007D03*
G01X5057559Y2600005D03*
G01X6164909Y2030021D03*
G01X6172878Y2600005D03*
G01X5618414Y2600005D03*
G01X13263152Y2602994D03*
G01X12680361Y2602967D03*
G01X12685975Y2112980D03*
G01X13805972Y2075996D03*
G01X13249974Y2110996D03*
G01X12693928Y1602982D03*
G01X13822972Y2604991D03*
G01X13250302Y1604479D03*
G01X11437977Y3654993D03*
G01X11310977Y3656993D03*
G01X11511977Y3834992D03*
G01X11065978Y3831992D03*
G01X10920978Y3831992D03*
G01X10857978Y3997992D03*
G01X11031978Y4072992D03*
G01X11152978Y3978992D03*
G01X11176978Y4659991D03*
G01X10875006Y4886705D03*
G01X9006983Y5770988D03*
G01X8763983Y5917988D03*
G01X8651484Y5920988D03*
G01X8538984Y5921988D03*
G01X8254097Y5921988D03*
G01X8146541Y5921988D03*
G01X8038985Y5921988D03*
G01X8027485Y4719814D03*
G01X8252484Y4715814D03*
G01X8139984Y4716814D03*
G01X8538427Y4719314D03*
G01X8753540Y4719314D03*
G01X8645983Y4719314D03*
G01X7791979Y5262993D03*
G01X7790979Y5182993D03*
G01X7789979Y5102993D03*
G01X5012997Y5121999D03*
G01X5012997Y5204999D03*
G01X5006858Y4512485D03*
G01X5006858Y4640792D03*
G01X4935022Y5204999D03*
G01X4935022Y5121999D03*
G01X6897042Y5700915D03*
G01X5919393Y5700915D03*
G01X6701512Y5700915D03*
G01X5332804Y5700915D03*
G01X6310453Y5700915D03*
G01X5723864Y5700915D03*
G01X6505983Y5700915D03*
G01X5528334Y5700915D03*
G01X6114923Y5700915D03*
G01X6899180Y5575929D03*
G01X5921531Y5575929D03*
G01X6703650Y5575929D03*
G01X5334942Y5575929D03*
G01X6312591Y5575929D03*
G01X5726002Y5575929D03*
G01X6508121Y5575929D03*
G01X5530472Y5575929D03*
G01X6117061Y5575929D03*
G01X6905986Y3418997D03*
G01X5928337Y3418997D03*
G01X6710456Y3418997D03*
G01X5341748Y3418997D03*
G01X6319397Y3418997D03*
G01X5537278Y3418997D03*
G01X6514927Y3418997D03*
G01X5732807Y3418997D03*
G01X6123867Y3418997D03*
G01X6908124Y3294011D03*
G01X5930475Y3294011D03*
G01X6712594Y3294011D03*
G01X5343886Y3294011D03*
G01X6321534Y3294011D03*
G01X5539415Y3294011D03*
G01X6517064Y3294011D03*
G01X5734945Y3294011D03*
G01X6126005Y3294011D03*
G01X6908124Y3163835D03*
G01X5930475Y3163835D03*
G01X6712594Y3163835D03*
G01X5343886Y3163835D03*
G01X6321534Y3163835D03*
G01X5539415Y3163835D03*
G01X6517064Y3163835D03*
G01X7101992Y4892000D03*
G01X5692995Y4891000D03*
G01X7624985Y4812990D03*
G01X5692995Y4820000D03*
G01X6899180Y5445753D03*
G01X5921531Y5445753D03*
G01X6703650Y5445753D03*
G01X5334942Y5445753D03*
G01X6312591Y5445753D03*
G01X5530472Y5445753D03*
G01X6508121Y5445753D03*
G01X5726002Y5445753D03*
G01X6117061Y5445753D03*
G01X6370519Y5339667D03*
G01X5881427Y5339667D03*
G01X6125973Y5339667D03*
G01X5269444Y4764000D03*
G01X6972993Y4764000D03*
G01X5692995Y4749000D03*
G01X6997679Y4258485D03*
G01X5686995Y4204014D03*
G01X5258996Y4385001D03*
G01X5259996Y4260001D03*
G01X5256026Y4006009D03*
G01X7023993Y4005002D03*
G01X7016986Y4646991D03*
G01X7016492Y4512485D03*
G01X5295996Y5130999D03*
G01X8388983Y3430993D03*
G01X7101839Y4970000D03*
G01X7015993Y4970000D03*
G01X7016492Y4892246D03*
G01X5686995Y4133014D03*
G01X6569987Y4129992D03*
G01X5734945Y3163835D03*
G01X6126005Y3163835D03*
G01X6579987Y3785992D03*
G01X6364124Y3547677D03*
G01X5875032Y3547677D03*
G01X6119578Y3547677D03*
G01X8122978Y3741288D03*
G01X7821007Y3968002D03*
G01X8138006Y4137001D03*
G01X7962006Y4137001D03*
G01X7494452Y3595557D03*
G01X7358985Y3601993D03*
G01X7754970Y4610982D03*
G01X8161969Y4615982D03*
G01X7965970Y4536982D03*
G01X5686995Y4062014D03*
G01X8719983Y3248994D03*
G01X8640983Y3248994D03*
G01X9527981Y3288993D03*
G01X10168980Y3273993D03*
G01X10169976Y2868361D03*
G01X10308979Y2999994D03*
G01X9329981Y3417993D03*
G01X7102214Y5340725D03*
G01X7144986Y5562989D03*
G01X6984986Y5938988D03*
G01X8399998Y3269000D03*
G01X7742985Y3424993D03*
G01X7869984Y3424993D03*
G01X7621985Y3577993D03*
G01X6691987Y3649993D03*
G01X7760984Y4911990D03*
G01X8337145Y4483009D03*
G01X10675979Y2811994D03*
G01X10464979Y2883994D03*
G01X8841851Y-1006820D03*
G01X8853093Y-344033D03*
G01X5035990Y-145882D03*
G01X5246990Y-1156880D03*
G01X5128990Y-811998D03*
G01X5128990Y-611999D03*
G01X6940321Y355235D03*
G01X7702321Y355235D03*
G01X7187821Y917493D03*
G01X6772822Y917493D03*
G01X6767002Y780998D03*
G01X7437820Y1022721D03*
G01X7593985Y1023998D03*
G01X7859984Y911998D03*
G01X5509824Y-909503D03*
G01X5513824Y-470504D03*
G01X5972823Y-447504D03*
G01X6122823Y-447504D03*
G01X6197823Y-62505D03*
G01X7701820Y-229504D03*
G01X5726824Y-195505D03*
G01X5832988Y-182000D03*
G01X6270987Y-182000D03*
G01X7512820Y-1177503D03*
G01X7652820Y-1007503D03*
G01X7332820Y-1177503D03*
G01X6576822Y-909503D03*
G01X6939821Y-229504D03*
G01X6365822Y-195505D03*
G01X6579822Y-471504D03*
G01X7073001Y-878998D03*
G01X6812002Y-879998D03*
G01X7372831Y-1007503D03*
G01X6935002Y-606999D03*
G01X13314974Y502999D03*
G01X13054975Y501999D03*
G01X14002972Y839998D03*
G01X14250008Y1500001D03*
G01X7993984Y2503995D03*
G01X8250983Y2503995D03*
G01X11565977Y2740995D03*
G01X11821976Y2740995D03*
G01X11060978Y2740995D03*
G01X7486985Y2503995D03*
G01X7241986Y2213996D03*
G01X7145649Y2067992D03*
G01X10730006Y2280001D03*
G01X10826978Y2396995D03*
G01X10516529Y1577443D03*
G01X10021980Y1039998D03*
G01X8924982Y1265997D03*
G01X9350005Y720000D03*
G01X8795982Y1132998D03*
G01X9344981Y1656997D03*
G01X9772980Y1144998D03*
G01X9318971Y4574833D03*
G01X9206471Y4575833D03*
G01X9093971Y4578833D03*
G01X8896982Y852998D03*
G01X9759980Y1701997D03*
G01X10290006Y590000D03*
G01X9580981Y-132000D03*
G01X10930006Y660000D03*
G01X10822740Y386506D03*
G01X9951452Y-315711D03*
G01X9682383Y-219335D03*
G01X10159980Y486999D03*
G01X10028980Y370999D03*
G01X10085980Y425999D03*
G01X7614985Y2095996D03*
G01X7742985Y2095996D03*
G01X7870984Y2095996D03*
G01X7773984Y5544989D03*
G01X6569987Y4039995D03*
G01X6508928Y3978936D03*
G01X11215978Y2301995D03*
G01X11311977Y2301995D03*
G01X11438977Y2301995D03*
G01X10092980Y842998D03*
G01X10082980Y717999D03*
G01X9965980Y297999D03*
G01X8672983Y-1013000D03*
G01X8688034Y-355813D03*
G01X9863808Y1976641D03*
G01X8959982Y-733001D03*
G01X8979982Y-71999D03*
G01X9464981Y816998D03*
G01X9934980Y-748999D03*
G01X9890980Y926998D03*
G01X9370981Y54000D03*
G01X9437981Y-25000D03*
G01X13123974Y-167000D03*
G01X9412981Y2690995D03*
G01X9036982Y447999D03*
G01X9081982Y373999D03*
G01X9393981Y605999D03*
G01X9164982Y312999D03*
G01X9463981Y541999D03*
G01X9240005Y250000D03*
G01X9532981Y468999D03*
G01X12769974Y1137998D03*
G01X12769974Y883998D03*
G01X12335975Y867998D03*
G01X12506975Y-468999D03*
G01X12518975Y-596999D03*
G01X12504975Y-850998D03*
G01X12445975Y1175998D03*
G01X9291981Y142000D03*
G01X9324034Y2688995D03*
G01X9235087Y2688995D03*
G01X14362971Y4755991D03*
G01X14812971Y4755991D03*
G01X14512971Y4755991D03*
G01X14662971Y4755991D03*
G01X14056971Y4125992D03*
G01X14662971Y4605991D03*
G01X14212971Y4755991D03*
G01X14812971Y4605991D03*
G01X14056971Y3975992D03*
G01X14212971Y4605991D03*
G01X14362971Y4605991D03*
G01X14512971Y4605991D03*
G01X14056971Y3825992D03*
G01X14212971Y4455991D03*
G01X14362971Y4455991D03*
G01X14512971Y4455991D03*
G01X14662971Y4455991D03*
G01X14812971Y4455991D03*
G01X14180972Y5541989D03*
G01X14030972Y5541989D03*
G01X14304971Y5538989D03*
G01X14304971Y5688989D03*
G01X14030972Y5691989D03*
G01X14030972Y5841989D03*
G01X14304971Y5838989D03*
G01X14180972Y5841989D03*
G01X14180972Y5691989D03*
G01X4162857Y4063068D03*
G01X4312857Y4063068D03*
G01X4462857Y4063068D03*
G01X4612857Y4063068D03*
G01X4762857Y4063068D03*
G01X4762857Y4213068D03*
G01X4762857Y4363068D03*
G01X4612857Y4363068D03*
G01X4612857Y4213068D03*
G01X4462857Y4213068D03*
G01X4462857Y4363068D03*
G01X4312857Y4363068D03*
G01X4312857Y4213068D03*
G01X4162857Y4213068D03*
G01X4162857Y4363068D03*
G01X4812990Y5658989D03*
G01X4962990Y5658989D03*
G01X4962990Y5508989D03*
G01X4812990Y5508989D03*
G01X4662990Y5508989D03*
G01X4662990Y5658989D03*
G01X9470160Y1788720D03*
G01X10394324Y1706714D03*
G01X10112980Y1607997D03*
G01X9933980Y1112998D03*
G01X9871980Y1176998D03*
G01X10179980Y1799996D03*
G01X10352979Y1857996D03*
G01X10150000Y4700000D03*
G01X10153546Y4810059D03*
G01X10160980Y4924990D03*
G01X10293979Y4840990D03*
G01X10290922Y4947435D03*
G01X10300979Y5082990D03*
G01X10438979Y4978990D03*
G01X10436962Y5093476D03*
G01X10434979Y5200990D03*
G01X10572979Y5103990D03*
G01X10574364Y5200990D03*
G01X10575979Y5289989D03*
G01X10685979Y5113990D03*
G01X10686979Y5286989D03*
G01X9689246Y5635173D03*
G01X11180978Y5886988D03*
G01X11024978Y5886988D03*
G01X10868978Y5886988D03*
G01X10858978Y25000D03*
G01X10776978Y-182000D03*
G01X10617979Y558999D03*
G01X11870976Y1696997D03*
G01X11738835Y1100024D03*
G01X12151375Y1099996D03*
G01X12164976Y1449997D03*
G01X11657977Y1470997D03*
G01X11484977Y702999D03*
G01X11695977Y384999D03*
G01X11586977Y785998D03*
G01X11717977Y651999D03*
G54D22*
G01X12615975Y4027992D03*
G01X12618975Y4127992D03*
G01X12615975Y4227992D03*
G01X12615975Y4326460D03*
G01X12615975Y4427991D03*
G01X12615975Y4527991D03*
G01X12615975Y4627991D03*
G01X12615975Y4727991D03*
G01X12615975Y4827990D03*
G01X12615975Y4927990D03*
G01X12715975Y4027979D03*
G01X12718974Y4127979D03*
G01X12715975Y4227979D03*
G01X12715975Y4326447D03*
G01X12715975Y4427978D03*
G01X12715975Y4527978D03*
G01X12715975Y4627978D03*
G01X12715975Y4727978D03*
G01X12715975Y4827978D03*
G01X12715975Y4927977D03*
G01X12815974Y4027979D03*
G01X12818974Y4127979D03*
G01X12815974Y4227979D03*
G01X12815974Y4326447D03*
G01X12815974Y4427978D03*
G01X12815974Y4527978D03*
G01X12815974Y4627978D03*
G01X12815974Y4727978D03*
G01X12815974Y4827978D03*
G01X12815974Y4927977D03*
G01X12915961Y4027979D03*
G01X12918961Y4127979D03*
G01X12915961Y4227979D03*
G01X12915961Y4326447D03*
G01X12915961Y4427978D03*
G01X12915961Y4527978D03*
G01X12915961Y4627978D03*
G01X12915961Y4727978D03*
G01X12915961Y4827978D03*
G01X12915961Y4927977D03*
G01X6278998Y4897999D03*
G01X6275998Y4798000D03*
G01X6278998Y4698000D03*
G01X6278998Y4599532D03*
G01X6278998Y4498000D03*
G01X6278998Y4398000D03*
G01X6278998Y4298001D03*
G01X6278998Y4198001D03*
G01X6278998Y4098001D03*
G01X6278998Y3998001D03*
G01X6178998Y4898012D03*
G01X6175999Y4798012D03*
G01X6178998Y4698012D03*
G01X6178998Y4599544D03*
G01X6178998Y4498013D03*
G01X6178998Y4398013D03*
G01X6178998Y4298013D03*
G01X6178998Y4198013D03*
G01X6178998Y4098014D03*
G01X6178998Y3998014D03*
G01X6078999Y4898012D03*
G01X6075999Y4798012D03*
G01X6078999Y4698012D03*
G01X6078999Y4599544D03*
G01X6078999Y4498013D03*
G01X6078999Y4398013D03*
G01X6078999Y4298013D03*
G01X6078999Y4198013D03*
G01X6078999Y4098014D03*
G01X6078999Y3998014D03*
G01X5979011Y4898012D03*
G01X5976012Y4798012D03*
G01X5979011Y4698012D03*
G01X5979011Y4599544D03*
G01X5979011Y4498013D03*
G01X5979011Y4398013D03*
G01X5979011Y4298013D03*
G01X5979011Y4198013D03*
G01X5979011Y4098014D03*
G01X5979011Y3998014D03*
G04 Via End*

G04 Track Start*
G54D23*
G01X11809160Y4035848D02*
G01X11809160Y3958001D01*
G01X11795007Y4744999D02*
G01X11845809Y4795801D01*
G01X11799007Y4854999D02*
G01X11845809Y4808197D01*
G01Y4797999D01*
G01X11845809Y4795801D02*
G01X11845809Y4797999D01*
G01X11809007Y4036001D02*
G01X11894260Y4036001D01*
G01X11894507Y4035754D01*
G01X12023006Y3830001D02*
G01X11895006Y3958001D01*
G01X12257006Y5135998D02*
G01X11919006Y4797999D01*
G01X13122004Y5135998D02*
G01X12257006Y5135998D01*
G01X13218004Y4037000D02*
G01X13011004Y3830001D01*
G01X13224004Y5033999D02*
G01X13122004Y5135998D01*
G01X13224004Y4865986D02*
G01X13224004Y4794986D01*
G01X13224004Y4865986D02*
G01X13224004Y5033999D01*
G01X13224004Y4794986D02*
G01X13224004Y4723986D01*
G01X13011004Y3830001D02*
G01X12023006Y3830001D01*
G54D24*
G01X11880976Y4637172D02*
G01X11913320Y4669515D01*
G01X10875006Y4886705D02*
G01X11240263Y4886705D01*
G01X11489796Y4637172D01*
G01X11880976D01*
G54D10*
G01X11496968Y4164000D02*
G01X11938006Y4164000D01*
G01X11040978Y4619991D02*
G01X11496968Y4164000D01*
G01X10860978Y4619991D02*
G01X11040978Y4619991D01*
G54D23*
G01X7016739Y4892000D02*
G01X7016492Y4892246D01*
G01X7101992Y4892000D02*
G01X7016739Y4892000D01*
G01X5686995Y4133014D02*
G01X5686995Y4204014D01*
G01X5899995Y5097999D02*
G01X6887993Y5097999D01*
G01X7015993Y4970000D01*
G01X5692995Y4891000D02*
G01X5899995Y5097999D01*
G01X7101839Y4892153D02*
G01X7101839Y4970000D01*
G01X5686995Y4062014D02*
G01X5686995Y4133014D01*
G54D10*
G01X7869984Y3424993D02*
G01X7673985Y3228994D01*
G01X6691987Y3649993D02*
G01X7003986Y3649993D01*
G01X7673985Y3228994D02*
G01X7424985Y3228994D01*
G01X7003986Y3649993D02*
G01X7424985Y3228994D01*
G01X8225020Y4483009D02*
G01X8050021Y4308010D01*
G01X8337145Y4483009D02*
G01X8225020Y4483009D01*
G01X6122823Y-540504D02*
G01X6122823Y-447504D01*
G01X7372831Y-1007503D02*
G01X6254823Y-1007503D01*
G01X5972823Y-725503D01*
G01X5972823Y-447504D02*
G01X5972823Y-725503D01*
G01X10670967Y4450003D02*
G01X10690990Y4450003D01*
G01X10860978Y4619991D01*
G01X10670967Y4450003D02*
G01X10483979Y4636991D01*
G54D24*
G01X10028980Y370999D02*
G01X8922982Y1476997D01*
G01X8233984Y1476997D02*
G01X7614985Y2095996D01*
G01X8922982Y1476997D02*
G01X8233984Y1476997D01*
G01X10085980Y425999D02*
G01X8976982Y1534997D01*
G01X8274983D01*
G01X7742985Y2066996D01*
G01Y2095996D01*
G01X7870984Y2039021D02*
G01X7870984Y2095996D01*
G01X10159980Y486999D02*
G01X10118059Y486999D01*
G01X9010061Y1594997D01*
G01X8315009D01*
G01X7870984Y2039021D01*
G54D23*
G01X6569987Y4129992D02*
G01X6569987Y4045992D01*
G01X6405987Y3881992D01*
G01X5769988D01*
G01X5686995Y3964985D01*
G01Y4062014D01*
G54D24*
G01X8122978Y3741288D02*
G01X7514877Y3741288D01*
G01X6997679Y4258485D01*
G54D10*
G01X8050021Y4308010D02*
G01X7921966Y4308010D01*
G01X7465975Y4764000D01*
G01X6972993D01*
G01X9995980Y267999D02*
G01X9965980Y297999D01*
G01X8975980Y-748999D02*
G01X8959982Y-733001D01*
G54D24*
G01X10166984Y2256007D02*
G01X10244968Y2256007D01*
G01X10319979Y2180996D01*
G54D25*
G01X13170974Y-167000D02*
G01X13123974Y-167000D01*
G01X13609973Y1688997D02*
G01X13609973Y271999D01*
G01X13366973Y1931996D02*
G01X13609973Y1688997D01*
G01X12358012Y1931996D02*
G01X13366973Y1931996D01*
G54D10*
G01X8979982Y-71999D02*
G01X8713983Y194001D01*
G01Y487999D01*
G01X9042982Y816998D01*
G01X9464981D01*
G54D24*
G01X12504975Y-850998D02*
G01X12562975Y-850998D01*
G01X10300979Y296999D02*
G01X10187980Y184000D01*
G01X9915980D01*
G01X9873980Y226000D01*
G01Y423999D01*
G01X9755980Y541999D01*
G01X9463981D01*
G01X10247980Y113000D02*
G01X9888980Y113000D01*
G01X9532981Y468999D01*
G01X9580980Y250000D02*
G01X9240005Y250000D01*
G01X9809980Y21000D02*
G01X9580980Y250000D01*
G01X10276979Y21000D02*
G01X9809980Y21000D01*
G01X10346979Y212000D02*
G01X10247980Y113000D01*
G54D10*
G01X9934980Y-748999D02*
G01X8975980Y-748999D01*
G54D24*
G01X14002972Y839998D02*
G01X14396971Y1233997D01*
G01Y2214994D01*
G54D10*
G01X8280983Y-836998D02*
G01X7880984Y-436999D01*
G01X7999984Y400016D02*
G01X7999984Y-377999D01*
G01X4908990Y272999D02*
G01X5216990Y580999D01*
G01X7819001D01*
G01X7999984Y400016D01*
G01X7652820Y-1007503D02*
G01X7363315Y-717999D01*
G01X6300318D01*
G01X6122823Y-540504D01*
G54D24*
G01X12518975Y-596999D02*
G01X12518975Y-568999D01*
G01X12611975Y-475999D01*
G01X12506975Y-468999D02*
G01X12506975Y-351999D01*
G54D10*
G01X5383989Y462999D02*
G01X5242990Y321999D01*
G01X7770984Y462999D02*
G01X5383989Y462999D01*
G01X7880984Y352999D02*
G01X7770984Y462999D01*
G01X7880984Y-436999D02*
G01X7880984Y352999D01*
G01X5242990Y-697999D02*
G01X5128990Y-811998D01*
G01X5242990Y321999D02*
G01X5242990Y-697999D01*
G01X5128990Y-611999D02*
G01X4908990Y-391999D01*
G01Y272999D01*
G01X14515971Y-897998D02*
G01X13527973Y-897998D01*
G01X14521971Y-891998D02*
G01X14515971Y-897998D01*
G54D25*
G01X9412981Y2690995D02*
G01X9558446Y2545529D01*
G01X11744478D01*
G01X12358012Y1931996D01*
G01X9410981Y2688995D02*
G01X9412981Y2690995D01*
G01X9324034Y2688995D02*
G01X9410981Y2688995D01*
G01X9235087Y2688995D02*
G01X9324034Y2688995D01*
G01X14522971Y759999D02*
G01X14017563Y254591D01*
G01X13592564D01*
G01X13609973Y271999D02*
G01X13592564Y254591D01*
G01X13170974Y-167000D01*
G01X9235087Y2688995D02*
G01X7373985Y2688995D01*
G01X6030988Y1345997D01*
G01X5105870D01*
G01X4459991Y700118D01*
G54D24*
G01X12611975Y-475999D02*
G01X12611975Y-302999D01*
G01X12096976Y212000D01*
G01X10346979D01*
G01X12115976Y296999D02*
G01X10300979Y296999D01*
G01X12562975Y-850998D02*
G01X12687975Y-725999D01*
G01Y-274999D01*
G01X12115976Y296999D01*
G54D10*
G01X11438977Y2301995D02*
G01X11573977Y2166996D01*
G01X11573977Y1666265D02*
G01X10175711Y267999D01*
G01X9995980D01*
G01X11573977Y2166996D02*
G01X11573977Y1666265D01*
G01X11311977Y2301995D02*
G01X11492977Y2120996D01*
G01Y1695543D01*
G01X10092980Y842998D02*
G01X10267444Y668534D01*
G01X10465968D01*
G01X11492977Y1695543D01*
G01X10082980Y717999D02*
G01X10012374Y788604D01*
G54D24*
G01X9808980Y926998D02*
G01X9890980Y926998D01*
G01X10319979Y2180996D02*
G01X10319979Y2108996D01*
G01X9574981Y1363997D01*
G01Y1160998D01*
G01X9808980Y926998D01*
G54D10*
G01X10012374Y788604D02*
G01X10012374Y873457D01*
G01X11215978Y2077060D01*
G01Y2301995D01*
G54D26*
G01X9871980Y1176998D02*
G01X9871980Y1491997D01*
G01X10179980Y1799996D01*
G01X9933980Y1112998D02*
G01X10210980Y1389997D01*
G01Y1715997D01*
G01X10352979Y1857996D01*
G54D18*
G01X10547476Y5201990D02*
G01X11046481Y5201990D01*
G01X9983477Y4637991D02*
G01X10547476Y5201990D01*
G54D26*
G01X4455993Y3361993D02*
G01X4588000Y3494000D01*
G01X4207992Y3361993D02*
G01X4455993Y3361993D01*
G01X4171992Y3325993D02*
G01X4207992Y3361993D01*
G01X4171992Y710999D02*
G01X4171992Y3325993D01*
G01X4089992Y3503992D02*
G01X4334000Y3748000D01*
G01X5115990Y1046998D02*
G01X4584991Y515999D01*
G01X4366991D01*
G01X7064986Y781998D02*
G01X6650987Y1195998D01*
G01X6105988D01*
G01X5956988Y1046998D01*
G01X5115990D01*
G01X9714981Y-295999D02*
G01X9084982Y-295999D01*
G01X8006984Y781998D01*
G01X7064986D01*
G01X10858978Y25000D02*
G01X10778978Y-55000D01*
G01X9955980D01*
G01X9714981Y-295999D01*
G01X4366991Y515999D02*
G01X4171992Y710999D01*
G01X4089992Y669999D02*
G01X4089992Y3503992D01*
G01X4314991Y444999D02*
G01X4089992Y669999D01*
G01X4611991Y444999D02*
G01X4314991Y444999D01*
G01X4838990Y671999D02*
G01X4611991Y444999D01*
G01X7925499Y671999D02*
G01X4838990Y671999D01*
G01X10776978Y-182000D02*
G01X10574979Y-383999D01*
G01X8981496D01*
G01X7925499Y671999D01*
G54D10*
G01X10336999Y-836998D02*
G01X8280983Y-836998D01*
G01X13527973Y-897998D02*
G01X13234974Y-1190998D01*
G01X10690998D01*
G01X10336999Y-836998D01*
G01X12996974Y-1110998D02*
G01X13715973Y-391999D01*
G01X14521971D01*
G01X7999984Y-377999D02*
G01X8260983Y-638999D01*
G01X10288979D01*
G01X10760978Y-1110998D01*
G01X12996974D01*
G54D24*
G01X11484977Y702999D02*
G01X11484977Y595999D01*
G01X11695977Y384999D01*
G01X10382979Y127000D02*
G01X10276979Y21000D01*
G01X12027976Y127000D02*
G01X10382979Y127000D01*
G01X12506975Y-351999D02*
G01X12027976Y127000D01*
G01X11586977Y785998D02*
G01X11717977Y654999D01*
G01Y651999D01*
G04 Track End*

M02*
