G04 Layer: BottomLayer*
G04 EasyEDA Pro v2.1.57.773a98f1.225d47, 2025-02-25 21:56:38*
G04 Gerber Generator version 0.3*
G04 Scale: 100 percent, Rotated: No, Reflected: No*
G04 Dimensions in millimeters*
G04 Leading zeros omitted, absolute positions, 3 integers and 5 decimals*
%FSLAX35Y35*%
%MOMM*%
%ADD8191C,0.2032*%
%ADD10C,0.254*%
%ADD11C,1.0*%
%ADD12C,0.4*%
%ADD13C,3.7*%
%ADD14R,1.7X1.7*%
%ADD15C,1.7040*%
%ADD16C,1.7*%
%ADD17R,1.8X1.8*%
%ADD18C,1.8*%
%ADD19C,2.49999*%
%ADD20R,1.7X1.7*%
%ADD21R,1.7X1.7*%
%ADD22C,0.61*%
%ADD23C,0.6096*%
G75*


G04 Copper Start*
G36*
G01X7821984Y-1235344D02*
G01X7821984Y125999D01*
G01X5349989D01*
G01Y-1096998D01*
G01X5351531Y-1215447D01*
G01X5341925Y-1224346D01*
G01X4025654D01*
G01Y3755992D01*
G01X4223635D01*
G03X4223346Y3748000I110365J-7992D01*
G03X4334000Y3637346I110654J0D01*
G03X4444654Y3748000I0J110654D01*
G03X4444365Y3755992I-110654J0D01*
G01X4477635D01*
G03X4477346Y3748000I110365J-7992D01*
G03X4588000Y3637346I110654J0D01*
G03X4698654Y3748000I0J110654D01*
G03X4698365Y3755992I-110654J0D01*
G01X4805990D01*
G01X4832990Y3728992D01*
G01Y3031994D01*
G01X5005712Y2843850D01*
G01X8483839D01*
G01X8555368Y2915379D01*
G01Y3420993D01*
G01X8761982D01*
G01X8763982Y3422993D01*
G01Y3742366D01*
G03X8766635Y3766992I-113002J24626D01*
G03X8766605Y3769615I-115654J0D01*
G01X8791982Y3794992D01*
G01X8792768D01*
G03X8789327Y3766992I112213J-28000D01*
G03X8904981Y3651339I115654J0D01*
G03X9020635Y3766992I0J115654D01*
G03X9017194Y3794992I-115654J0D01*
G01X9046768D01*
G03X9043327Y3766992I112213J-28000D01*
G03X9158981Y3651339I115654J0D01*
G03X9274635Y3766992I0J115654D01*
G03X9271194Y3794992I-115654J0D01*
G01X9300768D01*
G03X9297327Y3766992I112213J-28000D01*
G03X9412981Y3651339I115654J0D01*
G03X9528635Y3766992I0J115654D01*
G03X9525194Y3794992I-115654J0D01*
G01X9621981D01*
G01Y3379993D01*
G01X9652981Y3348993D01*
G01X9654981Y3350993D01*
G01X10690979D01*
G01X10793454Y3248518D01*
G01Y2825469D01*
G01X13752972D01*
G01Y2830469D01*
G01X13979735Y3057231D01*
G01X13980674Y3489993D01*
G01X14199887Y3489517D01*
G01X14200001Y3494964D01*
G01Y3881392D01*
G01X14268756Y3951651D01*
G01X14974346D01*
G01Y-1235344D01*
G01X7821984D01*
G37*
%LPC*%
G36*
G01X12804974Y-134654D02*
G03X13015628Y76000I0J210654D01*
G03X12804974Y286654I-210654J0D01*
G03X12594320Y76000I0J-210654D01*
G03X12804974Y-134654I210654J0D01*
G37*
G36*
G01X6216988Y721344D02*
G03X6427642Y931998I0J210654D01*
G03X6216988Y1142652I-210654J0D01*
G03X6006334Y931998I0J-210654D01*
G03X6216988Y721344I210654J0D01*
G37*
G36*
G01X9183851Y250000D02*
G03X9240005Y193846I56154J0D01*
G03X9296159Y250000I0J56154D01*
G03X9240005Y306154I-56154J0D01*
G03X9220151Y302527I0J-56154D01*
G03X9221136Y312999I-55169J10472D01*
G03X9164982Y369153I-56154J0D01*
G03X9136734Y361531I0J-56154D01*
G03X9138136Y373999I-54752J12468D01*
G03X9090027Y429574I-56154J0D01*
G03X9093136Y447999I-53045J18425D01*
G03X9036982Y504153I-56154J0D01*
G03X8980828Y447999I0J-56154D01*
G03X9028937Y392424I56154J0D01*
G03X9025828Y373999I53045J-18425D01*
G03X9081982Y317845I56154J0D01*
G03X9110229Y325467I0J56154D01*
G03X9108828Y312999I54752J-12468D01*
G03X9164982Y256845I56154J0D01*
G03X9184836Y260472I0J56154D01*
G03X9183851Y250000I55169J-10472D01*
G37*
G36*
G01X9909826Y297999D02*
G03X9965980Y241845I56154J0D01*
G03X10022134Y297999I0J56154D01*
G03X10019275Y315690I-56154J0D01*
G03X10028980Y314845I9705J55309D01*
G03X10085122Y369852I0J56154D01*
G01X10085980Y369845D01*
G03X10142134Y425999I0J56154D01*
G03X10141568Y433949I-56154J0D01*
G03X10159980Y430845I18411J53050D01*
G03X10216134Y486999I0J56154D01*
G03X10159980Y543153I-56154J0D01*
G03X10103826Y486999I0J-56154D01*
G03X10104391Y479049I56154J0D01*
G03X10085980Y482153I-18411J-53050D01*
G03X10029837Y427147I0J-56154D01*
G01X10028980Y427153D01*
G03X9972826Y370999I0J-56154D01*
G03X9975685Y353308I56154J0D01*
G03X9965980Y354153I-9705J-55309D01*
G03X9909826Y297999I0J-56154D01*
G37*
G36*
G01X9476827Y468999D02*
G03X9532981Y412845I56154J0D01*
G03X9589135Y468999I0J56154D01*
G03X9532981Y525153I-56154J0D01*
G03X9516733Y522751I0J-56154D01*
G03X9520135Y541999I-52752J19248D01*
G03X9463981Y598153I-56154J0D01*
G03X9449272Y596192I0J-56154D01*
G03X9450135Y605999I-55291J9806D01*
G03X9393981Y662153I-56154J0D01*
G03X9337827Y605999I0J-56154D01*
G03X9393981Y549845I56154J0D01*
G03X9408690Y551805I0J56154D01*
G03X9407827Y541999I55291J-9806D01*
G03X9463981Y485845I56154J0D01*
G03X9480229Y488247I0J56154D01*
G03X9476827Y468999I52752J-19248D01*
G37*
G36*
G01X14407317Y260000D02*
G03X14522971Y144346I115654J0D01*
G03X14638625Y260000I0J115654D01*
G03X14522971Y375654I-115654J0D01*
G03X14407317Y260000I0J-115654D01*
G37*
G36*
G01X14522971Y644345D02*
G03X14638625Y759999I0J115654D01*
G03X14522971Y875653I-115654J0D01*
G03X14407317Y759999I0J-115654D01*
G03X14522971Y644345I115654J0D01*
G37*
G36*
G01X14406317Y-391999D02*
G03X14521971Y-507653I115654J0D01*
G03X14637625Y-391999I0J115654D01*
G03X14521971Y-276345I-115654J0D01*
G03X14406317Y-391999I0J-115654D01*
G37*
G36*
G01X14406317Y-891998D02*
G03X14521971Y-1007652I115654J0D01*
G03X14637625Y-891998I0J115654D01*
G03X14521971Y-776344I-115654J0D01*
G03X14406317Y-891998I0J-115654D01*
G37*
G36*
G01X4459991Y84466D02*
G03X4575645Y200119I0J115654D01*
G03X4459991Y315773I-115654J0D01*
G03X4344337Y200119I0J-115654D01*
G03X4459991Y84466I115654J0D01*
G37*
G36*
G01X4344337Y700118D02*
G03X4459991Y584465I115654J0D01*
G03X4575645Y700118I0J115654D01*
G03X4459991Y815772I-115654J0D01*
G03X4344337Y700118I0J-115654D01*
G37*
G36*
G01X4460000Y-1067533D02*
G03X4575654Y-951879I0J115654D01*
G03X4460000Y-836225I-115654J0D01*
G03X4344346Y-951879I0J-115654D01*
G03X4460000Y-1067533I115654J0D01*
G37*
G36*
G01X4460000Y-567534D02*
G03X4575654Y-451880I0J115654D01*
G03X4460000Y-336226I-115654J0D01*
G03X4344346Y-451880I0J-115654D01*
G03X4460000Y-567534I115654J0D01*
G37*
G36*
G01X11784322Y747996D02*
G03X11899976Y632342I115654J0D01*
G03X12015630Y747996I0J115654D01*
G03X11899976Y863650I-115654J0D01*
G03X11784322Y747996I0J-115654D01*
G37*
G36*
G01X11784322Y-11997D02*
G03X11899976Y-127651I115654J0D01*
G03X12015630Y-11997I0J115654D01*
G03X11899976Y103656I-115654J0D01*
G03X11784322Y-11997I0J-115654D01*
G37*
G36*
G01X4673000Y2113346D02*
G03X4698654Y2139000I0J25654D01*
G01Y2309000D01*
G03X4673000Y2334654I-25654J0D01*
G01X4503000D01*
G03X4477346Y2309000I0J-25654D01*
G01Y2139000D01*
G03X4503000Y2113346I25654J0D01*
G01X4673000D01*
G37*
G36*
G01X10316005Y-1194654D02*
G03X10341659Y-1169000I0J25654D01*
G01Y-999001D01*
G03X10316005Y-973347I-25654J0D01*
G01X10146006D01*
G03X10120352Y-999001I0J-25654D01*
G01Y-1169000D01*
G03X10146006Y-1194654I25654J0D01*
G01X10316005D01*
G37*
G36*
G01X4477346Y3240000D02*
G03X4588000Y3129346I110654J0D01*
G03X4698654Y3240000I0J110654D01*
G03X4588000Y3350654I-110654J0D01*
G03X4477346Y3240000I0J-110654D01*
G37*
G36*
G01X9469005Y-1194654D02*
G03X9579659Y-1084000I0J110654D01*
G03X9469005Y-973347I-110654J0D01*
G03X9358352Y-1084000I0J-110654D01*
G03X9469005Y-1194654I110654J0D01*
G37*
G36*
G01X9977005Y-1194654D02*
G03X10087659Y-1084000I0J110654D01*
G03X9977005Y-973347I-110654J0D01*
G03X9866352Y-1084000I0J-110654D01*
G03X9977005Y-1194654I110654J0D01*
G37*
G36*
G01X4334000Y3129346D02*
G03X4444654Y3240000I0J110654D01*
G03X4334000Y3350654I-110654J0D01*
G03X4223346Y3240000I0J-110654D01*
G03X4334000Y3129346I110654J0D01*
G37*
G36*
G01X9723005Y-1194654D02*
G03X9833659Y-1084000I0J110654D01*
G03X9723005Y-973347I-110654J0D01*
G03X9612352Y-1084000I0J-110654D01*
G03X9723005Y-1194654I110654J0D01*
G37*
G36*
G01X4334000Y2113346D02*
G03X4444654Y2224000I0J110654D01*
G03X4334000Y2334654I-110654J0D01*
G03X4223346Y2224000I0J-110654D01*
G03X4334000Y2113346I110654J0D01*
G37*
G36*
G01X14481971Y3628340D02*
G03X14507625Y3653994I0J25654D01*
G01Y3823994D01*
G03X14481971Y3849648I-25654J0D01*
G01X14311971D01*
G03X14286317Y3823994I0J-25654D01*
G01Y3653994D01*
G03X14311971Y3628340I25654J0D01*
G01X14481971D01*
G37*
G36*
G01X14540317Y2214994D02*
G03X14650971Y2104340I110654J0D01*
G03X14761625Y2214994I0J110654D01*
G03X14650971Y2325648I-110654J0D01*
G03X14540317Y2214994I0J-110654D01*
G37*
G36*
G01X4477346Y2732000D02*
G03X4588000Y2621346I110654J0D01*
G03X4698654Y2732000I0J110654D01*
G03X4588000Y2842654I-110654J0D01*
G03X4477346Y2732000I0J-110654D01*
G37*
G36*
G01X14540317Y3738994D02*
G03X14650971Y3628340I110654J0D01*
G03X14761625Y3738994I0J110654D01*
G03X14650971Y3849648I-110654J0D01*
G03X14540317Y3738994I0J-110654D01*
G37*
G36*
G01X4588000Y2367346D02*
G03X4698654Y2478000I0J110654D01*
G03X4588000Y2588654I-110654J0D01*
G03X4477346Y2478000I0J-110654D01*
G03X4588000Y2367346I110654J0D01*
G37*
G36*
G01X4588000Y3383346D02*
G03X4698654Y3494000I0J110654D01*
G03X4588000Y3604654I-110654J0D01*
G03X4477346Y3494000I0J-110654D01*
G03X4588000Y3383346I110654J0D01*
G37*
G36*
G01X14396971Y2358340D02*
G03X14507625Y2468994I0J110654D01*
G03X14396971Y2579648I-110654J0D01*
G03X14286317Y2468994I0J-110654D01*
G03X14396971Y2358340I110654J0D01*
G37*
G36*
G01X14650971Y2358340D02*
G03X14761625Y2468994I0J110654D01*
G03X14650971Y2579648I-110654J0D01*
G03X14540317Y2468994I0J-110654D01*
G03X14650971Y2358340I110654J0D01*
G37*
G36*
G01X14286317Y2214994D02*
G03X14396971Y2104340I110654J0D01*
G03X14507625Y2214994I0J110654D01*
G03X14396971Y2325648I-110654J0D01*
G03X14286317Y2214994I0J-110654D01*
G37*
G36*
G01X4223346Y2478000D02*
G03X4334000Y2367346I110654J0D01*
G03X4444654Y2478000I0J110654D01*
G03X4334000Y2588654I-110654J0D01*
G03X4223346Y2478000I0J-110654D01*
G37*
G36*
G01X14396971Y2612340D02*
G03X14507625Y2722994I0J110654D01*
G03X14396971Y2833648I-110654J0D01*
G03X14286317Y2722994I0J-110654D01*
G03X14396971Y2612340I110654J0D01*
G37*
G36*
G01X14540317Y2722994D02*
G03X14650971Y2612340I110654J0D01*
G03X14761625Y2722994I0J110654D01*
G03X14650971Y2833648I-110654J0D01*
G03X14540317Y2722994I0J-110654D01*
G37*
G36*
G01X4334000Y2621346D02*
G03X4444654Y2732000I0J110654D01*
G03X4334000Y2842654I-110654J0D01*
G03X4223346Y2732000I0J-110654D01*
G03X4334000Y2621346I110654J0D01*
G37*
G36*
G01X4223346Y3494000D02*
G03X4334000Y3383346I110654J0D01*
G03X4444654Y3494000I0J110654D01*
G03X4334000Y3604654I-110654J0D01*
G03X4223346Y3494000I0J-110654D01*
G37*
G36*
G01X14396971Y3374340D02*
G03X14507625Y3484994I0J110654D01*
G03X14396971Y3595648I-110654J0D01*
G03X14286317Y3484994I0J-110654D01*
G03X14396971Y3374340I110654J0D01*
G37*
G36*
G01X14650971Y2866340D02*
G03X14761625Y2976994I0J110654D01*
G03X14650971Y3087648I-110654J0D01*
G03X14540317Y2976994I0J-110654D01*
G03X14650971Y2866340I110654J0D01*
G37*
G36*
G01X14396971Y2866340D02*
G03X14507625Y2976994I0J110654D01*
G03X14396971Y3087648I-110654J0D01*
G03X14286317Y2976994I0J-110654D01*
G03X14396971Y2866340I110654J0D01*
G37*
G36*
G01X4477346Y2986000D02*
G03X4588000Y2875346I110654J0D01*
G03X4698654Y2986000I0J110654D01*
G03X4588000Y3096654I-110654J0D01*
G03X4477346Y2986000I0J-110654D01*
G37*
G36*
G01X4334000Y2875346D02*
G03X4444654Y2986000I0J110654D01*
G03X4334000Y3096654I-110654J0D01*
G03X4223346Y2986000I0J-110654D01*
G03X4334000Y2875346I110654J0D01*
G37*
G36*
G01X14650971Y3374340D02*
G03X14761625Y3484994I0J110654D01*
G03X14650971Y3595648I-110654J0D01*
G03X14540317Y3484994I0J-110654D01*
G03X14650971Y3374340I110654J0D01*
G37*
G36*
G01X14396971Y3120340D02*
G03X14507625Y3230994I0J110654D01*
G03X14396971Y3341648I-110654J0D01*
G03X14286317Y3230994I0J-110654D01*
G03X14396971Y3120340I110654J0D01*
G37*
G36*
G01X14650971Y3120340D02*
G03X14761625Y3230994I0J110654D01*
G03X14650971Y3341648I-110654J0D01*
G03X14540317Y3230994I0J-110654D01*
G03X14650971Y3120340I110654J0D01*
G37*
G36*
G01X9437981Y-81154D02*
G03X9494135Y-25000I0J56154D01*
G03X9437981Y31154I-56154J0D01*
G03X9421029Y28534I0J-56154D01*
G03X9427135Y54000I-50048J25466D01*
G03X9370981Y110154I-56154J0D01*
G03X9314827Y54000I0J-56154D01*
G03X9370981Y-2154I56154J0D01*
G03X9387933Y466I0J56154D01*
G03X9381827Y-25000I50048J-25466D01*
G03X9437981Y-81154I56154J0D01*
G37*
G36*
G01X9279561Y2654711D02*
G03X9324034Y2632841I44473J34284D01*
G03X9369278Y2655734I0J56154D01*
G03X9412981Y2634841I43703J35261D01*
G03X9469135Y2690995I0J56154D01*
G03X9412981Y2747149I-56154J0D01*
G03X9367737Y2724255I0J-56154D01*
G03X9324034Y2745149I-43703J-35261D01*
G03X9279561Y2723279I0J-56154D01*
G03X9235087Y2745149I-44473J-34284D01*
G03X9178933Y2688995I0J-56154D01*
G03X9235087Y2632841I56154J0D01*
G03X9279561Y2654711I0J56154D01*
G37*
G36*
G01X9877826Y1112998D02*
G03X9933980Y1056844I56154J0D01*
G03X9990134Y1112998I0J56154D01*
G03X9933980Y1169152I-56154J0D01*
G03X9927530Y1168780I0J-56154D01*
G03X9928134Y1176998I-55550J8218D01*
G03X9871980Y1233152I-56154J0D01*
G03X9815826Y1176998I0J-56154D01*
G03X9871980Y1120844I56154J0D01*
G03X9878431Y1121215I0J56154D01*
G03X9877826Y1112998I55550J-8218D01*
G37*
G36*
G01X11311977Y2245841D02*
G03X11368131Y2301995I0J56154D01*
G03X11311977Y2358149I-56154J0D01*
G03X11263977Y2331138I0J-56154D01*
G03X11215978Y2358149I-48000J-29143D01*
G03X11159824Y2301995I0J-56154D01*
G03X11215978Y2245841I56154J0D01*
G03X11263977Y2272853I0J56154D01*
G03X11311977Y2245841I48000J29143D01*
G37*
G36*
G01X5128990Y-668153D02*
G03X5185144Y-611999I0J56154D01*
G03X5128990Y-555845I-56154J0D01*
G03X5072836Y-611999I0J-56154D01*
G03X5128990Y-668153I56154J0D01*
G37*
G36*
G01X5072836Y-811998D02*
G03X5128990Y-868152I56154J0D01*
G03X5185144Y-811998I0J56154D01*
G03X5128990Y-755844I-56154J0D01*
G03X5072836Y-811998I0J-56154D01*
G37*
G36*
G01X8672983Y-1069154D02*
G03X8729137Y-1013000I0J56154D01*
G03X8672983Y-956846I-56154J0D01*
G03X8616829Y-1013000I0J-56154D01*
G03X8672983Y-1069154I56154J0D01*
G37*
G36*
G01X11382823Y2301995D02*
G03X11438977Y2245841I56154J0D01*
G03X11495131Y2301995I0J56154D01*
G03X11438977Y2358149I-56154J0D01*
G03X11382823Y2301995I0J-56154D01*
G37*
G36*
G01X7814830Y2095996D02*
G03X7870984Y2039842I56154J0D01*
G03X7927138Y2095996I0J56154D01*
G03X7870984Y2152150I-56154J0D01*
G03X7814830Y2095996I0J-56154D01*
G37*
G36*
G01X7241986Y2157842D02*
G03X7298140Y2213996I0J56154D01*
G03X7241986Y2270150I-56154J0D01*
G03X7185831Y2213996I0J-56154D01*
G03X7241986Y2157842I56154J0D01*
G37*
G36*
G01X7145649Y2011838D02*
G03X7201803Y2067992I0J56154D01*
G03X7145649Y2124146I-56154J0D01*
G03X7089495Y2067992I0J-56154D01*
G03X7145649Y2011838I56154J0D01*
G37*
G36*
G01X10673852Y2280001D02*
G03X10730006Y2223847I56154J0D01*
G03X10786160Y2280001I0J56154D01*
G03X10730006Y2336155I-56154J0D01*
G03X10673852Y2280001I0J-56154D01*
G37*
G36*
G01X10296825Y1857996D02*
G03X10352979Y1801842I56154J0D01*
G03X10409133Y1857996I0J56154D01*
G03X10352979Y1914150I-56154J0D01*
G03X10296825Y1857996I0J-56154D01*
G37*
G36*
G01X7859984Y855844D02*
G03X7916138Y911998I0J56154D01*
G03X7859984Y968152I-56154J0D01*
G03X7803830Y911998I0J-56154D01*
G03X7859984Y855844I56154J0D01*
G37*
G36*
G01X10123826Y1799996D02*
G03X10179980Y1743842I56154J0D01*
G03X10236134Y1799996I0J56154D01*
G03X10179980Y1856150I-56154J0D01*
G03X10123826Y1799996I0J-56154D01*
G37*
G36*
G01X10252825Y2999994D02*
G03X10308979Y2943840I56154J0D01*
G03X10365133Y2999994I0J56154D01*
G03X10308979Y3056148I-56154J0D01*
G03X10252825Y2999994I0J-56154D01*
G37*
G36*
G01X9703826Y1701997D02*
G03X9759980Y1645843I56154J0D01*
G03X9816135Y1701997I0J56154D01*
G03X9759980Y1758151I-56154J0D01*
G03X9703826Y1701997I0J-56154D01*
G37*
G36*
G01X7437820Y966567D02*
G03X7493974Y1022721I0J56154D01*
G03X7437820Y1078875I-56154J0D01*
G03X7381666Y1022721I0J-56154D01*
G03X7437820Y966567I56154J0D01*
G37*
G36*
G01X12713820Y883998D02*
G03X12769974Y827844I56154J0D01*
G03X12826129Y883998I0J56154D01*
G03X12769974Y940152I-56154J0D01*
G03X12713820Y883998I0J-56154D01*
G37*
G36*
G01X10113822Y2868361D02*
G03X10169976Y2812207I56154J0D01*
G03X10226130Y2868361I0J56154D01*
G03X10169976Y2924515I-56154J0D01*
G03X10113822Y2868361I0J-56154D01*
G37*
G36*
G01X9890980Y870844D02*
G03X9947134Y926998I0J56154D01*
G03X9890980Y983152I-56154J0D01*
G03X9834826Y926998I0J-56154D01*
G03X9890980Y870844I56154J0D01*
G37*
G36*
G01X7742985Y2039842D02*
G03X7799139Y2095996I0J56154D01*
G03X7742985Y2152150I-56154J0D01*
G03X7686830Y2095996I0J-56154D01*
G03X7742985Y2039842I56154J0D01*
G37*
G36*
G01X7593985Y967844D02*
G03X7650139Y1023998I0J56154D01*
G03X7593985Y1080152I-56154J0D01*
G03X7537831Y1023998I0J-56154D01*
G03X7593985Y967844I56154J0D01*
G37*
G36*
G01X10675979Y2755840D02*
G03X10732133Y2811994I0J56154D01*
G03X10675979Y2868148I-56154J0D01*
G03X10619825Y2811994I0J-56154D01*
G03X10675979Y2755840I56154J0D01*
G37*
G36*
G01X11682681Y1100024D02*
G03X11738835Y1043870I56154J0D01*
G03X11794989Y1100024I0J56154D01*
G03X11738835Y1156178I-56154J0D01*
G03X11682681Y1100024I0J-56154D01*
G37*
G36*
G01X7614985Y2039842D02*
G03X7671139Y2095996I0J56154D01*
G03X7614985Y2152150I-56154J0D01*
G03X7558831Y2095996I0J-56154D01*
G03X7614985Y2039842I56154J0D01*
G37*
G36*
G01X10056826Y1607997D02*
G03X10112980Y1551843I56154J0D01*
G03X10169134Y1607997I0J56154D01*
G03X10112980Y1664151I-56154J0D01*
G03X10056826Y1607997I0J-56154D01*
G37*
G36*
G01X10770824Y2396995D02*
G03X10826978Y2340841I56154J0D01*
G03X10883132Y2396995I0J56154D01*
G03X10826978Y2453149I-56154J0D01*
G03X10770824Y2396995I0J-56154D01*
G37*
G36*
G01X12769974Y1081844D02*
G03X12826129Y1137998I0J56154D01*
G03X12769974Y1194152I-56154J0D01*
G03X12713820Y1137998I0J-56154D01*
G03X12769974Y1081844I56154J0D01*
G37*
G36*
G01X10110830Y2256007D02*
G03X10166984Y2199853I56154J0D01*
G03X10223138Y2256007I0J56154D01*
G03X10166984Y2312161I-56154J0D01*
G03X10110830Y2256007I0J-56154D01*
G37*
G36*
G01X12445975Y1119844D02*
G03X12502129Y1175998I0J56154D01*
G03X12445975Y1232152I-56154J0D01*
G03X12389821Y1175998I0J-56154D01*
G03X12445975Y1119844I56154J0D01*
G37*
G36*
G01X10135830Y2107007D02*
G03X10191984Y2050853I56154J0D01*
G03X10248139Y2107007I0J56154D01*
G03X10191984Y2163162I-56154J0D01*
G03X10135830Y2107007I0J-56154D01*
G37*
G36*
G01X12164976Y1393843D02*
G03X12221130Y1449997I0J56154D01*
G03X12164976Y1506151I-56154J0D01*
G03X12108822Y1449997I0J-56154D01*
G03X12164976Y1393843I56154J0D01*
G37*
G36*
G01X11657977Y1414843D02*
G03X11714131Y1470997I0J56154D01*
G03X11657977Y1527151I-56154J0D01*
G03X11601823Y1470997I0J-56154D01*
G03X11657977Y1414843I56154J0D01*
G37*
G36*
G01X14250008Y1443847D02*
G03X14306162Y1500001I0J56154D01*
G03X14250008Y1556155I-56154J0D01*
G03X14193854Y1500001I0J-56154D01*
G03X14250008Y1443847I56154J0D01*
G37*
G36*
G01X12504975Y-907152D02*
G03X12561129Y-850998I0J56154D01*
G03X12504975Y-794844I-56154J0D01*
G03X12448821Y-850998I0J-56154D01*
G03X12504975Y-907152I56154J0D01*
G37*
G36*
G01X9464981Y760844D02*
G03X9521135Y816998I0J56154D01*
G03X9464981Y873152I-56154J0D01*
G03X9408827Y816998I0J-56154D01*
G03X9464981Y760844I56154J0D01*
G37*
G36*
G01X10822740Y330352D02*
G03X10878894Y386506I0J56154D01*
G03X10822740Y442660I-56154J0D01*
G03X10766586Y386506I0J-56154D01*
G03X10822740Y330352I56154J0D01*
G37*
G36*
G01X12335975Y811844D02*
G03X12392129Y867998I0J56154D01*
G03X12335975Y924152I-56154J0D01*
G03X12279821Y867998I0J-56154D01*
G03X12335975Y811844I56154J0D01*
G37*
G36*
G01X14002972Y783844D02*
G03X14059126Y839998I0J56154D01*
G03X14002972Y896152I-56154J0D01*
G03X13946818Y839998I0J-56154D01*
G03X14002972Y783844I56154J0D01*
G37*
G36*
G01X8896982Y796844D02*
G03X8953136Y852998I0J56154D01*
G03X8896982Y909152I-56154J0D01*
G03X8840828Y852998I0J-56154D01*
G03X8896982Y796844I56154J0D01*
G37*
G36*
G01X11530823Y785998D02*
G03X11586977Y729844I56154J0D01*
G03X11643131Y785998I0J56154D01*
G03X11586977Y842152I-56154J0D01*
G03X11530823Y785998I0J-56154D01*
G37*
G36*
G01X10092980Y786844D02*
G03X10149134Y842998I0J56154D01*
G03X10092980Y899152I-56154J0D01*
G03X10036826Y842998I0J-56154D01*
G03X10092980Y786844I56154J0D01*
G37*
G36*
G01X9235827Y142000D02*
G03X9291981Y85846I56154J0D01*
G03X9348135Y142000I0J56154D01*
G03X9291981Y198154I-56154J0D01*
G03X9235827Y142000I0J-56154D01*
G37*
G36*
G01X10858978Y-31154D02*
G03X10915132Y25000I0J56154D01*
G03X10858978Y81154I-56154J0D01*
G03X10802824Y25000I0J-56154D01*
G03X10858978Y-31154I56154J0D01*
G37*
G36*
G01X8979982Y-128153D02*
G03X9036136Y-71999I0J56154D01*
G03X8979982Y-15845I-56154J0D01*
G03X8923828Y-71999I0J-56154D01*
G03X8979982Y-128153I56154J0D01*
G37*
G36*
G01X13067820Y-167000D02*
G03X13123974Y-223154I56154J0D01*
G03X13180128Y-167000I0J56154D01*
G03X13123974Y-110846I-56154J0D01*
G03X13067820Y-167000I0J-56154D01*
G37*
G36*
G01X10776978Y-238154D02*
G03X10833133Y-182000I0J56154D01*
G03X10776978Y-125846I-56154J0D01*
G03X10720824Y-182000I0J-56154D01*
G03X10776978Y-238154I56154J0D01*
G37*
G36*
G01X9682383Y-275489D02*
G03X9738537Y-219335I0J56154D01*
G03X9682383Y-163181I-56154J0D01*
G03X9626229Y-219335I0J-56154D01*
G03X9682383Y-275489I56154J0D01*
G37*
G36*
G01X8903828Y-733001D02*
G03X8959982Y-789155I56154J0D01*
G03X9016136Y-733001I0J56154D01*
G03X8959982Y-676846I-56154J0D01*
G03X8903828Y-733001I0J-56154D01*
G37*
G36*
G01X6767002Y724844D02*
G03X6823156Y780998I0J56154D01*
G03X6767002Y837153I-56154J0D01*
G03X6710848Y780998I0J-56154D01*
G03X6767002Y724844I56154J0D01*
G37*
G36*
G01X13258820Y502999D02*
G03X13314974Y446845I56154J0D01*
G03X13371128Y502999I0J56154D01*
G03X13314974Y559153I-56154J0D01*
G03X13258820Y502999I0J-56154D01*
G37*
G36*
G01X10082980Y661844D02*
G03X10139134Y717999I0J56154D01*
G03X10082980Y774153I-56154J0D01*
G03X10026826Y717999I0J-56154D01*
G03X10082980Y661844I56154J0D01*
G37*
G36*
G01X12506975Y-525153D02*
G03X12563129Y-468999I0J56154D01*
G03X12506975Y-412845I-56154J0D01*
G03X12450821Y-468999I0J-56154D01*
G03X12506975Y-525153I56154J0D01*
G37*
G36*
G01X11484977Y646845D02*
G03X11541131Y702999I0J56154D01*
G03X11484977Y759153I-56154J0D01*
G03X11428823Y702999I0J-56154D01*
G03X11484977Y646845I56154J0D01*
G37*
G36*
G01X10617979Y502845D02*
G03X10674133Y558999I0J56154D01*
G03X10617979Y615153I-56154J0D01*
G03X10561825Y558999I0J-56154D01*
G03X10617979Y502845I56154J0D01*
G37*
G36*
G01X9934980Y-805153D02*
G03X9991134Y-748999I0J56154D01*
G03X9934980Y-692844I-56154J0D01*
G03X9878826Y-748999I0J-56154D01*
G03X9934980Y-805153I56154J0D01*
G37*
G36*
G01X11717977Y595845D02*
G03X11774131Y651999I0J56154D01*
G03X11717977Y708153I-56154J0D01*
G03X11661822Y651999I0J-56154D01*
G03X11717977Y595845I56154J0D01*
G37*
G36*
G01X8688034Y-411967D02*
G03X8744188Y-355813I0J56154D01*
G03X8688034Y-299659I-56154J0D01*
G03X8631880Y-355813I0J-56154D01*
G03X8688034Y-411967I56154J0D01*
G37*
G36*
G01X11639823Y384999D02*
G03X11695977Y328845I56154J0D01*
G03X11752131Y384999I0J56154D01*
G03X11695977Y441153I-56154J0D01*
G03X11639823Y384999I0J-56154D01*
G37*
G36*
G01X12518975Y-653153D02*
G03X12575129Y-596999I0J56154D01*
G03X12518975Y-540845I-56154J0D01*
G03X12462821Y-596999I0J-56154D01*
G03X12518975Y-653153I56154J0D01*
G37*
%LPD*%
G36*
G01X10867978Y3018154D02*
G03X10864517Y3017546I0J-10160D01*
G01Y3412138D01*
G03X10861541Y3419322I-10160J0D01*
G01X10776686Y3504177D01*
G03X10769502Y3507153I-7184J-7184D01*
G01X9711141D01*
G01Y3970992D01*
G03X9700981Y3981152I-10160J0D01*
G01X8527983D01*
G03X8520799Y3978176I0J-10160D01*
G01X8493799Y3951176D01*
G03X8490823Y3943992I7184J-7184D01*
G01Y3051202D01*
G01X8460775Y3021154D01*
G01X5256989D01*
G03X5249805Y3018178I0J-10160D01*
G01X5249781Y3018154D01*
G01X5032198D01*
G01X4956114Y3094239D01*
G01Y3821332D01*
G03X4953138Y3828516I-10160J0D01*
G01X4863286Y3918370D01*
G03X4856101Y3921345I-7184J-7184D01*
G01X4035814D01*
G01Y5987397D01*
G01X8003273Y5977865D01*
G03X7972671Y5921988I35711J-55877D01*
G03X8038985Y5855674I66314J0D01*
G03X8092763Y5883188I0J66314D01*
G03X8146541Y5855674I53778J38801D01*
G03X8200319Y5883188I0J66314D01*
G03X8254097Y5855674I53778J38801D01*
G03X8320411Y5921988I0J66314D01*
G03X8290867Y5977174I-66314J0D01*
G01X14964186Y5961141D01*
G01Y4055152D01*
G01X14132972D01*
G03X14122812Y4044992I0J-10160D01*
G01Y3983900D01*
G03X14056971Y4042306I-65841J-7908D01*
G03X13993160Y3994040I0J-66314D01*
G03X13975972Y3996306I-17188J-64048D01*
G03X13937993Y3984354I0J-66314D01*
G03X13900002Y3996315I-37991J-54353D01*
G03X13833688Y3930001I0J-66314D01*
G03X13875499Y3868380I66314J0D01*
G03X13831688Y3806001I22504J-62379D01*
G03X13898002Y3739687I66314J0D01*
G03X13936990Y3752358I0J66314D01*
G03X13975977Y3739687I38987J53643D01*
G03X14028828Y3765946I0J66314D01*
G03X14056971Y3759678I28143J60046D01*
G03X14122812Y3818084I0J66314D01*
G01Y3647201D01*
G01X14121763Y3646153D01*
G01X13910972D01*
G03X13903788Y3643177I0J-10160D01*
G01X13893788Y3633177D01*
G03X13890812Y3625993I7184J-7184D01*
G01Y3197994D01*
G01X13890948Y3196338D01*
G01X13712764Y3018154D01*
G01X10867978D01*
G37*
%LPC*%
G36*
G01X9823166Y4636991D02*
G03X9983980Y4476177I160814J0D01*
G03X10144764Y4633893I0J160814D01*
G03X10150000Y4633686I5236J66107D01*
G03X10216314Y4700000I0J66314D01*
G03X10188716Y4753840I-66314J0D01*
G03X10219860Y4810059I-35169J56220D01*
G03X10190080Y4865402I-66314J0D01*
G03X10227294Y4924990I-29100J59588D01*
G03X10227159Y4929217I-66314J0D01*
G03X10252937Y4893077I63763J18218D01*
G03X10227665Y4840990I41042J-52087D01*
G03X10293979Y4774676I66314J0D01*
G03X10360293Y4840990I0J66314D01*
G03X10331964Y4895348I-66314J0D01*
G03X10357236Y4947435I-41042J52087D01*
G03X10290922Y5013749I-66314J0D01*
G03X10224607Y4947435I0J-66314D01*
G03X10224742Y4943208I66314J0D01*
G03X10160980Y4991304I-63763J-18218D01*
G03X10094666Y4924990I0J-66314D01*
G03X10124446Y4869647I66314J0D01*
G03X10087232Y4810059I29100J-59588D01*
G03X10114831Y4756220I66314J0D01*
G03X10102221Y4745986I35169J-56220D01*
G03X9983980Y4797804I-118241J-108996D01*
G03X9823166Y4636991I0J-160814D01*
G37*
G36*
G01X7155171Y4407991D02*
G03X7375985Y4187177I220814J0D01*
G03X7596799Y4407991I0J220814D01*
G03X7375985Y4628805I-220814J0D01*
G03X7155171Y4407991I0J-220814D01*
G37*
G36*
G01X11742845Y3958001D02*
G03X11809160Y3891687I66314J0D01*
G03X11852083Y3907452I0J66314D01*
G03X11895006Y3891687I42923J50548D01*
G03X11961321Y3958001I0J66314D01*
G03X11948478Y3997223I-66314J0D01*
G03X11960821Y4035754I-53971J38531D01*
G03X11934318Y4088789I-66314J0D01*
G01X12007788D01*
G03X12017973Y4098974I0J10185D01*
G01Y4229037D01*
G03X12007788Y4239223I-10185J0D01*
G01X11938866D01*
G03X11960821Y4288515I-44360J49293D01*
G03X11913620Y4352015I-66314J0D01*
G03X11960821Y4415515I-19113J63500D01*
G03X11894507Y4481829I-66314J0D01*
G03X11828192Y4415515I0J-66314D01*
G03X11875394Y4352015I66314J0D01*
G03X11828192Y4288515I19113J-63500D01*
G03X11859178Y4232395I66314J0D01*
G03X11858609Y4229037I9616J-3358D01*
G01Y4098974D01*
G03X11860693Y4092800I10185J0D01*
G03X11851903Y4086572I33813J-57046D01*
G03X11809007Y4102315I-42896J-50572D01*
G03X11742693Y4036001I0J-66314D01*
G03X11755450Y3996896I66314J0D01*
G03X11742845Y3958001I53710J-38895D01*
G37*
G36*
G01X7016986Y4580677D02*
G03X7083300Y4646991I0J66314D01*
G03X7050171Y4704404I-66314J0D01*
G01Y4832054D01*
G03X7049770Y4834886I-10185J0D01*
G03X7059096Y4841428I-33277J57360D01*
G03X7101992Y4825686I42896J50572D01*
G03X7168306Y4892000I0J66314D01*
G03X7155549Y4931105I-66314J0D01*
G03X7168154Y4970000I-53710J38895D01*
G03X7101839Y5036314I-66314J0D01*
G03X7058916Y5020548I0J-66314D01*
G03X7015993Y5036314I-42923J-50548D01*
G03X6949679Y4970000I0J-66314D01*
G03X6962521Y4930777I66314J0D01*
G03X6950178Y4892246I53971J-38531D01*
G03X6972939Y4842239I66314J0D01*
G01X6900993D01*
G03X6890807Y4832054I0J-10185D01*
G01Y4701991D01*
G03X6900993Y4691805I10185J0D01*
G01X6968106D01*
G03X6950672Y4646991I48880J-44814D01*
G03X7016986Y4580677I66314J0D01*
G37*
G36*
G01X10483979Y4476177D02*
G03X10644793Y4636991I0J160814D01*
G03X10483979Y4797804I-160814J0D01*
G03X10323165Y4636991I0J-160814D01*
G03X10483979Y4476177I160814J0D01*
G37*
G36*
G01X11847006Y4669515D02*
G03X11913320Y4603201I66314J0D01*
G03X11979634Y4669515I0J66314D01*
G03X11932347Y4733041I-66314J0D01*
G03X11985320Y4797999I-13341J64958D01*
G03X11919006Y4864313I-66314J0D01*
G01X11917867Y4864303D01*
G03X11953321Y4922999I-30861J58695D01*
G03X11887006Y4989313I-66314J0D01*
G03X11820692Y4922999I0J-66314D01*
G03X11820913Y4917590I66314J0D01*
G03X11799007Y4921313I-21907J-62591D01*
G03X11732693Y4854999I0J-66314D01*
G03X11760037Y4801343I66314J0D01*
G03X11728693Y4744999I34970J-56344D01*
G03X11795007Y4678685I66314J0D01*
G03X11860277Y4733283I0J66314D01*
G03X11882408Y4742699I-14469J64716D01*
G03X11899979Y4734473I36599J55300D01*
G03X11847006Y4669515I13341J-64958D01*
G37*
G36*
G01X10506665Y5103990D02*
G03X10572979Y5037676I66314J0D01*
G03X10632507Y5074768I0J66314D01*
G03X10685979Y5047676I53471J39222D01*
G03X10752293Y5113990I0J66314D01*
G03X10685979Y5180304I-66314J0D01*
G03X10626450Y5143212I0J-66314D01*
G03X10618887Y5151844I-53471J-39222D01*
G03X10640678Y5200990I-44523J49146D01*
G03X10624323Y5244598I-66314J0D01*
G03X10630499Y5252239I-48344J45392D01*
G03X10686979Y5220675I56480J34751D01*
G03X10753293Y5286989I0J66314D01*
G03X10686979Y5353303I-66314J0D01*
G03X10632458Y5324740I0J-66314D01*
G03X10575979Y5356303I-56480J-34751D01*
G03X10509665Y5289989I0J-66314D01*
G03X10526020Y5246381I66314J0D01*
G03X10508050Y5200990I48344J-45392D01*
G03X10528456Y5153135I66314J0D01*
G03X10506665Y5103990I44523J-49146D01*
G37*
G36*
G01X9920981Y3641179D02*
G03X10046795Y3766992I0J125814D01*
G03X9920981Y3892806I-125814J0D01*
G03X9795167Y3766992I0J-125814D01*
G03X9920981Y3641179I125814J0D01*
G37*
G36*
G01X10174981Y3641179D02*
G03X10300795Y3766992I0J125814D01*
G03X10174981Y3892806I-125814J0D01*
G03X10049167Y3766992I0J-125814D01*
G03X10174981Y3641179I125814J0D01*
G37*
G36*
G01X4335185Y5642989D02*
G03X4460999Y5517175I125814J0D01*
G03X4586813Y5642989I0J125814D01*
G03X4460999Y5768803I-125814J0D01*
G03X4335185Y5642989I0J-125814D01*
G37*
G36*
G01X10783978Y5511175D02*
G03X10909792Y5636989I0J125814D01*
G03X10783978Y5762803I-125814J0D01*
G03X10658165Y5636989I0J-125814D01*
G03X10783978Y5511175I125814J0D01*
G37*
G36*
G01X10303167Y3676993D02*
G03X10338981Y3641179I35814J0D01*
G01X10518981D01*
G03X10554795Y3676993I0J35814D01*
G01Y3856992D01*
G03X10518981Y3892806I-35814J0D01*
G01X10338981D01*
G03X10303167Y3856992I0J-35814D01*
G01Y3676993D01*
G37*
G36*
G01X9558167Y5636989D02*
G03X9683981Y5511175I125814J0D01*
G03X9809794Y5636989I0J125814D01*
G03X9683981Y5762803I-125814J0D01*
G03X9558167Y5636989I0J-125814D01*
G37*
G36*
G01X14396175Y5689989D02*
G03X14521988Y5564175I125814J0D01*
G03X14647802Y5689989I0J125814D01*
G03X14521988Y5815802I-125814J0D01*
G03X14396175Y5689989I0J-125814D01*
G37*
G36*
G01X14396175Y5189990D02*
G03X14521988Y5064176I125814J0D01*
G03X14647802Y5189990I0J125814D01*
G03X14521988Y5315803I-125814J0D01*
G03X14396175Y5189990I0J-125814D01*
G37*
G36*
G01X4460999Y5017176D02*
G03X4586813Y5142990I0J125814D01*
G03X4460999Y5268804I-125814J0D01*
G03X4335185Y5142990I0J-125814D01*
G03X4460999Y5017176I125814J0D01*
G37*
G36*
G01X6442614Y3978936D02*
G03X6508928Y3912622I66314J0D01*
G03X6575048Y3973874I0J66314D01*
G03X6636301Y4039995I-5062J66121D01*
G03X6618697Y4084993I-66314J0D01*
G03X6636301Y4129992I-48710J44998D01*
G03X6569987Y4196306I-66314J0D01*
G03X6503673Y4129992I0J-66314D01*
G03X6521276Y4084993I66314J0D01*
G03X6503866Y4045057I48710J-44998D01*
G03X6442614Y3978936I5062J-66121D01*
G37*
G36*
G01X10438979Y4912676D02*
G03X10505293Y4978990I0J66314D01*
G03X10471429Y5036822I-66314J0D01*
G03X10503276Y5093476I-34467J56653D01*
G03X10474781Y5147949I-66314J0D01*
G03X10501293Y5200990I-39802J53041D01*
G03X10434979Y5267304I-66314J0D01*
G03X10368665Y5200990I0J-66314D01*
G03X10397160Y5146517I66314J0D01*
G03X10370648Y5093476I39802J-53041D01*
G03X10404513Y5035643I66314J0D01*
G03X10372665Y4978990I34467J-56653D01*
G03X10438979Y4912676I66314J0D01*
G37*
G36*
G01X8472113Y4719314D02*
G03X8538427Y4653000I66314J0D01*
G03X8592205Y4680514I0J66314D01*
G03X8645983Y4653000I53778J38801D01*
G03X8699761Y4680514I0J66314D01*
G03X8753540Y4653000I53778J38801D01*
G03X8819854Y4719314I0J66314D01*
G03X8753540Y4785628I-66314J0D01*
G03X8699761Y4758115I0J-66314D01*
G03X8645983Y4785628I-53778J-38801D01*
G03X8592205Y4758115I0J-66314D01*
G03X8538427Y4785628I-53778J-38801D01*
G03X8472113Y4719314I0J-66314D01*
G37*
G36*
G01X5012997Y5055685D02*
G03X5079311Y5121999I0J66314D01*
G03X5064720Y5163499I-66314J0D01*
G03X5079311Y5204999I-51723J41500D01*
G03X5012997Y5271313I-66314J0D01*
G03X4974009Y5258642I0J-66314D01*
G03X4935022Y5271313I-38987J-53643D01*
G03X4868708Y5204999I0J-66314D01*
G03X4883298Y5163499I66314J0D01*
G03X4868708Y5121999I51723J-41500D01*
G03X4935022Y5055685I66314J0D01*
G03X4974009Y5068357I0J66314D01*
G03X5012997Y5055685I38987J53643D01*
G37*
G36*
G01X7723665Y5102993D02*
G03X7789979Y5036679I66314J0D01*
G03X7856293Y5102993I0J66314D01*
G03X7843364Y5142332I-66314J0D01*
G03X7857293Y5182993I-52385J40661D01*
G03X7844364Y5222332I-66314J0D01*
G03X7858293Y5262993I-52385J40661D01*
G03X7791979Y5329307I-66314J0D01*
G03X7725665Y5262993I0J-66314D01*
G03X7738593Y5223654I66314J0D01*
G03X7724665Y5182993I52385J-40661D01*
G03X7737593Y5143654I66314J0D01*
G03X7723665Y5102993I52385J-40661D01*
G37*
G36*
G01X5692995Y4682686D02*
G03X5759309Y4749000I0J66314D01*
G03X5749007Y4784500I-66314J0D01*
G03X5759309Y4820000I-56012J35500D01*
G03X5749007Y4855500I-66314J0D01*
G03X5759309Y4891000I-56012J35500D01*
G03X5692995Y4957314I-66314J0D01*
G03X5626681Y4891000I0J-66314D01*
G03X5636984Y4855500I66314J0D01*
G03X5626681Y4820000I56012J-35500D01*
G03X5636984Y4784500I66314J0D01*
G03X5626681Y4749000I56012J-35500D01*
G03X5692995Y4682686I66314J0D01*
G37*
G36*
G01X13151690Y4037000D02*
G03X13218004Y3970686I66314J0D01*
G03X13284318Y4037000I0J66314D01*
G03X13274015Y4072500I-66314J0D01*
G03X13284318Y4108000I-56012J35500D01*
G03X13274015Y4143500I-66314J0D01*
G03X13284318Y4179001I-56012J35500D01*
G03X13218004Y4245315I-66314J0D01*
G03X13151690Y4179001I0J-66314D01*
G03X13161992Y4143500I66314J0D01*
G03X13151690Y4108000I56012J-35500D01*
G03X13161992Y4072500I66314J0D01*
G03X13151690Y4037000I56012J-35500D01*
G37*
G36*
G01X5686995Y3995700D02*
G03X5753309Y4062014I0J66314D01*
G03X5743007Y4097514I-66314J0D01*
G03X5753309Y4133014I-56012J35500D01*
G03X5743007Y4168514I-66314J0D01*
G03X5753309Y4204014I-56012J35500D01*
G03X5686995Y4270328I-66314J0D01*
G03X5620681Y4204014I0J-66314D01*
G03X5630984Y4168514I66314J0D01*
G03X5620681Y4133014I56012J-35500D01*
G03X5630984Y4097514I66314J0D01*
G03X5620681Y4062014I56012J-35500D01*
G03X5686995Y3995700I66314J0D01*
G37*
G36*
G01X13224004Y4657672D02*
G03X13290318Y4723986I0J66314D01*
G03X13280015Y4759486I-66314J0D01*
G03X13290318Y4794986I-56012J35500D01*
G03X13280015Y4830486I-66314J0D01*
G03X13290318Y4865986I-56012J35500D01*
G03X13224004Y4932300I-66314J0D01*
G03X13157690Y4865986I0J-66314D01*
G03X13167992Y4830486I66314J0D01*
G03X13157690Y4794986I56012J-35500D01*
G03X13167992Y4759486I66314J0D01*
G03X13157690Y4723986I56012J-35500D01*
G03X13224004Y4657672I66314J0D01*
G37*
G36*
G01X11374177Y3636908D02*
G03X11437977Y3588679I63800J18085D01*
G03X11504291Y3654993I0J66314D01*
G03X11437977Y3721307I-66314J0D01*
G03X11374778Y3675078I0J-66314D01*
G03X11310977Y3723307I-63800J-18085D01*
G03X11244663Y3656993I0J-66314D01*
G03X11310977Y3590679I66314J0D01*
G03X11374177Y3636908I0J66314D01*
G37*
G36*
G01X14304971Y5622675D02*
G03X14371285Y5688989I0J66314D01*
G03X14304971Y5755303I-66314J0D01*
G03X14243539Y5713963I0J-66314D01*
G03X14180972Y5758303I-62568J-21974D01*
G03X14114658Y5691989I0J-66314D01*
G03X14180972Y5625675I66314J0D01*
G03X14242404Y5667015I0J66314D01*
G03X14304971Y5622675I62568J21974D01*
G37*
G36*
G01X14304971Y5472675D02*
G03X14371285Y5538989I0J66314D01*
G03X14304971Y5605303I-66314J0D01*
G03X14243539Y5563963I0J-66314D01*
G03X14180972Y5608303I-62568J-21974D01*
G03X14114658Y5541989I0J-66314D01*
G03X14180972Y5475675I66314J0D01*
G03X14242404Y5517015I0J66314D01*
G03X14304971Y5472675I62568J21974D01*
G37*
G36*
G01X14304971Y5772675D02*
G03X14371285Y5838989I0J66314D01*
G03X14304971Y5905303I-66314J0D01*
G03X14243539Y5863963I0J-66314D01*
G03X14180972Y5908303I-62568J-21974D01*
G03X14114658Y5841989I0J-66314D01*
G03X14180972Y5775675I66314J0D01*
G03X14242404Y5817015I0J66314D01*
G03X14304971Y5772675I62568J21974D01*
G37*
G36*
G01X5006858Y4446171D02*
G03X5073172Y4512485I0J66314D01*
G03X5023647Y4576639I-66314J0D01*
G03X5073172Y4640792I-16790J64153D01*
G03X5006858Y4707106I-66314J0D01*
G03X4940544Y4640792I0J-66314D01*
G03X4990068Y4576639I66314J0D01*
G03X4940544Y4512485I16790J-64153D01*
G03X5006858Y4446171I66314J0D01*
G37*
G36*
G01X13837827Y4287208D02*
G03X13904141Y4220894I66314J0D01*
G03X13970455Y4287208I0J66314D01*
G03X13920931Y4351362I-66314J0D01*
G03X13970455Y4415515I-16790J64153D01*
G03X13904141Y4481829I-66314J0D01*
G03X13837827Y4415515I0J-66314D01*
G03X13887352Y4351362I66314J0D01*
G03X13837827Y4287208I16790J-64153D01*
G37*
G36*
G01X7869984Y3358679D02*
G03X7936298Y3424993I0J66314D01*
G03X7869984Y3491307I-66314J0D01*
G03X7806484Y3444107I0J-66314D01*
G03X7742985Y3491307I-63500J-19113D01*
G03X7676670Y3424993I0J-66314D01*
G03X7742985Y3358679I66314J0D01*
G03X7806484Y3405880I0J66314D01*
G03X7869984Y3358679I63500J19113D01*
G37*
G36*
G01X5259996Y4193687D02*
G03X5326310Y4260001I0J66314D01*
G03X5281655Y4322678I-66314J0D01*
G03X5325310Y4385001I-22659J62323D01*
G03X5258996Y4451315I-66314J0D01*
G03X5192682Y4385001I0J-66314D01*
G03X5237337Y4322324I66314J0D01*
G03X5193682Y4260001I22659J-62323D01*
G03X5259996Y4193687I66314J0D01*
G37*
G36*
G01X13652003Y4476685D02*
G03X13718317Y4543000I0J66314D01*
G03X13673662Y4605677I-66314J0D01*
G03X13717317Y4667999I-22659J62323D01*
G03X13651003Y4734313I-66314J0D01*
G03X13584689Y4667999I0J-66314D01*
G03X13629344Y4605322I66314J0D01*
G03X13585689Y4543000I22659J-62323D01*
G03X13652003Y4476685I66314J0D01*
G37*
G36*
G01X8258798Y4406991D02*
G03X8268983Y4396806I10185J0D01*
G01X8405983D01*
G03X8416169Y4406991I0J10185D01*
G01Y4558991D01*
G03X8405983Y4569176I-10185J0D01*
G01X8268983D01*
G03X8258798Y4558991I0J-10185D01*
G01Y4406991D01*
G37*
G36*
G01X5337716Y4690274D02*
G03X5347901Y4700459I0J10185D01*
G01Y4830522D01*
G03X5337716Y4840708I-10185J0D01*
G01X5198722D01*
G03X5188537Y4830522I0J-10185D01*
G01Y4700459D01*
G03X5198722Y4690274I10185J0D01*
G01X5337716D01*
G37*
G36*
G01X13560793Y4099966D02*
G03X13570978Y4089780I10185J0D01*
G01X13709972D01*
G03X13720157Y4099966I0J10185D01*
G01Y4230029D01*
G03X13709972Y4240215I-10185J0D01*
G01X13570978D01*
G03X13560793Y4230029I0J-10185D01*
G01Y4099966D01*
G37*
G36*
G01X6579987Y3719678D02*
G03X6646301Y3785992I0J66314D01*
G03X6579987Y3852306I-66314J0D01*
G03X6513673Y3785992I0J-66314D01*
G03X6579987Y3719678I66314J0D01*
G37*
G36*
G01X10965664Y4072992D02*
G03X11031978Y4006678I66314J0D01*
G03X11098292Y4072992I0J66314D01*
G03X11031978Y4139306I-66314J0D01*
G03X10965664Y4072992I0J-66314D01*
G37*
G36*
G01X11785976Y4980676D02*
G03X11852290Y5046990I0J66314D01*
G03X11785976Y5113304I-66314J0D01*
G03X11719662Y5046990I0J-66314D01*
G03X11785976Y4980676I66314J0D01*
G37*
G36*
G01X4746676Y5508989D02*
G03X4812990Y5442675I66314J0D01*
G03X4879304Y5508989I0J66314D01*
G03X4812990Y5575303I-66314J0D01*
G03X4746676Y5508989I0J-66314D01*
G37*
G36*
G01X10854664Y3831992D02*
G03X10920978Y3765678I66314J0D01*
G03X10987292Y3831992I0J66314D01*
G03X10920978Y3898306I-66314J0D01*
G03X10854664Y3831992I0J-66314D01*
G37*
G36*
G01X6931365Y4258485D02*
G03X6997679Y4192171I66314J0D01*
G03X7063993Y4258485I0J66314D01*
G03X6997679Y4324799I-66314J0D01*
G03X6931365Y4258485I0J-66314D01*
G37*
G36*
G01X10802664Y5886988D02*
G03X10868978Y5820674I66314J0D01*
G03X10935292Y5886988I0J66314D01*
G03X10868978Y5953302I-66314J0D01*
G03X10802664Y5886988I0J-66314D01*
G37*
G36*
G01X5229682Y5130999D02*
G03X5295996Y5064685I66314J0D01*
G03X5362310Y5130999I0J66314D01*
G03X5295996Y5197313I-66314J0D01*
G03X5229682Y5130999I0J-66314D01*
G37*
G36*
G01X11511977Y3768678D02*
G03X11578291Y3834992I0J66314D01*
G03X11511977Y3901306I-66314J0D01*
G03X11445663Y3834992I0J-66314D01*
G03X11511977Y3768678I66314J0D01*
G37*
G36*
G01X4762857Y3996754D02*
G03X4829171Y4063068I0J66314D01*
G03X4762857Y4129382I-66314J0D01*
G03X4696543Y4063068I0J-66314D01*
G03X4762857Y3996754I66314J0D01*
G37*
G36*
G01X4962990Y5442675D02*
G03X5029304Y5508989I0J66314D01*
G03X4962990Y5575303I-66314J0D01*
G03X4896676Y5508989I0J-66314D01*
G03X4962990Y5442675I66314J0D01*
G37*
G36*
G01X7144986Y5496675D02*
G03X7211300Y5562989I0J66314D01*
G03X7144986Y5629303I-66314J0D01*
G03X7078672Y5562989I0J-66314D01*
G03X7144986Y5496675I66314J0D01*
G37*
G36*
G01X6625673Y3649993D02*
G03X6691987Y3583679I66314J0D01*
G03X6758301Y3649993I0J66314D01*
G03X6691987Y3716307I-66314J0D01*
G03X6625673Y3649993I0J-66314D01*
G37*
G36*
G01X4696543Y4213068D02*
G03X4762857Y4146754I66314J0D01*
G03X4829171Y4213068I0J66314D01*
G03X4762857Y4279382I-66314J0D01*
G03X4696543Y4213068I0J-66314D01*
G37*
G36*
G01X4596676Y5508989D02*
G03X4662990Y5442675I66314J0D01*
G03X4729304Y5508989I0J66314D01*
G03X4662990Y5575303I-66314J0D01*
G03X4596676Y5508989I0J-66314D01*
G37*
G36*
G01X10875006Y4820391D02*
G03X10941320Y4886705I0J66314D01*
G03X10875006Y4953019I-66314J0D01*
G03X10808692Y4886705I0J-66314D01*
G03X10875006Y4820391I66314J0D01*
G37*
G36*
G01X7821007Y3901688D02*
G03X7887321Y3968002I0J66314D01*
G03X7821007Y4034316I-66314J0D01*
G03X7754693Y3968002I0J-66314D01*
G03X7821007Y3901688I66314J0D01*
G37*
G36*
G01X4246543Y4063068D02*
G03X4312857Y3996754I66314J0D01*
G03X4379171Y4063068I0J66314D01*
G03X4312857Y4129382I-66314J0D01*
G03X4246543Y4063068I0J-66314D01*
G37*
G36*
G01X11114664Y5886988D02*
G03X11180978Y5820674I66314J0D01*
G03X11247292Y5886988I0J66314D01*
G03X11180978Y5953302I-66314J0D01*
G03X11114664Y5886988I0J-66314D01*
G37*
G36*
G01X4662990Y5592675D02*
G03X4729304Y5658989I0J66314D01*
G03X4662990Y5725303I-66314J0D01*
G03X4596676Y5658989I0J-66314D01*
G03X4662990Y5592675I66314J0D01*
G37*
G36*
G01X7292671Y3601993D02*
G03X7358985Y3535679I66314J0D01*
G03X7425299Y3601993I0J66314D01*
G03X7358985Y3668307I-66314J0D01*
G03X7292671Y3601993I0J-66314D01*
G37*
G36*
G01X4312857Y4146754D02*
G03X4379171Y4213068I0J66314D01*
G03X4312857Y4279382I-66314J0D01*
G03X4246543Y4213068I0J-66314D01*
G03X4312857Y4146754I66314J0D01*
G37*
G36*
G01X4162857Y4296754D02*
G03X4229171Y4363068I0J66314D01*
G03X4162857Y4429382I-66314J0D01*
G03X4096543Y4363068I0J-66314D01*
G03X4162857Y4296754I66314J0D01*
G37*
G36*
G01X4746676Y5658989D02*
G03X4812990Y5592675I66314J0D01*
G03X4879304Y5658989I0J66314D01*
G03X4812990Y5725303I-66314J0D01*
G03X4746676Y5658989I0J-66314D01*
G37*
G36*
G01X11086664Y3978992D02*
G03X11152978Y3912678I66314J0D01*
G03X11219292Y3978992I0J66314D01*
G03X11152978Y4045306I-66314J0D01*
G03X11086664Y3978992I0J-66314D01*
G37*
G36*
G01X4762857Y4296754D02*
G03X4829171Y4363068I0J66314D01*
G03X4762857Y4429382I-66314J0D01*
G03X4696543Y4363068I0J-66314D01*
G03X4762857Y4296754I66314J0D01*
G37*
G36*
G01X10857978Y3931678D02*
G03X10924292Y3997992I0J66314D01*
G03X10857978Y4064306I-66314J0D01*
G03X10791664Y3997992I0J-66314D01*
G03X10857978Y3931678I66314J0D01*
G37*
G36*
G01X10958664Y5886988D02*
G03X11024978Y5820674I66314J0D01*
G03X11091292Y5886988I0J66314D01*
G03X11024978Y5953302I-66314J0D01*
G03X10958664Y5886988I0J-66314D01*
G37*
G36*
G01X5256026Y3939695D02*
G03X5322340Y4006009I0J66314D01*
G03X5256026Y4072323I-66314J0D01*
G03X5189712Y4006009I0J-66314D01*
G03X5256026Y3939695I66314J0D01*
G37*
G36*
G01X6950178Y4512485D02*
G03X7016492Y4446171I66314J0D01*
G03X7082807Y4512485I0J66314D01*
G03X7016492Y4578799I-66314J0D01*
G03X6950178Y4512485I0J-66314D01*
G37*
G36*
G01X7555671Y3577993D02*
G03X7621985Y3511679I66314J0D01*
G03X7688299Y3577993I0J66314D01*
G03X7621985Y3644307I-66314J0D01*
G03X7555671Y3577993I0J-66314D01*
G37*
G36*
G01X7965970Y4470668D02*
G03X8032284Y4536982I0J66314D01*
G03X7965970Y4603296I-66314J0D01*
G03X7899656Y4536982I0J-66314D01*
G03X7965970Y4470668I66314J0D01*
G37*
G36*
G01X8388983Y3364679D02*
G03X8455297Y3430993I0J66314D01*
G03X8388983Y3497307I-66314J0D01*
G03X8322669Y3430993I0J-66314D01*
G03X8388983Y3364679I66314J0D01*
G37*
G36*
G01X10234665Y5082990D02*
G03X10300979Y5016676I66314J0D01*
G03X10367293Y5082990I0J66314D01*
G03X10300979Y5149304I-66314J0D01*
G03X10234665Y5082990I0J-66314D01*
G37*
G36*
G01X4162857Y3996754D02*
G03X4229171Y4063068I0J66314D01*
G03X4162857Y4129382I-66314J0D01*
G03X4096543Y4063068I0J-66314D01*
G03X4162857Y3996754I66314J0D01*
G37*
G36*
G01X4546543Y4063068D02*
G03X4612857Y3996754I66314J0D01*
G03X4679171Y4063068I0J66314D01*
G03X4612857Y4129382I-66314J0D01*
G03X4546543Y4063068I0J-66314D01*
G37*
G36*
G01X8122978Y3674974D02*
G03X8189292Y3741288I0J66314D01*
G03X8122978Y3807602I-66314J0D01*
G03X8056664Y3741288I0J-66314D01*
G03X8122978Y3674974I66314J0D01*
G37*
G36*
G01X4246543Y4363068D02*
G03X4312857Y4296754I66314J0D01*
G03X4379171Y4363068I0J66314D01*
G03X4312857Y4429382I-66314J0D01*
G03X4246543Y4363068I0J-66314D01*
G37*
G36*
G01X4096543Y4213068D02*
G03X4162857Y4146754I66314J0D01*
G03X4229171Y4213068I0J66314D01*
G03X4162857Y4279382I-66314J0D01*
G03X4096543Y4213068I0J-66314D01*
G37*
G36*
G01X4546543Y4213068D02*
G03X4612857Y4146754I66314J0D01*
G03X4679171Y4213068I0J66314D01*
G03X4612857Y4279382I-66314J0D01*
G03X4546543Y4213068I0J-66314D01*
G37*
G36*
G01X7760984Y4845676D02*
G03X7827299Y4911990I0J66314D01*
G03X7760984Y4978304I-66314J0D01*
G03X7694670Y4911990I0J-66314D01*
G03X7760984Y4845676I66314J0D01*
G37*
G36*
G01X4396543Y4063068D02*
G03X4462857Y3996754I66314J0D01*
G03X4529171Y4063068I0J66314D01*
G03X4462857Y4129382I-66314J0D01*
G03X4396543Y4063068I0J-66314D01*
G37*
G36*
G01X7558671Y4812990D02*
G03X7624985Y4746676I66314J0D01*
G03X7691299Y4812990I0J66314D01*
G03X7624985Y4879304I-66314J0D01*
G03X7558671Y4812990I0J-66314D01*
G37*
G36*
G01X4396543Y4213068D02*
G03X4462857Y4146754I66314J0D01*
G03X4529171Y4213068I0J66314D01*
G03X4462857Y4279382I-66314J0D01*
G03X4396543Y4213068I0J-66314D01*
G37*
G36*
G01X11110664Y4659991D02*
G03X11176978Y4593677I66314J0D01*
G03X11243292Y4659991I0J66314D01*
G03X11176978Y4726305I-66314J0D01*
G03X11110664Y4659991I0J-66314D01*
G37*
G36*
G01X4612857Y4296754D02*
G03X4679171Y4363068I0J66314D01*
G03X4612857Y4429382I-66314J0D01*
G03X4546543Y4363068I0J-66314D01*
G03X4612857Y4296754I66314J0D01*
G37*
G36*
G01X7023993Y3938688D02*
G03X7090307Y4005002I0J66314D01*
G03X7023993Y4071316I-66314J0D01*
G03X6957678Y4005002I0J-66314D01*
G03X7023993Y3938688I66314J0D01*
G37*
G36*
G01X4896676Y5658989D02*
G03X4962990Y5592675I66314J0D01*
G03X5029304Y5658989I0J66314D01*
G03X4962990Y5725303I-66314J0D01*
G03X4896676Y5658989I0J-66314D01*
G37*
G36*
G01X8161969Y4549668D02*
G03X8228283Y4615982I0J66314D01*
G03X8161969Y4682296I-66314J0D01*
G03X8095655Y4615982I0J-66314D01*
G03X8161969Y4549668I66314J0D01*
G37*
G36*
G01X4462857Y4296754D02*
G03X4529171Y4363068I0J66314D01*
G03X4462857Y4429382I-66314J0D01*
G03X4396543Y4363068I0J-66314D01*
G03X4462857Y4296754I66314J0D01*
G37*
G36*
G01X11388808Y4007684D02*
G03X11455122Y4073998I0J66314D01*
G03X11388808Y4140312I-66314J0D01*
G03X11322494Y4073998I0J-66314D01*
G03X11388808Y4007684I66314J0D01*
G37*
G36*
G01X7688656Y4610982D02*
G03X7754970Y4544668I66314J0D01*
G03X7821284Y4610982I0J66314D01*
G03X7754970Y4677296I-66314J0D01*
G03X7688656Y4610982I0J-66314D01*
G37*
G36*
G01X13990657Y4125992D02*
G03X14056971Y4059678I66314J0D01*
G03X14123285Y4125992I0J66314D01*
G03X14056971Y4192306I-66314J0D01*
G03X13990657Y4125992I0J-66314D01*
G37*
G36*
G01X14662971Y4539677D02*
G03X14729285Y4605991I0J66314D01*
G03X14662971Y4672305I-66314J0D01*
G03X14596657Y4605991I0J-66314D01*
G03X14662971Y4539677I66314J0D01*
G37*
G36*
G01X14812971Y4389677D02*
G03X14879285Y4455991I0J66314D01*
G03X14812971Y4522305I-66314J0D01*
G03X14746657Y4455991I0J-66314D01*
G03X14812971Y4389677I66314J0D01*
G37*
G36*
G01X14446657Y4455991D02*
G03X14512971Y4389677I66314J0D01*
G03X14579285Y4455991I0J66314D01*
G03X14512971Y4522305I-66314J0D01*
G03X14446657Y4455991I0J-66314D01*
G37*
G36*
G01X13615003Y3730687D02*
G03X13681317Y3797001I0J66314D01*
G03X13615003Y3863315I-66314J0D01*
G03X13548689Y3797001I0J-66314D01*
G03X13615003Y3730687I66314J0D01*
G37*
G36*
G01X14212971Y4689677D02*
G03X14279285Y4755991I0J66314D01*
G03X14212971Y4822305I-66314J0D01*
G03X14146657Y4755991I0J-66314D01*
G03X14212971Y4689677I66314J0D01*
G37*
G36*
G01X13654973Y4855678D02*
G03X13721287Y4921992I0J66314D01*
G03X13654973Y4988306I-66314J0D01*
G03X13588659Y4921992I0J-66314D01*
G03X13654973Y4855678I66314J0D01*
G37*
G36*
G01X14362971Y4539677D02*
G03X14429285Y4605991I0J66314D01*
G03X14362971Y4672305I-66314J0D01*
G03X14296657Y4605991I0J-66314D01*
G03X14362971Y4539677I66314J0D01*
G37*
G36*
G01X14030972Y5775675D02*
G03X14097286Y5841989I0J66314D01*
G03X14030972Y5908303I-66314J0D01*
G03X13964658Y5841989I0J-66314D01*
G03X14030972Y5775675I66314J0D01*
G37*
G36*
G01X14212971Y4539677D02*
G03X14279285Y4605991I0J66314D01*
G03X14212971Y4672305I-66314J0D01*
G03X14146657Y4605991I0J-66314D01*
G03X14212971Y4539677I66314J0D01*
G37*
G36*
G01X14746657Y4605991D02*
G03X14812971Y4539677I66314J0D01*
G03X14879285Y4605991I0J66314D01*
G03X14812971Y4672305I-66314J0D01*
G03X14746657Y4605991I0J-66314D01*
G37*
G36*
G01X14296657Y4755991D02*
G03X14362971Y4689677I66314J0D01*
G03X14429285Y4755991I0J66314D01*
G03X14362971Y4822305I-66314J0D01*
G03X14296657Y4755991I0J-66314D01*
G37*
G36*
G01X14812971Y4689677D02*
G03X14879285Y4755991I0J66314D01*
G03X14812971Y4822305I-66314J0D01*
G03X14746657Y4755991I0J-66314D01*
G03X14812971Y4689677I66314J0D01*
G37*
G36*
G01X14662971Y4389677D02*
G03X14729285Y4455991I0J66314D01*
G03X14662971Y4522305I-66314J0D01*
G03X14596657Y4455991I0J-66314D01*
G03X14662971Y4389677I66314J0D01*
G37*
G36*
G01X14446657Y4605991D02*
G03X14512971Y4539677I66314J0D01*
G03X14579285Y4605991I0J66314D01*
G03X14512971Y4672305I-66314J0D01*
G03X14446657Y4605991I0J-66314D01*
G37*
G36*
G01X14146657Y4455991D02*
G03X14212971Y4389677I66314J0D01*
G03X14279285Y4455991I0J66314D01*
G03X14212971Y4522305I-66314J0D01*
G03X14146657Y4455991I0J-66314D01*
G37*
G36*
G01X14512971Y4689677D02*
G03X14579285Y4755991I0J66314D01*
G03X14512971Y4822305I-66314J0D01*
G03X14446657Y4755991I0J-66314D01*
G03X14512971Y4689677I66314J0D01*
G37*
G36*
G01X14596657Y4755991D02*
G03X14662971Y4689677I66314J0D01*
G03X14729285Y4755991I0J66314D01*
G03X14662971Y4822305I-66314J0D01*
G03X14596657Y4755991I0J-66314D01*
G37*
G36*
G01X14362971Y4389677D02*
G03X14429285Y4455991I0J66314D01*
G03X14362971Y4522305I-66314J0D01*
G03X14296657Y4455991I0J-66314D01*
G03X14362971Y4389677I66314J0D01*
G37*
G36*
G01X13964658Y5541989D02*
G03X14030972Y5475675I66314J0D01*
G03X14097286Y5541989I0J66314D01*
G03X14030972Y5608303I-66314J0D01*
G03X13964658Y5541989I0J-66314D01*
G37*
G36*
G01X14030972Y5625675D02*
G03X14097286Y5691989I0J66314D01*
G03X14030972Y5758303I-66314J0D01*
G03X13964658Y5691989I0J-66314D01*
G03X14030972Y5625675I66314J0D01*
G37*
%LPD*%
G36*
G01X7745657Y67497D02*
G01X7745657Y-1235344D01*
G01X6749605D01*
G01X6603596Y-1081347D01*
G03X6584979Y-1073344I-18616J-17651D01*
G01X5514989D01*
G03X5497555Y-1080178I0J-25654D01*
G01X5433987Y-1139065D01*
G01Y67497D01*
G01X7745657D01*
G37*
%LPC*%
G36*
G01X6336005Y-484137D02*
G03X6394158Y-425983I0J58153D01*
G03X6336005Y-367830I-58153J0D01*
G03X6277851Y-425983I0J-58153D01*
G03X6336005Y-484137I58153J0D01*
G37*
G36*
G01X5758002Y-484137D02*
G03X5816156Y-425983I0J58153D01*
G03X5758002Y-367830I-58153J0D01*
G03X5699849Y-425983I0J-58153D01*
G03X5758002Y-484137I58153J0D01*
G37*
G36*
G01X6197823Y-118659D02*
G03X6253977Y-62505I0J56154D01*
G03X6197823Y-6351I-56154J0D01*
G03X6141669Y-62505I0J-56154D01*
G03X6197823Y-118659I56154J0D01*
G37*
G36*
G01X5776834Y-182000D02*
G03X5832988Y-238154I56154J0D01*
G03X5889142Y-182000I0J56154D01*
G03X5832988Y-125846I-56154J0D01*
G03X5776834Y-182000I0J-56154D01*
G37*
G36*
G01X6214833Y-182000D02*
G03X6270987Y-238154I56154J0D01*
G03X6327142Y-182000I0J56154D01*
G03X6270987Y-125846I-56154J0D01*
G03X6214833Y-182000I0J-56154D01*
G37*
G36*
G01X5972823Y-503658D02*
G03X6028977Y-447504I0J56154D01*
G03X5972823Y-391350I-56154J0D01*
G03X5916669Y-447504I0J-56154D01*
G03X5972823Y-503658I56154J0D01*
G37*
G36*
G01X6122823Y-503658D02*
G03X6178977Y-447504I0J56154D01*
G03X6122823Y-391350I-56154J0D01*
G03X6066669Y-447504I0J-56154D01*
G03X6122823Y-503658I56154J0D01*
G37*
G36*
G01X7596666Y-1007503D02*
G03X7652820Y-1063657I56154J0D01*
G03X7708974Y-1007503I0J56154D01*
G03X7652820Y-951349I-56154J0D01*
G03X7596666Y-1007503I0J-56154D01*
G37*
G36*
G01X7372831Y-1063657D02*
G03X7428985Y-1007503I0J56154D01*
G03X7372831Y-951349I-56154J0D01*
G03X7316677Y-1007503I0J-56154D01*
G03X7372831Y-1063657I56154J0D01*
G37*
G36*
G01X6878848Y-606999D02*
G03X6935002Y-663153I56154J0D01*
G03X6991156Y-606999I0J56154D01*
G03X6935002Y-550845I-56154J0D01*
G03X6878848Y-606999I0J-56154D01*
G37*
%LPD*%
G36*
G01X14010709Y3873504D02*
G03X14004120Y3866047I46262J-47512D01*
G03X13999514Y3867998I-28143J-60046D01*
G03X14010709Y3873504I-23542J61995D01*
G37*
G36*
G01X14122812Y3968084D02*
G01X14122812Y3833900D01*
G03X14056971Y3892306I-65841J-7908D01*
G03X14022234Y3882480I0J-66314D01*
G03X14039783Y3911944I-46262J47512D01*
G03X14056971Y3909678I17188J64048D01*
G03X14122812Y3968084I0J66314D01*
G37*
G54D8191*
G01X10867978Y3018154D02*
G03X10864517Y3017546I0J-10160D01*
G01Y3412138D01*
G03X10861541Y3419322I-10160J0D01*
G01X10776686Y3504177D01*
G03X10769502Y3507153I-7184J-7184D01*
G01X9711141D01*
G01Y3970992D01*
G03X9700981Y3981152I-10160J0D01*
G01X8527983D01*
G03X8520799Y3978176I0J-10160D01*
G01X8493799Y3951176D01*
G03X8490823Y3943992I7184J-7184D01*
G01Y3051202D01*
G01X8460775Y3021154D01*
G01X5256989D01*
G03X5249805Y3018178I0J-10160D01*
G01X5249781Y3018154D01*
G01X5032198D01*
G01X4956114Y3094239D01*
G01Y3821332D01*
G03X4953138Y3828516I-10160J0D01*
G01X4863286Y3918370D01*
G03X4856101Y3921345I-7184J-7184D01*
G01X4035814D01*
G01Y5987397D01*
G01X8003273Y5977865D01*
G03X7972671Y5921988I35711J-55877D01*
G03X8038985Y5855674I66314J0D01*
G03X8092763Y5883188I0J66314D01*
G03X8146541Y5855674I53778J38801D01*
G03X8200319Y5883188I0J66314D01*
G03X8254097Y5855674I53778J38801D01*
G03X8320411Y5921988I0J66314D01*
G03X8290867Y5977174I-66314J0D01*
G01X14964186Y5961141D01*
G01Y4055152D01*
G01X14132972D01*
G03X14122812Y4044992I0J-10160D01*
G01Y3983900D01*
G03X14056971Y4042306I-65841J-7908D01*
G03X13993160Y3994040I0J-66314D01*
G03X13975972Y3996306I-17188J-64048D01*
G03X13937993Y3984354I0J-66314D01*
G03X13900002Y3996315I-37991J-54353D01*
G03X13833688Y3930001I0J-66314D01*
G03X13875499Y3868380I66314J0D01*
G03X13831688Y3806001I22504J-62379D01*
G03X13898002Y3739687I66314J0D01*
G03X13936990Y3752358I0J66314D01*
G03X13975977Y3739687I38987J53643D01*
G03X14028828Y3765946I0J66314D01*
G03X14056971Y3759678I28143J60046D01*
G03X14122812Y3818084I0J66314D01*
G01Y3647201D01*
G01X14121763Y3646153D01*
G01X13910972D01*
G03X13903788Y3643177I0J-10160D01*
G01X13893788Y3633177D01*
G03X13890812Y3625993I7184J-7184D01*
G01Y3197994D01*
G01X13890948Y3196338D01*
G01X13712764Y3018154D01*
G01X10867978D01*
G01X9823166Y4636991D02*
G03X9983980Y4476177I160814J0D01*
G03X10144764Y4633893I0J160814D01*
G03X10150000Y4633686I5236J66107D01*
G03X10216314Y4700000I0J66314D01*
G03X10188716Y4753840I-66314J0D01*
G03X10219860Y4810059I-35169J56220D01*
G03X10190080Y4865402I-66314J0D01*
G03X10227294Y4924990I-29100J59588D01*
G03X10227159Y4929217I-66314J0D01*
G03X10252937Y4893077I63763J18218D01*
G03X10227665Y4840990I41042J-52087D01*
G03X10293979Y4774676I66314J0D01*
G03X10360293Y4840990I0J66314D01*
G03X10331964Y4895348I-66314J0D01*
G03X10357236Y4947435I-41042J52087D01*
G03X10290922Y5013749I-66314J0D01*
G03X10224607Y4947435I0J-66314D01*
G03X10224742Y4943208I66314J0D01*
G03X10160980Y4991304I-63763J-18218D01*
G03X10094666Y4924990I0J-66314D01*
G03X10124446Y4869647I66314J0D01*
G03X10087232Y4810059I29100J-59588D01*
G03X10114831Y4756220I66314J0D01*
G03X10102221Y4745986I35169J-56220D01*
G03X9983980Y4797804I-118241J-108996D01*
G03X9823166Y4636991I0J-160814D01*
G01X7155171Y4407991D02*
G03X7375985Y4187177I220814J0D01*
G03X7596799Y4407991I0J220814D01*
G03X7375985Y4628805I-220814J0D01*
G03X7155171Y4407991I0J-220814D01*
G01X11742845Y3958001D02*
G03X11809160Y3891687I66314J0D01*
G03X11852083Y3907452I0J66314D01*
G03X11895006Y3891687I42923J50548D01*
G03X11961321Y3958001I0J66314D01*
G03X11948478Y3997223I-66314J0D01*
G03X11960821Y4035754I-53971J38531D01*
G03X11934318Y4088789I-66314J0D01*
G01X12007788D01*
G03X12017973Y4098974I0J10185D01*
G01Y4229037D01*
G03X12007788Y4239223I-10185J0D01*
G01X11938866D01*
G03X11960821Y4288515I-44360J49293D01*
G03X11913620Y4352015I-66314J0D01*
G03X11960821Y4415515I-19113J63500D01*
G03X11894507Y4481829I-66314J0D01*
G03X11828192Y4415515I0J-66314D01*
G03X11875394Y4352015I66314J0D01*
G03X11828192Y4288515I19113J-63500D01*
G03X11859178Y4232395I66314J0D01*
G03X11858609Y4229037I9616J-3358D01*
G01Y4098974D01*
G03X11860693Y4092800I10185J0D01*
G03X11851903Y4086572I33813J-57046D01*
G03X11809007Y4102315I-42896J-50572D01*
G03X11742693Y4036001I0J-66314D01*
G03X11755450Y3996896I66314J0D01*
G03X11742845Y3958001I53710J-38895D01*
G01X7016986Y4580677D02*
G03X7083300Y4646991I0J66314D01*
G03X7050171Y4704404I-66314J0D01*
G01Y4832054D01*
G03X7049770Y4834886I-10185J0D01*
G03X7059096Y4841428I-33277J57360D01*
G03X7101992Y4825686I42896J50572D01*
G03X7168306Y4892000I0J66314D01*
G03X7155549Y4931105I-66314J0D01*
G03X7168154Y4970000I-53710J38895D01*
G03X7101839Y5036314I-66314J0D01*
G03X7058916Y5020548I0J-66314D01*
G03X7015993Y5036314I-42923J-50548D01*
G03X6949679Y4970000I0J-66314D01*
G03X6962521Y4930777I66314J0D01*
G03X6950178Y4892246I53971J-38531D01*
G03X6972939Y4842239I66314J0D01*
G01X6900993D01*
G03X6890807Y4832054I0J-10185D01*
G01Y4701991D01*
G03X6900993Y4691805I10185J0D01*
G01X6968106D01*
G03X6950672Y4646991I48880J-44814D01*
G03X7016986Y4580677I66314J0D01*
G01X10483979Y4476177D02*
G03X10644793Y4636991I0J160814D01*
G03X10483979Y4797804I-160814J0D01*
G03X10323165Y4636991I0J-160814D01*
G03X10483979Y4476177I160814J0D01*
G01X11847006Y4669515D02*
G03X11913320Y4603201I66314J0D01*
G03X11979634Y4669515I0J66314D01*
G03X11932347Y4733041I-66314J0D01*
G03X11985320Y4797999I-13341J64958D01*
G03X11919006Y4864313I-66314J0D01*
G01X11917867Y4864303D01*
G03X11953321Y4922999I-30861J58695D01*
G03X11887006Y4989313I-66314J0D01*
G03X11820692Y4922999I0J-66314D01*
G03X11820913Y4917590I66314J0D01*
G03X11799007Y4921313I-21907J-62591D01*
G03X11732693Y4854999I0J-66314D01*
G03X11760037Y4801343I66314J0D01*
G03X11728693Y4744999I34970J-56344D01*
G03X11795007Y4678685I66314J0D01*
G03X11860277Y4733283I0J66314D01*
G03X11882408Y4742699I-14469J64716D01*
G03X11899979Y4734473I36599J55300D01*
G03X11847006Y4669515I13341J-64958D01*
G01X10506665Y5103990D02*
G03X10572979Y5037676I66314J0D01*
G03X10632507Y5074768I0J66314D01*
G03X10685979Y5047676I53471J39222D01*
G03X10752293Y5113990I0J66314D01*
G03X10685979Y5180304I-66314J0D01*
G03X10626450Y5143212I0J-66314D01*
G03X10618887Y5151844I-53471J-39222D01*
G03X10640678Y5200990I-44523J49146D01*
G03X10624323Y5244598I-66314J0D01*
G03X10630499Y5252239I-48344J45392D01*
G03X10686979Y5220675I56480J34751D01*
G03X10753293Y5286989I0J66314D01*
G03X10686979Y5353303I-66314J0D01*
G03X10632458Y5324740I0J-66314D01*
G03X10575979Y5356303I-56480J-34751D01*
G03X10509665Y5289989I0J-66314D01*
G03X10526020Y5246381I66314J0D01*
G03X10508050Y5200990I48344J-45392D01*
G03X10528456Y5153135I66314J0D01*
G03X10506665Y5103990I44523J-49146D01*
G01X9920981Y3641179D02*
G03X10046795Y3766992I0J125814D01*
G03X9920981Y3892806I-125814J0D01*
G03X9795167Y3766992I0J-125814D01*
G03X9920981Y3641179I125814J0D01*
G01X10174981Y3641179D02*
G03X10300795Y3766992I0J125814D01*
G03X10174981Y3892806I-125814J0D01*
G03X10049167Y3766992I0J-125814D01*
G03X10174981Y3641179I125814J0D01*
G01X4335185Y5642989D02*
G03X4460999Y5517175I125814J0D01*
G03X4586813Y5642989I0J125814D01*
G03X4460999Y5768803I-125814J0D01*
G03X4335185Y5642989I0J-125814D01*
G01X10783978Y5511175D02*
G03X10909792Y5636989I0J125814D01*
G03X10783978Y5762803I-125814J0D01*
G03X10658165Y5636989I0J-125814D01*
G03X10783978Y5511175I125814J0D01*
G01X10303167Y3676993D02*
G03X10338981Y3641179I35814J0D01*
G01X10518981D01*
G03X10554795Y3676993I0J35814D01*
G01Y3856992D01*
G03X10518981Y3892806I-35814J0D01*
G01X10338981D01*
G03X10303167Y3856992I0J-35814D01*
G01Y3676993D01*
G01X9558167Y5636989D02*
G03X9683981Y5511175I125814J0D01*
G03X9809794Y5636989I0J125814D01*
G03X9683981Y5762803I-125814J0D01*
G03X9558167Y5636989I0J-125814D01*
G01X14396175Y5689989D02*
G03X14521988Y5564175I125814J0D01*
G03X14647802Y5689989I0J125814D01*
G03X14521988Y5815802I-125814J0D01*
G03X14396175Y5689989I0J-125814D01*
G01X14396175Y5189990D02*
G03X14521988Y5064176I125814J0D01*
G03X14647802Y5189990I0J125814D01*
G03X14521988Y5315803I-125814J0D01*
G03X14396175Y5189990I0J-125814D01*
G01X4460999Y5017176D02*
G03X4586813Y5142990I0J125814D01*
G03X4460999Y5268804I-125814J0D01*
G03X4335185Y5142990I0J-125814D01*
G03X4460999Y5017176I125814J0D01*
G01X6442614Y3978936D02*
G03X6508928Y3912622I66314J0D01*
G03X6575048Y3973874I0J66314D01*
G03X6636301Y4039995I-5062J66121D01*
G03X6618697Y4084993I-66314J0D01*
G03X6636301Y4129992I-48710J44998D01*
G03X6569987Y4196306I-66314J0D01*
G03X6503673Y4129992I0J-66314D01*
G03X6521276Y4084993I66314J0D01*
G03X6503866Y4045057I48710J-44998D01*
G03X6442614Y3978936I5062J-66121D01*
G01X10438979Y4912676D02*
G03X10505293Y4978990I0J66314D01*
G03X10471429Y5036822I-66314J0D01*
G03X10503276Y5093476I-34467J56653D01*
G03X10474781Y5147949I-66314J0D01*
G03X10501293Y5200990I-39802J53041D01*
G03X10434979Y5267304I-66314J0D01*
G03X10368665Y5200990I0J-66314D01*
G03X10397160Y5146517I66314J0D01*
G03X10370648Y5093476I39802J-53041D01*
G03X10404513Y5035643I66314J0D01*
G03X10372665Y4978990I34467J-56653D01*
G03X10438979Y4912676I66314J0D01*
G01X8472113Y4719314D02*
G03X8538427Y4653000I66314J0D01*
G03X8592205Y4680514I0J66314D01*
G03X8645983Y4653000I53778J38801D01*
G03X8699761Y4680514I0J66314D01*
G03X8753540Y4653000I53778J38801D01*
G03X8819854Y4719314I0J66314D01*
G03X8753540Y4785628I-66314J0D01*
G03X8699761Y4758115I0J-66314D01*
G03X8645983Y4785628I-53778J-38801D01*
G03X8592205Y4758115I0J-66314D01*
G03X8538427Y4785628I-53778J-38801D01*
G03X8472113Y4719314I0J-66314D01*
G01X5012997Y5055685D02*
G03X5079311Y5121999I0J66314D01*
G03X5064720Y5163499I-66314J0D01*
G03X5079311Y5204999I-51723J41500D01*
G03X5012997Y5271313I-66314J0D01*
G03X4974009Y5258642I0J-66314D01*
G03X4935022Y5271313I-38987J-53643D01*
G03X4868708Y5204999I0J-66314D01*
G03X4883298Y5163499I66314J0D01*
G03X4868708Y5121999I51723J-41500D01*
G03X4935022Y5055685I66314J0D01*
G03X4974009Y5068357I0J66314D01*
G03X5012997Y5055685I38987J53643D01*
G01X7723665Y5102993D02*
G03X7789979Y5036679I66314J0D01*
G03X7856293Y5102993I0J66314D01*
G03X7843364Y5142332I-66314J0D01*
G03X7857293Y5182993I-52385J40661D01*
G03X7844364Y5222332I-66314J0D01*
G03X7858293Y5262993I-52385J40661D01*
G03X7791979Y5329307I-66314J0D01*
G03X7725665Y5262993I0J-66314D01*
G03X7738593Y5223654I66314J0D01*
G03X7724665Y5182993I52385J-40661D01*
G03X7737593Y5143654I66314J0D01*
G03X7723665Y5102993I52385J-40661D01*
G01X5692995Y4682686D02*
G03X5759309Y4749000I0J66314D01*
G03X5749007Y4784500I-66314J0D01*
G03X5759309Y4820000I-56012J35500D01*
G03X5749007Y4855500I-66314J0D01*
G03X5759309Y4891000I-56012J35500D01*
G03X5692995Y4957314I-66314J0D01*
G03X5626681Y4891000I0J-66314D01*
G03X5636984Y4855500I66314J0D01*
G03X5626681Y4820000I56012J-35500D01*
G03X5636984Y4784500I66314J0D01*
G03X5626681Y4749000I56012J-35500D01*
G03X5692995Y4682686I66314J0D01*
G01X13151690Y4037000D02*
G03X13218004Y3970686I66314J0D01*
G03X13284318Y4037000I0J66314D01*
G03X13274015Y4072500I-66314J0D01*
G03X13284318Y4108000I-56012J35500D01*
G03X13274015Y4143500I-66314J0D01*
G03X13284318Y4179001I-56012J35500D01*
G03X13218004Y4245315I-66314J0D01*
G03X13151690Y4179001I0J-66314D01*
G03X13161992Y4143500I66314J0D01*
G03X13151690Y4108000I56012J-35500D01*
G03X13161992Y4072500I66314J0D01*
G03X13151690Y4037000I56012J-35500D01*
G01X5686995Y3995700D02*
G03X5753309Y4062014I0J66314D01*
G03X5743007Y4097514I-66314J0D01*
G03X5753309Y4133014I-56012J35500D01*
G03X5743007Y4168514I-66314J0D01*
G03X5753309Y4204014I-56012J35500D01*
G03X5686995Y4270328I-66314J0D01*
G03X5620681Y4204014I0J-66314D01*
G03X5630984Y4168514I66314J0D01*
G03X5620681Y4133014I56012J-35500D01*
G03X5630984Y4097514I66314J0D01*
G03X5620681Y4062014I56012J-35500D01*
G03X5686995Y3995700I66314J0D01*
G01X13224004Y4657672D02*
G03X13290318Y4723986I0J66314D01*
G03X13280015Y4759486I-66314J0D01*
G03X13290318Y4794986I-56012J35500D01*
G03X13280015Y4830486I-66314J0D01*
G03X13290318Y4865986I-56012J35500D01*
G03X13224004Y4932300I-66314J0D01*
G03X13157690Y4865986I0J-66314D01*
G03X13167992Y4830486I66314J0D01*
G03X13157690Y4794986I56012J-35500D01*
G03X13167992Y4759486I66314J0D01*
G03X13157690Y4723986I56012J-35500D01*
G03X13224004Y4657672I66314J0D01*
G01X11374177Y3636908D02*
G03X11437977Y3588679I63800J18085D01*
G03X11504291Y3654993I0J66314D01*
G03X11437977Y3721307I-66314J0D01*
G03X11374778Y3675078I0J-66314D01*
G03X11310977Y3723307I-63800J-18085D01*
G03X11244663Y3656993I0J-66314D01*
G03X11310977Y3590679I66314J0D01*
G03X11374177Y3636908I0J66314D01*
G01X14304971Y5622675D02*
G03X14371285Y5688989I0J66314D01*
G03X14304971Y5755303I-66314J0D01*
G03X14243539Y5713963I0J-66314D01*
G03X14180972Y5758303I-62568J-21974D01*
G03X14114658Y5691989I0J-66314D01*
G03X14180972Y5625675I66314J0D01*
G03X14242404Y5667015I0J66314D01*
G03X14304971Y5622675I62568J21974D01*
G01X14304971Y5472675D02*
G03X14371285Y5538989I0J66314D01*
G03X14304971Y5605303I-66314J0D01*
G03X14243539Y5563963I0J-66314D01*
G03X14180972Y5608303I-62568J-21974D01*
G03X14114658Y5541989I0J-66314D01*
G03X14180972Y5475675I66314J0D01*
G03X14242404Y5517015I0J66314D01*
G03X14304971Y5472675I62568J21974D01*
G01X14304971Y5772675D02*
G03X14371285Y5838989I0J66314D01*
G03X14304971Y5905303I-66314J0D01*
G03X14243539Y5863963I0J-66314D01*
G03X14180972Y5908303I-62568J-21974D01*
G03X14114658Y5841989I0J-66314D01*
G03X14180972Y5775675I66314J0D01*
G03X14242404Y5817015I0J66314D01*
G03X14304971Y5772675I62568J21974D01*
G01X5006858Y4446171D02*
G03X5073172Y4512485I0J66314D01*
G03X5023647Y4576639I-66314J0D01*
G03X5073172Y4640792I-16790J64153D01*
G03X5006858Y4707106I-66314J0D01*
G03X4940544Y4640792I0J-66314D01*
G03X4990068Y4576639I66314J0D01*
G03X4940544Y4512485I16790J-64153D01*
G03X5006858Y4446171I66314J0D01*
G01X13837827Y4287208D02*
G03X13904141Y4220894I66314J0D01*
G03X13970455Y4287208I0J66314D01*
G03X13920931Y4351362I-66314J0D01*
G03X13970455Y4415515I-16790J64153D01*
G03X13904141Y4481829I-66314J0D01*
G03X13837827Y4415515I0J-66314D01*
G03X13887352Y4351362I66314J0D01*
G03X13837827Y4287208I16790J-64153D01*
G01X7869984Y3358679D02*
G03X7936298Y3424993I0J66314D01*
G03X7869984Y3491307I-66314J0D01*
G03X7806484Y3444107I0J-66314D01*
G03X7742985Y3491307I-63500J-19113D01*
G03X7676670Y3424993I0J-66314D01*
G03X7742985Y3358679I66314J0D01*
G03X7806484Y3405880I0J66314D01*
G03X7869984Y3358679I63500J19113D01*
G01X5259996Y4193687D02*
G03X5326310Y4260001I0J66314D01*
G03X5281655Y4322678I-66314J0D01*
G03X5325310Y4385001I-22659J62323D01*
G03X5258996Y4451315I-66314J0D01*
G03X5192682Y4385001I0J-66314D01*
G03X5237337Y4322324I66314J0D01*
G03X5193682Y4260001I22659J-62323D01*
G03X5259996Y4193687I66314J0D01*
G01X13652003Y4476685D02*
G03X13718317Y4543000I0J66314D01*
G03X13673662Y4605677I-66314J0D01*
G03X13717317Y4667999I-22659J62323D01*
G03X13651003Y4734313I-66314J0D01*
G03X13584689Y4667999I0J-66314D01*
G03X13629344Y4605322I66314J0D01*
G03X13585689Y4543000I22659J-62323D01*
G03X13652003Y4476685I66314J0D01*
G01X8258798Y4406991D02*
G03X8268983Y4396806I10185J0D01*
G01X8405983D01*
G03X8416169Y4406991I0J10185D01*
G01Y4558991D01*
G03X8405983Y4569176I-10185J0D01*
G01X8268983D01*
G03X8258798Y4558991I0J-10185D01*
G01Y4406991D01*
G01X5337716Y4690274D02*
G03X5347901Y4700459I0J10185D01*
G01Y4830522D01*
G03X5337716Y4840708I-10185J0D01*
G01X5198722D01*
G03X5188537Y4830522I0J-10185D01*
G01Y4700459D01*
G03X5198722Y4690274I10185J0D01*
G01X5337716D01*
G01X13560793Y4099966D02*
G03X13570978Y4089780I10185J0D01*
G01X13709972D01*
G03X13720157Y4099966I0J10185D01*
G01Y4230029D01*
G03X13709972Y4240215I-10185J0D01*
G01X13570978D01*
G03X13560793Y4230029I0J-10185D01*
G01Y4099966D01*
G01X6579987Y3719678D02*
G03X6646301Y3785992I0J66314D01*
G03X6579987Y3852306I-66314J0D01*
G03X6513673Y3785992I0J-66314D01*
G03X6579987Y3719678I66314J0D01*
G01X10965664Y4072992D02*
G03X11031978Y4006678I66314J0D01*
G03X11098292Y4072992I0J66314D01*
G03X11031978Y4139306I-66314J0D01*
G03X10965664Y4072992I0J-66314D01*
G01X11785976Y4980676D02*
G03X11852290Y5046990I0J66314D01*
G03X11785976Y5113304I-66314J0D01*
G03X11719662Y5046990I0J-66314D01*
G03X11785976Y4980676I66314J0D01*
G01X4746676Y5508989D02*
G03X4812990Y5442675I66314J0D01*
G03X4879304Y5508989I0J66314D01*
G03X4812990Y5575303I-66314J0D01*
G03X4746676Y5508989I0J-66314D01*
G01X10854664Y3831992D02*
G03X10920978Y3765678I66314J0D01*
G03X10987292Y3831992I0J66314D01*
G03X10920978Y3898306I-66314J0D01*
G03X10854664Y3831992I0J-66314D01*
G01X6931365Y4258485D02*
G03X6997679Y4192171I66314J0D01*
G03X7063993Y4258485I0J66314D01*
G03X6997679Y4324799I-66314J0D01*
G03X6931365Y4258485I0J-66314D01*
G01X10802664Y5886988D02*
G03X10868978Y5820674I66314J0D01*
G03X10935292Y5886988I0J66314D01*
G03X10868978Y5953302I-66314J0D01*
G03X10802664Y5886988I0J-66314D01*
G01X5229682Y5130999D02*
G03X5295996Y5064685I66314J0D01*
G03X5362310Y5130999I0J66314D01*
G03X5295996Y5197313I-66314J0D01*
G03X5229682Y5130999I0J-66314D01*
G01X11511977Y3768678D02*
G03X11578291Y3834992I0J66314D01*
G03X11511977Y3901306I-66314J0D01*
G03X11445663Y3834992I0J-66314D01*
G03X11511977Y3768678I66314J0D01*
G01X4762857Y3996754D02*
G03X4829171Y4063068I0J66314D01*
G03X4762857Y4129382I-66314J0D01*
G03X4696543Y4063068I0J-66314D01*
G03X4762857Y3996754I66314J0D01*
G01X4962990Y5442675D02*
G03X5029304Y5508989I0J66314D01*
G03X4962990Y5575303I-66314J0D01*
G03X4896676Y5508989I0J-66314D01*
G03X4962990Y5442675I66314J0D01*
G01X7144986Y5496675D02*
G03X7211300Y5562989I0J66314D01*
G03X7144986Y5629303I-66314J0D01*
G03X7078672Y5562989I0J-66314D01*
G03X7144986Y5496675I66314J0D01*
G01X6625673Y3649993D02*
G03X6691987Y3583679I66314J0D01*
G03X6758301Y3649993I0J66314D01*
G03X6691987Y3716307I-66314J0D01*
G03X6625673Y3649993I0J-66314D01*
G01X4696543Y4213068D02*
G03X4762857Y4146754I66314J0D01*
G03X4829171Y4213068I0J66314D01*
G03X4762857Y4279382I-66314J0D01*
G03X4696543Y4213068I0J-66314D01*
G01X4596676Y5508989D02*
G03X4662990Y5442675I66314J0D01*
G03X4729304Y5508989I0J66314D01*
G03X4662990Y5575303I-66314J0D01*
G03X4596676Y5508989I0J-66314D01*
G01X10875006Y4820391D02*
G03X10941320Y4886705I0J66314D01*
G03X10875006Y4953019I-66314J0D01*
G03X10808692Y4886705I0J-66314D01*
G03X10875006Y4820391I66314J0D01*
G01X7821007Y3901688D02*
G03X7887321Y3968002I0J66314D01*
G03X7821007Y4034316I-66314J0D01*
G03X7754693Y3968002I0J-66314D01*
G03X7821007Y3901688I66314J0D01*
G01X4246543Y4063068D02*
G03X4312857Y3996754I66314J0D01*
G03X4379171Y4063068I0J66314D01*
G03X4312857Y4129382I-66314J0D01*
G03X4246543Y4063068I0J-66314D01*
G01X11114664Y5886988D02*
G03X11180978Y5820674I66314J0D01*
G03X11247292Y5886988I0J66314D01*
G03X11180978Y5953302I-66314J0D01*
G03X11114664Y5886988I0J-66314D01*
G01X4662990Y5592675D02*
G03X4729304Y5658989I0J66314D01*
G03X4662990Y5725303I-66314J0D01*
G03X4596676Y5658989I0J-66314D01*
G03X4662990Y5592675I66314J0D01*
G01X7292671Y3601993D02*
G03X7358985Y3535679I66314J0D01*
G03X7425299Y3601993I0J66314D01*
G03X7358985Y3668307I-66314J0D01*
G03X7292671Y3601993I0J-66314D01*
G01X4312857Y4146754D02*
G03X4379171Y4213068I0J66314D01*
G03X4312857Y4279382I-66314J0D01*
G03X4246543Y4213068I0J-66314D01*
G03X4312857Y4146754I66314J0D01*
G01X4162857Y4296754D02*
G03X4229171Y4363068I0J66314D01*
G03X4162857Y4429382I-66314J0D01*
G03X4096543Y4363068I0J-66314D01*
G03X4162857Y4296754I66314J0D01*
G01X4746676Y5658989D02*
G03X4812990Y5592675I66314J0D01*
G03X4879304Y5658989I0J66314D01*
G03X4812990Y5725303I-66314J0D01*
G03X4746676Y5658989I0J-66314D01*
G01X11086664Y3978992D02*
G03X11152978Y3912678I66314J0D01*
G03X11219292Y3978992I0J66314D01*
G03X11152978Y4045306I-66314J0D01*
G03X11086664Y3978992I0J-66314D01*
G01X4762857Y4296754D02*
G03X4829171Y4363068I0J66314D01*
G03X4762857Y4429382I-66314J0D01*
G03X4696543Y4363068I0J-66314D01*
G03X4762857Y4296754I66314J0D01*
G01X10857978Y3931678D02*
G03X10924292Y3997992I0J66314D01*
G03X10857978Y4064306I-66314J0D01*
G03X10791664Y3997992I0J-66314D01*
G03X10857978Y3931678I66314J0D01*
G01X10958664Y5886988D02*
G03X11024978Y5820674I66314J0D01*
G03X11091292Y5886988I0J66314D01*
G03X11024978Y5953302I-66314J0D01*
G03X10958664Y5886988I0J-66314D01*
G01X5256026Y3939695D02*
G03X5322340Y4006009I0J66314D01*
G03X5256026Y4072323I-66314J0D01*
G03X5189712Y4006009I0J-66314D01*
G03X5256026Y3939695I66314J0D01*
G01X6950178Y4512485D02*
G03X7016492Y4446171I66314J0D01*
G03X7082807Y4512485I0J66314D01*
G03X7016492Y4578799I-66314J0D01*
G03X6950178Y4512485I0J-66314D01*
G01X7555671Y3577993D02*
G03X7621985Y3511679I66314J0D01*
G03X7688299Y3577993I0J66314D01*
G03X7621985Y3644307I-66314J0D01*
G03X7555671Y3577993I0J-66314D01*
G01X7965970Y4470668D02*
G03X8032284Y4536982I0J66314D01*
G03X7965970Y4603296I-66314J0D01*
G03X7899656Y4536982I0J-66314D01*
G03X7965970Y4470668I66314J0D01*
G01X8388983Y3364679D02*
G03X8455297Y3430993I0J66314D01*
G03X8388983Y3497307I-66314J0D01*
G03X8322669Y3430993I0J-66314D01*
G03X8388983Y3364679I66314J0D01*
G01X10234665Y5082990D02*
G03X10300979Y5016676I66314J0D01*
G03X10367293Y5082990I0J66314D01*
G03X10300979Y5149304I-66314J0D01*
G03X10234665Y5082990I0J-66314D01*
G01X4162857Y3996754D02*
G03X4229171Y4063068I0J66314D01*
G03X4162857Y4129382I-66314J0D01*
G03X4096543Y4063068I0J-66314D01*
G03X4162857Y3996754I66314J0D01*
G01X4546543Y4063068D02*
G03X4612857Y3996754I66314J0D01*
G03X4679171Y4063068I0J66314D01*
G03X4612857Y4129382I-66314J0D01*
G03X4546543Y4063068I0J-66314D01*
G01X8122978Y3674974D02*
G03X8189292Y3741288I0J66314D01*
G03X8122978Y3807602I-66314J0D01*
G03X8056664Y3741288I0J-66314D01*
G03X8122978Y3674974I66314J0D01*
G01X4246543Y4363068D02*
G03X4312857Y4296754I66314J0D01*
G03X4379171Y4363068I0J66314D01*
G03X4312857Y4429382I-66314J0D01*
G03X4246543Y4363068I0J-66314D01*
G01X4096543Y4213068D02*
G03X4162857Y4146754I66314J0D01*
G03X4229171Y4213068I0J66314D01*
G03X4162857Y4279382I-66314J0D01*
G03X4096543Y4213068I0J-66314D01*
G01X4546543Y4213068D02*
G03X4612857Y4146754I66314J0D01*
G03X4679171Y4213068I0J66314D01*
G03X4612857Y4279382I-66314J0D01*
G03X4546543Y4213068I0J-66314D01*
G01X7760984Y4845676D02*
G03X7827299Y4911990I0J66314D01*
G03X7760984Y4978304I-66314J0D01*
G03X7694670Y4911990I0J-66314D01*
G03X7760984Y4845676I66314J0D01*
G01X4396543Y4063068D02*
G03X4462857Y3996754I66314J0D01*
G03X4529171Y4063068I0J66314D01*
G03X4462857Y4129382I-66314J0D01*
G03X4396543Y4063068I0J-66314D01*
G01X7558671Y4812990D02*
G03X7624985Y4746676I66314J0D01*
G03X7691299Y4812990I0J66314D01*
G03X7624985Y4879304I-66314J0D01*
G03X7558671Y4812990I0J-66314D01*
G01X4396543Y4213068D02*
G03X4462857Y4146754I66314J0D01*
G03X4529171Y4213068I0J66314D01*
G03X4462857Y4279382I-66314J0D01*
G03X4396543Y4213068I0J-66314D01*
G01X11110664Y4659991D02*
G03X11176978Y4593677I66314J0D01*
G03X11243292Y4659991I0J66314D01*
G03X11176978Y4726305I-66314J0D01*
G03X11110664Y4659991I0J-66314D01*
G01X4612857Y4296754D02*
G03X4679171Y4363068I0J66314D01*
G03X4612857Y4429382I-66314J0D01*
G03X4546543Y4363068I0J-66314D01*
G03X4612857Y4296754I66314J0D01*
G01X7023993Y3938688D02*
G03X7090307Y4005002I0J66314D01*
G03X7023993Y4071316I-66314J0D01*
G03X6957678Y4005002I0J-66314D01*
G03X7023993Y3938688I66314J0D01*
G01X4896676Y5658989D02*
G03X4962990Y5592675I66314J0D01*
G03X5029304Y5658989I0J66314D01*
G03X4962990Y5725303I-66314J0D01*
G03X4896676Y5658989I0J-66314D01*
G01X8161969Y4549668D02*
G03X8228283Y4615982I0J66314D01*
G03X8161969Y4682296I-66314J0D01*
G03X8095655Y4615982I0J-66314D01*
G03X8161969Y4549668I66314J0D01*
G01X4462857Y4296754D02*
G03X4529171Y4363068I0J66314D01*
G03X4462857Y4429382I-66314J0D01*
G03X4396543Y4363068I0J-66314D01*
G03X4462857Y4296754I66314J0D01*
G01X11388808Y4007684D02*
G03X11455122Y4073998I0J66314D01*
G03X11388808Y4140312I-66314J0D01*
G03X11322494Y4073998I0J-66314D01*
G03X11388808Y4007684I66314J0D01*
G01X7688656Y4610982D02*
G03X7754970Y4544668I66314J0D01*
G03X7821284Y4610982I0J66314D01*
G03X7754970Y4677296I-66314J0D01*
G03X7688656Y4610982I0J-66314D01*
G01X13990657Y4125992D02*
G03X14056971Y4059678I66314J0D01*
G03X14123285Y4125992I0J66314D01*
G03X14056971Y4192306I-66314J0D01*
G03X13990657Y4125992I0J-66314D01*
G01X14662971Y4539677D02*
G03X14729285Y4605991I0J66314D01*
G03X14662971Y4672305I-66314J0D01*
G03X14596657Y4605991I0J-66314D01*
G03X14662971Y4539677I66314J0D01*
G01X14812971Y4389677D02*
G03X14879285Y4455991I0J66314D01*
G03X14812971Y4522305I-66314J0D01*
G03X14746657Y4455991I0J-66314D01*
G03X14812971Y4389677I66314J0D01*
G01X14446657Y4455991D02*
G03X14512971Y4389677I66314J0D01*
G03X14579285Y4455991I0J66314D01*
G03X14512971Y4522305I-66314J0D01*
G03X14446657Y4455991I0J-66314D01*
G01X13615003Y3730687D02*
G03X13681317Y3797001I0J66314D01*
G03X13615003Y3863315I-66314J0D01*
G03X13548689Y3797001I0J-66314D01*
G03X13615003Y3730687I66314J0D01*
G01X14212971Y4689677D02*
G03X14279285Y4755991I0J66314D01*
G03X14212971Y4822305I-66314J0D01*
G03X14146657Y4755991I0J-66314D01*
G03X14212971Y4689677I66314J0D01*
G01X13654973Y4855678D02*
G03X13721287Y4921992I0J66314D01*
G03X13654973Y4988306I-66314J0D01*
G03X13588659Y4921992I0J-66314D01*
G03X13654973Y4855678I66314J0D01*
G01X14362971Y4539677D02*
G03X14429285Y4605991I0J66314D01*
G03X14362971Y4672305I-66314J0D01*
G03X14296657Y4605991I0J-66314D01*
G03X14362971Y4539677I66314J0D01*
G01X14030972Y5775675D02*
G03X14097286Y5841989I0J66314D01*
G03X14030972Y5908303I-66314J0D01*
G03X13964658Y5841989I0J-66314D01*
G03X14030972Y5775675I66314J0D01*
G01X14212971Y4539677D02*
G03X14279285Y4605991I0J66314D01*
G03X14212971Y4672305I-66314J0D01*
G03X14146657Y4605991I0J-66314D01*
G03X14212971Y4539677I66314J0D01*
G01X14746657Y4605991D02*
G03X14812971Y4539677I66314J0D01*
G03X14879285Y4605991I0J66314D01*
G03X14812971Y4672305I-66314J0D01*
G03X14746657Y4605991I0J-66314D01*
G01X14296657Y4755991D02*
G03X14362971Y4689677I66314J0D01*
G03X14429285Y4755991I0J66314D01*
G03X14362971Y4822305I-66314J0D01*
G03X14296657Y4755991I0J-66314D01*
G01X14812971Y4689677D02*
G03X14879285Y4755991I0J66314D01*
G03X14812971Y4822305I-66314J0D01*
G03X14746657Y4755991I0J-66314D01*
G03X14812971Y4689677I66314J0D01*
G01X14662971Y4389677D02*
G03X14729285Y4455991I0J66314D01*
G03X14662971Y4522305I-66314J0D01*
G03X14596657Y4455991I0J-66314D01*
G03X14662971Y4389677I66314J0D01*
G01X14446657Y4605991D02*
G03X14512971Y4539677I66314J0D01*
G03X14579285Y4605991I0J66314D01*
G03X14512971Y4672305I-66314J0D01*
G03X14446657Y4605991I0J-66314D01*
G01X14146657Y4455991D02*
G03X14212971Y4389677I66314J0D01*
G03X14279285Y4455991I0J66314D01*
G03X14212971Y4522305I-66314J0D01*
G03X14146657Y4455991I0J-66314D01*
G01X14512971Y4689677D02*
G03X14579285Y4755991I0J66314D01*
G03X14512971Y4822305I-66314J0D01*
G03X14446657Y4755991I0J-66314D01*
G03X14512971Y4689677I66314J0D01*
G01X14596657Y4755991D02*
G03X14662971Y4689677I66314J0D01*
G03X14729285Y4755991I0J66314D01*
G03X14662971Y4822305I-66314J0D01*
G03X14596657Y4755991I0J-66314D01*
G01X14362971Y4389677D02*
G03X14429285Y4455991I0J66314D01*
G03X14362971Y4522305I-66314J0D01*
G03X14296657Y4455991I0J-66314D01*
G03X14362971Y4389677I66314J0D01*
G01X13964658Y5541989D02*
G03X14030972Y5475675I66314J0D01*
G03X14097286Y5541989I0J66314D01*
G03X14030972Y5608303I-66314J0D01*
G03X13964658Y5541989I0J-66314D01*
G01X14030972Y5625675D02*
G03X14097286Y5691989I0J66314D01*
G03X14030972Y5758303I-66314J0D01*
G03X13964658Y5691989I0J-66314D01*
G03X14030972Y5625675I66314J0D01*
G01X14010709Y3873504D02*
G03X14004120Y3866047I46262J-47512D01*
G03X13999514Y3867998I-28143J-60046D01*
G03X14010709Y3873504I-23542J61995D01*
G01X14122812Y3968084D02*
G01X14122812Y3833900D01*
G03X14056971Y3892306I-65841J-7908D01*
G03X14022234Y3882480I0J-66314D01*
G03X14039783Y3911944I-46262J47512D01*
G03X14056971Y3909678I17188J64048D01*
G03X14122812Y3968084I0J66314D01*
G54D10*
G01X10428981Y3766992D02*
G01X10544889Y3766992D01*
G01X10428981Y3766992D02*
G01X10313073Y3766992D01*
G01X10428981Y3766992D02*
G01X10428981Y3651085D01*
G01X10428981Y3766992D02*
G01X10428981Y3882900D01*
G54D11*
G01X10483979Y4636991D02*
G01X10634887Y4636991D01*
G01X10483979Y4636991D02*
G01X10333071Y4636991D01*
G01X10483979Y4636991D02*
G01X10483979Y4486083D01*
G01X10483979Y4636991D02*
G01X10483979Y4787898D01*
G54D12*
G01X4459991Y200119D02*
G01X4459991Y316027D01*
G01X4459991Y200119D02*
G01X4459991Y84212D01*
G01X4459991Y200119D02*
G01X4575899Y200119D01*
G01X4459991Y200119D02*
G01X4344083Y200119D01*
G54D10*
G01X4334000Y2224000D02*
G01X4334000Y2113092D01*
G01X4334000Y2224000D02*
G01X4334000Y2334908D01*
G01X4334000Y2224000D02*
G01X4223092Y2224000D01*
G01X4334000Y2224000D02*
G01X4444908Y2224000D01*
G01X9469005Y-1084000D02*
G01X9579913Y-1084000D01*
G01X9469005Y-1084000D02*
G01X9358098Y-1084000D01*
G01X9469005Y-1084000D02*
G01X9469005Y-1194908D01*
G01X9469005Y-1084000D02*
G01X9469005Y-973093D01*
G54D11*
G01X8904981Y3766992D02*
G01X8904981Y3651085D01*
G54D12*
G01X14522971Y260000D02*
G01X14522971Y144092D01*
G01X14522971Y260000D02*
G01X14522971Y375908D01*
G01X14522971Y260000D02*
G01X14407063Y260000D01*
G01X14522971Y260000D02*
G01X14638879Y260000D01*
G54D10*
G01X14650971Y3738994D02*
G01X14650971Y3849902D01*
G01X14650971Y3738994D02*
G01X14650971Y3628086D01*
G01X14650971Y3738994D02*
G01X14761879Y3738994D01*
G01X14650971Y3738994D02*
G01X14540063Y3738994D01*
G04 Copper End*

G04 Rect Start*
G36*
G01X11933463Y5828055D02*
G01X11933463Y5440695D01*
G01X13626530D01*
G01Y5828055D01*
G01X11933463D01*
G37*
G36*
G01X12466945Y5479389D02*
G01X12466945Y5282029D01*
G01X13093005D01*
G01Y5479389D01*
G01X12466945D01*
G37*
G36*
G01X12466945Y5282798D02*
G01X12466945Y3710138D01*
G01X13093065D01*
G01Y5282798D01*
G01X12466945D01*
G37*
G36*
G01X13093061Y3512777D02*
G01X13093061Y3710137D01*
G01X12467001D01*
G01Y3512777D01*
G01X13093061D01*
G37*
G36*
G01X13636542Y3164111D02*
G01X13636542Y3551470D01*
G01X11943476D01*
G01Y3164111D01*
G01X13636542D01*
G37*
G36*
G01X6444054Y3448612D02*
G01X6444054Y3645972D01*
G01X5817994D01*
G01Y3448612D01*
G01X6444054D01*
G37*
G36*
G01X6977536Y3099945D02*
G01X6977536Y3487305D01*
G01X5284469D01*
G01Y3099945D01*
G01X6977536D01*
G37*
G36*
G01X5817938Y5415223D02*
G01X5817938Y5217863D01*
G01X6443998D01*
G01Y5415223D01*
G01X5817938D01*
G37*
G36*
G01X5274457Y5763890D02*
G01X5274457Y5376530D01*
G01X6967523D01*
G01Y5763890D01*
G01X5274457D01*
G37*
G36*
G01X6444054Y3645202D02*
G01X6444054Y5217862D01*
G01X5817934D01*
G01Y3645202D01*
G01X6444054D01*
G37*
G04 Rect End*

G04 Pad Start*
G54D13*
G01X7375985Y4407991D03*
G01X6216988Y931998D03*
G01X12804974Y76000D03*
G54D14*
G01X10231005Y-1084000D03*
G54D16*
G01X9977005Y-1084000D03*
G01X9723005Y-1084000D03*
G01X9469005Y-1084000D03*
G54D17*
G01X10428981Y3766992D03*
G54D18*
G01X10174981Y3766992D03*
G01X9920981Y3766992D03*
G01X9412981Y3766992D03*
G01X9158981Y3766992D03*
G01X8904981Y3766992D03*
G01X8650981Y3766992D03*
G01X14521988Y5189990D03*
G01X14521988Y5689989D03*
G01X4460999Y5642989D03*
G01X4460999Y5142990D03*
G54D19*
G01X10483979Y4636991D03*
G01X9983980Y4636991D03*
G54D18*
G01X9683981Y5636989D03*
G01X10783978Y5636989D03*
G54D20*
G01X4588000Y2224000D03*
G54D16*
G01X4334000Y2224000D03*
G01X4588000Y2478000D03*
G01X4334000Y2478000D03*
G01X4588000Y2732000D03*
G01X4334000Y2732000D03*
G01X4588000Y2986000D03*
G01X4334000Y2986000D03*
G01X4588000Y3240000D03*
G01X4334000Y3240000D03*
G01X4588000Y3494000D03*
G01X4334000Y3494000D03*
G01X4588000Y3748000D03*
G01X4334000Y3748000D03*
G54D21*
G01X14396971Y3738994D03*
G54D16*
G01X14650971Y3738994D03*
G01X14396971Y3484994D03*
G01X14650971Y3484994D03*
G01X14396971Y3230994D03*
G01X14650971Y3230994D03*
G01X14396971Y2976994D03*
G01X14650971Y2976994D03*
G01X14396971Y2722994D03*
G01X14650971Y2722994D03*
G01X14396971Y2468994D03*
G01X14650971Y2468994D03*
G01X14396971Y2214994D03*
G01X14650971Y2214994D03*
G54D18*
G01X4459991Y700118D03*
G01X4459991Y200119D03*
G01X14522971Y260000D03*
G01X14522971Y759999D03*
G01X11899976Y747996D03*
G01X11899976Y-11997D03*
G01X4460000Y-451880D03*
G01X4460000Y-951879D03*
G01X14521971Y-891998D03*
G01X14521971Y-391999D03*
G04 Pad End*

G04 Via Start*
G54D22*
G01X10166984Y2256007D03*
G01X10191984Y2107007D03*
G01X11033950Y821160D03*
G01X11036274Y1483258D03*
G01X13754972Y-223000D03*
G01X13719973Y-1113998D03*
G01X12824976Y-297999D03*
G01X13268973Y-960998D03*
G01X11795007Y4744999D03*
G01X11799007Y4854999D03*
G01X11809007Y4036001D03*
G01X11809160Y3958001D03*
G01X11845809Y4797999D03*
G01X11887006Y4922999D03*
G01X11894507Y4415515D03*
G01X11894507Y4288515D03*
G01X11894507Y4035754D03*
G01X11895006Y3958001D03*
G01X11913320Y4669515D03*
G01X11919006Y4797999D03*
G01X11938006Y4164000D03*
G01X12002875Y5633990D03*
G01X12002875Y5764166D03*
G01X12005013Y5509003D03*
G01X12011819Y3352072D03*
G01X12011819Y3482248D03*
G01X12013957Y3227085D03*
G01X12198405Y5633990D03*
G01X12198405Y5764166D03*
G01X12200543Y5509003D03*
G01X12207349Y3352072D03*
G01X12207349Y3482248D03*
G01X12209487Y3227085D03*
G01X12393935Y5633990D03*
G01X12393935Y5764166D03*
G01X12396072Y5509003D03*
G01X12402878Y3352072D03*
G01X12402878Y3482248D03*
G01X12405016Y3227085D03*
G01X12540480Y3588333D03*
G01X12546875Y5380323D03*
G01X12589465Y5633990D03*
G01X12589465Y5764166D03*
G01X12591602Y5509003D03*
G01X12598408Y3352072D03*
G01X12598408Y3482248D03*
G01X12600546Y3227085D03*
G01X12784994Y5633990D03*
G01X12784994Y5764166D03*
G01X12785026Y3588333D03*
G01X12787132Y5509003D03*
G01X12791421Y5380323D03*
G01X12793938Y3352072D03*
G01X12793938Y3482248D03*
G01X12796076Y3227085D03*
G01X12980524Y5633990D03*
G01X12980524Y5764166D03*
G01X12982662Y5509003D03*
G01X12989468Y3352072D03*
G01X12989468Y3482248D03*
G01X12991606Y3227085D03*
G01X13029572Y3588333D03*
G01X13035967Y5380323D03*
G01X13176054Y5764166D03*
G01X13176054Y5633990D03*
G01X13178192Y5509003D03*
G01X13184998Y3482248D03*
G01X13184998Y3352072D03*
G01X13187135Y3227085D03*
G01X13218004Y4108000D03*
G01X13218004Y4179001D03*
G01X13218004Y4037000D03*
G01X13224004Y4794986D03*
G01X13224004Y4865986D03*
G01X13224004Y4723986D03*
G01X13371584Y5633990D03*
G01X13371584Y5764166D03*
G01X13373721Y5509003D03*
G01X13380527Y3352072D03*
G01X13380527Y3482248D03*
G01X13382665Y3227085D03*
G01X13567113Y5633990D03*
G01X13567113Y5764166D03*
G01X13569251Y5509003D03*
G01X13576057Y3352072D03*
G01X13576057Y3482248D03*
G01X13578195Y3227085D03*
G01X13615003Y3797001D03*
G01X13641555Y4164000D03*
G01X13651003Y4667999D03*
G01X13652003Y4543000D03*
G01X13654973Y4921992D03*
G01X13898002Y3806001D03*
G01X13900002Y3930001D03*
G01X13904141Y4415515D03*
G01X13904141Y4287208D03*
G01X13975972Y3929992D03*
G01X13975977Y3806001D03*
G01X11785976Y5046990D03*
G01X11035978Y4490991D03*
G01X10859978Y4490991D03*
G01X11388808Y4073998D03*
G01X5025955Y1576005D03*
G01X5618882Y1582020D03*
G01X5613698Y2030025D03*
G01X5046132Y2031007D03*
G01X5057559Y2600005D03*
G01X6164909Y2030021D03*
G01X6172878Y2600005D03*
G01X5618414Y2600005D03*
G01X13263152Y2602994D03*
G01X12680361Y2602967D03*
G01X12685975Y2112980D03*
G01X13805972Y2075996D03*
G01X13249974Y2110996D03*
G01X12693928Y1602982D03*
G01X13822972Y2604991D03*
G01X13250302Y1604479D03*
G01X11437977Y3654993D03*
G01X11310977Y3656993D03*
G01X11511977Y3834992D03*
G01X11065978Y3831992D03*
G01X10920978Y3831992D03*
G01X10857978Y3997992D03*
G01X11031978Y4072992D03*
G01X11152978Y3978992D03*
G01X11176978Y4659991D03*
G01X10875006Y4886705D03*
G01X9006983Y5770988D03*
G01X8763983Y5917988D03*
G01X8651484Y5920988D03*
G01X8538984Y5921988D03*
G01X8254097Y5921988D03*
G01X8146541Y5921988D03*
G01X8038985Y5921988D03*
G01X8027485Y4719814D03*
G01X8252484Y4715814D03*
G01X8139984Y4716814D03*
G01X8538427Y4719314D03*
G01X8753540Y4719314D03*
G01X8645983Y4719314D03*
G01X7791979Y5262993D03*
G01X7790979Y5182993D03*
G01X7789979Y5102993D03*
G01X5012997Y5121999D03*
G01X5012997Y5204999D03*
G01X5006858Y4512485D03*
G01X5006858Y4640792D03*
G01X4935022Y5204999D03*
G01X4935022Y5121999D03*
G01X6897042Y5700915D03*
G01X5919393Y5700915D03*
G01X6701512Y5700915D03*
G01X5332804Y5700915D03*
G01X6310453Y5700915D03*
G01X5723864Y5700915D03*
G01X6505983Y5700915D03*
G01X5528334Y5700915D03*
G01X6114923Y5700915D03*
G01X6899180Y5575929D03*
G01X5921531Y5575929D03*
G01X6703650Y5575929D03*
G01X5334942Y5575929D03*
G01X6312591Y5575929D03*
G01X5726002Y5575929D03*
G01X6508121Y5575929D03*
G01X5530472Y5575929D03*
G01X6117061Y5575929D03*
G01X6905986Y3418997D03*
G01X5928337Y3418997D03*
G01X6710456Y3418997D03*
G01X5341748Y3418997D03*
G01X6319397Y3418997D03*
G01X5537278Y3418997D03*
G01X6514927Y3418997D03*
G01X5732807Y3418997D03*
G01X6123867Y3418997D03*
G01X6908124Y3294011D03*
G01X5930475Y3294011D03*
G01X6712594Y3294011D03*
G01X5343886Y3294011D03*
G01X6321534Y3294011D03*
G01X5539415Y3294011D03*
G01X6517064Y3294011D03*
G01X5734945Y3294011D03*
G01X6126005Y3294011D03*
G01X6908124Y3163835D03*
G01X5930475Y3163835D03*
G01X6712594Y3163835D03*
G01X5343886Y3163835D03*
G01X6321534Y3163835D03*
G01X5539415Y3163835D03*
G01X6517064Y3163835D03*
G01X7101992Y4892000D03*
G01X5692995Y4891000D03*
G01X7624985Y4812990D03*
G01X5692995Y4820000D03*
G01X6899180Y5445753D03*
G01X5921531Y5445753D03*
G01X6703650Y5445753D03*
G01X5334942Y5445753D03*
G01X6312591Y5445753D03*
G01X5530472Y5445753D03*
G01X6508121Y5445753D03*
G01X5726002Y5445753D03*
G01X6117061Y5445753D03*
G01X6370519Y5339667D03*
G01X5881427Y5339667D03*
G01X6125973Y5339667D03*
G01X5269444Y4764000D03*
G01X6972993Y4764000D03*
G01X5692995Y4749000D03*
G01X6997679Y4258485D03*
G01X5686995Y4204014D03*
G01X5258996Y4385001D03*
G01X5259996Y4260001D03*
G01X5256026Y4006009D03*
G01X7023993Y4005002D03*
G01X7016986Y4646991D03*
G01X7016492Y4512485D03*
G01X5295996Y5130999D03*
G01X8388983Y3430993D03*
G01X7101839Y4970000D03*
G01X7015993Y4970000D03*
G01X7016492Y4892246D03*
G01X5686995Y4133014D03*
G01X6569987Y4129992D03*
G01X5734945Y3163835D03*
G01X6126005Y3163835D03*
G01X6579987Y3785992D03*
G01X6364124Y3547677D03*
G01X5875032Y3547677D03*
G01X6119578Y3547677D03*
G01X8122978Y3741288D03*
G01X7821007Y3968002D03*
G01X8138006Y4137001D03*
G01X7962006Y4137001D03*
G01X7494452Y3595557D03*
G01X7358985Y3601993D03*
G01X7754970Y4610982D03*
G01X8161969Y4615982D03*
G01X7965970Y4536982D03*
G01X5686995Y4062014D03*
G01X8719983Y3248994D03*
G01X8640983Y3248994D03*
G01X9527981Y3288993D03*
G01X10168980Y3273993D03*
G01X10169976Y2868361D03*
G01X10308979Y2999994D03*
G01X9329981Y3417993D03*
G01X7102214Y5340725D03*
G01X7144986Y5562989D03*
G01X6984986Y5938988D03*
G01X8399998Y3269000D03*
G01X7742985Y3424993D03*
G01X7869984Y3424993D03*
G01X7621985Y3577993D03*
G01X6691987Y3649993D03*
G01X7760984Y4911990D03*
G01X8337145Y4483009D03*
G01X10675979Y2811994D03*
G01X10464979Y2883994D03*
G01X8841851Y-1006820D03*
G01X8853093Y-344033D03*
G01X5035990Y-145882D03*
G01X5246990Y-1156880D03*
G01X5128990Y-811998D03*
G01X5128990Y-611999D03*
G01X6940321Y355235D03*
G01X7702321Y355235D03*
G01X7187821Y917493D03*
G01X6772822Y917493D03*
G01X6767002Y780998D03*
G01X7437820Y1022721D03*
G01X7593985Y1023998D03*
G01X7859984Y911998D03*
G01X5509824Y-909503D03*
G01X5513824Y-470504D03*
G01X5972823Y-447504D03*
G01X6122823Y-447504D03*
G01X6197823Y-62505D03*
G01X7701820Y-229504D03*
G01X5726824Y-195505D03*
G01X5832988Y-182000D03*
G01X6270987Y-182000D03*
G01X7512820Y-1177503D03*
G01X7652820Y-1007503D03*
G01X7332820Y-1177503D03*
G01X6576822Y-909503D03*
G01X6939821Y-229504D03*
G01X6365822Y-195505D03*
G01X6579822Y-471504D03*
G01X7073001Y-878998D03*
G01X6812002Y-879998D03*
G01X7372831Y-1007503D03*
G01X6935002Y-606999D03*
G01X13314974Y502999D03*
G01X13054975Y501999D03*
G01X14002972Y839998D03*
G01X14250008Y1500001D03*
G01X7993984Y2503995D03*
G01X8250983Y2503995D03*
G01X11565977Y2740995D03*
G01X11821976Y2740995D03*
G01X11060978Y2740995D03*
G01X7486985Y2503995D03*
G01X7241986Y2213996D03*
G01X7145649Y2067992D03*
G01X10730006Y2280001D03*
G01X10826978Y2396995D03*
G01X10516529Y1577443D03*
G01X10021980Y1039998D03*
G01X8924982Y1265997D03*
G01X9350005Y720000D03*
G01X8795982Y1132998D03*
G01X9344981Y1656997D03*
G01X9772980Y1144998D03*
G01X9318971Y4574833D03*
G01X9206471Y4575833D03*
G01X9093971Y4578833D03*
G01X8896982Y852998D03*
G01X9759980Y1701997D03*
G01X10290006Y590000D03*
G01X9580981Y-132000D03*
G01X10930006Y660000D03*
G01X10822740Y386506D03*
G01X9951452Y-315711D03*
G01X9682383Y-219335D03*
G01X10159980Y486999D03*
G01X10028980Y370999D03*
G01X10085980Y425999D03*
G01X7614985Y2095996D03*
G01X7742985Y2095996D03*
G01X7870984Y2095996D03*
G01X7773984Y5544989D03*
G01X6569987Y4039995D03*
G01X6508928Y3978936D03*
G01X11215978Y2301995D03*
G01X11311977Y2301995D03*
G01X11438977Y2301995D03*
G01X10092980Y842998D03*
G01X10082980Y717999D03*
G01X9965980Y297999D03*
G01X8672983Y-1013000D03*
G01X8688034Y-355813D03*
G01X9863808Y1976641D03*
G01X8959982Y-733001D03*
G01X8979982Y-71999D03*
G01X9464981Y816998D03*
G01X9934980Y-748999D03*
G01X9890980Y926998D03*
G01X9370981Y54000D03*
G01X9437981Y-25000D03*
G01X13123974Y-167000D03*
G01X9412981Y2690995D03*
G01X9036982Y447999D03*
G01X9081982Y373999D03*
G01X9393981Y605999D03*
G01X9164982Y312999D03*
G01X9463981Y541999D03*
G01X9240005Y250000D03*
G01X9532981Y468999D03*
G01X12769974Y1137998D03*
G01X12769974Y883998D03*
G01X12335975Y867998D03*
G01X12506975Y-468999D03*
G01X12518975Y-596999D03*
G01X12504975Y-850998D03*
G01X12445975Y1175998D03*
G01X9291981Y142000D03*
G01X9324034Y2688995D03*
G01X9235087Y2688995D03*
G01X14362971Y4755991D03*
G01X14812971Y4755991D03*
G01X14512971Y4755991D03*
G01X14662971Y4755991D03*
G01X14056971Y4125992D03*
G01X14662971Y4605991D03*
G01X14212971Y4755991D03*
G01X14812971Y4605991D03*
G01X14056971Y3975992D03*
G01X14212971Y4605991D03*
G01X14362971Y4605991D03*
G01X14512971Y4605991D03*
G01X14056971Y3825992D03*
G01X14212971Y4455991D03*
G01X14362971Y4455991D03*
G01X14512971Y4455991D03*
G01X14662971Y4455991D03*
G01X14812971Y4455991D03*
G01X14180972Y5541989D03*
G01X14030972Y5541989D03*
G01X14304971Y5538989D03*
G01X14304971Y5688989D03*
G01X14030972Y5691989D03*
G01X14030972Y5841989D03*
G01X14304971Y5838989D03*
G01X14180972Y5841989D03*
G01X14180972Y5691989D03*
G01X4162857Y4063068D03*
G01X4312857Y4063068D03*
G01X4462857Y4063068D03*
G01X4612857Y4063068D03*
G01X4762857Y4063068D03*
G01X4762857Y4213068D03*
G01X4762857Y4363068D03*
G01X4612857Y4363068D03*
G01X4612857Y4213068D03*
G01X4462857Y4213068D03*
G01X4462857Y4363068D03*
G01X4312857Y4363068D03*
G01X4312857Y4213068D03*
G01X4162857Y4213068D03*
G01X4162857Y4363068D03*
G01X4812990Y5658989D03*
G01X4962990Y5658989D03*
G01X4962990Y5508989D03*
G01X4812990Y5508989D03*
G01X4662990Y5508989D03*
G01X4662990Y5658989D03*
G01X9470160Y1788720D03*
G01X10394324Y1706714D03*
G01X10112980Y1607997D03*
G01X9933980Y1112998D03*
G01X9871980Y1176998D03*
G01X10179980Y1799996D03*
G01X10352979Y1857996D03*
G01X10150000Y4700000D03*
G01X10153546Y4810059D03*
G01X10160980Y4924990D03*
G01X10293979Y4840990D03*
G01X10290922Y4947435D03*
G01X10300979Y5082990D03*
G01X10438979Y4978990D03*
G01X10436962Y5093476D03*
G01X10434979Y5200990D03*
G01X10572979Y5103990D03*
G01X10574364Y5200990D03*
G01X10575979Y5289989D03*
G01X10685979Y5113990D03*
G01X10686979Y5286989D03*
G01X9689246Y5635173D03*
G01X11180978Y5886988D03*
G01X11024978Y5886988D03*
G01X10868978Y5886988D03*
G01X10858978Y25000D03*
G01X10776978Y-182000D03*
G01X10617979Y558999D03*
G01X11870976Y1696997D03*
G01X11738835Y1100024D03*
G01X12151375Y1099996D03*
G01X12164976Y1449997D03*
G01X11657977Y1470997D03*
G01X11484977Y702999D03*
G01X11695977Y384999D03*
G01X11586977Y785998D03*
G01X11717977Y651999D03*
G54D23*
G01X12615975Y4027992D03*
G01X12618975Y4127992D03*
G01X12615975Y4227992D03*
G01X12615975Y4326460D03*
G01X12615975Y4427991D03*
G01X12615975Y4527991D03*
G01X12615975Y4627991D03*
G01X12615975Y4727991D03*
G01X12615975Y4827990D03*
G01X12615975Y4927990D03*
G01X12715975Y4027979D03*
G01X12718974Y4127979D03*
G01X12715975Y4227979D03*
G01X12715975Y4326447D03*
G01X12715975Y4427978D03*
G01X12715975Y4527978D03*
G01X12715975Y4627978D03*
G01X12715975Y4727978D03*
G01X12715975Y4827978D03*
G01X12715975Y4927977D03*
G01X12815974Y4027979D03*
G01X12818974Y4127979D03*
G01X12815974Y4227979D03*
G01X12815974Y4326447D03*
G01X12815974Y4427978D03*
G01X12815974Y4527978D03*
G01X12815974Y4627978D03*
G01X12815974Y4727978D03*
G01X12815974Y4827978D03*
G01X12815974Y4927977D03*
G01X12915961Y4027979D03*
G01X12918961Y4127979D03*
G01X12915961Y4227979D03*
G01X12915961Y4326447D03*
G01X12915961Y4427978D03*
G01X12915961Y4527978D03*
G01X12915961Y4627978D03*
G01X12915961Y4727978D03*
G01X12915961Y4827978D03*
G01X12915961Y4927977D03*
G01X6278998Y4897999D03*
G01X6275998Y4798000D03*
G01X6278998Y4698000D03*
G01X6278998Y4599532D03*
G01X6278998Y4498000D03*
G01X6278998Y4398000D03*
G01X6278998Y4298001D03*
G01X6278998Y4198001D03*
G01X6278998Y4098001D03*
G01X6278998Y3998001D03*
G01X6178998Y4898012D03*
G01X6175999Y4798012D03*
G01X6178998Y4698012D03*
G01X6178998Y4599544D03*
G01X6178998Y4498013D03*
G01X6178998Y4398013D03*
G01X6178998Y4298013D03*
G01X6178998Y4198013D03*
G01X6178998Y4098014D03*
G01X6178998Y3998014D03*
G01X6078999Y4898012D03*
G01X6075999Y4798012D03*
G01X6078999Y4698012D03*
G01X6078999Y4599544D03*
G01X6078999Y4498013D03*
G01X6078999Y4398013D03*
G01X6078999Y4298013D03*
G01X6078999Y4198013D03*
G01X6078999Y4098014D03*
G01X6078999Y3998014D03*
G01X5979011Y4898012D03*
G01X5976012Y4798012D03*
G01X5979011Y4698012D03*
G01X5979011Y4599544D03*
G01X5979011Y4498013D03*
G01X5979011Y4398013D03*
G01X5979011Y4298013D03*
G01X5979011Y4198013D03*
G01X5979011Y4098014D03*
G01X5979011Y3998014D03*
G04 Via End*

M02*
